<?xml version="1.0" standalone="no"?>
<!DOCTYPE svg PUBLIC "-//W3C//DTD SVG 20010904//EN"
 "http://www.w3.org/TR/2001/REC-SVG-20010904/DTD/svg10.dtd">
<svg version="1.0" xmlns="http://www.w3.org/2000/svg"
 width="1024.000000pt" height="1024.000000pt" viewBox="0 0 1024.000000 1024.000000"
 preserveAspectRatio="xMidYMid meet">
<metadata>
Created by potrace 1.16, written by Peter Selinger 2001-2019
</metadata>
<g transform="translate(0.000000,1024.000000) scale(0.100000,-0.100000)"
fill="#000000" stroke="none">
<path d="M5580 9010 c-75 -10 -124 -29 -302 -112 -269 -124 -315 -136 -415
-102 -26 9 -129 54 -228 99 -244 113 -262 118 -387 113 -126 -4 -178 -26 -258
-108 -94 -96 -115 -146 -355 -852 -109 -318 -132 -378 -152 -387 -12 -6 -122
-33 -243 -61 -342 -80 -468 -125 -543 -198 -54 -52 -67 -82 -67 -152 0 -81 19
-118 94 -186 102 -93 326 -190 609 -264 61 -16 113 -34 117 -40 4 -7 10 -64
13 -128 13 -262 126 -569 291 -796 41 -57 126 -151 192 -216 180 -174 333
-268 554 -340 376 -123 794 -97 1132 70 362 179 676 563 794 969 33 113 64
297 64 377 0 76 -15 66 180 120 262 72 455 161 556 257 76 70 99 121 92 202
-4 52 -9 60 -57 109 -29 30 -77 65 -106 80 -69 34 -274 93 -510 146 -104 24
-198 50 -207 58 -9 8 -52 118 -94 246 -126 381 -273 786 -312 861 -49 94 -142
186 -213 213 -65 24 -164 33 -239 22z"/>
<path d="M7095 5411 c-17 -4 -100 -50 -185 -103 -351 -216 -771 -444 -965
-524 -172 -71 -381 -135 -516 -159 -57 -10 -98 -41 -119 -88 -39 -89 -36 -629
6 -972 64 -533 244 -1000 537 -1395 98 -132 375 -406 517 -512 202 -150 430
-293 627 -392 83 -41 100 -46 161 -46 64 0 77 4 177 55 932 478 1450 1136
1619 2057 51 273 85 816 68 1071 -12 192 -14 194 -187 236 -251 62 -481 149
-770 294 -178 89 -477 252 -603 329 -237 145 -293 168 -367 149z m269 -1020
c106 -28 245 -96 336 -164 115 -87 190 -180 265 -332 93 -190 114 -295 115
-575 0 -203 -12 -266 -65 -347 -36 -54 -75 -85 -187 -146 -108 -60 -112 -70
-119 -277 -3 -96 -9 -182 -13 -191 -21 -46 -124 -65 -167 -30 -22 17 -25 29
-29 121 -5 99 -7 103 -35 126 -62 49 -154 42 -192 -15 -19 -28 -23 -47 -23
-115 0 -45 -4 -86 -8 -92 -31 -44 -113 -58 -153 -25 -22 17 -25 29 -29 120 -5
87 -8 103 -29 125 -28 30 -104 43 -155 26 -52 -17 -66 -46 -66 -139 0 -90 -11
-124 -47 -140 -65 -30 -145 3 -162 66 -6 21 -11 105 -11 187 0 143 -1 150 -24
181 -14 18 -59 50 -103 73 -129 67 -157 92 -200 179 l-38 77 0 251 c0 166 5
270 13 310 88 405 367 687 755 761 96 18 269 11 371 -15z"/>
<path d="M6688 3660 c-116 -35 -196 -163 -186 -294 7 -77 34 -132 93 -184 112
-99 319 -79 405 39 61 85 77 217 37 296 -30 57 -104 121 -159 138 -55 16 -146
19 -190 5z"/>
<path d="M7428 3658 c-52 -14 -126 -83 -154 -143 -27 -56 -32 -150 -13 -220
16 -58 109 -147 172 -164 62 -18 172 -9 225 18 52 26 107 91 126 149 19 53 21
140 5 196 -15 54 -110 148 -165 164 -48 14 -143 14 -196 0z"/>
<path d="M7093 3138 c-25 -29 -137 -186 -152 -215 -20 -38 -14 -87 15 -114 25
-24 28 -24 192 -22 155 3 167 4 189 25 17 16 23 32 23 66 0 38 -9 56 -62 130
-89 126 -116 152 -153 152 -20 0 -39 -8 -52 -22z"/>
<path d="M5929 5271 c-15 -5 -51 -27 -80 -49 -177 -131 -449 -245 -687 -287
-112 -19 -291 -19 -412 0 -195 32 -448 136 -643 264 -159 105 -151 106 -557
-79 -275 -125 -638 -306 -807 -402 -377 -213 -589 -463 -711 -838 -64 -196
-120 -438 -246 -1071 -129 -645 -137 -722 -87 -834 28 -65 103 -141 166 -171
l50 -24 2018 0 c1937 0 2017 1 2017 18 0 10 -16 34 -36 53 -19 18 -68 77 -108
129 -326 424 -544 942 -626 1488 -38 255 -45 362 -45 722 0 340 1 357 21 400
47 99 124 150 294 194 304 79 513 155 710 258 126 66 152 85 148 106 -4 17
-255 119 -311 126 -23 3 -54 1 -68 -3z"/>
</g>
</svg>
