<?xml version="1.0" standalone="no"?>
<!DOCTYPE svg PUBLIC "-//W3C//DTD SVG 20010904//EN"
 "http://www.w3.org/TR/2001/REC-SVG-20010904/DTD/svg10.dtd">
<svg version="1.0" xmlns="http://www.w3.org/2000/svg"
 width="1024.000000pt" height="1024.000000pt" viewBox="0 0 1024.000000 1024.000000"
 preserveAspectRatio="xMidYMid meet">

<g transform="translate(0.000000,1024.000000) scale(0.100000,-0.100000)"
fill="#000000" stroke="none">
<path d="M3260 8325 c-329 -89 -545 -414 -500 -748 15 -110 42 -187 96 -273
64 -104 150 -184 254 -237 119 -61 211 -81 353 -75 183 8 313 64 442 193 114
114 172 235 197 408 34 241 -107 525 -325 655 -106 64 -187 85 -332 89 -93 2
-146 -1 -185 -12z"/>
<path d="M2622 6750 c-109 -29 -187 -74 -272 -160 -93 -92 -125 -151 -215
-400 -156 -425 -286 -870 -391 -1330 -52 -224 -44 -302 38 -396 17 -19 54 -47
82 -62 42 -21 65 -26 131 -26 94 -1 140 18 199 84 48 53 48 55 111 317 77 318
173 673 260 960 42 136 78 256 81 266 3 9 10 17 16 17 8 0 9 -327 5 -1137 -6
-1182 -14 -1670 -43 -2633 -5 -177 -4 -201 14 -258 28 -86 77 -143 160 -184
59 -30 76 -33 152 -33 73 0 93 4 142 28 71 35 150 119 173 184 18 51 28 382
55 1713 13 676 14 695 46 726 32 33 93 33 131 0 l28 -24 2 -194 c5 -400 35
-1850 42 -2023 7 -179 7 -180 41 -243 35 -66 74 -103 150 -143 39 -21 59 -24
145 -24 89 0 106 3 150 27 53 28 123 96 148 144 34 66 36 102 27 378 -33 957
-43 1578 -43 2556 -1 682 3 1042 10 1053 10 20 -8 39 268 -272 107 -120 158
-160 236 -186 68 -23 103 -18 324 48 105 31 216 64 248 72 45 13 82 36 164
101 58 46 110 84 115 84 4 0 8 4 8 9 0 19 -107 56 -488 166 -107 30 -205 63
-218 72 -13 8 -82 84 -151 167 -490 582 -481 575 -718 575 -167 1 -172 -2
-380 -210 -94 -93 -175 -169 -179 -169 -5 0 -86 76 -181 170 -115 113 -186
176 -215 189 -63 29 -300 29 -408 1z"/>
<path d="M6064 6334 c-12 -3 -30 -14 -40 -25 -16 -18 -17 -27 -6 -108 14 -105
15 -250 2 -306 -11 -50 -25 -60 -138 -95 -154 -48 -232 -98 -384 -246 -49 -48
-106 -93 -131 -104 -24 -11 -129 -42 -233 -70 -305 -81 -325 -90 -343 -142
-14 -40 -14 -248 0 -323 13 -72 41 -130 72 -147 16 -9 75 -13 209 -13 174 0
188 -1 215 -21 39 -29 42 -68 7 -91 -23 -15 -56 -19 -197 -23 -154 -5 -170 -7
-183 -25 -17 -23 -13 -48 22 -121 56 -120 158 -194 264 -194 135 0 565 134
769 240 74 38 101 47 114 34 13 -14 -91 -118 -176 -176 -33 -22 -150 -85 -262
-139 -252 -123 -295 -158 -360 -293 -53 -111 -72 -185 -87 -339 -14 -141 -1
-292 36 -440 40 -157 138 -344 192 -369 36 -17 56 8 94 115 154 434 407 660
935 830 61 20 192 61 292 91 478 146 717 281 797 451 52 110 70 225 70 455 0
222 -12 323 -59 485 -73 253 -203 465 -402 656 -206 197 -486 350 -780 425
-87 22 -264 38 -309 28z m860 -650 c170 -66 228 -263 136 -462 -37 -79 -125
-169 -201 -205 -59 -28 -169 -47 -169 -30 0 5 36 40 79 76 127 106 180 198
181 309 0 80 -11 112 -53 156 -46 48 -106 62 -262 62 -96 0 -136 4 -150 14
-17 12 -17 16 -5 31 18 21 79 53 127 65 63 15 261 5 317 -16z m-1156 -377 c32
-34 46 -87 28 -105 -22 -22 -101 -33 -171 -23 -107 15 -111 30 -26 90 97 67
134 76 169 38z"/>
<path d="M7405 3909 c-47 -31 -178 -96 -250 -124 -80 -30 -316 -99 -525 -155
-491 -130 -706 -237 -846 -424 -85 -113 -120 -203 -261 -686 -36 -124 -70
-229 -75 -235 -5 -5 -55 -13 -111 -16 -161 -9 -240 -56 -299 -178 -28 -57 -32
-77 -33 -146 0 -90 16 -128 61 -145 15 -6 200 -10 439 -10 l415 0 29 28 c19
17 64 101 124 232 52 113 143 304 202 425 76 158 112 244 126 305 44 186 103
296 219 403 73 68 181 128 260 146 68 16 175 13 218 -5 l37 -15 -25 -14 c-14
-7 -65 -27 -115 -44 -126 -45 -210 -94 -283 -167 -137 -137 -182 -333 -118
-513 23 -64 97 -170 160 -230 31 -28 56 -56 56 -61 0 -4 -75 -10 -167 -12
-177 -4 -192 -7 -266 -62 -71 -52 -122 -183 -115 -298 3 -62 7 -73 31 -94 l28
-24 732 0 c806 0 815 1 927 61 74 39 151 114 191 185 17 30 34 54 37 54 4 0
18 -16 31 -35 36 -54 41 -157 10 -220 -32 -64 -116 -139 -185 -164 -124 -47
-112 -46 -849 -43 -768 4 -779 3 -887 -55 -117 -64 -216 -227 -233 -380 -5
-43 -3 -63 8 -77 14 -20 16 -19 108 3 58 15 145 26 229 31 166 9 208 26 296
117 l61 63 543 0 c440 0 562 3 648 16 188 28 318 90 437 209 96 95 136 170
161 299 34 170 -11 296 -152 431 -89 85 -104 113 -104 195 0 84 -30 300 -55
399 -46 183 -129 372 -227 515 -137 202 -378 431 -535 510 -63 31 -70 32 -108
5z"/>
</g>
</svg>
