<?xml version="1.0" standalone="no"?>
<!DOCTYPE svg PUBLIC "-//W3C//DTD SVG 20010904//EN"
 "http://www.w3.org/TR/2001/REC-SVG-20010904/DTD/svg10.dtd">
<svg version="1.0" xmlns="http://www.w3.org/2000/svg"
 width="1024.000000pt" height="1024.000000pt" viewBox="0 0 1024.000000 1024.000000"
 preserveAspectRatio="xMidYMid meet">
<metadata>
Created by potrace 1.16, written by Peter Selinger 2001-2019
</metadata>
<g transform="translate(0.000000,1024.000000) scale(0.100000,-0.100000)"
fill="#000000" stroke="none">
<path d="M4825 8389 c-545 -29 -1066 -156 -1531 -374 -542 -253 -1055 -721
-1279 -1165 -57 -114 -75 -178 -75 -273 l0 -80 44 -43 43 -44 74 0 c98 0 140
21 309 152 252 196 424 305 685 435 498 250 1043 391 1678 434 187 13 656 7
837 -11 564 -54 1077 -198 1547 -433 252 -127 458 -256 671 -423 147 -115 225
-154 310 -154 54 0 71 4 97 24 96 73 86 247 -27 456 -246 460 -808 930 -1423
1190 -572 243 -1240 348 -1960 309z"/>
<path d="M4860 6654 c-30 -3 -119 -13 -197 -24 -708 -100 -1376 -416 -1968
-930 -225 -196 -556 -560 -652 -718 -30 -50 -34 -63 -30 -110 5 -64 44 -125
205 -318 253 -302 601 -614 927 -831 509 -339 1092 -543 1693 -594 207 -17
615 -7 797 21 488 73 963 254 1405 533 129 82 371 263 510 384 223 194 556
556 655 713 34 53 42 115 21 163 -25 61 -183 259 -331 417 -688 731 -1480
1160 -2356 1276 -111 14 -563 26 -679 18z m527 -639 c460 -112 800 -476 879
-943 24 -137 15 -344 -19 -475 -51 -193 -156 -376 -297 -517 -199 -199 -478
-327 -759 -346 -179 -12 -391 31 -570 116 -321 154 -533 417 -628 779 -21 81
-26 120 -27 246 -2 269 55 464 196 674 167 246 460 433 758 481 41 6 82 13 90
15 47 12 283 -7 377 -30z m-1866 -514 c-156 -404 -147 -881 24 -1303 13 -32
-18 -20 -106 38 -201 135 -370 277 -556 465 -67 68 -133 139 -148 157 l-27 32
76 84 c114 126 368 350 538 474 114 84 223 152 226 142 2 -5 -10 -45 -27 -89z
m3344 -14 c208 -145 503 -403 626 -549 l40 -47 -105 -114 c-122 -132 -319
-312 -450 -412 -138 -104 -265 -189 -273 -182 -3 4 8 49 25 99 78 229 103 375
103 593 1 234 -31 423 -107 632 l-34 95 37 -23 c21 -13 83 -54 138 -92z"/>
<path d="M4911 5630 c-265 -74 -487 -318 -541 -598 -8 -39 -11 -108 -8 -185 9
-216 76 -357 242 -514 102 -97 225 -164 346 -189 92 -19 286 -14 375 10 256
69 473 295 540 561 23 91 23 256 1 350 -58 245 -269 472 -516 555 -97 33 -335
38 -439 10z"/>
</g>
</svg>
