<?xml version="1.0" standalone="no"?>
<!DOCTYPE svg PUBLIC "-//W3C//DTD SVG 20010904//EN"
 "http://www.w3.org/TR/2001/REC-SVG-20010904/DTD/svg10.dtd">
<svg version="1.0" xmlns="http://www.w3.org/2000/svg"
 width="1024.000000pt" height="1024.000000pt" viewBox="0 0 1024.000000 1024.000000"
 preserveAspectRatio="xMidYMid meet">
<metadata>
Created by potrace 1.16, written by Peter Selinger 2001-2019
</metadata>
<g transform="translate(0.000000,1024.000000) scale(0.100000,-0.100000)"
fill="#000000" stroke="none">
<path d="M4840 8574 c-19 -2 -80 -9 -135 -15 -354 -38 -703 -134 -1043 -288
-232 -104 -496 -268 -707 -438 -134 -107 -357 -323 -469 -452 -463 -536 -741
-1201 -806 -1921 -13 -146 -13 -500 0 -650 75 -867 449 -1624 1110 -2245 171
-160 332 -283 547 -413 403 -247 799 -384 1318 -458 172 -24 643 -30 832 -10
682 72 1251 304 1774 723 402 323 718 711 944 1162 198 396 297 730 351 1181
24 198 24 600 0 800 -78 664 -341 1274 -773 1796 -157 191 -441 454 -653 604
-464 330 -975 529 -1562 606 -117 15 -639 28 -728 18z m570 -700 c1085 -125
1975 -848 2325 -1889 164 -488 186 -948 68 -1475 -118 -532 -434 -1066 -843
-1424 -438 -384 -924 -606 -1510 -687 -140 -20 -524 -17 -680 4 -617 86 -1178
362 -1592 785 -357 365 -592 771 -717 1242 -106 401 -122 826 -45 1240 69 378
260 804 504 1127 396 524 1015 906 1690 1044 240 49 552 62 800 33z"/>
<path d="M6310 6703 c-60 -21 -174 -137 -1525 -1545 -109 -115 -203 -208 -208
-208 -5 0 -144 133 -310 295 -352 346 -358 350 -502 350 -140 -1 -161 -14
-401 -257 -234 -237 -247 -258 -248 -408 0 -150 -34 -109 667 -807 497 -495
632 -624 672 -642 67 -31 182 -39 256 -17 72 20 111 52 271 221 209 221 701
737 1088 1140 881 917 1006 1051 1030 1099 31 65 38 164 16 242 -16 57 -23 65
-243 282 -124 122 -244 232 -267 244 -55 29 -228 36 -296 11z"/>
</g>
</svg>
