<?xml version="1.0" standalone="no"?>
<!DOCTYPE svg PUBLIC "-//W3C//DTD SVG 20010904//EN"
 "http://www.w3.org/TR/2001/REC-SVG-20010904/DTD/svg10.dtd">
<svg version="1.0" xmlns="http://www.w3.org/2000/svg"
 width="1024.000000pt" height="1024.000000pt" viewBox="0 0 1024.000000 1024.000000"
 preserveAspectRatio="xMidYMid meet">
<metadata>
Created by potrace 1.16, written by Peter Selinger 2001-2019
</metadata>
<g transform="translate(0.000000,1024.000000) scale(0.100000,-0.100000)"
fill="#000000" stroke="none">
<path d="M5043 8981 c-16 -15 -62 -86 -103 -157 -41 -71 -127 -219 -192 -328
-116 -197 -118 -201 -118 -261 0 -56 3 -64 33 -93 18 -17 47 -37 65 -43 42
-14 51 -33 43 -89 l-6 -45 -120 -7 c-533 -32 -680 -58 -1370 -238 -413 -108
-444 -113 -595 -107 -140 5 -237 29 -381 94 -68 30 -99 38 -162 41 l-78 4 -44
-45 c-99 -104 -84 -234 41 -346 66 -59 189 -123 278 -146 33 -8 63 -20 67 -26
3 -6 -36 -102 -88 -212 -52 -111 -105 -224 -118 -252 -13 -27 -41 -88 -63
-135 -95 -203 -114 -245 -202 -435 -50 -110 -114 -246 -140 -302 l-49 -103
-160 0 -160 0 -21 -27 c-20 -25 -22 -36 -17 -108 19 -307 348 -696 719 -849
195 -81 355 -111 588 -110 144 0 195 4 290 23 284 58 502 172 696 366 116 116
174 194 237 320 87 173 112 318 64 363 -22 21 -33 22 -178 22 -85 0 -159 4
-165 8 -6 4 -36 63 -66 132 -48 107 -314 689 -524 1143 -35 76 -64 143 -64
148 0 5 12 9 28 9 15 0 149 20 297 45 696 117 953 131 1207 66 91 -24 254 -97
262 -118 4 -8 2 -184 -4 -391 -15 -534 -49 -1663 -56 -1879 -8 -211 -20 -194
111 -166 119 24 414 24 568 -1 64 -11 120 -17 123 -14 3 3 0 169 -5 369 -6
200 -15 562 -21 804 -6 242 -15 628 -21 858 -5 229 -8 421 -5 426 9 14 148 78
218 100 239 73 519 65 1083 -30 99 -17 249 -41 332 -53 84 -12 156 -25 159
-29 4 -4 -24 -73 -61 -154 -37 -82 -180 -395 -317 -698 -138 -302 -255 -556
-260 -562 -8 -10 -54 -13 -168 -13 l-159 0 -20 -26 c-27 -35 -28 -106 -1 -202
68 -246 256 -484 514 -653 297 -194 706 -264 1079 -185 206 44 355 108 512
221 277 198 485 516 485 739 0 52 -4 66 -23 84 -22 21 -33 22 -173 22 -82 0
-154 4 -161 8 -6 4 -35 59 -64 122 -57 129 -91 200 -396 854 -118 252 -211
462 -206 466 4 4 34 12 66 19 86 19 208 84 279 149 131 122 144 254 34 348
-40 35 -42 36 -116 32 -62 -3 -91 -11 -167 -46 -176 -80 -358 -108 -534 -83
-46 7 -268 59 -494 116 -659 166 -841 197 -1308 221 -135 7 -147 13 -147 78 0
48 10 60 56 70 17 4 46 23 65 42 31 33 34 40 33 97 0 62 -1 63 -184 377 -101
173 -199 332 -219 353 -31 33 -41 37 -82 37 -39 0 -53 -5 -76 -29z m-2245
-2156 c61 -132 171 -373 245 -535 74 -162 160 -348 190 -412 30 -64 53 -119
49 -122 -9 -10 -1166 -6 -1181 3 -15 10 -11 20 196 471 55 118 164 356 243
528 79 171 144 311 145 310 2 -2 52 -111 113 -243z m4957 -200 c89 -192 215
-464 279 -602 65 -139 114 -257 111 -263 -8 -13 -1154 -14 -1174 -1 -15 10 -4
35 279 656 50 110 137 302 193 427 l102 227 24 -47 c13 -26 97 -204 186 -397z"/>
<path d="M5862 4744 c-30 -21 -52 -66 -52 -106 0 -18 11 -63 24 -100 l24 -67
-37 15 c-270 116 -416 147 -691 148 -220 0 -323 -16 -515 -79 -148 -48 -196
-71 -348 -162 -119 -73 -190 -131 -212 -174 -8 -15 -15 -51 -15 -78 0 -44 4
-55 38 -91 38 -39 41 -40 105 -40 65 0 66 1 176 75 251 169 484 245 755 245
135 0 258 -18 380 -57 97 -30 229 -83 223 -90 -3 -2 -34 -11 -68 -19 -128 -29
-149 -49 -149 -139 0 -49 4 -59 34 -93 34 -36 36 -37 103 -36 72 0 492 98 559
130 19 9 41 29 49 45 30 58 25 79 -110 433 -67 179 -69 182 -108 224 -28 29
-37 32 -87 32 -34 0 -64 -6 -78 -16z"/>
<path d="M3336 4160 c-404 -51 -713 -328 -818 -733 -28 -106 -31 -344 -6 -452
63 -277 255 -523 504 -648 145 -72 259 -97 445 -97 196 0 329 34 484 124 86
50 285 246 333 328 190 323 189 731 -4 1031 -62 97 -240 272 -329 325 -169
100 -406 147 -609 122z"/>
<path d="M6638 4155 c-296 -47 -530 -217 -687 -498 -164 -296 -142 -733 52
-1009 134 -192 329 -333 537 -390 75 -20 107 -23 265 -22 166 0 187 2 268 27
95 29 185 71 257 120 61 41 194 170 241 234 37 49 103 174 127 238 42 113 63
288 52 437 -18 230 -91 397 -249 562 -175 182 -357 277 -586 305 -112 14 -166
13 -277 -4z"/>
<path d="M4545 2501 c-449 -104 -469 -110 -501 -145 -41 -43 -51 -106 -29
-181 8 -30 49 -142 90 -247 63 -162 82 -199 115 -233 37 -37 43 -39 101 -40
56 0 63 2 90 33 37 41 39 99 7 189 -12 35 -19 65 -16 68 2 3 43 -12 89 -34
202 -94 393 -135 639 -135 185 0 292 16 449 66 176 55 438 194 545 289 50 43
66 78 66 143 0 43 -5 60 -25 84 -63 75 -134 70 -277 -21 -202 -126 -354 -191
-536 -229 -239 -49 -528 -15 -759 89 l-58 26 89 28 c56 18 100 39 118 56 25
24 28 34 28 88 0 54 -3 64 -27 87 -38 36 -98 42 -198 19z"/>
</g>
</svg>
