<?xml version="1.0" standalone="no"?>
<!DOCTYPE svg PUBLIC "-//W3C//DTD SVG 20010904//EN"
 "http://www.w3.org/TR/2001/REC-SVG-20010904/DTD/svg10.dtd">
<svg version="1.0" xmlns="http://www.w3.org/2000/svg"
 width="1028.000000pt" height="1028.000000pt" viewBox="0 0 1028.000000 1028.000000"
 preserveAspectRatio="xMidYMid meet">
<metadata>
Created by potrace 1.16, written by Peter Selinger 2001-2019
</metadata>
<g transform="translate(0.000000,1028.000000) scale(0.100000,-0.100000)"
fill="#000000" stroke="none">
<path d="M5098 9571 c-41 -9 -242 -204 -351 -338 -201 -250 -281 -424 -294
-645 l-6 -97 -83 -25 c-45 -15 -127 -49 -182 -76 -55 -28 -103 -50 -106 -50
-4 0 -48 30 -99 66 -119 86 -215 134 -357 178 -128 39 -216 56 -303 56 -144 0
-185 -90 -142 -315 17 -87 118 -713 161 -997 l27 -177 -27 -31 c-68 -82 -143
-242 -181 -386 -34 -132 -52 -267 -70 -534 -26 -386 -77 -779 -107 -817 -6 -7
-4 -13 4 -16 9 -4 8 -9 -6 -18 -15 -9 -16 -13 -5 -20 11 -7 10 -11 -6 -24 -11
-9 -14 -14 -7 -10 6 3 12 2 12 -3 0 -6 -8 -13 -17 -16 -15 -6 -15 -8 -3 -16
13 -8 12 -12 -5 -24 -11 -9 -16 -16 -11 -16 5 0 2 -8 -5 -17 -10 -11 -10 -14
-1 -9 18 11 15 -5 -5 -21 -10 -8 -12 -12 -5 -8 6 3 12 1 12 -4 0 -6 -6 -11
-12 -11 -26 -1 -136 -329 -125 -371 3 -11 1 -19 -4 -19 -5 0 -9 -64 -9 -143 0
-112 5 -161 21 -228 41 -162 114 -292 234 -413 99 -100 225 -182 342 -222 52
-18 90 -34 86 -37 -4 -2 -39 -15 -78 -27 -213 -69 -486 -258 -647 -447 -155
-182 -250 -368 -312 -615 -56 -219 -186 -834 -307 -1448 -36 -183 -38 -293 -4
-330 45 -49 3 -47 1160 -54 2297 -13 4713 -19 4768 -12 116 15 159 92 137 243
-16 106 -186 950 -254 1260 -99 451 -127 545 -202 682 -57 104 -169 248 -274
351 -95 93 -210 185 -226 181 -4 -2 -11 4 -16 13 -5 9 -13 14 -19 11 -5 -4 -9
-2 -9 3 0 11 -76 59 -101 64 -8 2 -18 8 -24 14 -10 13 -170 78 -217 89 -16 4
-28 10 -28 14 0 3 33 17 74 29 143 45 330 181 427 310 62 84 142 245 166 337
25 100 25 351 -1 452 -10 40 -21 71 -25 69 -3 -2 -6 13 -5 35 0 21 -3 39 -8
39 -5 0 -6 4 -3 10 3 6 2 10 -4 10 -6 0 -8 7 -5 15 4 8 1 15 -6 15 -6 0 -8 5
-4 12 5 8 2 9 -11 4 -16 -6 -16 -4 -4 10 11 14 11 18 1 21 -6 3 -9 10 -5 16 4
7 0 8 -13 3 -15 -6 -17 -5 -6 5 17 18 15 32 -3 25 -8 -3 -15 -1 -15 3 0 5 5
11 10 13 6 2 1 31 -13 73 -13 39 -32 105 -42 148 -10 42 -22 77 -27 77 -4 0
-5 6 -2 14 3 8 -1 48 -9 88 -9 40 -19 102 -23 136 -4 43 -10 59 -16 50 -5 -8
-6 -4 -2 14 3 14 -1 104 -10 200 -8 95 -18 232 -21 303 -18 379 -95 659 -231
841 -24 32 -44 68 -44 80 0 39 126 829 176 1103 13 74 24 165 24 203 0 67 -1
70 -41 111 l-40 42 -107 -1 c-83 0 -128 -6 -204 -27 -195 -53 -351 -129 -469
-228 l-51 -43 -50 28 c-57 32 -223 101 -266 111 -47 10 -58 32 -70 145 -25
240 -120 433 -340 692 -31 37 -61 68 -66 68 -5 0 -2 -8 5 -17 11 -15 10 -14
-9 1 -23 20 -30 32 -12 21 16 -10 12 21 -5 35 -14 12 -20 7 -15 -15 1 -5 -8
-1 -19 9 -24 22 -29 35 -6 16 8 -7 15 -8 15 -3 0 15 -136 144 -156 148 -10 2
-19 4 -19 5 0 6 -85 7 -107 1z m149 -510 c202 -235 291 -458 253 -631 -11 -47
-50 -151 -60 -160 -3 -3 -13 -16 -22 -30 -8 -14 -45 -59 -82 -100 -36 -41 -71
-90 -77 -108 -15 -44 -7 -116 16 -167 24 -50 124 -152 190 -194 70 -44 174
-75 237 -69 29 3 44 2 36 -3 -8 -6 1 -9 27 -9 23 0 35 4 28 8 -7 4 17 6 54 4
43 -3 64 -1 59 6 -3 6 1 8 12 5 24 -6 119 31 178 69 73 48 143 122 211 224 96
143 183 219 338 296 107 54 115 55 115 20 0 -53 -143 -928 -153 -938 -3 -4
-43 1 -89 10 -127 25 -335 53 -513 71 -327 31 -1245 59 -1245 38 0 -5 -53 -7
-117 -5 -65 1 -113 -1 -107 -5 7 -5 -43 -9 -110 -10 -121 -1 -339 -27 -556
-64 -190 -34 -186 -33 -194 -13 -4 9 -20 105 -36 213 -17 108 -41 264 -55 346
-42 258 -59 385 -52 391 11 11 209 -93 278 -146 64 -48 159 -160 193 -227 19
-39 124 -153 140 -153 6 0 17 -9 23 -19 15 -23 119 -74 183 -89 88 -21 211
-24 294 -8 44 9 82 19 85 23 3 5 15 10 25 11 33 6 118 66 177 124 71 70 109
144 109 213 0 57 -20 93 -111 200 -61 72 -112 168 -134 256 -38 142 11 307
145 498 29 40 72 93 97 116 24 23 45 52 46 63 1 15 5 18 13 11 15 -12 38 15
30 37 -11 30 54 -26 121 -105z m-685 -949 c14 -26 42 -67 62 -92 l35 -45 -32
-17 c-18 -9 -50 -20 -72 -23 -22 -4 -49 -9 -60 -11 -17 -5 -18 -3 -5 6 12 9 8
11 -17 7 -18 -2 -31 -1 -28 1 3 3 -12 13 -33 22 -43 20 -98 64 -112 91 -9 16
-2 23 52 50 73 37 159 68 173 62 6 -2 22 -25 37 -51z m1271 24 c34 -13 86 -35
115 -50 59 -30 59 -41 3 -89 -17 -14 -27 -29 -23 -33 4 -5 3 -6 -1 -2 -5 3
-28 -1 -50 -11 -64 -27 -109 -33 -168 -19 -30 6 -57 11 -61 10 -20 -5 -11 30
18 69 19 24 48 68 65 97 17 28 32 52 35 52 2 0 32 -11 67 -24z m-913 -1057 c0
-5 5 -7 10 -4 16 10 12 -5 -16 -54 -50 -86 -127 -180 -192 -233 -62 -50 -259
-158 -289 -158 -8 0 -12 -4 -9 -9 3 -4 -6 -6 -21 -3 -17 3 -24 1 -19 -6 3 -6
1 -14 -5 -18 -8 -4 -9 -3 -5 4 9 14 11 14 -55 2 -132 -25 -206 -31 -392 -31
l-197 1 -39 -35 c-45 -41 -56 -76 -66 -208 -8 -96 -2 -87 -84 -118 -18 -7 -55
-30 -82 -51 -26 -21 -50 -34 -52 -30 -6 9 10 206 23 302 23 154 93 378 144
456 20 29 92 52 296 93 280 56 498 82 845 100 83 4 162 9 178 10 15 0 27 -4
27 -10z m618 -7 c55 2 98 -1 95 -5 -3 -5 29 -7 70 -5 41 2 73 0 71 -3 -2 -3
43 -9 99 -13 256 -18 717 -100 799 -142 51 -26 130 -213 168 -398 18 -84 30
-178 44 -349 5 -65 10 -65 -66 -1 -21 17 -56 37 -78 44 -62 20 -70 36 -81 149
-11 121 -17 136 -64 181 l-36 35 -185 -3 c-271 -5 -432 20 -608 95 -178 76
-305 192 -387 354 -16 32 -29 61 -29 63 0 9 65 11 77 3 6 -5 57 -7 111 -5z
m-376 -339 c48 -79 145 -181 241 -254 119 -90 346 -193 379 -173 7 5 8 3 3 -6
-6 -10 -1 -12 18 -8 15 3 24 2 22 -2 -11 -17 295 -60 430 -60 90 0 95 -7 95
-138 0 -210 -44 -601 -69 -610 -4 -1 -6 -14 -3 -27 2 -14 0 -25 -7 -25 -5 0
-8 -7 -5 -15 4 -8 2 -15 -4 -15 -6 0 -8 -9 -5 -20 3 -13 0 -20 -8 -20 -10 0
-10 -3 -1 -12 17 -17 15 -28 -4 -21 -14 5 -15 3 -5 -15 10 -18 9 -22 -5 -22
-13 0 -14 -3 -4 -15 10 -12 9 -15 -5 -15 -14 0 -15 -3 -5 -15 11 -13 10 -14
-5 -9 -12 5 -16 4 -11 -4 3 -6 2 -14 -4 -17 -8 -5 -7 -11 1 -21 7 -9 8 -14 3
-13 -21 4 -28 -2 -14 -11 13 -8 12 -10 -3 -10 -10 0 -16 -4 -13 -9 4 -5 3 -11
-1 -13 -5 -1 -24 -34 -43 -73 -96 -194 -264 -390 -420 -491 -76 -49 -203 -111
-242 -118 -13 -3 -24 -5 -25 -5 -2 -1 -5 0 -6 2 -2 1 -11 -4 -21 -12 -9 -8
-19 -11 -23 -8 -3 4 -12 2 -19 -3 -6 -6 -18 -9 -25 -8 -8 2 -13 -2 -12 -9 2
-9 -4 -10 -20 -4 -14 5 -29 4 -42 -5 -14 -9 -33 -10 -62 -5 -32 6 -45 4 -59
-8 -9 -9 -14 -11 -11 -5 4 7 -5 14 -24 18 -47 9 -81 7 -74 -4 3 -5 -7 -3 -22
4 -15 8 -76 25 -134 39 -237 56 -467 209 -603 400 -45 64 -169 277 -160 277 6
0 -25 73 -34 80 -4 3 -7 10 -7 15 -1 6 -18 62 -38 125 -42 128 -83 317 -93
428 -4 40 -10 69 -13 64 -3 -6 -6 79 -5 187 1 109 4 202 7 208 3 5 66 13 139
16 325 15 547 78 746 210 103 69 222 181 275 259 18 26 34 48 37 48 3 0 13
-12 22 -27z m-1530 -1030 c4 -59 12 -132 18 -162 15 -81 14 -88 -10 -66 -25
22 -80 131 -80 157 0 11 -4 17 -9 14 -12 -8 16 119 35 155 24 48 36 23 46 -98z
m3072 70 c34 -70 37 -141 6 -209 -23 -53 -69 -118 -77 -110 -9 9 -8 94 1 89 4
-3 7 13 4 35 -2 22 -1 39 3 36 7 -4 19 106 19 174 0 23 4 42 8 42 4 0 20 -26
36 -57z m-3358 -470 c-4 -4 85 -88 149 -142 32 -27 159 -71 205 -71 15 0 35
-3 44 -6 9 -3 43 -61 75 -128 109 -221 249 -405 419 -550 45 -38 84 -78 88
-89 3 -11 3 -80 -1 -154 -6 -121 -10 -141 -36 -189 -15 -30 -27 -58 -26 -62 1
-4 -5 -7 -13 -7 -8 0 -42 -14 -75 -32 -34 -17 -90 -36 -125 -43 -36 -6 -72
-13 -81 -14 -30 -6 -42 11 -50 70 -13 97 -77 143 -202 144 -88 0 -198 30 -292
78 -263 136 -387 438 -292 711 14 41 24 78 21 83 -3 4 2 8 12 8 14 0 14 3 4
15 -11 13 -10 14 6 8 17 -6 17 -5 5 10 -12 15 -11 17 3 17 10 0 14 5 11 10 -3
6 -1 10 6 10 8 0 8 4 -1 15 -10 12 -9 15 4 15 10 0 14 5 11 10 -3 6 -1 10 6
10 8 0 8 4 -1 15 -10 12 -9 15 4 15 13 0 16 5 11 20 -4 13 -2 20 7 20 10 0 10
2 -1 9 -11 7 -10 11 5 20 11 6 15 11 10 11 -5 0 -4 6 1 13 6 6 21 51 33 100
22 84 24 87 42 71 10 -10 16 -19 14 -21z m3647 4 c4 3 7 1 7 -5 0 -6 -5 -14
-10 -17 -6 -4 -8 -11 -4 -16 3 -5 10 -7 15 -4 5 4 9 2 9 -4 0 -5 -6 -11 -12
-14 -10 -3 -10 -7 1 -20 7 -10 10 -17 5 -17 -4 0 -3 -5 3 -11 6 -6 9 -17 7
-24 -3 -7 -1 -16 5 -19 6 -4 8 -12 5 -19 -5 -13 29 -117 95 -289 23 -59 44
-134 48 -167 3 -33 9 -59 12 -56 13 7 -21 -159 -44 -222 -83 -218 -298 -361
-576 -382 -130 -10 -156 -20 -189 -74 -14 -22 -20 -50 -20 -91 l0 -58 -55 7
c-80 10 -201 49 -246 80 -25 18 -49 48 -66 84 -26 52 -28 65 -31 206 l-3 150
86 73 c146 125 275 291 393 509 37 69 47 94 38 104 -8 9 -8 10 1 5 16 -9 36
27 22 41 -6 6 -5 10 3 11 98 12 159 26 215 48 78 31 136 70 127 86 -5 7 -2 8
5 3 15 -9 63 34 57 51 -3 7 3 18 12 26 15 12 16 11 4 -7 -8 -11 1 -3 20 17 27
31 35 35 44 23 6 -8 14 -12 17 -8z m-2254 -1168 c42 -11 83 -23 91 -26 8 -3
22 -5 32 -4 9 1 19 -3 22 -8 4 -6 13 -8 21 -4 8 3 23 2 33 -2 17 -8 55 -7 119
0 18 2 35 0 38 -5 7 -11 235 -11 235 -1 0 3 26 7 58 8 31 1 95 13 142 27 46
14 86 23 88 21 2 -2 8 -39 13 -82 5 -43 16 -109 25 -148 16 -75 63 -171 82
-168 6 2 9 -3 6 -10 -5 -13 47 -70 63 -68 4 1 8 -4 8 -10 0 -6 17 -26 38 -43
l39 -32 -69 -56 c-174 -141 -653 -478 -680 -478 -3 0 -76 -42 -162 -93 -536
-322 -1050 -553 -1521 -687 -204 -57 -621 -145 -747 -157 l-63 -6 0 29 c0 41
85 402 116 499 94 283 309 527 594 671 52 27 97 51 100 54 3 3 10 6 15 6 6 1
62 19 125 39 129 42 247 66 429 90 253 33 318 60 442 185 119 119 169 242 169
412 0 46 4 68 12 68 6 0 46 -9 87 -21z m1677 -684 c154 -26 254 -55 254 -74 0
-27 -281 -470 -407 -642 -35 -48 -63 -91 -63 -97 0 -5 -7 -12 -15 -16 -8 -3
-15 -10 -15 -15 0 -5 -11 -22 -24 -37 -14 -16 -73 -90 -132 -164 -237 -298
-557 -654 -777 -865 -142 -137 -379 -354 -431 -394 l-39 -31 -1143 0 c-628 0
-1149 3 -1158 6 -23 9 -21 27 33 295 62 305 67 330 78 339 4 4 73 15 153 24
478 57 1078 222 1570 433 180 78 530 251 530 263 0 6 5 8 10 5 6 -3 10 -1 10
5 0 6 4 9 8 6 5 -3 47 17 95 43 47 27 89 46 93 42 4 -3 4 3 0 13 -5 15 -4 17
8 7 11 -9 15 -8 20 4 3 9 11 13 18 9 8 -5 9 -2 4 11 -5 15 -4 16 9 5 12 -10
15 -10 15 0 0 8 3 11 6 7 3 -3 43 17 88 45 318 198 674 457 926 673 150 128
137 124 276 100z m790 -370 c128 -126 241 -306 298 -479 28 -84 85 -305 127
-498 53 -244 199 -963 199 -983 0 -13 -131 -15 -1259 -15 -900 0 -1262 3
-1267 11 -3 6 56 73 137 155 79 79 143 149 142 154 -2 5 4 7 11 4 8 -3 19 3
26 15 6 12 8 21 4 21 -4 0 1 9 11 20 10 11 21 17 25 15 14 -8 362 377 571 630
191 232 457 615 659 952 l104 172 60 -42 c33 -23 101 -82 152 -132z"/>
<path d="M4240 6037 c-48 -24 -70 -72 -70 -155 0 -74 1 -76 39 -112 56 -54
126 -72 303 -77 119 -4 162 -2 225 13 43 10 81 18 85 18 21 2 73 54 89 89 49
109 -3 223 -106 235 -46 5 -198 -25 -190 -38 6 -10 -147 8 -205 24 -67 19
-136 20 -170 3z"/>
<path d="M5460 6037 c0 -5 -6 -7 -14 -4 -18 7 -60 -39 -75 -82 -15 -46 -14
-105 3 -145 21 -50 73 -84 166 -107 71 -18 103 -20 234 -16 177 5 251 25 307
83 32 33 34 40 37 114 4 77 4 79 -30 115 -45 49 -90 54 -228 25 -107 -22 -191
-21 -250 2 -36 15 -150 26 -150 15z"/>
<path d="M4844 5230 c-33 -13 -82 -77 -90 -115 -13 -69 1 -115 49 -162 24 -24
52 -46 63 -48 10 -2 20 -4 22 -5 1 -2 7 -4 12 -5 6 -1 13 -4 18 -5 4 -1 17 -1
29 -1 11 1 24 -2 27 -8 4 -7 15 -7 30 -1 16 6 29 5 41 -4 29 -21 237 -12 319
14 72 23 144 77 151 115 2 11 4 22 5 25 1 3 2 29 2 59 0 89 -54 143 -143 143
-30 0 -57 -1 -61 -3 -5 -1 -12 -3 -18 -4 -5 -1 -12 -4 -15 -5 -3 -1 -11 -3
-17 -4 -7 -1 -12 -8 -10 -14 2 -10 -3 -10 -18 -2 -16 8 -22 8 -25 -3 -7 -16
-93 -5 -197 24 -69 20 -139 24 -174 9z"/>
<path d="M1901 7432 c-29 -31 -48 -71 -95 -205 -32 -91 -64 -174 -71 -183 -10
-15 -42 -18 -222 -24 -230 -8 -248 -12 -280 -74 -22 -40 -23 -157 -3 -182 16
-19 224 -194 277 -233 18 -13 34 -29 37 -36 2 -6 -14 -81 -35 -166 -50 -196
-58 -282 -30 -326 30 -48 73 -66 143 -61 55 4 67 10 222 116 l164 111 143 -98
c179 -122 197 -131 256 -131 91 0 153 59 153 146 0 22 -20 123 -45 223 -25
100 -45 184 -45 186 0 2 67 58 149 124 82 66 157 133 167 148 25 38 25 147 0
185 -37 57 -55 61 -266 68 -110 4 -205 12 -216 18 -15 8 -36 55 -74 164 -84
245 -103 268 -221 268 -71 0 -73 -1 -108 -38z"/>
<path d="M8216 7460 c-34 -10 -73 -45 -91 -80 -7 -14 -38 -97 -69 -185 -31
-88 -61 -164 -65 -168 -5 -5 -102 -13 -216 -17 l-207 -8 -30 -29 c-48 -45 -61
-79 -56 -145 5 -71 12 -79 193 -225 72 -58 133 -110 137 -117 3 -6 -11 -83
-33 -171 -22 -88 -43 -190 -46 -227 l-6 -68 46 -46 47 -46 67 4 c68 5 69 5
230 115 l161 110 168 -111 c162 -107 169 -110 231 -114 62 -4 63 -4 103 36 39
38 40 42 40 106 0 45 -13 119 -41 229 -23 89 -42 167 -43 173 0 6 64 65 144
130 79 65 153 135 164 154 28 47 27 140 -1 177 -47 64 -57 67 -266 74 -112 3
-201 10 -213 17 -15 8 -37 58 -80 179 -63 178 -91 224 -151 249 -36 16 -74 17
-117 4z"/>
<path d="M1736 5199 c-14 -11 -23 -25 -20 -31 4 -6 3 -8 -2 -5 -6 3 -15 3 -21
-1 -14 -9 -105 -261 -98 -273 4 -5 1 -9 -4 -9 -6 0 -11 -6 -11 -14 0 -29 -30
-35 -219 -43 l-193 -9 -34 -37 c-31 -33 -34 -42 -34 -96 0 -33 5 -72 12 -86
14 -30 222 -206 240 -203 6 2 12 -3 13 -10 0 -8 8 -19 18 -26 9 -7 17 -19 17
-27 0 -8 -18 -85 -40 -172 -22 -87 -40 -179 -40 -204 0 -39 5 -50 39 -84 37
-37 42 -39 103 -39 70 0 66 -2 262 135 69 48 103 66 112 59 7 -5 62 -42 121
-83 59 -41 119 -83 132 -93 31 -24 146 -25 179 -2 63 44 67 131 16 318 -52
187 -51 171 -10 209 19 19 38 32 40 30 2 -3 12 7 21 21 10 14 21 23 26 21 4
-3 14 3 21 15 7 11 17 20 23 20 13 0 100 83 122 116 10 16 16 48 17 85 1 58
-1 62 -40 98 l-40 38 -183 7 c-101 4 -189 10 -196 12 -16 6 -37 53 -30 65 4 5
1 9 -5 9 -7 0 -9 7 -6 16 4 12 2 15 -9 10 -13 -4 -14 -2 -5 14 8 15 8 20 -1
20 -6 0 -8 7 -5 16 4 12 2 15 -9 10 -13 -5 -14 -2 -4 16 10 19 9 20 -7 14 -15
-6 -17 -5 -6 5 18 19 15 32 -5 24 -15 -5 -16 -4 -5 6 17 18 15 32 -4 25 -15
-6 -15 -4 -3 10 11 14 11 18 1 21 -6 3 -9 10 -5 16 4 7 0 8 -12 3 -14 -5 -16
-4 -6 8 9 11 4 20 -24 45 -33 28 -42 31 -104 31 -54 0 -74 -4 -95 -21z"/>
<path d="M8341 5175 c-37 -33 -87 -136 -76 -155 3 -5 2 -10 -3 -12 -4 -1 -21
-39 -36 -83 -16 -44 -33 -85 -38 -91 -5 -7 -77 -14 -196 -19 -128 -5 -196 -12
-214 -21 -41 -21 -58 -63 -58 -141 0 -68 1 -69 43 -109 23 -23 90 -80 150
-128 59 -48 107 -91 107 -94 0 -4 -18 -74 -40 -157 -71 -269 -48 -345 108
-345 65 0 50 -8 282 154 l70 49 150 -101 c150 -102 150 -102 211 -102 58 0 64
2 100 39 36 36 39 43 39 97 0 35 -16 119 -41 216 -40 154 -41 160 -23 173 69
50 251 205 268 228 17 22 21 42 20 94 0 64 -2 67 -41 103 l-40 38 -185 7
c-102 4 -191 11 -197 15 -7 4 -14 16 -16 26 -2 10 -4 20 -5 22 -2 1 -4 7 -5
12 -1 6 -4 12 -5 15 -1 3 -4 10 -5 15 -1 6 -4 12 -5 15 -1 3 -4 10 -5 15 -1 6
-4 12 -5 15 -1 3 -3 8 -4 13 -1 4 -5 13 -9 20 -5 6 -5 12 -1 12 3 0 1 7 -6 15
-7 8 -9 15 -6 15 4 0 1 10 -6 23 -7 12 -13 24 -13 27 -11 43 -23 65 -51 90
-32 27 -41 30 -104 30 -66 0 -72 -2 -109 -35z"/>
</g>
</svg>
