<?xml version="1.0" standalone="no"?>
<!DOCTYPE svg PUBLIC "-//W3C//DTD SVG 20010904//EN"
 "http://www.w3.org/TR/2001/REC-SVG-20010904/DTD/svg10.dtd">
<svg version="1.0" xmlns="http://www.w3.org/2000/svg"
 width="1024.000000pt" height="1024.000000pt" viewBox="0 0 1024.000000 1024.000000"
 preserveAspectRatio="xMidYMid meet">
<metadata>
Created by potrace 1.16, written by Peter Selinger 2001-2019
</metadata>
<g transform="translate(0.000000,1024.000000) scale(0.100000,-0.100000)"
fill="#000000" stroke="none">
<path d="M4914 8532 c-36 -7 -64 -43 -64 -82 0 -20 14 -125 30 -235 17 -109
29 -204 26 -210 -3 -9 -57 -1 -198 26 -234 46 -270 48 -303 14 l-25 -24 0
-234 c0 -231 0 -234 23 -255 33 -31 118 -29 302 8 173 34 191 36 199 14 3 -9
6 -85 6 -170 l0 -154 -65 -64 c-121 -119 -170 -275 -131 -423 18 -71 45 -119
104 -182 l40 -43 -77 -127 c-43 -69 -222 -360 -398 -646 -175 -286 -341 -557
-369 -602 -27 -45 -53 -82 -59 -82 -5 0 -64 84 -130 187 -138 216 -504 776
-720 1100 l-148 223 41 40 c73 70 87 107 87 234 0 128 -8 150 -90 231 -61 61
-122 84 -225 84 -103 0 -164 -23 -225 -84 -73 -73 -98 -142 -93 -256 3 -55 11
-97 22 -119 26 -49 95 -120 138 -142 21 -11 38 -26 38 -34 0 -13 -50 -281
-284 -1528 -53 -279 -96 -526 -96 -550 0 -39 42 -299 135 -832 20 -115 51
-295 69 -398 26 -150 37 -192 54 -209 l21 -21 153 16 c740 81 1462 117 2362
117 924 0 1722 -38 2473 -117 187 -20 196 -17 206 60 2 23 43 269 91 547 47
278 97 572 111 654 14 82 25 171 25 196 0 26 -22 163 -49 306 -27 142 -91 475
-141 739 -92 488 -186 972 -195 1012 -4 17 3 25 39 43 51 24 105 80 138 142
20 37 23 58 23 148 0 96 -2 109 -27 152 -40 67 -111 125 -176 144 -70 21 -201
15 -254 -10 -96 -46 -165 -154 -175 -274 -8 -99 14 -165 77 -233 28 -30 48
-59 46 -66 -3 -7 -42 -67 -87 -135 -46 -68 -144 -217 -219 -333 -75 -115 -255
-392 -399 -615 -145 -223 -269 -411 -275 -418 -10 -11 -72 83 -318 485 -168
274 -371 605 -452 736 l-146 237 35 36 c108 108 150 265 110 418 -19 73 -58
130 -140 203 l-65 58 0 167 c0 92 3 169 8 172 4 2 81 -11 172 -29 91 -18 193
-36 228 -39 62 -7 63 -7 97 27 l35 35 0 224 0 224 -28 27 c-38 36 -68 35 -282
-8 -219 -44 -220 -44 -220 -2 0 17 14 108 30 202 37 208 38 244 8 272 -22 20
-37 21 -229 25 -113 1 -214 1 -225 0z m230 -3378 c14 -6 72 -76 428 -525 206
-259 194 -239 166 -275 -65 -84 -231 -263 -239 -258 -5 3 -67 76 -139 163
-149 183 -189 221 -229 221 -66 0 -87 -17 -232 -198 -79 -98 -147 -180 -153
-184 -14 -9 -25 1 -136 127 -111 126 -135 160 -125 175 30 49 590 737 608 747
26 14 30 15 51 7z m-1565 -583 c9 -6 62 -63 117 -127 54 -65 145 -172 202
-238 57 -67 109 -133 117 -147 13 -24 12 -29 -13 -61 -64 -83 -405 -464 -422
-472 -41 -19 -69 5 -270 231 -206 232 -239 278 -224 306 17 28 425 506 437
510 20 9 37 8 56 -2z m3172 -28 c40 -42 189 -221 322 -386 48 -59 87 -115 87
-125 0 -10 -76 -103 -168 -207 -297 -335 -291 -330 -351 -280 -31 27 -410 456
-424 481 -5 10 -2 25 8 40 17 26 355 421 411 481 42 44 71 43 115 -4z"/>
<path d="M4530 2834 c-52 -2 -232 -8 -400 -14 -474 -17 -829 -40 -1285 -86
-284 -28 -287 -29 -311 -55 -16 -18 -17 -50 -17 -380 1 -329 3 -362 19 -380
17 -19 59 -19 2584 -19 l2568 0 18 28 c18 25 19 55 22 378 3 327 1 352 -16
373 -15 20 -36 25 -167 41 -359 44 -863 80 -1415 100 -275 10 -1421 20 -1600
14z"/>
</g>
</svg>
