<?xml version="1.0" standalone="no"?>
<!DOCTYPE svg PUBLIC "-//W3C//DTD SVG 20010904//EN"
 "http://www.w3.org/TR/2001/REC-SVG-20010904/DTD/svg10.dtd">
<svg version="1.0" xmlns="http://www.w3.org/2000/svg"
 width="1024.000000pt" height="1024.000000pt" viewBox="0 0 1024.000000 1024.000000"
 preserveAspectRatio="xMidYMid meet">
<metadata>
Created by potrace 1.16, written by Peter Selinger 2001-2019
</metadata>
<g transform="translate(0.000000,1024.000000) scale(0.100000,-0.100000)"
fill="#000000" stroke="none">
<path d="M3685 8774 c-188 -27 -259 -40 -370 -69 -398 -101 -756 -310 -1074
-624 -368 -365 -588 -797 -678 -1336 -26 -156 -26 -620 0 -780 54 -335 166
-627 346 -902 255 -390 587 -691 966 -879 348 -171 669 -244 1074 -244 279 0
498 33 731 110 193 63 311 122 566 280 24 15 27 13 159 -121 l135 -135 -30
-55 c-16 -31 -36 -88 -45 -128 -14 -65 -13 -79 1 -144 9 -40 26 -90 39 -112
13 -23 450 -469 972 -992 919 -922 950 -952 1023 -987 99 -48 165 -65 280 -72
256 -17 446 56 636 244 265 261 341 646 188 945 -35 67 -104 139 -988 1024
-797 799 -958 956 -1000 975 -43 19 -68 22 -156 23 -91 0 -113 -4 -168 -27
l-64 -26 -139 130 c-76 72 -139 134 -139 138 0 5 25 48 56 96 161 256 269 542
326 864 19 106 22 163 22 375 1 160 -4 284 -13 345 -63 444 -229 836 -499
1175 -80 101 -302 324 -407 409 -311 252 -639 401 -1055 477 -95 17 -163 21
-390 24 -151 2 -288 1 -305 -1z m427 -464 c240 -23 441 -80 663 -189 77 -38
187 -101 245 -139 436 -291 734 -763 837 -1327 14 -77 18 -149 18 -310 0 -191
-3 -222 -28 -340 -117 -545 -432 -1008 -876 -1283 -667 -415 -1457 -400 -2116
41 -271 180 -468 410 -631 732 -276 548 -285 1161 -25 1710 347 730 1126 1179
1913 1105z"/>
<path d="M3310 7864 c-21 -19 -42 -45 -45 -57 -4 -12 -11 -31 -16 -43 -8 -15
-6 -36 6 -77 17 -59 37 -81 128 -144 25 -18 62 -54 81 -80 l35 -48 -55 -49
c-95 -84 -185 -229 -200 -325 -5 -30 -20 -52 -64 -96 l-57 -56 -34 28 c-19 15
-85 74 -147 130 -62 57 -124 106 -138 109 -14 4 -52 4 -85 2 -55 -4 -64 -8
-102 -46 -40 -40 -42 -45 -45 -115 -4 -71 -3 -73 35 -119 21 -25 105 -106 187
-179 l148 -134 -6 -41 c-3 -22 -10 -52 -15 -67 l-11 -27 -145 0 c-167 0 -197
-8 -241 -66 -27 -34 -29 -44 -29 -121 l0 -83 42 -42 c37 -36 50 -43 100 -49
32 -4 101 -5 153 -2 52 2 101 0 108 -5 7 -5 20 -37 30 -73 l17 -64 -168 -149
c-93 -81 -177 -163 -188 -180 -14 -22 -19 -50 -19 -100 l0 -69 49 -48 c47 -48
50 -49 109 -49 33 0 71 4 84 9 13 6 83 64 157 130 74 67 140 121 145 120 6 0
33 -27 60 -60 57 -71 165 -166 249 -220 155 -100 406 -157 609 -138 289 27
484 124 678 337 41 45 76 82 79 82 3 0 60 -50 126 -111 155 -143 164 -149 245
-149 76 0 112 19 147 77 32 53 32 146 1 190 -13 17 -94 95 -180 172 -86 78
-160 146 -164 152 -7 12 14 117 27 134 4 6 68 10 159 9 l151 -1 49 44 c57 51
74 94 68 169 -4 45 -11 61 -39 91 -53 55 -81 63 -232 63 -91 0 -139 4 -150 13
-10 6 -24 36 -31 64 l-14 52 161 147 c193 175 217 206 217 281 0 64 -16 99
-65 142 -32 28 -42 31 -101 31 -36 0 -75 -5 -87 -11 -12 -7 -81 -65 -154 -130
-72 -66 -138 -119 -146 -119 -20 0 -117 105 -117 128 0 34 -37 127 -73 182
-39 62 -81 108 -146 163 l-44 37 26 37 c14 21 61 65 104 98 104 81 123 110
123 193 0 64 0 65 -50 115 l-49 49 -79 -3 c-74 -4 -84 -7 -138 -44 -82 -56
-182 -161 -223 -235 l-36 -63 -130 0 -130 0 -24 44 c-39 70 -97 139 -172 206
-91 79 -121 93 -203 93 -62 0 -69 -2 -106 -36z m790 -960 c80 -19 190 -71 260
-123 199 -149 304 -457 241 -703 -63 -246 -243 -428 -491 -495 -85 -23 -233
-22 -320 1 -178 48 -329 164 -408 313 -69 131 -83 183 -89 318 -5 103 -2 132
16 198 55 200 168 340 348 432 138 70 303 92 443 59z"/>
<path d="M3638 6634 c-52 -22 -98 -93 -98 -151 0 -63 20 -100 89 -168 34 -33
61 -63 61 -67 0 -5 -27 -35 -60 -67 -69 -67 -90 -110 -90 -179 0 -38 6 -57 31
-90 40 -55 75 -72 146 -72 68 0 96 15 168 88 28 28 54 52 59 52 5 0 39 -29 76
-64 74 -72 94 -80 180 -74 49 3 66 10 91 34 42 39 59 82 59 148 0 49 -4 59
-44 107 -24 30 -58 64 -75 77 -17 12 -31 28 -31 34 0 7 29 40 65 75 74 72 85
93 85 165 0 114 -104 187 -223 157 -34 -8 -59 -26 -108 -75 -35 -35 -68 -64
-73 -64 -5 0 -41 31 -81 68 -55 53 -81 70 -111 75 -56 10 -74 8 -116 -9z"/>
</g>
</svg>
