<?xml version="1.0" standalone="no"?>
<!DOCTYPE svg PUBLIC "-//W3C//DTD SVG 20010904//EN"
 "http://www.w3.org/TR/2001/REC-SVG-20010904/DTD/svg10.dtd">
<svg version="1.0" xmlns="http://www.w3.org/2000/svg"
 width="1024.000000pt" height="1024.000000pt" viewBox="0 0 1024.000000 1024.000000"
 preserveAspectRatio="xMidYMid meet">
<metadata>
Created by potrace 1.16, written by Peter Selinger 2001-2019
</metadata>
<g transform="translate(0.000000,1024.000000) scale(0.100000,-0.100000)"
fill="#000000" stroke="none">
<path d="M5020 9278 c-40 -21 -62 -49 -205 -261 -329 -489 -520 -770 -533
-783 -15 -15 -24 -11 -450 218 -224 121 -275 137 -369 117 -40 -8 -59 -19 -84
-46 -58 -67 -72 -137 -50 -264 6 -30 19 -117 31 -194 12 -77 32 -205 45 -285
13 -80 29 -179 35 -220 6 -41 14 -82 16 -91 3 -13 -23 -27 -118 -65 -167 -66
-523 -245 -688 -344 -348 -211 -625 -427 -900 -700 -380 -378 -701 -816 -956
-1305 -119 -228 -124 -277 -42 -438 430 -858 1078 -1580 1859 -2075 392 -248
857 -446 1314 -561 189 -48 239 -58 415 -85 280 -44 461 -57 785 -57 466 0
770 35 1180 137 448 112 902 303 1280 537 651 405 1162 900 1577 1528 184 280
380 639 392 721 10 64 -5 111 -76 253 -241 478 -518 867 -905 1272 -285 299
-681 602 -1093 838 -176 101 -610 305 -647 305 -6 0 -17 8 -25 18 -14 15 -10
57 53 447 70 437 77 512 58 562 -12 34 -55 80 -89 98 -40 21 -131 28 -180 15
-24 -6 -185 -86 -357 -177 -173 -91 -320 -162 -327 -160 -8 3 -96 129 -197
279 -276 413 -449 669 -483 712 -58 75 -176 99 -266 54z m312 -908 c102 -151
230 -344 287 -427 119 -179 162 -218 247 -229 94 -11 124 -1 342 114 l207 111
3 -34 c4 -40 -36 -326 -47 -337 -4 -4 -22 -3 -41 2 -156 45 -470 104 -665 124
-595 63 -1142 30 -1658 -99 -117 -30 -124 -30 -132 -6 -12 38 -52 336 -46 342
3 3 85 -36 181 -87 96 -51 199 -103 228 -114 97 -37 188 -22 258 42 38 35 218
292 554 791 59 88 75 106 85 95 7 -7 96 -137 197 -288z m-22 -1095 c454 -23
937 -185 1292 -435 594 -418 986 -1077 1067 -1795 26 -228 21 -415 -15 -645
-66 -417 -248 -831 -505 -1147 -153 -187 -368 -385 -557 -512 l-94 -63 -55 23
c-85 34 -232 126 -285 177 -56 54 -100 140 -124 244 l-17 77 142 137 c213 206
338 369 446 584 30 61 59 110 64 110 14 0 44 -41 65 -88 26 -58 16 -97 -51
-189 -98 -137 -124 -205 -109 -288 7 -36 53 -98 88 -116 37 -20 141 -29 213
-18 97 13 164 49 244 130 113 113 171 258 171 424 0 151 -40 253 -150 385 -39
47 -76 102 -82 122 -11 36 -8 44 45 150 30 62 65 142 76 178 65 199 39 461
-61 627 -36 59 -145 176 -220 236 -28 22 -48 46 -48 57 0 38 -72 236 -116 320
-141 268 -397 525 -674 677 -174 95 -402 172 -610 204 -41 6 -102 23 -135 38
-55 24 -72 26 -195 26 -125 0 -139 -2 -195 -27 -33 -15 -94 -32 -135 -38 -172
-27 -353 -81 -510 -152 -443 -202 -788 -604 -890 -1035 -8 -37 -19 -57 -38
-69 -88 -58 -200 -193 -246 -298 -50 -113 -60 -170 -60 -331 0 -181 11 -228
96 -404 72 -148 71 -159 -6 -251 -71 -83 -112 -152 -144 -242 -35 -100 -37
-267 -4 -374 41 -135 147 -259 270 -317 57 -27 80 -32 160 -35 123 -5 155 2
202 44 47 42 64 89 58 158 -5 63 -23 101 -93 194 -72 97 -98 154 -90 191 8 36
60 111 78 111 6 0 35 -44 62 -97 128 -247 293 -457 523 -666 70 -62 73 -68 67
-99 -45 -221 -127 -320 -361 -439 l-102 -52 -65 37 c-101 56 -278 199 -406
326 -364 363 -613 856 -696 1385 -25 156 -30 443 -11 613 60 541 248 969 610
1389 428 498 1064 809 1741 852 72 5 159 7 195 5 36 -2 117 -6 180 -9z m2480
-878 c498 -382 905 -871 1245 -1497 l56 -105 -26 -55 c-15 -30 -61 -113 -103
-185 -354 -611 -792 -1103 -1287 -1446 -108 -75 -125 -80 -85 -27 192 255 364
620 451 956 68 266 94 484 93 797 -1 267 -19 423 -75 653 -86 352 -257 727
-450 988 -21 29 -39 58 -39 64 0 12 117 -65 220 -143z m-5186 22 c-261 -395
-412 -808 -470 -1282 -20 -165 -15 -630 9 -773 77 -463 214 -823 451 -1182 50
-77 84 -137 76 -134 -46 17 -212 140 -385 288 -135 114 -420 401 -510 513
-225 278 -406 549 -565 845 l-53 100 36 70 c20 39 80 143 132 230 255 424 517
748 868 1074 150 139 460 378 477 367 4 -2 -26 -55 -66 -116z m2539 -177 c25
-62 110 -204 169 -283 232 -307 560 -538 958 -674 74 -25 138 -51 142 -58 13
-20 9 -305 -6 -417 -82 -607 -456 -1158 -956 -1410 -258 -130 -380 -130 -645
-1 -162 78 -269 154 -401 286 -376 373 -565 840 -577 1424 l-2 124 115 37
c333 109 610 280 846 522 131 134 220 258 287 400 23 48 45 88 48 88 4 0 14
-17 22 -38z m732 -87 c142 -91 297 -228 380 -337 37 -48 41 -56 22 -52 -37 7
-179 83 -282 152 -104 69 -313 267 -348 329 l-18 33 93 -43 c51 -24 120 -61
153 -82z m-1278 98 c0 -24 -199 -219 -300 -295 -95 -70 -272 -175 -319 -188
l-28 -9 21 32 c42 61 254 263 333 317 60 40 277 160 291 160 1 0 2 -7 2 -17z
m233 -3346 c102 -28 205 -41 330 -40 139 0 202 10 337 54 51 17 97 28 102 24
6 -3 20 -38 32 -78 37 -127 74 -190 165 -287 47 -49 112 -107 145 -129 l58
-39 -77 -20 c-113 -30 -260 -59 -402 -78 -179 -25 -585 -25 -775 -1 -178 23
-475 89 -475 105 0 4 19 19 43 34 63 40 173 151 217 219 39 60 92 193 104 261
l7 37 67 -23 c37 -13 92 -31 122 -39z"/>
<path d="M5036 5855 c-51 -18 -104 -69 -129 -125 -26 -58 -29 -189 -5 -235 23
-43 87 -101 130 -120 43 -17 126 -20 180 -5 55 16 120 84 141 149 36 112 17
203 -58 278 -72 71 -164 92 -259 58z"/>
<path d="M4137 5056 c-45 -41 -57 -71 -57 -143 0 -68 20 -104 87 -154 102 -78
208 -109 363 -109 148 0 263 36 355 109 63 51 85 95 85 170 0 63 -1 64 -49
112 -48 49 -49 49 -113 49 -54 0 -79 -6 -144 -37 -118 -55 -167 -55 -272 -4
-72 36 -92 41 -151 41 -62 0 -70 -2 -104 -34z"/>
<path d="M5344 5058 c-46 -41 -64 -82 -64 -149 0 -90 42 -145 155 -201 155
-78 411 -77 565 2 51 26 126 94 146 131 8 16 14 57 14 95 0 65 -1 67 -44 110
l-43 44 -74 0 c-66 0 -84 -4 -149 -37 -104 -51 -158 -51 -264 0 -65 31 -89 37
-142 37 -57 0 -67 -3 -100 -32z"/>
<path d="M4806 4079 c-47 -37 -69 -94 -64 -166 3 -52 9 -68 32 -92 48 -51 61
-52 364 -49 l282 3 37 38 c37 36 38 40 42 117 l3 80 -45 45 -44 45 -290 0
c-280 0 -291 -1 -317 -21z"/>
</g>
</svg>
