<?xml version="1.0" standalone="no"?>
<!DOCTYPE svg PUBLIC "-//W3C//DTD SVG 20010904//EN"
 "http://www.w3.org/TR/2001/REC-SVG-20010904/DTD/svg10.dtd">
<svg version="1.0" xmlns="http://www.w3.org/2000/svg"
 width="1024.000000pt" height="1024.000000pt" viewBox="0 0 1024.000000 1024.000000"
 preserveAspectRatio="xMidYMid meet">

<g transform="translate(0.000000,1024.000000) scale(0.100000,-0.100000)"
fill="#000000" stroke="none">
<path d="M5070 8854 c-19 -8 -48 -27 -63 -42 -61 -58 -57 118 -57 -2282 l0
-2200 -374 0 -375 0 -117 150 c-64 83 -125 155 -135 160 -11 6 -427 10 -1079
10 -1165 0 -1104 3 -1130 -60 -18 -43 0 -77 139 -265 61 -82 253 -346 427
-585 174 -239 324 -441 332 -448 10 -7 28 -10 44 -7 15 4 87 6 160 6 258 1
399 -45 765 -249 241 -134 492 -222 788 -277 667 -123 1389 -87 1912 97 156
54 266 106 453 214 168 97 273 142 420 182 87 24 112 26 295 27 224 0 285 -11
455 -82 47 -19 97 -40 113 -46 52 -21 46 -34 287 653 37 107 87 247 110 310
30 84 40 124 35 147 -12 68 110 63 -1582 63 l-1533 0 0 2193 0 2194 -23 44
c-33 62 -112 109 -182 109 -27 -1 -66 -8 -85 -16z"/>
<path d="M5553 8358 l-23 -24 0 -1661 c0 -1657 0 -1660 20 -1686 12 -15 38
-31 58 -37 24 -6 372 -10 1005 -10 1051 0 1010 -2 1055 55 41 52 34 82 -94
382 -111 262 -264 593 -386 837 -420 840 -799 1401 -1297 1918 -232 241 -289
279 -338 226z"/>
<path d="M4570 8299 c-32 -12 -445 -429 -614 -619 -474 -533 -855 -1057 -1182
-1626 -199 -346 -460 -891 -471 -984 -4 -37 -1 -50 18 -74 46 -59 -8 -56 1182
-56 602 0 1109 3 1126 6 18 4 45 20 62 36 l29 30 0 1614 c0 1089 -3 1622 -10
1635 -22 40 -87 58 -140 38z"/>
<path d="M2640 3015 c-114 -25 -192 -55 -330 -127 -168 -87 -261 -124 -370
-144 -137 -26 -271 -9 -446 57 -53 20 -65 21 -91 10 -17 -7 -35 -24 -42 -37
-7 -16 -11 -110 -11 -272 0 -309 -4 -298 130 -364 124 -61 191 -79 325 -85 82
-4 132 -1 195 12 107 22 138 34 346 137 228 113 307 133 506 126 194 -7 303
-43 502 -165 518 -318 826 -435 1341 -509 148 -21 635 -30 804 -15 504 47 889
178 1346 461 329 203 428 237 670 228 162 -6 217 -24 465 -147 97 -48 208 -96
246 -106 103 -26 253 -31 355 -11 89 18 252 90 285 127 17 19 19 44 22 295 l3
275 -30 29 c-16 17 -37 30 -45 30 -9 0 -57 -16 -106 -35 -227 -89 -391 -69
-693 85 -270 137 -386 168 -601 157 -193 -9 -333 -57 -573 -200 -215 -127
-403 -211 -616 -272 -531 -155 -1235 -177 -1857 -59 -346 66 -635 172 -928
342 -261 151 -358 183 -582 188 -110 3 -174 -1 -220 -11z"/>
<path d="M2671 2019 c-84 -16 -197 -59 -277 -105 -199 -114 -295 -152 -442
-175 -136 -21 -312 15 -448 92 -28 16 -62 29 -75 29 -30 0 -66 -31 -74 -63 -3
-12 -5 -171 -3 -352 3 -309 4 -332 23 -364 11 -19 33 -43 48 -55 l28 -21 3655
-3 c3111 -2 3659 0 3688 12 18 8 46 31 62 52 l29 37 3 336 c2 185 0 346 -3
358 -7 30 -44 63 -69 63 -12 0 -66 -22 -121 -50 -237 -118 -421 -100 -737 70
-200 109 -299 141 -449 148 -220 9 -312 -24 -664 -240 -182 -112 -425 -224
-645 -298 -578 -194 -1294 -212 -1918 -49 -321 83 -556 186 -912 396 -201 119
-279 155 -390 178 -77 16 -237 18 -309 4z"/>
</g>
</svg>
