<?xml version="1.0" standalone="no"?>
<!DOCTYPE svg PUBLIC "-//W3C//DTD SVG 20010904//EN"
 "http://www.w3.org/TR/2001/REC-SVG-20010904/DTD/svg10.dtd">
<svg version="1.0" xmlns="http://www.w3.org/2000/svg"
 width="1024.000000pt" height="1024.000000pt" viewBox="0 0 1024.000000 1024.000000"
 preserveAspectRatio="xMidYMid meet">
<metadata>
Created by potrace 1.16, written by Peter Selinger 2001-2019
</metadata>
<g transform="translate(0.000000,1024.000000) scale(0.100000,-0.100000)"
fill="#000000" stroke="none">
<path d="M1756 8677 c-59 -77 -134 -325 -156 -519 -20 -168 -8 -472 24 -625
60 -284 176 -523 357 -740 45 -54 63 -81 51 -78 -54 10 -297 143 -481 263
-148 97 -167 86 -158 -92 3 -61 13 -149 21 -196 33 -182 124 -415 217 -556 90
-135 245 -293 390 -397 76 -54 270 -157 296 -157 11 0 14 -3 7 -10 -12 -12
-178 0 -441 32 -202 24 -213 23 -213 -37 0 -106 274 -442 520 -639 496 -395
1198 -655 1865 -692 61 -3 121 -10 135 -16 34 -14 217 -212 249 -270 l26 -47
-29 -56 c-39 -76 -161 -239 -267 -360 -138 -155 -266 -265 -457 -390 -57 -37
-108 -78 -114 -91 -9 -18 -7 -38 6 -85 63 -229 294 -498 549 -643 90 -50 139
-59 156 -27 6 10 15 59 21 108 35 315 140 591 305 801 86 111 93 100 41 -71
-47 -154 -75 -296 -88 -446 -14 -151 2 -270 51 -388 31 -76 38 -86 162 -250
86 -113 129 -185 175 -290 37 -85 50 -103 76 -103 53 0 301 197 429 341 168
188 226 317 236 519 6 131 -14 263 -66 430 -17 52 -26 99 -22 103 15 15 147
-168 199 -275 67 -139 90 -213 110 -359 l18 -124 36 -3 c88 -7 338 191 479
380 116 155 186 338 148 384 -8 9 -59 46 -114 82 -148 96 -295 221 -398 339
-114 131 -255 325 -304 419 l-36 70 33 50 c47 67 234 253 262 258 13 2 97 10
188 16 661 46 1301 293 1815 698 99 79 302 284 359 365 88 124 136 217 136
265 0 30 -5 44 -17 49 -9 3 -98 -4 -197 -16 -188 -23 -389 -39 -420 -33 -11 2
27 25 90 56 170 82 275 156 410 291 247 244 367 501 419 899 18 133 19 188 3
204 -26 26 -72 12 -168 -51 -52 -34 -123 -79 -157 -100 -75 -45 -303 -157
-321 -157 -8 0 8 26 35 58 243 283 378 608 414 1002 25 276 -12 551 -107 788
-43 105 -76 152 -109 152 -28 0 -42 -18 -137 -164 -103 -162 -243 -331 -418
-507 -184 -185 -271 -259 -615 -529 -326 -256 -403 -320 -523 -434 -199 -191
-349 -401 -412 -581 -17 -49 -49 -178 -70 -285 -58 -293 -91 -375 -182 -441
-63 -45 -109 -54 -162 -31 -23 11 -52 32 -63 48 -85 120 -106 239 -134 749
-22 413 -65 629 -169 850 -21 44 -51 100 -68 125 l-31 45 38 40 c87 90 131
199 131 325 0 143 -42 231 -163 347 -89 85 -199 142 -287 150 -69 7 -69 8 -45
-92 20 -83 8 -149 -43 -227 -48 -75 -146 -121 -294 -139 -174 -21 -293 -74
-387 -175 -62 -65 -93 -129 -113 -231 l-11 -53 -71 -34 c-48 -23 -92 -55 -134
-97 -101 -101 -146 -215 -140 -355 3 -63 5 -69 25 -72 13 -2 63 17 112 42 144
71 254 72 398 1 90 -44 154 -109 199 -200 80 -165 64 -306 -67 -568 -56 -110
-280 -459 -314 -487 -12 -10 -24 -9 -61 5 -66 25 -119 80 -157 166 -38 83 -44
104 -88 313 -56 269 -93 371 -191 523 -127 196 -383 443 -728 703 -262 197
-439 343 -600 495 -235 222 -417 439 -544 645 -32 52 -65 103 -74 113 -24 27
-58 21 -86 -16z"/>
</g>
</svg>
