<?xml version="1.0" standalone="no"?>
<!DOCTYPE svg PUBLIC "-//W3C//DTD SVG 20010904//EN"
 "http://www.w3.org/TR/2001/REC-SVG-20010904/DTD/svg10.dtd">
<svg version="1.0" xmlns="http://www.w3.org/2000/svg"
 width="1024.000000pt" height="1024.000000pt" viewBox="0 0 1024.000000 1024.000000"
 preserveAspectRatio="xMidYMid meet">

<g transform="translate(0.000000,1024.000000) scale(0.100000,-0.100000)"
fill="#000000" stroke="none">
<path d="M1763 8658 c-120 -225 -185 -599 -154 -893 44 -418 188 -745 460
-1045 22 -25 36 -46 31 -48 -32 -11 -292 116 -470 231 -182 117 -197 124 -212
109 -16 -16 -12 -158 8 -282 30 -179 99 -374 183 -519 157 -269 423 -496 714
-612 28 -12 63 -26 77 -31 l25 -11 -25 -7 c-32 -9 -277 5 -445 26 -229 27
-249 28 -264 10 -11 -13 -8 -26 24 -88 61 -120 142 -225 290 -374 217 -217
431 -368 740 -519 240 -117 416 -183 670 -251 214 -57 389 -83 717 -110 l77
-6 104 -108 c109 -114 167 -191 167 -222 0 -65 -178 -313 -359 -501 -121 -125
-243 -227 -397 -331 l-109 -73 2 -42 c2 -52 76 -209 140 -300 101 -143 264
-289 414 -371 73 -39 112 -49 124 -31 3 5 12 63 21 128 35 273 119 511 249
708 51 78 153 185 174 185 16 0 14 -12 -25 -128 -113 -340 -142 -642 -79 -827
36 -107 63 -155 151 -266 98 -122 165 -232 210 -341 26 -61 42 -88 54 -88 40
0 253 165 376 292 198 204 274 362 275 574 0 137 -13 207 -80 433 -17 57 -31
108 -31 112 0 42 123 -79 197 -194 103 -158 148 -295 178 -539 6 -43 9 -48 31
-48 58 0 278 159 381 276 85 96 140 178 188 279 45 93 61 152 48 171 -5 6 -48
37 -98 69 -140 90 -240 173 -365 301 -165 170 -381 465 -396 540 -7 39 39 101
176 240 109 111 116 114 235 114 33 0 116 7 185 15 624 73 1172 292 1675 668
103 77 336 312 400 402 53 76 125 208 125 229 0 8 -7 19 -16 27 -12 10 -34 10
-117 0 -222 -27 -387 -41 -497 -40 -114 0 -115 0 -80 16 296 138 371 181 500
289 275 228 442 559 490 974 25 209 12 220 -142 119 -62 -41 -141 -92 -174
-112 -96 -58 -305 -155 -349 -163 l-40 -7 21 24 c11 13 46 53 77 89 187 210
332 513 388 812 27 144 37 418 19 555 -29 235 -143 543 -200 543 -11 0 -25
-10 -31 -22 -30 -59 -167 -258 -241 -350 -218 -275 -438 -479 -923 -857 -288
-225 -362 -287 -494 -415 -127 -125 -207 -218 -273 -321 -104 -161 -142 -263
-192 -524 -54 -280 -98 -386 -186 -450 -88 -64 -169 -62 -236 5 -93 94 -122
230 -144 679 -18 361 -47 566 -107 760 -28 91 -120 285 -157 330 l-24 30 58
62 c98 105 139 228 120 362 -25 178 -190 350 -393 412 -37 12 -70 19 -73 17
-2 -3 1 -29 7 -58 25 -116 -5 -231 -78 -304 -59 -58 -127 -86 -251 -101 -307
-38 -474 -176 -510 -419 -7 -46 -8 -48 -65 -71 -115 -46 -217 -147 -258 -255
-37 -96 -47 -240 -17 -240 5 0 47 18 91 40 123 61 222 71 348 35 149 -42 275
-170 315 -319 36 -134 8 -281 -94 -491 -62 -126 -288 -483 -328 -515 -36 -31
-147 27 -203 105 -51 70 -79 153 -118 339 -58 280 -94 388 -177 528 -133 226
-355 443 -796 778 -312 238 -496 396 -696 602 -183 187 -294 329 -448 571 -43
67 -67 73 -93 25z"/>
</g>
</svg>
