<?xml version="1.0" standalone="no"?>
<!DOCTYPE svg PUBLIC "-//W3C//DTD SVG 20010904//EN"
 "http://www.w3.org/TR/2001/REC-SVG-20010904/DTD/svg10.dtd">
<svg version="1.0" xmlns="http://www.w3.org/2000/svg"
 width="1024.000000pt" height="1024.000000pt" viewBox="0 0 1024.000000 1024.000000"
 preserveAspectRatio="xMidYMid meet">

<g transform="translate(0.000000,1024.000000) scale(0.100000,-0.100000)"
fill="#000000" stroke="none">
<path d="M4114 9278 c-54 -17 -125 -80 -158 -137 -51 -92 -46 -146 48 -523
l78 -318 1034 0 c569 0 1034 3 1034 6 0 3 36 148 81 323 73 287 80 323 76 391
-4 87 -26 137 -84 191 -84 80 11 74 -1093 76 -645 1 -996 -2 -1016 -9z"/>
<path d="M3708 8136 c-49 -13 -63 -21 -116 -70 -67 -62 -77 -94 -77 -256 0
-169 8 -193 93 -272 61 -57 124 -78 235 -78 l79 0 -4 -187 c-5 -161 -9 -199
-30 -269 -49 -163 -166 -322 -310 -421 -89 -61 -136 -85 -298 -153 -356 -148
-634 -328 -894 -580 -497 -481 -756 -1113 -756 -1845 0 -448 86 -830 275
-1223 86 -177 146 -280 246 -418 223 -309 460 -538 787 -759 59 -39 117 -87
130 -106 26 -37 26 -51 2 -191 -12 -67 -11 -85 3 -142 29 -116 100 -192 216
-231 42 -14 245 -15 1846 -13 l1800 3 57 28 c70 35 141 111 162 175 21 62 23
159 6 243 -22 111 -8 134 151 244 367 254 683 586 896 940 287 477 417 974
400 1520 -23 710 -262 1279 -737 1755 -262 263 -534 440 -920 600 -85 35 -193
86 -239 113 -144 85 -270 228 -332 379 -45 110 -59 198 -59 376 l0 159 103 5
c89 4 110 8 156 33 53 29 93 72 127 135 15 28 19 63 22 166 4 125 3 134 -22
187 -29 60 -72 104 -139 139 l-42 23 -1385 2 c-1094 1 -1395 -1 -1432 -11z"/>
</g>
</svg>
