<?xml version="1.0" standalone="no"?>
<!DOCTYPE svg PUBLIC "-//W3C//DTD SVG 20010904//EN"
 "http://www.w3.org/TR/2001/REC-SVG-20010904/DTD/svg10.dtd">
<svg version="1.0" xmlns="http://www.w3.org/2000/svg"
 width="1024.000000pt" height="1024.000000pt" viewBox="0 0 1024.000000 1024.000000"
 preserveAspectRatio="xMidYMid meet">
<metadata>
Created by potrace 1.16, written by Peter Selinger 2001-2019
</metadata>
<g transform="translate(0.000000,1024.000000) scale(0.100000,-0.100000)"
fill="#000000" stroke="none">
<path d="M4969 8755 c-238 -48 -562 -217 -809 -423 -534 -446 -919 -1137
-1205 -2167 -94 -336 -126 -497 -132 -651 -6 -165 4 -239 51 -363 69 -185 220
-397 438 -615 82 -81 147 -150 145 -152 -1 -2 -70 -41 -153 -87 -826 -462
-947 -558 -1099 -872 -70 -145 -199 -444 -235 -546 -13 -36 -21 -73 -17 -82
22 -58 592 -364 967 -520 312 -129 772 -298 808 -296 9 0 49 36 87 80 111 127
380 386 798 772 213 197 387 364 387 372 0 12 -281 273 -670 622 -192 173
-195 177 -60 106 63 -33 246 -127 405 -208 160 -81 318 -163 352 -181 34 -19
69 -34 78 -34 9 0 103 44 208 99 544 280 726 371 721 359 -3 -7 -69 -67 -146
-133 -233 -199 -432 -378 -1008 -905 -409 -374 -990 -944 -990 -970 0 -44 507
-137 924 -170 674 -53 1489 85 2226 375 410 162 880 393 1153 567 63 41 77 54
77 76 0 62 -252 634 -338 769 -34 52 -89 115 -151 175 -133 126 -309 236 -833
522 -109 59 -198 110 -198 114 0 3 60 67 133 141 228 233 359 415 442 616 54
132 68 216 62 374 -5 120 -11 160 -55 336 -171 679 -368 1211 -610 1640 -285
507 -679 898 -1136 1130 -249 126 -438 166 -617 130z m203 -1586 c355 -72 806
-417 1109 -849 94 -133 102 -153 95 -228 -28 -280 -129 -618 -258 -861 -153
-290 -387 -550 -663 -735 -116 -78 -308 -176 -344 -176 -36 0 -236 99 -346
171 -341 222 -611 556 -779 961 -73 177 -146 463 -162 640 -6 72 -5 80 21 125
45 78 187 261 277 358 256 275 486 447 730 544 148 60 219 71 320 50z"/>
<path d="M4069 6283 c-21 -25 -17 -166 6 -230 40 -112 150 -219 267 -261 65
-24 87 -26 203 -26 108 0 141 4 195 23 146 51 147 70 10 203 -157 154 -292
233 -473 277 -126 30 -192 34 -208 14z"/>
<path d="M6019 6289 c-159 -21 -340 -104 -493 -228 -73 -59 -176 -173 -176
-196 0 -62 235 -120 395 -97 115 16 178 46 256 119 98 93 132 164 137 290 5
97 -4 124 -37 122 -9 -1 -46 -5 -82 -10z"/>
</g>
</svg>
