<?xml version="1.0" standalone="no"?>
<!DOCTYPE svg PUBLIC "-//W3C//DTD SVG 20010904//EN"
 "http://www.w3.org/TR/2001/REC-SVG-20010904/DTD/svg10.dtd">
<svg version="1.0" xmlns="http://www.w3.org/2000/svg"
 width="1024.000000pt" height="1024.000000pt" viewBox="0 0 1024.000000 1024.000000"
 preserveAspectRatio="xMidYMid meet">
<metadata>
Created by potrace 1.16, written by Peter Selinger 2001-2019
</metadata>
<g transform="translate(0.000000,1024.000000) scale(0.100000,-0.100000)"
fill="#000000" stroke="none">
<path d="M4125 9080 c-206 -29 -358 -148 -463 -361 -43 -88 -190 -506 -382
-1082 -77 -233 -117 -340 -130 -347 -9 -5 -77 -18 -150 -30 -386 -59 -722
-168 -835 -271 -64 -60 -87 -110 -79 -176 6 -43 14 -55 73 -113 95 -94 263
-170 516 -234 78 -20 87 -32 69 -99 -29 -105 -54 -273 -65 -429 -21 -287 18
-611 106 -874 69 -207 218 -480 352 -644 311 -381 717 -620 1051 -620 l87 0
104 -65 c166 -103 346 -163 556 -186 192 -20 433 11 613 81 79 31 217 106 264
145 23 19 42 23 155 28 143 6 222 25 353 83 191 84 364 208 530 380 233 243
384 492 490 813 86 256 114 443 114 736 0 226 -14 344 -60 524 -14 52 -21 98
-16 103 4 4 64 23 132 42 363 100 540 218 540 358 0 62 -17 95 -77 148 -119
105 -426 204 -838 270 -86 14 -136 27 -147 38 -9 9 -82 208 -162 442 -331 973
-359 1042 -487 1171 -104 105 -192 148 -349 169 -110 15 -239 -1 -454 -55
-203 -51 -301 -66 -445 -67 -137 -1 -264 15 -431 57 -253 63 -413 82 -535 65z
m1857 -1270 c233 -11 590 -38 613 -46 20 -8 162 -431 148 -444 -4 -5 -82 -2
-173 5 -647 54 -2153 58 -2865 8 -270 -19 -302 -20 -310 -11 -10 9 122 413
139 431 8 8 36 17 63 20 102 13 551 38 838 47 353 10 1228 4 1547 -10z m436
-970 c274 -6 507 -13 520 -15 17 -4 38 -37 91 -143 161 -321 223 -574 222
-907 0 -329 -64 -601 -208 -889 -176 -351 -432 -614 -755 -775 -175 -88 -247
-106 -397 -104 l-114 2 -97 -65 c-284 -188 -620 -242 -925 -147 -99 31 -252
109 -325 165 l-55 43 -140 1 c-130 0 -147 3 -232 32 -310 106 -584 323 -784
621 -208 308 -315 636 -344 1046 -13 179 30 474 99 687 40 124 158 385 187
417 18 19 31 21 137 22 64 1 239 5 387 8 440 12 2198 12 2733 1z"/>
<path d="M3270 6721 l-55 -6 -37 -75 c-125 -251 -192 -560 -191 -885 1 -262
29 -438 104 -652 164 -463 571 -886 949 -984 73 -19 103 -21 216 -17 l130 5
65 -48 c218 -165 505 -231 798 -184 172 28 296 80 428 179 l72 54 123 -5 c105
-4 135 -2 208 17 159 41 295 120 467 271 483 425 693 1089 562 1774 -43 228
-167 543 -219 557 -31 8 -3544 7 -3620 -1z m994 -418 c111 -172 270 -459 260
-474 -5 -9 -77 -10 -294 -5 -297 7 -393 15 -411 33 -27 27 305 573 347 573 8
0 52 -57 98 -127z m1758 70 c57 -78 197 -311 253 -424 35 -69 43 -94 34 -100
-7 -4 -49 -10 -93 -13 -118 -8 -589 -22 -603 -18 -6 2 -14 9 -16 16 -6 16 115
238 221 405 96 150 128 191 148 191 7 0 33 -26 56 -57z m-907 -640 c26 -60 72
-157 102 -217 40 -80 52 -111 43 -120 -7 -7 -76 -12 -193 -14 -246 -5 -237
-13 -155 154 36 71 82 168 103 217 22 48 42 87 46 87 3 0 28 -48 54 -107z
m-1288 -413 c104 -67 195 -114 301 -155 39 -16 73 -33 73 -39 1 -6 0 -57 -1
-113 -2 -98 -1 -102 23 -118 25 -16 321 -95 357 -95 30 0 44 28 65 134 l20
101 60 -1 c287 -7 509 -7 607 0 115 8 116 8 129 -16 7 -12 18 -59 25 -102 9
-53 20 -86 33 -99 18 -19 24 -19 83 -7 127 27 303 81 316 98 10 12 13 46 10
121 l-3 104 106 42 c113 44 208 94 301 157 106 71 114 43 33 -118 -108 -214
-279 -406 -490 -548 -140 -95 -442 -226 -520 -226 -27 0 -28 3 -45 115 -6 38
-16 75 -22 82 -8 10 -62 13 -224 13 l-214 0 -11 -27 c-5 -15 -15 -62 -21 -105
-6 -45 -16 -79 -24 -82 -41 -16 -378 124 -520 216 -221 143 -395 341 -512 581
-48 98 -62 147 -41 147 8 0 55 -27 106 -60z"/>
<path d="M5898 3630 c-30 -9 -92 -42 -385 -207 -111 -62 -207 -113 -213 -113
-7 0 -26 12 -43 26 l-30 26 -173 -4 c-166 -3 -173 -4 -198 -27 -31 -30 -7 -39
-297 122 -319 177 -319 177 -386 177 -66 0 -94 -15 -121 -63 -15 -29 -17 -72
-17 -473 l0 -441 27 -35 c16 -21 43 -42 64 -48 74 -25 104 -13 398 160 153 89
287 165 297 167 11 3 29 -3 40 -13 19 -17 39 -19 199 -19 170 0 180 1 202 22
l23 22 215 -126 c344 -201 370 -214 425 -219 62 -6 111 17 140 66 19 34 20 51
20 482 l0 447 -29 30 c-42 44 -100 59 -158 41z"/>
<path d="M3555 3294 c-605 -177 -678 -203 -825 -299 -104 -68 -264 -230 -337
-340 -68 -105 -125 -233 -154 -343 -11 -42 -38 -187 -60 -322 -50 -300 -50
-375 -4 -441 38 -54 104 -105 153 -119 55 -15 5392 -14 5464 1 43 10 62 21
108 68 92 92 99 156 50 459 -44 276 -58 346 -92 441 -61 173 -128 282 -257
415 -196 202 -320 268 -740 392 -141 42 -330 98 -420 125 -173 52 -202 57
-219 36 -7 -8 -12 -133 -14 -357 -3 -336 -4 -346 -26 -395 -30 -66 -74 -110
-144 -146 -69 -35 -126 -37 -199 -9 -28 11 -160 81 -294 156 l-242 135 -254
-3 -254 -3 -230 -129 c-286 -160 -325 -179 -381 -178 -89 2 -185 66 -232 156
l-27 51 -5 355 c-3 195 -9 361 -13 368 -14 21 -54 13 -352 -74z m2842 -1861
c-742 -2 -1952 -2 -2690 0 -738 1 -131 2 1348 2 1480 0 2083 -1 1342 -2z"/>
</g>
</svg>
