<?xml version="1.0" standalone="no"?>
<!DOCTYPE svg PUBLIC "-//W3C//DTD SVG 20010904//EN"
 "http://www.w3.org/TR/2001/REC-SVG-20010904/DTD/svg10.dtd">
<svg version="1.0" xmlns="http://www.w3.org/2000/svg"
 width="555.000000pt" height="578.000000pt" viewBox="0 0 555.000000 578.000000"
 preserveAspectRatio="xMidYMid meet">

<g transform="translate(0.000000,578.000000) scale(0.100000,-0.100000)"
fill="#000000" stroke="none">
<path d="M2768 5724 c-35 -18 -58 -62 -58 -108 0 -42 46 -100 86 -110 23 -6
24 -9 11 -19 -8 -7 -36 -79 -62 -162 -26 -82 -62 -180 -81 -216 -32 -61 -145
-189 -167 -189 -6 0 -65 34 -132 75 -68 41 -138 82 -157 91 -34 16 -35 18 -30
63 8 89 -49 149 -131 138 -76 -10 -120 -85 -91 -156 16 -40 40 -59 98 -76 l40
-12 93 -279 c51 -153 95 -284 97 -291 4 -9 18 -8 58 3 200 53 590 65 833 26
72 -11 144 -26 160 -32 22 -8 31 -8 41 2 6 7 51 135 98 283 48 149 89 275 91
281 2 6 23 16 48 22 79 20 116 90 87 166 -12 33 -66 66 -106 66 -71 0 -137
-85 -114 -146 6 -14 8 -30 4 -35 -3 -5 -77 -52 -166 -104 l-160 -96 -35 27
c-45 34 -119 134 -149 200 -12 29 -43 118 -69 199 -25 81 -47 151 -50 155 -3
4 5 10 18 14 12 3 36 19 52 36 92 96 -39 248 -157 184z m91 -787 c13 -23 42
-69 64 -102 36 -54 38 -61 22 -70 -39 -22 -83 -67 -95 -95 -7 -16 -15 -30 -19
-30 -3 0 -18 19 -33 43 -15 23 -43 57 -62 76 l-35 34 43 61 c24 34 51 76 60
94 9 17 20 32 24 32 4 0 18 -19 31 -43z m-391 -213 c61 -27 63 -40 10 -69 -31
-16 -38 -17 -53 -5 -18 15 -38 51 -50 88 -6 22 -5 23 17 17 12 -4 47 -18 76
-31z m803 -40 c-21 -46 -22 -46 -58 -41 -43 7 -83 41 -67 57 6 6 40 21 75 34
75 27 81 21 50 -50z"/>
<path d="M2375 5215 c-31 -31 -32 -66 -1 -101 48 -57 136 -27 136 46 0 73 -84
107 -135 55z"/>
<path d="M3162 5220 c-30 -28 -30 -90 -1 -116 29 -26 93 -25 121 3 71 72 -46
182 -120 113z"/>
<path d="M1205 5150 c-4 -6 -18 -52 -31 -103 -45 -166 -89 -214 -236 -257 -50
-14 -96 -33 -101 -42 -18 -27 0 -45 55 -58 205 -46 253 -92 292 -279 26 -130
66 -133 85 -7 14 99 46 180 81 210 34 28 115 60 180 71 62 10 82 22 78 48 -2
18 -21 28 -106 57 -58 19 -119 48 -139 64 -43 35 -77 106 -99 206 -20 91 -40
121 -59 90z"/>
<path d="M2046 4448 c-153 -78 -518 -216 -826 -312 -80 -25 -192 -60 -250 -78
-138 -43 -140 -47 -140 -248 0 -525 79 -1057 216 -1451 83 -239 215 -518 283
-599 l26 -32 110 29 c80 20 111 32 113 45 2 9 -23 61 -56 115 -229 379 -378
839 -437 1348 -18 156 -36 557 -26 568 4 4 118 41 252 82 319 97 781 266 816
299 10 9 10 24 1 69 -9 44 -9 70 0 115 14 67 15 92 5 92 -5 -1 -44 -19 -87
-42z"/>
<path d="M3527 4453 c4 -21 7 -84 7 -140 l-1 -101 131 -56 c182 -77 314 -125
501 -184 189 -60 268 -82 287 -82 8 0 28 20 46 45 23 33 49 54 97 77 36 18 65
38 65 45 0 7 -49 27 -117 48 -362 111 -653 219 -882 327 -68 32 -128 58 -133
58 -5 0 -5 -16 -1 -37z"/>
<path d="M2620 4414 c-14 -2 -65 -9 -115 -15 -103 -12 -214 -37 -232 -51 -7
-6 -13 -20 -13 -31 0 -27 47 -87 68 -87 10 0 60 11 112 24 250 63 614 61 823
-4 34 -11 72 -20 84 -20 45 0 84 91 51 118 -21 17 -124 40 -251 57 -107 13
-452 19 -527 9z"/>
<path d="M5023 4402 c-17 -11 -29 -47 -42 -127 -16 -95 -65 -192 -117 -231
-22 -16 -86 -45 -142 -64 -109 -36 -165 -70 -146 -90 6 -6 63 -24 126 -40 123
-30 165 -47 199 -83 36 -37 67 -117 78 -202 20 -139 20 -143 41 -148 36 -9 50
15 65 108 20 120 39 175 80 222 44 52 110 80 232 98 53 8 101 19 106 24 5 5 7
19 5 32 -3 25 -8 27 -185 78 -141 41 -208 128 -239 311 -19 111 -30 132 -61
112z"/>
<path d="M2070 4079 c-189 -88 -400 -169 -652 -251 l-228 -73 0 -50 c1 -329
69 -817 155 -1115 60 -204 177 -480 233 -550 l20 -25 12 45 c6 25 16 62 21 82
8 32 5 48 -27 125 -152 365 -241 792 -260 1244 l-7 156 99 33 c203 67 372 129
479 175 136 58 385 184 385 194 0 17 -76 73 -97 70 -4 -1 -64 -27 -133 -60z"/>
<path d="M3390 4109 l-44 -32 22 -18 c81 -65 472 -235 757 -329 105 -34 194
-66 199 -71 12 -10 -7 -323 -30 -495 -42 -327 -150 -729 -248 -923 l-24 -46
20 -88 c15 -65 24 -85 33 -77 20 16 112 200 160 319 135 338 235 883 235 1292
l0 117 -39 15 c-21 9 -65 23 -98 31 -77 20 -420 137 -538 183 -49 20 -146 62
-214 94 -68 33 -129 59 -136 59 -7 0 -32 -14 -55 -31z"/>
<path d="M2680 3895 c-169 -46 -331 -177 -404 -325 -120 -245 -73 -529 119
-725 116 -118 257 -175 435 -175 155 0 272 37 386 123 151 114 239 295 238
487 -3 270 -172 508 -426 597 -92 33 -262 41 -348 18z"/>
<path d="M4617 3773 c-2 -4 -8 -71 -11 -148 -21 -416 -70 -727 -163 -1033 -73
-242 -189 -502 -312 -697 -34 -54 -60 -99 -59 -101 4 -4 178 -52 214 -59 37
-7 59 15 125 125 159 269 304 727 364 1155 35 250 64 669 48 691 -4 6 -44 22
-88 37 -44 14 -87 28 -96 32 -10 3 -19 3 -22 -2z"/>
<path d="M3981 3473 c-5 -21 -12 -49 -15 -63 -16 -69 -76 -120 -159 -135 -39
-8 -57 -22 -35 -29 7 -2 35 -10 62 -17 75 -19 121 -69 136 -147 19 -95 35 -85
65 39 12 49 48 80 120 104 38 13 71 27 72 32 2 4 -25 16 -59 26 -71 21 -122
67 -133 119 -15 73 -26 108 -35 108 -5 0 -13 -17 -19 -37z"/>
<path d="M360 3258 c-5 -13 -14 -50 -20 -82 -28 -163 -86 -216 -283 -260 -19
-5 -27 -12 -25 -23 2 -12 29 -23 91 -39 48 -12 105 -33 126 -47 48 -32 86
-106 102 -199 17 -106 60 -117 73 -20 24 169 82 236 233 267 36 8 70 18 76 24
18 18 -12 40 -72 52 -136 26 -188 80 -226 233 -12 52 -26 99 -30 105 -11 18
-35 12 -45 -11z"/>
<path d="M2449 2620 c-20 -10 -77 -30 -128 -45 -183 -51 -262 -85 -357 -151
-150 -105 -230 -257 -265 -501 -7 -49 -10 -97 -6 -106 10 -25 69 -22 304 18
356 60 572 120 746 206 43 22 83 39 90 39 6 0 49 -20 96 -44 113 -58 226 -97
391 -134 178 -41 498 -94 580 -96 l65 -1 -2 82 c-3 105 -33 227 -80 323 -27
56 -56 94 -112 150 -102 101 -226 164 -431 220 -41 11 -98 29 -126 41 l-52 20
-43 -22 c-170 -87 -408 -90 -571 -8 -32 16 -59 29 -60 29 -2 -1 -19 -9 -39
-20z"/>
<path d="M2760 1930 c-122 -65 -366 -126 -755 -190 -549 -89 -684 -117 -717
-147 -20 -18 -23 -88 -9 -174 l8 -47 -121 -22 c-303 -55 -513 -109 -541 -140
-17 -19 -17 -23 -3 -53 18 -37 141 -181 265 -310 47 -48 82 -93 80 -100 -3 -7
-37 -86 -77 -177 -97 -226 -120 -293 -120 -350 0 -42 4 -52 25 -66 23 -15 32
-15 132 5 300 58 457 73 768 75 241 1 263 2 294 21 61 36 76 66 79 166 2 49 7
89 11 89 4 0 61 -45 127 -101 177 -150 455 -329 581 -373 l42 -15 108 53 c183
90 333 189 511 339 51 43 106 80 121 83 l29 6 3 -97 c4 -94 5 -97 36 -125 18
-16 49 -34 70 -39 21 -6 141 -10 273 -9 129 1 287 -4 350 -11 100 -11 417 -61
483 -76 32 -7 69 15 78 48 5 17 2 50 -7 83 -13 52 -150 398 -179 453 -12 24
-7 31 123 170 157 170 222 254 222 287 0 31 -30 46 -171 83 -96 26 -477 101
-510 101 -7 0 -8 14 -4 38 20 120 3 180 -58 205 -70 29 -254 65 -737 142 -326
52 -534 107 -672 176 -32 16 -63 29 -70 28 -7 0 -38 -13 -68 -29z m155 -155
c115 -46 320 -97 545 -134 536 -88 621 -103 690 -119 73 -18 75 -19 73 -47 -2
-17 -26 -208 -53 -425 -28 -217 -54 -417 -57 -444 l-6 -48 -47 6 c-76 10 -313
34 -475 48 -205 18 -1271 18 -1485 0 -219 -18 -469 -41 -511 -47 l-35 -5 -13
93 c-40 301 -110 852 -107 854 7 7 266 55 501 93 479 76 671 119 811 179 38
17 72 30 76 31 4 0 46 -16 93 -35z m1621 -570 c67 -13 158 -33 203 -45 l81
-22 -155 -163 c-85 -89 -155 -167 -155 -172 0 -5 32 -83 71 -174 39 -90 83
-197 99 -236 32 -83 33 -82 -61 -58 -87 23 -314 64 -391 71 -38 4 -68 10 -68
14 0 4 20 11 44 14 l44 7 11 62 c6 34 20 141 31 237 29 242 61 483 66 491 4 7
4 7 180 -26z m-3232 8 c5 -17 63 -447 86 -638 16 -133 16 -133 61 -140 53 -9
60 -25 10 -25 -46 0 -285 -40 -416 -69 -49 -11 -90 -19 -91 -18 -2 2 162 405
192 474 3 6 -64 85 -150 175 -129 134 -153 164 -138 171 18 8 396 85 424 86 9
1 19 -7 22 -16z m1336 -770 c47 -28 106 -62 133 -74 l47 -23 73 37 c39 20 105
55 146 77 63 34 83 40 130 39 105 -1 104 -8 -10 -85 -57 -39 -155 -99 -218
-135 l-114 -63 -81 43 c-113 60 -356 223 -349 234 3 5 40 7 82 5 70 -4 83 -8
161 -55z m-800 -25 c47 -24 56 -44 28 -62 -36 -22 -208 39 -208 74 0 6 30 10
68 10 50 0 79 -6 112 -22z m2160 13 c0 -33 -130 -87 -185 -77 -61 12 -48 54
25 74 45 13 160 15 160 3z"/>
<path d="M2405 1480 c-3 -5 0 -18 7 -29 8 -14 9 -30 2 -54 -27 -99 -140 -457
-144 -457 -3 0 -18 46 -34 103 -16 56 -49 163 -73 238 -24 76 -42 148 -41 160
3 24 2 24 -94 24 -53 0 -99 -3 -102 -6 -3 -3 2 -21 11 -40 9 -19 63 -171 119
-339 l102 -305 107 0 108 0 18 55 c10 30 54 168 98 306 45 139 92 268 106 289
14 20 25 41 23 46 -4 13 -205 21 -213 9z"/>
<path d="M2716 1483 c-2 -3 4 -22 15 -43 19 -35 20 -55 17 -308 -3 -262 -4
-271 -25 -301 -21 -27 -21 -31 -7 -45 12 -13 40 -16 135 -16 136 0 143 4 110
66 -20 36 -21 55 -21 305 0 251 1 268 20 292 26 33 25 44 -6 51 -29 8 -230 6
-238 -1z"/>
<path d="M3123 1482 c-28 -4 -28 -9 -3 -47 19 -28 20 -47 20 -291 l0 -261 -25
-37 c-14 -20 -25 -41 -25 -46 0 -21 46 -30 160 -30 136 0 146 6 112 62 -14 23
-21 55 -24 103 l-3 70 110 6 c124 7 186 28 244 82 65 62 89 164 57 240 -20 49
-88 102 -154 121 -78 23 -379 41 -469 28z m365 -138 c22 -9 38 -25 47 -48 19
-45 19 -60 -1 -102 -23 -48 -80 -76 -147 -72 l-52 3 -3 114 c-2 85 1 117 10
123 16 11 102 0 146 -18z"/>
<path d="M926 1871 c-19 -30 75 -254 142 -338 23 -29 42 -54 42 -57 0 -2 -51
18 -112 46 -92 41 -240 98 -255 98 -2 0 -3 -10 -3 -21 0 -12 25 -59 56 -105
64 -97 53 -93 214 -68 154 24 150 21 150 99 0 37 5 86 11 111 12 45 11 46 -27
86 -43 44 -190 158 -204 158 -5 0 -11 -4 -14 -9z"/>
<path d="M4644 1831 c-38 -27 -91 -72 -118 -99 l-49 -51 13 -111 c7 -61 17
-113 22 -116 5 -4 67 -16 137 -28 145 -26 136 -28 202 54 39 48 69 101 69 121
0 21 -65 2 -215 -62 -80 -34 -148 -60 -151 -56 -3 3 12 29 34 59 64 85 120
208 137 301 4 22 3 37 -2 37 -6 0 -41 -22 -79 -49z"/>
</g>
</svg>
