<?xml version="1.0" standalone="no"?>
<!DOCTYPE svg PUBLIC "-//W3C//DTD SVG 20010904//EN"
 "http://www.w3.org/TR/2001/REC-SVG-20010904/DTD/svg10.dtd">
<svg version="1.0" xmlns="http://www.w3.org/2000/svg"
 width="1024.000000pt" height="1024.000000pt" viewBox="0 0 1024.000000 1024.000000"
 preserveAspectRatio="xMidYMid meet">

<g transform="translate(0.000000,1024.000000) scale(0.100000,-0.100000)"
fill="#000000" stroke="none">
<path d="M7040 8411 c-19 -10 -45 -33 -57 -51 l-23 -33 0 -1638 0 -1639 -372
0 -371 0 -72 75 -72 75 -507 0 c-493 0 -507 -1 -526 -20 -45 -45 -62 -20 553
-782 87 -109 163 -198 168 -198 5 0 46 11 91 24 123 36 244 47 368 36 169 -15
244 -39 465 -150 110 -55 227 -107 260 -116 33 -9 117 -19 186 -21 186 -8 293
24 509 148 169 98 317 138 506 139 98 0 141 -5 224 -26 56 -14 106 -22 110
-17 20 19 290 766 285 784 -17 51 18 49 -761 49 l-724 0 0 160 0 160 560 0
560 0 16 25 c20 31 45 -46 -246 780 -50 143 -126 359 -167 480 -42 121 -84
229 -94 239 -18 19 -19 19 -91 -1 -40 -11 -170 -50 -288 -87 -118 -37 -223
-69 -232 -72 -17 -5 -18 13 -18 280 l0 286 496 2 c440 3 498 5 507 19 14 23
-1 48 -137 219 -106 136 -117 152 -105 169 8 10 50 65 94 121 163 209 170 223
140 254 -15 14 -65 16 -506 16 l-489 0 0 106 c0 120 -15 161 -74 202 -41 28
-117 30 -166 3z"/>
<path d="M2800 8369 c-105 -9 -170 -49 -170 -102 0 -10 38 -58 84 -107 47 -49
90 -98 96 -109 9 -18 7 -21 -17 -27 -293 -65 -495 -173 -689 -369 -120 -121
-150 -202 -91 -239 12 -7 67 -21 121 -30 55 -9 102 -18 104 -21 3 -2 -27 -42
-65 -87 -81 -97 -115 -145 -170 -248 -86 -158 -147 -350 -180 -564 -24 -154
-23 -464 1 -601 59 -328 169 -606 383 -965 185 -310 243 -469 243 -662 -1
-225 -91 -389 -265 -480 -86 -45 -163 -61 -280 -60 -152 1 -288 48 -435 149
-54 38 -68 44 -90 36 l-25 -8 -3 -399 c-3 -456 -12 -410 98 -481 97 -63 220
-122 307 -147 68 -20 100 -23 248 -23 159 1 175 3 255 29 114 38 198 82 331
171 131 89 225 135 334 167 68 19 103 23 235 22 139 0 164 -3 243 -27 111 -34
195 -76 333 -165 191 -122 312 -173 497 -212 339 -69 773 -47 1041 54 91 34
205 96 358 193 205 130 352 171 572 160 186 -9 295 -51 526 -200 188 -122 288
-157 443 -157 155 0 263 40 455 166 239 159 329 189 562 188 116 0 171 -4 217
-17 88 -25 207 -77 283 -125 148 -94 152 -96 169 -85 14 9 16 52 19 396 l2
385 -35 29 c-60 50 -238 153 -318 184 -138 53 -191 63 -337 63 -206 0 -337
-42 -536 -172 -207 -135 -345 -180 -519 -169 -135 8 -258 52 -419 151 -248
151 -367 190 -576 189 -211 -1 -334 -44 -606 -211 -167 -103 -302 -142 -497
-142 -307 0 -516 95 -599 272 -28 59 -38 100 -68 273 -48 277 -134 483 -303
725 -78 112 -239 279 -475 493 -327 295 -448 437 -536 628 -103 224 -96 461
18 596 l27 32 61 -49 c34 -27 96 -64 137 -82 83 -35 103 -37 471 -30 165 3
263 -12 431 -70 165 -55 235 -57 334 -9 162 80 285 281 285 466 -1 115 -69
186 -320 335 -327 193 -418 267 -607 498 -137 167 -268 303 -354 370 -227 173
-486 254 -739 231z m911 -970 c82 -58 75 -175 -14 -229 -60 -37 -141 -16 -184
49 -40 59 -22 144 39 181 45 27 120 27 159 -1z"/>
<path d="M6728 7223 c-14 -16 -259 -334 -544 -708 -285 -374 -574 -752 -642
-840 -165 -211 -175 -226 -166 -259 4 -16 17 -31 31 -37 14 -5 314 -9 713 -9
l689 0 15 22 c14 20 16 124 16 924 0 860 -1 902 -18 917 -28 25 -65 21 -94
-10z"/>
<path d="M3027 2950 c-143 -23 -288 -85 -417 -179 -183 -134 -332 -195 -534
-222 -102 -13 -171 -7 -301 26 -96 24 -238 88 -318 144 -49 33 -78 39 -95 18
-7 -8 -11 -196 -13 -577 -2 -561 -1 -565 20 -623 30 -78 98 -146 174 -175 l59
-22 3514 0 c3493 0 3514 0 3567 20 70 26 125 75 162 141 l30 54 0 554 0 554
-70 54 c-101 78 -169 121 -261 164 -120 57 -195 72 -354 71 -217 0 -335 -41
-549 -187 -190 -129 -317 -177 -471 -178 -156 0 -258 39 -478 181 -75 49 -155
99 -177 110 -108 54 -307 89 -443 77 -166 -14 -302 -68 -497 -196 -189 -124
-313 -177 -511 -218 -171 -35 -352 -46 -532 -32 -342 26 -566 99 -832 271
-124 80 -219 125 -316 150 -91 24 -270 34 -357 20z"/>
</g>
</svg>
