<?xml version="1.0" standalone="no"?>
<!DOCTYPE svg PUBLIC "-//W3C//DTD SVG 20010904//EN"
 "http://www.w3.org/TR/2001/REC-SVG-20010904/DTD/svg10.dtd">
<svg version="1.0" xmlns="http://www.w3.org/2000/svg"
 width="1024.000000pt" height="1024.000000pt" viewBox="0 0 1024.000000 1024.000000"
 preserveAspectRatio="xMidYMid meet">
<metadata>
Created by potrace 1.16, written by Peter Selinger 2001-2019
</metadata>
<g transform="translate(0.000000,1024.000000) scale(0.100000,-0.100000)"
fill="#000000" stroke="none">
<path d="M4825 8994 c-285 -28 -459 -62 -665 -130 -385 -128 -715 -333 -1033
-643 -412 -401 -660 -886 -744 -1456 -25 -171 -25 -571 0 -707 l18 -96 -51
-54 c-150 -156 -256 -383 -291 -618 -17 -117 -7 -361 20 -471 36 -150 98 -294
164 -381 l34 -45 -90 -84 c-153 -142 -267 -321 -317 -499 -31 -108 -38 -317
-16 -429 41 -200 108 -323 264 -480 l113 -115 -35 -75 c-55 -118 -69 -194 -63
-346 4 -104 10 -146 31 -210 38 -116 95 -212 182 -305 178 -188 372 -277 629
-287 296 -12 556 89 785 304 217 204 367 491 406 776 21 148 18 143 52 121
203 -134 426 -232 642 -280 109 -25 396 -25 508 -1 187 40 391 123 568 232 58
36 107 65 109 65 7 0 25 -94 29 -160 16 -224 156 -504 349 -700 187 -190 414
-312 649 -350 118 -19 302 -8 411 24 406 121 660 488 618 893 -12 105 -41 206
-77 259 l-26 38 48 40 c168 139 286 322 336 523 31 122 31 333 0 445 -27 98
-75 203 -138 298 -48 73 -201 238 -257 277 l-29 19 46 67 c180 256 239 634
151 969 -48 187 -117 320 -235 457 l-73 84 18 97 c47 272 33 673 -37 1015 -31
152 -118 407 -187 544 -106 212 -209 350 -388 521 -230 221 -424 311 -696 324
-67 3 -93 8 -110 22 -12 11 -51 45 -87 78 -86 77 -265 196 -370 245 -180 84
-365 135 -595 166 -114 15 -484 28 -570 19z m1290 -1520 c192 -317 491 -622
765 -780 47 -27 89 -53 93 -59 4 -5 6 -336 4 -735 -5 -767 -9 -843 -63 -1160
-40 -237 -129 -529 -225 -742 -163 -364 -448 -701 -776 -920 -400 -268 -722
-349 -1038 -264 -284 77 -588 254 -824 481 -198 191 -345 391 -464 636 -129
265 -189 442 -246 734 -65 330 -83 663 -79 1445 3 486 5 555 18 553 8 -1 59
-20 114 -43 195 -82 461 -136 726 -147 404 -16 832 83 1133 263 285 171 599
473 772 742 22 34 42 62 45 62 3 0 23 -30 45 -66z m-3184 -1855 c3 -6 9 -117
12 -247 6 -242 26 -484 52 -649 19 -119 20 -113 -14 -113 -49 0 -165 66 -217
123 -122 135 -197 413 -165 616 26 164 109 275 224 301 33 7 95 -11 108 -31z
m4540 10 c20 -10 50 -34 67 -54 176 -199 136 -647 -75 -858 -46 -47 -164 -107
-209 -107 -39 0 -38 -6 -19 113 31 191 46 360 55 626 6 151 12 276 14 279 3 2
22 10 43 17 42 15 70 11 124 -16z"/>
<path d="M3983 6210 c-153 -16 -333 -90 -401 -164 -76 -83 -80 -171 -9 -243
39 -41 44 -43 102 -43 46 0 71 6 105 25 146 82 271 119 371 111 88 -8 185 -38
290 -92 70 -36 96 -44 139 -44 90 0 150 66 150 165 0 42 -5 51 -52 101 -85 90
-257 162 -438 184 -93 11 -149 11 -257 0z"/>
<path d="M5980 6210 c-85 -10 -221 -50 -295 -88 -135 -67 -178 -119 -178 -212
0 -97 54 -150 153 -150 42 0 67 8 133 44 224 121 407 120 633 -5 61 -33 80
-39 133 -39 40 0 70 6 86 16 67 44 90 156 47 226 -45 72 -216 163 -361 193
-88 18 -259 26 -351 15z"/>
<path d="M4073 5660 c-96 -20 -183 -89 -235 -186 -52 -95 -56 -243 -10 -346
28 -65 123 -153 191 -179 75 -28 232 -24 301 8 63 29 141 108 176 178 27 55
29 69 29 170 0 100 -2 115 -27 160 -37 71 -110 142 -174 172 -62 28 -178 39
-251 23z"/>
<path d="M5979 5661 c-100 -19 -196 -99 -246 -206 -25 -54 -28 -71 -28 -165 1
-130 19 -176 102 -257 85 -84 124 -98 263 -98 135 0 176 15 255 93 127 124
151 338 54 478 -37 55 -103 111 -156 136 -49 21 -174 31 -244 19z"/>
<path d="M4862 4490 c-65 -40 -85 -161 -37 -219 55 -65 191 -106 324 -98 112
6 192 36 249 92 40 40 42 45 42 102 0 70 -22 106 -76 129 -45 19 -81 18 -175
-7 l-80 -21 -69 21 c-86 26 -136 26 -178 1z"/>
<path d="M4532 4009 c-82 -25 -117 -167 -59 -242 56 -74 208 -159 352 -196
333 -88 713 -22 905 156 92 85 103 177 28 250 -37 36 -42 38 -102 38 -51 0
-70 -5 -103 -27 -149 -98 -300 -143 -463 -135 -130 6 -229 36 -355 108 -95 55
-144 66 -203 48z"/>
</g>
</svg>
