<svg xmlns="http://www.w3.org/2000/svg" width="745.333" height="718.667" version="1.0" viewBox="0 0 559 539"><path d="M178.1 4.8c-.5.9-1.9 7.4-3.1 14.5-5.1 30.5-10.8 36.7-39.7 43.7-2.2.6-5.2 1.9-6.5 3-3.9 3.2-1.5 5 11.8 9 6.6 1.9 14 4.8 16.6 6.3 10.9 6.4 16.8 18.4 19.8 40.6 1.1 7.9 1.7 9.5 3.7 10.8 1.6 1 2.7 1.3 3.4.6.5-.5 1.6-5.4 2.4-10.9 3.8-25.3 9.3-36.2 21.2-42.2 3.8-2 17.3-6.3 24.7-7.9 4.8-1 6.8-3.6 4.5-5.8-.9-.9-6.9-3.2-13.4-5.1-13.5-4-16.3-5.3-22.3-10.1-7.1-5.8-10.7-14.8-13.7-34.2-.9-5.7-2-11.2-2.6-12.2-1.2-2.4-5.5-2.5-6.8-.1M256.6 77.1c-3.2 3.7-3.3 6.3-.4 8.3 3.7 2.6 9 1.9 10.8-1.4.7-1.3.2-2.8-2-5.9-1.7-2.2-3.6-4.1-4.4-4.1s-2.6 1.4-4 3.1M347.5 79c-10.7.9-22.3 3.6-31.7 7.2-4.3 1.6-7.8 3.1-7.8 3.3 0 .1.9 2.2 2 4.6 2.6 5.9 2.5 7.6-1 12.9-2.6 4-2.9 5-2.4 9.6.7 5.6-1.5 11.9-6.1 18-1.4 1.8-2.5 3.7-2.5 4.3s1.4 4 3.2 7.7c2.5 5.3 4.5 7.7 9 11.2 3.2 2.5 5.8 4.7 5.8 5s-2.5 5.4-5.5 11.3-5.5 11.4-5.5 12.3c0 2.6 4.2 4.5 15.5 7.1 5.9 1.3 10.9 2.6 11.1 2.8s1.1 3.4 2 7.1c1.6 6.2 1.6 7.3.1 15-1 4.6-2 9.1-2.3 10-.8 2.1 7.3 10.6 14.8 15.3l5.9 3.8-.4 6c-.3 3.3-1.1 9.8-1.7 14.5l-1.3 8.5 5.7 9.9c3.2 5.5 7.8 14.2 10.2 19.3 2.5 5.1 4.9 9.3 5.5 9.3.5 0 5.9-2.2 11.9-4.9 31.8-14.2 58.7-38.6 72.4-65.9 4.7-9.4 7-15.7 9.8-26.7 2.9-11.9 3.1-34.7.4-47.5-8.6-40.2-30.6-70.7-59.8-82.8-18.1-7.6-35.9-10.1-57.3-8.2M365 91.5c0 .3-2.4 5-5.2 10.5l-5.3 10h-5c-5.4.1-17.7 1.5-22 2.6l-2.6.6.2-9.6c.1-6.6.5-9.9 1.5-10.7 2.3-1.9 15.4-3.7 27.2-3.8 6.1-.1 11.2.1 11.2.4m23.8 4.9c8.4 2.9 15.8 6.7 20.1 10.5l3 2.6-8.5 9-8.6 8.9-4.6-2.7c-2.6-1.5-7.7-4.2-11.4-5.9-3.8-1.7-6.8-3.5-6.8-3.9 0-.3 1.6-4.2 3.6-8.5 2-4.4 4-8.9 4.5-10.2.5-1.2 1-2.2 1.2-2.2s3.6 1.1 7.5 2.4m-20.6 30.4c11.9 4.3 19.9 10.8 24 19.7 2 4.4 2.3 6.5 2.3 18-.1 11.4-.4 14-2.8 21-5.7 17.3-22.2 38.8-34.4 44.9-11 5.5-9.9 2.9 5-11.8 10.5-10.4 12.9-13.4 16.9-21.1 6.6-12.7 9.1-22.6 8.6-33.4-.9-18.8-10.5-29.5-30.3-33.8-6.7-1.5-9.1-1.5-20.2-.4-6.9.6-12.7 1-12.9.8-.3-.2-.2-1.1.1-1.9.6-1.4 2.9-2.3 11-4.2 1.1-.3 7.6-.3 14.5-.2 9.4.3 13.9.9 18.2 2.4m60.3 4.4c4.9 10.6 6.6 18.5 6.3 28.1l-.3 8.2-5.7 1.1c-3.1.6-8.8 1.4-12.6 1.6l-6.9.5-.7-8.7c-.4-4.8-1.6-12-2.7-16s-1.6-7.7-1.2-8.1c1.8-1.8 18.9-13.8 19.6-13.9.5 0 2.3 3.3 4.2 7.2m27.1 53.2c.4 5.9.2 10.1-.6 12.1l-1.2 3-2.3-2.8c-3.8-4.4-4.1-8.7-1.1-16.2 1.4-3.6 2.6-7.3 2.7-8.3.1-4.8 2 4.2 2.5 12.2m-26.6 10c-3.9 10.1-7.3 16.7-13.2 25.3-4.8 7.2-16.4 21.6-17.6 22-.4.1-4.8-2.8-9.9-6.6l-9.2-6.8 4-3.9c5.1-4.9 14.4-18.8 18.8-28.1l3.4-7.1 10.1-1c5.6-.5 11.5-1 13.3-1.1l3.1-.1zm20.2 21.4c.1 8.6-1.2 9.5-5.1 3.9-1.7-2.5-3.1-4.9-3.1-5.4 0-.4 1.2-3.6 2.7-7l2.7-6.3 1.4 4.3c.7 2.3 1.4 7 1.4 10.5m-13.6 16.9 2.7 5.8-2.7 5c-3.8 7.2-9.6 14.9-10.6 13.9-.4-.5-2-3.2-3.5-5.9l-2.8-5.1 6.7-9.7c3.7-5.3 6.9-9.7 7.1-9.7s1.6 2.6 3.1 5.7m-66.7 11c2 1.5 6.2 4.9 9.3 7.6l5.7 4.9-2.7 2.2c-6.8 5.6-24.1 16.8-25 16.2-.7-.4.2-3.6 2.4-8.9 2.2-5.1 4-11.3 4.7-16.5.6-4.5 1.3-8.2 1.5-8.2.3 0 2.1 1.2 4.1 2.7M230.9 114.2c-2.7 2.8-4.9 5.7-4.9 6.4 0 3.1 10.2 6.8 22 8 8.6.8 8.8.2 2.3-7.4-8-9.3-11-12.2-12.7-12.2-1 0-3.9 2.3-6.7 5.2M105.3 114.2c-.5.7-1.9 5.3-3.1 10.2S99 135 97.6 137c-2.5 3.8-9.5 7.9-17.6 10.2-3.3 1-4.6 1.9-4.8 3.4-.3 1.8.4 2.3 3.4 2.9 15.7 2.9 22.6 9.9 25.6 26.1 1 5.7 1.4 6.5 3.2 6.2 1.7-.2 2.5-1.8 4.1-8.3 1.2-4.4 2.8-9.4 3.7-11.1 3.4-6.4 10-10.4 21.1-12.8 2-.5 2.7-1.2 2.7-2.9 0-2-1-2.7-7.5-4.7-12.4-3.9-16.8-8.9-20.5-23.6-2.5-9.8-3.4-11.1-5.7-8.2"/><path d="M210.4 146.2c-31.6 32.8-41.9 73.4-28.4 112.2 2.6 7.6 10.9 23.2 15.9 29.9 6.2 8.5 17.7 20.2 24.9 25.5 12.4 9.2 25.7 14.4 45.2 17.8 14.8 2.5 47.4 1.5 63.6-1.9 10.8-2.3 22.9-5.9 24.1-7.1.6-.6-4.4-7.6-11.1-15.6-3.1-3.6-5.6-6.8-5.6-7.3 0-1 3.4-.9 4.6.2 1.4 1.4 8.4 3.1 8.4 2.1 0-1.3-8.8-15.8-12.3-20.3-3-3.8-3-3.9-1.8-10.7 2-12.6 1.7-14.2-3.7-19.2-2.7-2.3-8.7-6.6-13.3-9.4-12.7-7.8-12.4-7.2-8.8-18.3 1.6-5.1 2.7-9.7 2.4-10.2-1.1-1.6-5.8-3.6-15.5-6.4-5.2-1.5-10.7-3.4-12.3-4.3-3-1.8-5-7.1-6.2-16.5l-.7-5.5-4.5-.6c-2.5-.3-7.1-.6-10.3-.6h-5.7l-3.3-10.4-3.4-10.4-4-.7c-7.6-1.2-18.1-7-23.3-13-2.8-3.2-5.6-5.5-6.8-5.5s-4.6 2.6-8.1 6.2m16.1 16c2.8 1.4 6.7 3.1 8.8 3.7 2 .7 3.7 1.4 3.7 1.7 0 .2-1.6 2.5-3.6 5.1s-5.2 7.7-7.2 11.4c-3.7 6.7-3.7 6.7-9.2 7.8-3 .6-9.2 1.4-13.8 1.7l-8.3.7 2.6-6.9c2.9-7.8 10.4-20.7 15.4-26.5 3-3.6 3.5-3.8 5-2.6.9.8 3.9 2.6 6.6 3.9m25.5 16.7c0 .8-1.1 3.3-2.5 5.6-5.1 8.8-7 15.4-7 25 0 7.2.5 10.2 2.4 15 4.9 12.2 19.1 22.5 36.1 26.1 7.6 1.6 29.3 1.5 33.3-.1.9-.4 1.7-.3 1.7.3 0 1.1-9.4 4.7-16.5 6.3-6.2 1.3-19.4.4-28-2.1-14.3-4.1-28.3-14.7-33.5-25.5-2.3-4.5-2.5-6.2-2.5-18l.1-13 4.1-8.7c2.3-4.8 5.4-10.3 6.9-12.3 2.6-3.4 2.9-3.6 4.1-1.9.7 1 1.3 2.4 1.3 3.3m-31.5 30c-.9 3.1 1.4 19.7 3.6 25.7 1.2 3 1.9 5.7 1.7 5.8-4.2 3.3-23.7 14.6-25.2 14.6-1 0-6.2-11.1-7.7-16.5-1.4-5.1-2-25.8-.7-27 .4-.4 4.6-1.2 9.5-1.7 4.8-.5 10.4-1.3 12.3-1.8 5.9-1.4 7.2-1.2 6.5.9m19.9 46.6c5 3.8 17.3 9.1 25.7 11l7.6 1.8-1.9 5.1c-1.1 2.8-3.5 8.6-5.5 12.8-4.2 9.1-4.2 9-16.9 5.7-14.6-3.8-26.8-10.2-34.8-18.2l-4.9-4.9 7.4-4c4.1-2.2 9.9-5.7 12.9-7.8s5.9-3.9 6.3-3.9c.5-.1 2.3 1 4.1 2.4m88.4 10.9c-.3 3.5-1.3 7.9-2.2 9.7-1.6 3.2-1.6 3.3 1.6 6.8 1.8 1.9 3.9 4 4.7 4.6 2.8 2.3-21.5 8.1-38.3 9.1l-10.9.7.6-2.9c.4-1.6 2.2-7.9 4.1-13.9l3.4-11 6.4-.6c8.4-.9 19-3.6 25.2-6.5 2.8-1.3 5.3-2.4 5.5-2.4s.1 2.9-.1 6.4M242.5 307c3.9 1.3 7.2 2.5 7.3 2.6.6.4 2.1 7.8 1.7 8.2-.8.8-14.1-6.6-19.3-10.8-7.2-5.9-7.9-7.9-1.6-4.7 2.7 1.3 8.1 3.5 11.9 4.7m27.4 6.6c3.6.6 3.8.9 4.7 5.5 1.2 5.5.9 5.7-5.7 3.9-3-.8-3.8-1.7-4.7-4.9-1.6-5.2-1.5-6.4.4-5.7.9.3 3.3.9 5.3 1.2M123.7 213.8c-2 2.2-2.2 5.3-.5 7 1.9 1.9 6.6 1.4 8.8-.8 2.6-2.6 2.5-4.5-.2-6.4-3-2.1-6.1-2-8.1.2M158.5 257.6c-1.8 1.8-1.6 3.3.7 4.7 3.5 2.2 6.6-2.1 3.6-5.1-1.6-1.6-2.3-1.5-4.3.4M139 276.6c-3 1.4-6.5 3.5-7.7 4.6-2.8 2.6-1.9 3.6 7.8 8.3 9 4.3 20.9 7.1 25.1 5.9l2.9-.9-4-6.2c-2.2-3.4-5.8-8-8-10.2-5-5-8.1-5.2-16.1-1.5M182.3 290.3c-1.2 1.7-3.2 5.3-4.4 7.9-2.8 5.9-2.1 7 6.6 9.2 9.1 2.3 10.5 2.1 10.5-1 0-2.4-8.7-19.4-9.9-19.4-.3 0-1.6 1.5-2.8 3.3M475.3 289.2c-.5.7-1.7 5.1-2.6 9.7-3 15.7-7.8 21.5-21.2 25.4-6.1 1.8-8.1 2.9-8.3 4.3-.2 1.6 1.2 2.4 8.6 4.6 13.5 4.1 18.8 10.4 21.4 25.5 1.1 6.5 1.4 7.3 3.4 7.3 1.9 0 2.4-.8 3.4-5.8 2.1-10.5 4.1-15.3 8.4-19.7 3.3-3.5 5.5-4.7 11.6-6.5 4.1-1.2 8.1-2.4 8.8-2.6s1.2-1.4 1-2.6c-.2-1.9-1.6-2.7-7-4.5-13.4-4.2-18.5-9.8-21.2-23.1-2.1-10.2-2.9-12.5-4.2-12.9-.6-.2-1.5.2-2.1.9M123.5 315.6c-30.5 4.6-52.5 13-65.3 24.9-11.2 10.3-13.7 18.7-10.8 35.8 2.4 14.2 3.4 17.7 6.2 21.4 2.3 3 2.3 3.5 1 5.5-2.4 3.7-2.9 9.2-1.7 18.5 1.5 10.9 5.2 19.4 11.7 26.3 2.7 2.9 4.3 5.4 3.8 5.9-.5.4-5.1 3.8-10.1 7.5-5.1 3.7-9.3 7.1-9.3 7.6 0 1.5 8.5 4.9 15.5 6.1 10.3 1.8 30.4 0 40.4-3.6.8-.3-3.5-4.2-11-9.8-18.2-13.6-20.5-17.9-8-14.7 6.1 1.5 8 2.7 14.7 8.5 4.3 3.7 9.2 7.4 11 8.1 3.5 1.5 17.1 1.9 19.1.6.8-.5-1-2.5-5.6-6-12.4-9.4-19.1-18.1-19.1-24.7 0-4.8 1.8-3.6 20.7 13.8 13.7 12.6 16.5 14.1 25.6 13.4 3.7-.2 7.4-1 8-1.6 2-2 2.6-1.1 1.5 2.7-.6 2-.8 7.6-.5 12.4.5 10 3.3 16.8 10.1 24.5 15.7 17.9 53.5 32.9 88.4 35l10.2.6v-3.4c0-1.9-.8-6.5-1.9-10.2-1.6-5.9-1.4-8.7.4-5.7 1.1 1.8 10.6 6.1 12.8 5.8 3.1-.4 4.6-5.5 4.6-15.5l.1-8.1 8.5-5.3c4.7-2.9 8.8-5.6 9.1-6.1.7-1.1-3.6-8.6-9.3-16.1-2.8-3.7-3.9-5.9-3.1-6.2 17.6-5.5 22.1-7.2 22.6-8.4.3-.8-.5-6.6-1.8-13-3.8-19.2-2.9-17.6-11.8-19.9-17.9-4.7-38.8-8.2-58.4-9.7l-8.8-.7v-4.7c0-7.1-1.9-17.3-3.9-20.6-1.7-2.9-1.7-3.1.1-6 1.7-2.6 1.9-4.3 1.4-11.5-1.1-17-6.7-32.3-14.1-38.7-8.3-7.1-25.9-13.2-44.4-15.3-12-1.4-37.9-1.1-48.6.6m57.5 11.3c25.3 6.2 33.1 16.2 21.5 27.5-13.1 12.7-46.1 22.3-80.5 23.3-25.3.7-42.8-2.6-51.8-9.8-9.1-7.2-6.3-18.5 6.5-26.2 14.1-8.6 29.8-13.3 56.8-17.1 1.7-.2 11.1-.3 21-.1 14 .3 19.9.8 26.5 2.4m32.6 40.8c-.7 2.2-9.5 9.2-15.6 12.3-2.5 1.3-9.4 4.4-15.5 7l-11 4.6-.3 9.1c-.2 6-.7 9.3-1.5 9.6-3.2 1.2-19.7 4-20.2 3.5-.4-.3-1-4.5-1.4-9.2-.5-4.8-1-8.9-1.3-9.1-.3-.3-6.7-.1-14.3.5-12.8.9-30.9.2-41.5-1.6-11.7-2-24.9-8-28.9-13-2.6-3.3-2.7-5.3-.3-3.1 2.6 2.4 13.1 6.5 22.1 8.7 19 4.7 45.1 4.6 72.2-.5 18.8-3.4 46.9-13.3 54.4-19 3.3-2.5 4-2.5 3.1.2m.4 32.7c0 4.5-18.4 14.5-38.5 21.1-25.9 8.5-55.5 8.7-55.5.5 0-1.9.7-2 12.8-2 24.3-.1 41.5-3.1 62.1-11.2 11.3-4.4 17.1-7.4 17.1-8.9 0-.5.5-.9 1-.9.6 0 1 .6 1 1.4M91.8 420.2c-4.1 3.5-7.9 3.2-14.6-1.1-4-2.6-9.2-8.4-9.2-10.3 0-.3 6.1 1.5 13.6 4l13.6 4.6zm173.7 6.8c15.7 2.5 26.8 4.9 27.8 5.9.5.5.4 1.9-.3 3.1-.9 1.7-.9 2.5.4 3.9.8.9 1.7 3.2 1.8 5.1l.3 3.5-7 2.2c-3.8 1.2-11 3.4-15.8 4.8l-8.8 2.6 3.3 4.2c1.8 2.3 7.2 8.3 12 13.3 4.9 5 8.8 9.4 8.8 9.7s-3.8 3.3-8.5 6.7-8.5 6.3-8.5 6.5 2.3 1.8 5 3.6c4.6 3 5 3.6 5 7.1 0 2.1-.3 3.8-.7 3.8-2.7 0-25.3-18.4-25.3-20.5 0-.6 2.6-2.6 5.8-4.5 7-4.2 6.6-3.9 6-4.5-.2-.3-7-1.9-14.9-3.5-20.7-4.4-31.2-7.5-41.4-12.5-14.2-7-22.5-15.5-22.5-23.1 0-8.3 14.6-16.8 33.5-19.3 9.4-1.3 29.4-.4 44 1.9m-69.3 47.5c9.4 5.3 21.9 10.1 37.8 14.6 11.1 3.1 11.7 3.4 16.8 8.7 2.9 3 5.1 5.6 4.9 5.8-.7.7-19.6-3.5-29.7-6.5-14.4-4.3-24.3-8.7-32.3-14.5-7.5-5.3-14-13.5-15.3-19.1-.7-3-.7-3 4.5 1.8 2.9 2.6 8.9 6.7 13.3 9.2"/><path d="M135.9 332.1c-16.7 1.7-39.1 8-48.5 13.5-4.9 2.8-9.4 7.8-9.4 10.4 0 3.7 4.9 7.9 11.7 10s15.3 2.7 15.3 1.1c0-.5-1.7-1.5-3.7-2.2-6-1.9-13.3-5.8-14-7.5-2-5.2 16.7-13.7 41.7-18.9 9.4-1.9 16.9-2.7 30.3-3.2 9.7-.3 17.6-.8 17.4-1-.8-.8-22.5-3.3-27.7-3.1-3 0-8.9.4-13.1.9M227.7 432c-7.1 1.2-17.7 4.7-21.5 7-7.1 4.4-5.9 10.8 3.1 16 6 3.5 14.7 6.3 17.9 5.8 1.8-.3.4-1.4-5.9-4.6-8.8-4.5-12.4-8.2-10.6-11.1 2.9-4.6 21.1-8.8 42.6-9.8 7.6-.3 13.4-1 13-1.4-2.7-2.5-27.4-3.7-38.6-1.9M362.3 340.8c-8.9 10.8-23.6 33.5-23.1 35.7.7 3.1 43.6-15 47.9-20.2 1.5-1.8-2.5-6.1-13.3-14.4l-7.6-5.9zM270.6 357.1c-1.8 2.7-1.1 4.7 2 5.5 5.2 1.3 8.3-2.6 4.5-5.8-3-2.4-4.6-2.3-6.5.3M308.1 360.8c-8.5 3.6-9.3 4.9-6.1 10.8 2.7 5.2 8.7 9.7 12.2 9.2 2.2-.3 2.3-.6 2.1-9.4-.2-5-.6-10-1-11.2-.8-2.1-.8-2.1-7.2.6M264.6 383.1c-3.1 2.8-5.6 5.7-5.6 6.5 0 2.1 8.5 5.4 15.7 6.1 5.2.5 6.7.3 8.3-1.2 1.9-1.7 1.9-1.8-.3-4.9-2.5-3.6-10.7-11.6-11.8-11.6-.4 0-3.3 2.3-6.3 5.1M523.6 385.6c-.9.8-1.6 2.8-1.6 4.4 0 5.4 5.6 8.3 10.9 5.6 4.3-2.2 4.2-5.7-.2-9-3.9-3-6.9-3.3-9.1-1M405.6 396.9l-.7 5.8-11.9 1.1c-14.8 1.4-16.4 2.1-15.5 7 .7 3.9 3.9 10.7 6.2 13.3 1.6 1.9 2.5 1.8-27.4 4-8.3.7-15.7 1.6-16.5 2-.9.6 3 5 14.5 16 8.6 8.3 15.7 15.5 15.7 16 0 .6-1.3 2.2-3 3.6-2.9 2.4-3 2.7-3 11.9 0 8.8.1 9.4 2.5 11 4.2 2.7 16.5 6.4 29 8.7 16.6 3 55.8 3.2 71 .3 14.3-2.6 27.2-7 34.3-11.5 6.9-4.5 7.3-5.4 9.3-20.6 3-23.1 2.7-29.8-1.6-39-9.4-19.7-49.2-35.5-89.6-35.5h-12.6zm37.5 6c17.6 2.9 35.3 10.1 43.8 17.7 8.4 7.5 9.2 15.3 2.3 22-2 2-5.4 4.5-7.4 5.5-6.3 3.2-20.2 6.8-31.5 8-10.4 1.1-35.3.7-45-.7-2.4-.4-4.3-.3-4.3.2 0 .8 8.1 7.1 12 9.5 2.4 1.4.1 2.3-11.7 4.3-14.1 2.4-14.3 2.5-14.3 8.6 0 4.1-.3 5-1.8 5-1.9 0-13.2-10.8-13.2-12.6 0-.6 3.4-2.6 7.5-4.4s7.5-3.5 7.5-3.7c0-.3-4.6-5.4-10.2-11.4-5.7-6-10.4-11.4-10.6-11.8-.4-1.1 5.9-2.5 20.3-4.7 6.1-.9 11.8-2 12.8-2.6 1.7-.9 1.7-1.1.3-3.1-3.4-4.8-7.8-12.9-7.3-13.4.3-.3 5.5-1.2 11.4-2 13.3-1.8 33.4-1.1 47.8 1.6 5.5 1.1 10.2 1.8 10.3 1.6.2-.2-3.2-1.5-7.6-2.9-9-2.8-20.8-5.2-33-6.5-4.6-.5-8.6-1.1-8.8-1.4-.3-.3-.1-1.4.5-2.6 1.7-3.1 12.3-3.1 30.2-.2m55 53.9c-2.8 5.5-7.1 8.8-17.7 13.8l-9.1 4.2-.5 6.7c-.3 3.6-.7 6.8-.9 6.9-.2.2-2.5.6-5.1.8l-4.8.6v-4.2c0-2.3.4-5.6.9-7.4l1-3.2h-12.7c-11.7-.1-25.3-1.8-26.9-3.4-2.1-2 2.8-3.1 17.5-3.8 17.7-.8 32.1-2.8 40.2-5.6 6-2.1 14.3-6.1 17.5-8.5 2.8-2.1 2.9-1.5.6 3.1M333.1 399.6c-2.8 3-5.1 5.9-5.1 6.4 0 1.5 3.5 2.2 13.8 2.7 8.6.5 10.2.4 10.2-.9 0-1.9-10.8-13.8-12.5-13.8-.7 0-3.6 2.5-6.4 5.6M21.6 420.8c-1.4 2.3 2.3 8.1 7.6 12 6.2 4.6 17.6 10.7 18.4 9.9.3-.3-1.4-4.5-3.8-9.4-3.7-7.5-4.9-9.1-8.2-10.7-4.6-2.3-13-3.3-14-1.8M542 437.1c-7 3.1-13 9.8-13 14.4 0 2.4 2.4 1.8 8-2.1 2.8-1.9 5.4-3.4 5.6-3.1.3.2 0 1.6-.6 3.1-.5 1.5-1 3.4-1 4.2 0 2.1 4.3 1.7 7.3-.6 2.7-2.2 6.7-11.4 6.7-15.5 0-2.3-.4-2.5-4.2-2.5-2.4 0-6.3 1-8.8 2.1M330 450.4c-.6.8-1 2.5-.8 3.8.4 2.8 4.4 3.5 10.1 1.8 4.5-1.3 4.4-2.6-.3-5.2-4.2-2.2-7.3-2.3-9-.4M10.5 452.4c-1.6.8-3.9 2.1-5 3-2 1.6-2 1.6.8 4.1 3.4 3 8.5 4.5 15.7 4.5 8.9 0 21-4 21-7 0-.5-1.9-2-4.2-3.2-5.5-2.8-23.4-3.7-28.3-1.4M319.1 470.9c-4 2.5 5.5 10.5 10 8.5 1.9-.9 1.8-1.1-1.6-5.2-3.6-4.2-5.7-5-8.4-3.3M524 473.7c-6.4 3.3-6.6 10.1-.4 11.4 8.2 1.8 26.7.3 31.3-2.5 1.9-1.2-.5-4.1-6.1-7.1-6.9-3.8-19.3-4.7-24.8-1.8M118.5 483c-8.2 4.1-12.2 7.7-10.8 9.9 2.7 4.2 23 5.2 29.6 1.4 2.7-1.6 3.3-2.6 3.5-6 .3-3.4-.1-4.4-2.4-6.2-4.1-3.2-12.3-2.9-19.9.9M328.5 496.7c-12.1 2.6-20.2 4.6-21.7 5.4-1 .6-1.8 2.1-1.8 3.5 0 1.5-.7 5.7-1.7 9.5-.9 3.8-1.4 7.2-1 7.5 1.5 1.5 16.9 4.3 23.9 4.4 9.5 0 16-2.2 26.1-9 8.7-5.9 13-10.2 12.5-12.6-.4-2.4-7.7-6.4-14.7-8.1-5.3-1.2-17.3-1.6-21.6-.6m25.5 8.8c0 .3-1 1-2.2 1.5-1.3.6-4.5 2.4-7.3 4.2-7.2 4.5-13.9 4.9-20.1 1.3-3.1-1.8-4.3-3-3.6-3.7 1.8-1.8 33.2-4.9 33.2-3.3M155.2 498.3c-1.6 1.9 1.1 5.8 2.8 4.1 1.4-1.4 1-4.6-.6-5.1-.6-.2-1.6.2-2.2 1M420.2 511.1c-2.9 1.1-2.4 3 1.1 4.7 4.4 2.1 10.7-.7 9.3-4.3-.6-1.7-6.6-2-10.4-.4"/></svg>