<?xml version="1.0" standalone="no"?>
<!DOCTYPE svg PUBLIC "-//W3C//DTD SVG 20010904//EN"
 "http://www.w3.org/TR/2001/REC-SVG-20010904/DTD/svg10.dtd">
<svg version="1.0" xmlns="http://www.w3.org/2000/svg"
 width="1024.000000pt" height="1024.000000pt" viewBox="0 0 1024.000000 1024.000000"
 preserveAspectRatio="xMidYMid meet">
<metadata>
Created by potrace 1.16, written by Peter Selinger 2001-2019
</metadata>
<g transform="translate(0.000000,1024.000000) scale(0.100000,-0.100000)"
fill="#000000" stroke="none">
<path d="M4747 8713 c-863 -854 -1277 -1431 -1551 -2163 -152 -405 -304 -1126
-308 -1455 -1 -120 9 -156 59 -222 39 -51 191 -185 323 -284 60 -45 110 -85
110 -89 0 -3 -53 -31 -117 -62 -269 -129 -537 -291 -684 -414 -130 -108 -216
-224 -269 -360 -39 -103 -267 -863 -481 -1603 -122 -426 -124 -458 -32 -528
l36 -28 2825 0 c2788 0 2824 0 2838 20 10 14 13 36 9 80 -5 53 -21 399 -80
1740 -9 193 -20 433 -24 533 l-8 184 -29 29 c-44 44 -276 179 -504 293 -113
57 -212 106 -220 109 -18 7 -22 3 141 132 152 120 278 247 308 310 46 96 40
249 -25 635 -182 1079 -546 1809 -1334 2670 -156 171 -554 574 -613 621 -46
36 -53 39 -114 39 l-66 0 -190 -187z m319 -1693 c225 -77 514 -238 714 -397
139 -110 368 -357 463 -498 33 -49 33 -57 2 -209 -103 -509 -321 -953 -621
-1266 -155 -161 -331 -293 -515 -385 l-86 -43 -94 50 c-207 110 -381 240 -530
395 -247 258 -459 638 -572 1028 -47 161 -99 403 -90 418 3 7 53 67 110 134
277 326 607 565 1016 734 78 32 142 59 143 59 0 0 27 -9 60 -20z"/>
<path d="M4064 6299 c-17 -19 -19 -36 -18 -153 3 -203 50 -327 160 -422 89
-77 128 -89 284 -89 134 0 135 0 197 34 69 37 149 115 159 155 8 33 1 51 -28
70 -13 8 -167 107 -342 220 -269 174 -325 206 -356 206 -25 0 -43 -7 -56 -21z"/>
<path d="M5853 6310 c-12 -5 -106 -65 -210 -133 -103 -68 -240 -156 -303 -196
-191 -121 -198 -140 -90 -243 89 -85 152 -108 301 -108 127 0 188 22 268 95
108 101 155 230 156 431 0 106 -2 125 -19 143 -20 22 -63 27 -103 11z"/>
<path d="M7747 8512 c-22 -24 -22 -94 -1 -214 19 -109 14 -193 -16 -284 -41
-121 -126 -227 -384 -475 -82 -79 -176 -177 -207 -217 -68 -84 -123 -194 -145
-290 -22 -88 -21 -290 0 -394 40 -189 146 -362 314 -510 91 -81 168 -118 247
-118 34 0 66 5 73 12 26 26 14 92 -32 169 -53 89 -83 173 -98 280 -27 191 65
415 250 607 61 63 223 192 241 192 4 0 11 -64 14 -142 11 -229 32 -280 179
-434 112 -118 143 -178 141 -279 -1 -83 -27 -161 -85 -249 -40 -62 -50 -120
-26 -144 7 -7 37 -12 68 -12 121 0 317 138 446 312 123 167 172 344 161 582
-8 192 -54 322 -148 422 -51 53 -55 55 -98 52 -41 -3 -48 -6 -63 -38 -9 -19
-29 -62 -45 -95 -47 -98 -103 -112 -130 -33 -10 31 -8 53 19 164 26 106 32
149 32 244 0 134 -16 206 -74 325 -87 180 -368 508 -487 569 -44 22 -125 21
-146 -2z"/>
<path d="M7436 5809 c-39 -31 -56 -71 -56 -134 0 -73 12 -97 114 -229 l84
-108 6 -82 c5 -85 26 -654 51 -1456 9 -261 29 -816 45 -1232 17 -416 30 -798
30 -848 0 -99 9 -127 57 -172 37 -35 105 -50 194 -42 80 8 122 30 153 83 22
37 22 40 46 711 6 173 20 536 30 805 11 270 29 749 40 1065 41 1174 40 1164
55 1185 8 11 44 56 81 100 98 119 117 155 118 226 1 59 0 61 -46 105 l-47 44
-464 0 c-456 0 -465 0 -491 -21z"/>
</g>
</svg>
