<svg xmlns="http://www.w3.org/2000/svg" width="568" height="568" version="1.0" viewBox="0 0 426 426"><path d="M169.5 3.1c-52.3 2.4-105 12.6-129.8 25C2.2 47 1.8 70.6 38.5 91.7c24.9 14.4 71.6 25.4 128.3 30.4 18.1 1.6 77.1.6 95.2-1.5 42.8-5.1 76.3-13.7 101.5-26.1C384.6 84.1 396 72.1 396 60.3 395.9 28.5 332.8 7.1 227 3c-26.9-1.1-32.5-1.1-57.5.1m94.6 25.3c52.5 5 90.9 17.3 90.9 29.2 0 12.8-46.5 26.6-106 31.3-69.7 5.5-151.8-3.4-184.5-20.1-12.5-6.3-14.7-11.6-7.6-18.1C70.1 38.8 105.2 30.9 162.5 27c18.1-1.2 83.5-.3 101.6 1.4M375.1 145.7c-.5 2.1-1.2 5.6-1.6 7.8-3 18.8-9.9 26.3-27.6 30-10.8 2.3-11.1 2.4-10.7 4.8.3 1.8 1.9 2.6 10.8 5 17.7 4.7 22.6 9.4 26.2 24.6 4.1 17.4 3.6 16.1 6.8 16.1 1.6 0 3.1-.4 3.4-.9.4-.5 1.5-5.4 2.6-10.8 4-19.6 9.1-25 27.8-29.2 15-3.3 14.7-5.3-1.7-10.1-10.9-3.3-16.6-6.2-20-10.6-2.2-2.7-5.5-12.2-6.6-19-1.7-10-2.4-11.4-5.5-11.4-2.5 0-3 .5-3.9 3.7M52.3 153.2c-.6.7-1.3 3.1-1.7 5.3-2.6 15.3-6.3 20.4-16.9 23.6-10.4 3.1-11.7 3.7-11.7 5.3 0 1 1.6 1.9 4.3 2.6 17.3 4.2 21.2 7.1 23.2 17 1.8 9.1 2.6 11 4.5 11 2.4 0 2.8-.7 4-7.1 2.3-12.2 6.3-16.2 19.3-19.5 10.7-2.6 10.2-5.7-1.3-8.8-11.4-3.1-15.6-8-18-21.6-1.1-6.2-2.4-9-4-9-.4 0-1.2.6-1.7 1.2M190.5 161.1c-33.6 7.7-56.1 41.9-49.1 74.8 4.5 20.7 22.2 40.5 42.9 47.9 6.1 2.2 9 2.6 18.7 2.6 12.6 0 19.1-1.4 29-6.4 7.2-3.6 16.3-10.9 21.8-17.4s11.7-18.8 13.2-26.3c1.9-8.7.8-26.4-2-33.6-3.2-8.4-11.2-19.8-18.3-26.2-7-6.3-21.4-13.8-29.5-15.4-6.3-1.3-21-1.3-26.7 0M323.5 221.2c-.2.7-1.1 4.2-2 7.8-.8 3.5-2.3 7.2-3.2 8.2s-4.7 2.8-8.5 3.9c-3.9 1.2-6.7 2.6-6.5 3.2.2.7 3.2 2.2 6.8 3.4 7.2 2.4 9.4 4.6 11 10.6 2.6 9.6 4.6 11.1 6.1 4.6 2.7-11.2 4.9-13.5 14.6-15.9 3.1-.8 4.2-1.6 4.2-3 0-1.5-1.2-2.1-5.6-3-3.4-.7-6.6-2.1-8-3.5-2.2-2.3-4.4-8.1-4.4-12.2 0-3.2-1-5.3-2.6-5.3-.8 0-1.6.6-1.9 1.2M36.5 265.7c-.4 1-1.5 5.7-2.5 10.6-1 4.8-2.8 10.3-4 12.2-2.8 4.6-8.9 8-17.5 10-10.4 2.4-10.5 2.4-10.5 5 0 2.1.7 2.5 5.8 3.5 18.5 3.6 22.9 7.6 26.3 23.2 2.3 10.4 4.7 14.4 7.4 11.7.9-.8 2-4.1 2.5-7.4 3.1-18.7 7.6-23.5 26.5-27.7 4.9-1.1 6-1.7 6-3.3s-1.5-2.4-9-4.6c-17.2-4.9-20-7.6-23.1-23-2-9.9-2.8-11.9-5.3-11.9-1.1 0-2.2.8-2.6 1.7"/><path d="M159 287.6c-3 1.4-8.8 3.4-12.9 4.5-20.8 5.6-30.9 10.6-40.3 20.2-4.7 4.7-7.8 8.9-10.2 14-3.4 7.2-6.4 17.2-5.5 18.2.8.7 23.5 5.2 30.7 6.1 3.4.3 6.2 1.1 6.2 1.7s-6.1.7-17.2.3c-16.4-.6-35.7-1-38.7-.7-2.4.2.8 3 6.8 6 8.3 4.2 32 9.1 43.9 9.1 2.3 0 4.2.4 4.2.9 0 1.1-8.5 4.1-11.7 4.1-1.3 0-2.3.6-2.3 1.4 0 1.8 1.2 2.6 4.7 3.2 5.6 1 9.6 5.2 7.4 7.8-.8.9-.5 1.5 1.2 2.3 5 2.4 7.9 3.3 10.1 3.3 1.3 0 3.5.9 4.9 2l2.6 2.1 12.7-5.1c7.1-2.8 13.2-4.9 13.8-4.7.5.2-4.8 3.8-11.7 8.1-7 4.3-12.7 8.2-12.7 8.7 0 .6.9.5 2.1-.2 1.5-.8 2.4-.8 3.2 0 .6.6 1.9 1.1 2.9 1.1s1.8.4 1.8.9 1.4 1.1 3.1 1.5c1.6.3 3.7 1.3 4.5 2.1.9.8 2 1.3 2.5 1 .5-.4.9.2.9 1.1 0 1.1 3.3-1.6 9.2-7.4 5.1-5 9.4-8.9 9.6-8.7.6.6-4 8.2-7.7 12.9-3.6 4.5-3.8 5.6-1.1 5.7 1.1.1 2.3.2 2.8.3.4.1 2.3.6 4.2 1 6.1 1.4 13 5.9 13 8.5 0 .6 1.2 1.1 2.6 1.1h2.6l-.7-6.8c-2.6-28.3-3.9-33.6-9-38-4.1-3.7-9.2-4.9-27.8-6.7-8.2-.7-15.1-1.6-15.4-1.9-.5-.5 1.4-.7 17.9-2.5 14.2-1.6 19.2-2.9 23.7-6.2 6.7-4.8 9.8-13.2 12.1-32.9.7-5.2 1.5-9.9 2-10.3.4-.5 1.1 2 1.5 5.5 3.7 35.8 8.3 41.4 36.5 43.9 6.3.6 12.9 1.4 14.5 1.8 3 .8 3 .8.5 1.4-1.4.3-8.5 1.1-15.9 1.7-7.3.7-15.5 1.8-18.1 2.6-6.4 1.9-10.5 6.6-11.9 13.6s-4.1 28-4.1 32c0 2.9.1 3 1.4 1.3.7-1 2-1.6 2.9-1.2.8.3 2.2-.2 3.2-1.3 1.5-1.7 7.1-3.6 14-4.7 1.7-.3 3.2-.7 3.4-.9s1 .1 1.8.7c2.2 1.9 1.5.4-3.4-7.8-10.1-16.5-9.8-18.5.9-5.4 6 7.4 7.8 9.1 10.1 9.1 1.5 0 2.7-.5 2.7-1.3s1.5-1.4 3.7-1.5c2-.2 4.2-.7 4.8-1.1.5-.5 3.6-1.4 6.8-2.1 3.1-.6 5.7-1.3 5.7-1.5s-2.8-2-6.2-4.1c-12-7.1-20.8-12.7-20.5-13.1.2-.2 4.2 1.1 8.8 2.8 18.2 6.7 18.7 6.8 25.9 5.2 3.6-.8 8.2-1.9 10.2-2.5 3.8-1.1 5.6-3.7 4.1-6-1.4-2.3-1.2-3.9.5-4.5 4.3-1.4 10.2-4.6 10.2-5.4 0-1.2-4.4-2.9-7.3-2.9-3.4 0-9.7-2-9.7-3 0-.6 2.3-1 5.1-1 6 0 22.8-2.5 31.4-4.7 6.7-1.7 17.8-6.7 19.6-8.9.6-.8.8-1.4.3-1.4-4.7-.3-35.1.1-46.9.6-10.3.5-14.7.3-14-.4.6-.6 3.9-1.3 7.5-1.7 7-.7 31.1-5.3 31.9-6 .8-.9-2.9-12.6-5.9-18.5-1.6-3.2-5.5-8.6-8.6-11.9-8.6-9.3-17.1-14-39-21.5-10.6-3.6-19.6-6.6-20.2-6.6-.5 0-3.8 1.3-7.3 2.9-10.7 4.8-20.3 6.4-34.3 5.8-13-.6-21.4-2.5-30.3-7.1-2.9-1.4-5.4-2.6-5.5-2.6-.2 0-2.8 1.2-5.8 2.6m21.1 45.6c1.7 3.3 2.8 6.2 2.6 6.4-.2.3-2.1-2.8-4.2-6.7-2.1-4-3.2-6.9-2.6-6.5s2.5 3.5 4.2 6.8m50.3-3c-2.4 4.7-5.5 9-6.1 8.4-.3-.3 1.2-3.2 3.2-6.6 3.9-6.4 5.9-7.7 2.9-1.8m-66 11.6c6.9 4.3 8.2 6.1 3.1 4.2-3-1.1-16.3-9.8-17.1-11.2-.9-1.4 6.7 2.4 14 7m90.1-4.9c-2.8 3-16.2 10.7-17.1 9.8-.3-.2 2.6-2.4 6.3-4.7 3.7-2.4 7.9-5.1 9.3-6.1 3.9-2.8 4.7-2.2 1.5 1"/></svg>