<?xml version="1.0" standalone="no"?>
<!DOCTYPE svg PUBLIC "-//W3C//DTD SVG 20010904//EN"
 "http://www.w3.org/TR/2001/REC-SVG-20010904/DTD/svg10.dtd">
<svg version="1.0" xmlns="http://www.w3.org/2000/svg"
 width="1024.000000pt" height="1024.000000pt" viewBox="0 0 1024.000000 1024.000000"
 preserveAspectRatio="xMidYMid meet">
<metadata>
Created by potrace 1.16, written by Peter Selinger 2001-2019
</metadata>
<g transform="translate(0.000000,1024.000000) scale(0.100000,-0.100000)"
fill="#000000" stroke="none">
<path d="M6238 9274 c-15 -14 -8 -80 18 -179 32 -123 42 -284 25 -391 -23
-142 -89 -294 -127 -294 -9 0 -75 22 -147 49 -158 59 -279 92 -462 126 -156
29 -276 33 -295 10 -18 -21 -6 -6784 12 -6801 7 -7 207 -87 443 -178 419 -161
616 -237 1015 -393 165 -65 206 -77 268 -81 70 -4 75 -3 103 24 35 33 53 84
45 127 -4 22 -75 119 -219 297 -211 264 -479 606 -571 730 -27 36 -62 94 -79
129 l-30 64 7 272 c3 151 11 287 17 303 10 30 44 52 80 52 51 0 518 -129 639
-177 145 -57 248 -129 358 -252 65 -71 78 -81 108 -81 28 0 39 7 65 43 163
223 205 551 106 834 -14 40 -56 129 -93 199 -59 111 -67 135 -72 194 -5 71 -4
73 72 215 9 17 16 52 16 79 0 46 -4 53 -45 93 l-45 43 40 20 c70 36 80 51 80
128 0 48 -11 107 -39 207 -39 140 -39 140 -19 157 25 22 66 33 197 53 117 17
155 35 183 85 29 52 21 182 -16 270 -68 161 -278 469 -485 715 -170 202 -178
241 -61 307 25 15 56 38 70 53 25 26 25 30 24 178 -2 229 -58 543 -141 781
-71 207 -206 428 -355 584 -46 48 -59 68 -55 85 69 295 40 531 -97 807 -97
195 -255 391 -384 477 -54 35 -137 56 -154 37z"/>
<path d="M4706 8604 c-590 -80 -1089 -312 -1450 -671 -260 -259 -403 -503
-510 -870 -92 -320 -118 -613 -79 -921 15 -127 15 -136 -2 -190 -37 -118 -128
-274 -352 -605 -161 -238 -172 -260 -173 -350 0 -77 7 -96 59 -150 48 -52 73
-63 197 -92 195 -46 205 -56 167 -160 -48 -135 -56 -171 -57 -242 -1 -63 2
-75 24 -98 14 -15 37 -33 53 -41 l27 -15 -25 -43 c-19 -33 -25 -57 -25 -105 0
-72 6 -86 70 -161 88 -102 94 -135 60 -300 -24 -117 -27 -284 -5 -357 20 -68
91 -143 170 -180 58 -27 65 -28 230 -28 94 0 225 6 292 14 99 11 134 12 185 1
95 -18 152 -51 184 -106 57 -97 140 -431 132 -534 -7 -100 -30 -134 -466 -683
-299 -378 -312 -396 -312 -451 0 -53 17 -85 60 -114 61 -41 89 -33 650 185
283 110 659 256 835 323 176 68 326 129 333 135 11 10 14 585 12 3406 0 2414
-4 3397 -12 3406 -14 17 -138 15 -272 -3z"/>
</g>
</svg>
