<svg xmlns="http://www.w3.org/2000/svg" width="760" height="644" version="1.0" viewBox="0 0 570 483"><path d="M422.5 4.2c-.2.7-1.3 5.1-2.5 9.8-3.4 14.3-7.3 18.8-20 23.4-3.2 1.2-5.9 2.5-6.1 3.1-.2.5 3.1 2.1 7.3 3.5s9.1 3.6 10.9 4.9c4.1 3 7.4 10.7 9 20.3.8 5.2 1.6 7.8 2.5 7.8 1.3 0 2.1-2.3 4.3-13 2.4-11.6 8.4-17.7 20.4-20.6 3.7-.9 6.7-2.2 6.7-2.8s-3.1-2.2-6.9-3.5c-12.3-4.2-15.8-8.6-19.6-24.6-1.5-6.6-2.6-9.1-3.8-9.3-.9-.2-1.9.2-2.2 1M125.6 7.9c-.3.5-1.5 5.5-2.6 11.2-5 26.1-10.5 32.8-31.2 38.4C79.5 60.9 76 62.7 76 65.6c0 2.5 1 2.9 14.9 6.4 21.9 5.5 28.5 13.3 32.6 38.7 1.6 9.9 3.4 14.3 5.9 14.3 2.7 0 3.8-3.1 6.2-16.5 1.3-7.4 3.2-15.5 4.2-17.8 4.4-9.9 13.4-15.9 28.7-19.2 11-2.4 14.5-3.9 14.5-6.4 0-2.7-1.7-3.5-15.1-7.1-22.3-6.1-28.6-12.9-32.9-35.5-2.7-14-3.3-15.5-6.4-15.5-1.4 0-2.7.4-3 .9M211.6 12.2c-3.7 12.2-8.3 18.2-14.6 19.5-3.9.7-3.8 2.2.1 3 5.3 1 10.5 7 12.5 14.1 1 3.4 2.1 6.2 2.5 6.2.5 0 1.3-1.9 1.9-4.3 2.7-10.4 5.2-14 11.5-15.8 2.5-.7 4.5-1.6 4.5-1.9s-2-1.3-4.4-2.3-5.2-2.8-6.3-4C217 24.2 214 16.9 214 14c0-2.3-1.8-3.7-2.4-1.8M289.6 20.1c-26.3 3.8-51.1 18.2-66.6 38.7-23.7 31-23.7 75.7 0 104.9 11.7 14.4 32.5 24.3 59.8 28.3 7.6 1.1 15.8 2 18.4 2s4.9.4 5.2.9c.8 1.2-14.4 2.6-26.9 2.5-27.7-.3-53.8-12.8-68.4-32.7-2.3-3.1-4.6-5.7-5.2-5.7-.5 0-2.9 2-5.3 4.4-4.2 4.2-4.4 4.7-5.1 12.1-1 10.4 0 18.7 3 25.3l2.5 5.4-2.5 3c-2 2.3-2.5 4.2-2.7 8.6-.3 11.6.3 16.7 2.6 21.5l2.4 4.9-2.5 4.5c-2.4 4.1-2.5 5.2-2.1 13.3.4 7.1 1.1 9.8 3.2 13.5l2.6 4.7-2.6 3.1c-2.5 3-2.6 3.5-2.2 13.7.5 12.5 2.4 17.4 7.2 18.9 1.7.6 7.7 2.2 13.4 3.6 12.4 3.1 22.6 7 31.1 12 10.1 5.9 22.8 7.9 51.6 7.9 19.3 0 25-.4 35.6-2.2 13.4-2.4 26.6-6.2 36.3-10.6 3.3-1.5 6.4-2.5 6.9-2.3.6.2-.5 2-2.4 4.2-3.7 4.2-13.8 9.4-22.6 11.6l-5.2 1.3-.3 12-.3 12.1-5 1.1c-8.6 2-8 2.8-8-10.3v-11.8l-4 .3c-2.2.1-5.6.5-7.5.8l-3.5.5.3 11.8.3 11.8-3.2.7c-1.7.3-5.7.6-8.9.6h-5.7l-.7-5.2c-.3-2.9-.6-8.3-.6-11.9v-6.6l-12.8-.6c-7.1-.4-15.3-1.1-18.2-1.7s-5.4-.9-5.6-.8c-.1.2 0 15.5.3 34.1l.6 33.9 2.6 1.1c1.4.6 8.3 1.1 15.2 1.1 10.4.1 13-.2 14.5-1.5 5.7-5 21.4-10.5 41.5-14.4 16.2-3.1 16.6-3.2 16.6-4.8 0-.6.3-5.1.7-9.9l.7-8.7-5.5 1.9c-13.5 4.6-26.3 6.4-45.2 6.5h-18l-5.9-3c-7.5-3.9-8.5-6.1-2.4-5.1 9.8 1.5 31.7 1.8 41.9.7 23.2-2.7 30.6-4.9 50.2-14.7 8.1-4.1 16.4-7.8 18.5-8.2l3.8-.8.3-11.9c.4-12.7-.9-19.9-3.8-21.7-1.6-1-1.5-1.5.9-5.7s2.6-5.6 2.6-15.6c0-9.7-.3-11.4-2.1-14l-2.2-2.9 2.1-4c1.6-3.1 2.2-6.4 2.5-13.8.4-8.6.2-10.2-1.7-13.4-2.1-3.6-2.1-3.7-.4-8.3 1.3-3.4 1.8-7.4 1.8-15.2 0-9.9-.2-10.8-2.7-14.1-2.3-3-2.5-3.7-1.3-4.9 3.9-3.9 6-27.8 3.4-37.4-1.4-4.8-6.7-10.3-10.8-11.1-1.7-.4-3.1-.8-3.1-1s1.4-2.4 3.2-5c1.7-2.5 4.4-8 6-12 8.5-22.1 8.1-47.4-1.2-67.3-3.3-7-11.9-19.6-12.8-18.7-.3.3.2 1.4 1 2.3 8.5 9.7 13.2 38.5 9.3 56.8-2.1 10.1-3.2 12.1-5.8 10.3-1.6-1.2-1.7-2.1-.7-8.3 2.3-16.4.7-33.9-4.4-48.1-9.2-25.3-31.7-42.4-61.6-47-10.4-1.5-15.5-1.6-24.4-.3m30 14.8c24.1 6.2 41.5 23.3 46.8 46.1.9 3.6 1.6 10.2 1.6 14.8 0 28.7-16.8 55.3-43.5 68.7-13.7 6.9-22.2 8.9-39 8.9-23.2 0-36-4.8-50.1-18.9-9.7-9.8-14.6-18.7-16.7-31.1-3.5-19.6 1.6-38.7 14.8-56.2 11.8-15.5 34.2-29.3 53.6-33.1 8.1-1.6 24.9-1.2 32.5.8m54 137.4c-.3 1.9-2 4.7-3.9 6.4-3.5 3.4-14.2 9.5-19.7 11.2-5 1.5-19 3.9-19 3.1 0-.3 3.6-2 8-3.7 9.5-3.8 19.1-9.3 28-16.1 3.6-2.7 6.7-4.8 6.9-4.6s.1 1.8-.3 3.7m-148.1 20.5c11.6 4.4 22.6 7 37 8.7 29 3.4 60.6 2.8 85.8-1.5 11.4-1.9 26.5-6.6 32.5-10.1l3.3-1.9-.6 2.2c-1.2 3.7-3.5 5.8-11 9.3-8.8 4.2-20.8 7.1-37.7 9.3l-13.3 1.8-.3 10-.3 10.1-5.2.7c-2.9.3-8 .6-11.4.6H298v-21h-6.7c-10 0-28.7-1.8-37.8-3.6-19-3.7-30.7-8.6-36.8-15.3-4.2-4.7-4.7-6-1.4-3.9 1.2.8 5.8 2.9 10.2 4.6m-11.2 24.6c19.5 14.6 64.5 22.3 109.2 18.6 17.4-1.4 38.6-5.6 48.1-9.4s10-2.5 1.1 2.6c-16.9 9.9-45 15.3-76 14.6l-14.7-.3V265l-7.2-.7c-13.1-1.2-12.3-.3-12.6-12.5l-.3-10.5-7.2-1.3c-21.2-3.7-38.3-12.5-43.3-22.2-1.8-3.4-1.2-3.5 2.9-.4m10.7 40.7c8.9 3.7 21.2 7.3 33.5 9.5 14.4 2.7 63.6 2.7 77.5.1 19.4-3.7 24.7-5.2 43-12.4.8-.4.4.6-.9 2.1-4.2 4.5-21.3 12.2-34.3 15.3l-11.8 2.8v21.299999999999997l-7.2.7c-4 .3-11.8.7-17.2.8l-9.9.2-.1-10.5-.1-10.5-16-.6c-31.2-1.3-57-9.1-67.5-20.5-5.2-5.6-5.1-7.1.2-3.8 2.2 1.4 7.1 3.9 10.8 5.5m160.5 6.1c-1.2 4.1-4.1 7.2-8.9 9.6-7.3 3.7-8.4 2.4-2.1-2.4 1.9-1.5 1.9-1.5-.5-.8-3.2.8-2.6.3 4.6-4.5 6.9-4.6 7.8-4.9 6.9-1.9m-169.3 24.3c7.4 4.1 24.7 10.2 35.8 12.5 15.9 3.2 31.3 4.3 54.5 3.7 29.7-.7 50.9-4.8 66.9-12.9 3.2-1.6 6-2.7 6.2-2.5.9.9-4.9 6.8-9.1 9.3-15.2 8.9-51.4 15.7-74.7 14.1l-7.8-.5v22l-5.7-.6c-3.2-.4-9.7-1.4-14.5-2.3l-8.8-1.5v-20.5l-7.2-1.3c-14.7-2.6-30-9.2-36.5-15.7-2.4-2.3-4.3-4.7-4.3-5.3 0-1.4.1-1.3 5.2 1.5"/><path d="M283.5 43.5C266 48 252.8 56.2 242.7 68.7c-11.5 14.3-16.1 26.4-16.2 41.8 0 12 1.8 18.5 7.4 27.3 4.7 7.1 6.9 8.2 4.1 1.9-3-6.9-4.3-16-3.7-26 .8-14.1 5.6-26.6 14.9-39.1 6.7-9 15.1-15.6 27.3-21.5 15.7-7.7 29.4-9.9 41.9-6.6 6.1 1.6 8.9 1.3 4.3-.4-10-3.8-29.5-5.1-39.2-2.6M344.9 59.9c8.8 11.4 12.3 21.4 12.3 35.9 0 32.8-22 58.9-56.5 67.2-13.4 3.2-32.9 2.1-44.1-2.5-1.3-.6-1.7-.5-1.3.3.9 1.3 8.3 3.7 16.5 5.3 6 1.1 23.2.8 29.6-.6 11-2.3 26.2-10 34.6-17.3 10.5-9.1 18.4-22.2 21.5-35.5 1.9-8 1.9-22.5 0-30.6-2-8.4-7.6-18.8-12.7-23.7l-4.1-3.9z"/><path d="M293.7 61.8c-.8.9-3.2 5.6-5.2 10.3-5 11.7-6.7 13.2-17.2 16.4-13.3 3.9-21.5 6.9-21.6 8-.1.6 3.2 3.4 7.3 6.2 4.1 2.9 9.3 6.8 11.4 8.6l3.9 3.3-2.7 12c-4.1 17.4-4.2 18.4-1.9 18.4 1.8 0 20.3-10.4 25.1-14.1 2.2-1.7 2.4-1.6 9 2.3 7.7 4.7 20.1 10.8 21.9 10.8s1.7-.5-1.6-12.4c-1.6-5.7-3.2-12.4-3.6-14.9l-.7-4.4 10.6-7.7c9.6-7 13.6-11 12.3-12.2-.3-.3-6.5-2-13.9-3.8-7.3-1.8-14.3-3.8-15.6-4.5s-4.2-5.2-7.2-11.6c-5.3-11.2-7.7-13.6-10.3-10.7M438.5 106.8c-1.1.9-4.8 5.3-8.2 9.8-3.4 4.4-9.6 11.2-13.8 14.9-4.6 4.2-7.2 7.2-6.7 7.7 1.3 1.3 12.6-1.7 16.2-4.2 7.3-5.2 15.3-17.8 16.7-26.4q.9-6.15-4.2-1.8M162 113.8c0 3.7 5.3 12.3 10.6 17.1 5.2 4.8 15.5 9.9 16.2 8 .6-1.6-18.7-23.6-22.2-25.3-4.3-2-4.6-2-4.6.2M153 153c-2.5 2.5-2.6 7.2-.2 9.3 2.3 2.1 7.5 2.2 9.2.1 2.1-2.5 1.6-7.5-.9-9.6-3-2.3-5.6-2.3-8.1.2M477.6 165.8c-.2.4-1.1 3.7-2 7.2-3.7 16.2-8.8 21.6-24.6 26.2-2.5.7-4.5 1.7-4.4 2.3 0 .5 2.7 1.7 6 2.6 15.1 4.1 20.9 10.4 24 26.6.8 4.1 1.4 7.7 1.4 7.9s.6.4 1.4.4c1.7 0 2.2-1.3 4-10 3.1-14.6 8.8-20.9 22.1-24.5 7.6-2.1 8.3-4 2.3-5.5-16.3-4.1-20.7-8.6-24.9-25.3-2-7.9-3.7-10.5-5.3-7.9M117 200.6c-41.4 3-61.1 10.9-64.9 25.9-1.5 6.2-1.3 27.1.3 31.8 1.2 3.3 1.2 4.1-.6 7.5-1.7 3.2-1.9 5-1.4 14.4.3 6.9 1.1 11.9 2.2 14.2 1.6 3.3 1.6 3.7.1 5.4-1.4 1.5-1.7 4-1.8 12.3 0 11.2.7 14.3 4 17.3l2 1.9-3.1 2.9-3.1 2.9.5 14.4c.4 11.9.3 14.5-.9 14.9-1.9.8-19.8.8-20.5 0-.4-.3 1.7-2.8 4.5-5.6 2.9-2.8 4.7-5.2 4-5.5-3.3-1.2-29 11.7-27.7 13.9 1 1.7 12 6.6 18.4 8.2 11.8 3.1 36.4 3.1 52.1-.1l2.9-.6v-13.9c0-15.9.4-17.1 7.7-23.9 14.7-13.8 41.5-22.6 76.6-25.3l15.2-1.1.3-36.3c.1-19.9 0-36.2-.3-36.2s-2.3.9-4.5 2c-5.8 3-19.3 6.6-29.8 8-11.5 1.6-44.8.7-54.2-1.4-10.1-2.2-16.1-4.5-21.2-7.9-10.5-7-9.5-14.6 2.7-21.3 12.7-7 32-10 59-9.1 18.6.7 30.7 2.8 40.2 7.2 3.1 1.4 5.7 2.5 5.9 2.5s.4-2.4.4-5.4c0-6.3-.1-6.3-14-9.6-13.3-3-38.7-5.2-51-4.4m-45 52.7c13 5.7 32.3 8.7 56.7 8.8 10.1 0 22.7-.4 28-1 15.7-1.6 20.3-1.9 20.3-1 0 3-14.6 7.5-27.4 8.5l-9.6.7v17.9l-3.1-.6c-1.7-.3-5.8-.6-9-.6H122v-15.9l-3.2-.5c-1.8-.2-7.8-1-13.3-1.6-20.6-2.5-42.5-12.6-42.5-19.6 0-.4.8 0 1.8.9s4.2 2.7 7.2 4m1.1 27.6c10.3 4.8 20.8 7.7 35.7 9.6 18.5 2.4 33.3 2 65.7-2.2 5-.6 5-.6 3.2 1.4-1 1.1-4.7 3-8.3 4.2-30.4 10-83.2 4.6-100-10.2-3.1-2.6-6.1-6.7-5.1-6.7.2 0 4.2 1.8 8.8 3.9m-2.8 28.9c4.5 2 13.5 4.9 28 9 6.1 1.7 7 2.6 3.5 3.6-9 2.4-26.3-3.2-35-11.2-2.6-2.4-3.8-4.9-2-4 .4.2 2.9 1.4 5.5 2.6m5 32.3c2.6.7 4.7 1.7 4.7 2.1 0 1.6-6.4.7-9.6-1.3-3.7-2.2-4.4-3.4-1.6-2.6.9.3 3.8 1.1 6.5 1.8"/><path d="M109.9 217.1c-18.2 1.9-31.7 7.2-31.9 12.6 0 3 5.4 7.3 12.8 10.1 9 3.5 16.2 4.9 16.2 3.3 0-.6-1-1.1-2.2-1.1-6.1-.1-21.8-9.1-21.8-12.5 0-1.9 3.3-4.3 8-6 10.8-3.9 40.5-5.7 58.5-3.5 4.4.5 10.7 1.1 14 1.4l6 .6-8-1.9c-15.1-3.6-35-4.8-51.6-3M531.2 251.3c-3.3 3.5-3 9.9.4 12.6 3.9 3.1 9.7 2.8 12.3-.5 4.8-6.1 1-14.4-6.7-14.4-2.7 0-4.5.7-6 2.3M426 257c-5.2.4-11.4 1.1-13.8 1.5l-4.2.7v7.5c0 7.4 0 7.6 1.9 5.9 10.6-9.6 61.3-8.2 80.4 2.2 14.9 8 12.4 16.7-6.5 23-23.9 7.9-55 8.3-71.3.8l-5.5-2.5v11.6l9.8 2.4c8.6 2.1 11.9 2.4 29.2 2.4 17.8-.1 20.5-.3 30.4-2.8 11.6-2.9 23-7.8 24-10.2.6-1.8 2.6-2 2.6-.3 0 2.2-5.2 8.7-8.6 10.7s-15.6 6.5-20.5 7.5c-3.2.7-4 3.1-3.3 10.8.6 7-.3 7.7-11.2 8.5l-7.4.6v-17l-11.7-.6c-12.4-.6-22.2-2.6-28.6-5.9-2.2-1.1-4.1-1.8-4.3-1.6s-.6 9-1 19.5l-.7 19.1 5.4.7c28.3 3.6 46 7.1 60.6 12.1 8.5 3 9.1 2.9 20.7-2.7 3.2-1.6 6.1-2.8 6.3-2.5.8.8-9.2 8.7-12.1 9.5l-3.1.8 4 2.4c2.2 1.3 6.9 4.3 10.4 6.6 6.7 4.5 9.4 5.1 12.4 2.9 2.6-2 4.7-9.8 4.7-17.3 0-6.8-1-9.8-4.1-12.3-1.9-1.5-1.8-1.6.2-5.6 2.8-5.8 3-24.1.2-26.3-1.8-1.4-1.7-1.6.4-6 4.5-9.1 5.2-22 1.7-31.8-4.5-12.4-27-21.7-58.8-24.3-13.9-1.1-14.3-1.1-28.6 0m72.4 76.1c-3.8 4-15 9.2-24.4 11.4-11.5 2.6-30.7 3.1-43.1 1.1-10.5-1.7-19-4.9-19.7-7.5-.5-1.5.5-1.5 19.3 1 14.9 1.9 37.7.6 51.6-2.9 6.4-1.7 12.9-3.7 14.5-4.6q6.75-3.6 1.8 1.5"/><path d="M426.2 273c-6.9 1-16.6 3.9-15.8 4.7.3.3 2.6 0 5.2-.6 13.9-3.5 39.9-3.3 58.7.5 8.5 1.7 11.6 1.3 4.6-.7-14-3.7-40.1-5.7-52.7-3.9M15 312.6c0 2.4 6.6 11.8 11.2 15.9 4.5 4.1 11.4 7.6 13.5 6.8s1.5-3.3-2.5-10.8c-3.2-5.8-4.8-7.6-9.2-10.3-6-3.6-13-4.5-13-1.6M149.1 324.6c-18 2.6-31.5 7.1-41.4 13.8-7.7 5.1-11.4 10.3-12.8 18.1-1.6 8.5-.5 24.3 2.1 30.2 1.9 4.4 2 4.7.3 6.6-1.5 1.6-1.8 3.9-1.8 15.1 0 16.3 1.1 19.1 10.3 25.2 16.3 10.8 48.6 15.7 79.7 12 30.9-3.7 60.2-13.7 66.3-22.6 1.9-2.9 2.2-4.5 2.2-14 0-9.7-.2-11.1-2.5-14.3l-2.4-3.7 2.4-5.3c3.1-6.7 4.1-17 2.6-26.7-1.9-12.3-6.9-18.7-19.4-24.8-9.1-4.4-21-7.9-32.9-9.6-12.9-2-39.5-1.9-52.7 0m51.6 9.8c10.6 1.9 20.7 5 25.8 7.9 4.5 2.6 8.5 7.9 8.5 11.4 0 7.7-12.5 15-31.9 18.7-29.6 5.6-61.6 3.4-79.8-5.4-23-11.3-10.1-26.7 27.2-32.5 11.3-1.8 40.1-1.8 50.2-.1m-85.4 42.7c13.8 6.4 31.1 9.2 56.7 9.1 14 0 21.3-.5 30-2 11.2-2 27.3-7 31.7-9.8 4.1-2.6 4.4-1.5.6 1.9-7.4 6.5-18.4 11.3-33.8 14.6l-8 1.7-.3 8.1-.3 8.1-7.2.7c-12.2 1.2-12.1 1.2-12.3-7-.1-3.9-.2-7.3-.3-7.8 0-.4-2.4-.7-5.2-.7-7.8 0-25.3-2.8-35.2-5.5-14.9-4.2-26.7-11.6-26.7-16.7 0-1.6.2-1.6 2.1.3 1.2 1.2 4.9 3.4 8.2 5m123.1 26c-6.4 7.1-24.4 14.7-41.4 17.4-5.8.9-11.5 1.8-12.7 2.1-2.1.4-2.2 1.1-2.5 9.2l-.3 8.7-3.2.3-3.3.3V423h-5.9c-7.5 0-26.7-2.5-34.6-4.5-7.6-1.9-21-8.6-25.3-12.6-4.1-3.8-3.6-4.7 1-1.9 15.7 9.2 56.3 14.5 82.6 10.6 15.8-2.3 29.3-6 38.7-10.5 4.4-2.1 8.2-3.7 8.4-3.5s-.4 1.3-1.5 2.5"/><path d="M158.5 339.7c-14.9 1.9-29.6 6.3-33.7 10-3.6 3.2-1.5 7.9 5.2 11.4 3.2 1.6 15 4.8 15 4 0-.3-3.3-2-7.2-3.6-8-3.3-11.2-7-9.2-10.2 1.4-2.4 11.7-5.9 22.9-7.9 10.2-1.9 34.7-2.4 49.5-1 5.2.4 9.3.6 8.9.2-2.3-2.4-39.1-4.5-51.4-2.9M533.7 336c-4.1 2.8-9 6.5-10.9 8.2-3.2 3.1-3.2 3.3-1 3.6 1.9.3 9.5-1.6 14-3.5.7-.3-1 3.4-3.9 8.2-6.1 10.4-9.2 17.2-8.4 18.5.3.5 1.6.5 3.3-.1 9.4-3.3 21.8-21.8 23-34.1l.5-5.8h-4.6c-3.8 0-5.8.8-12 5M10.3 341.1c-2.3.5-4.6 1.6-5.2 2.3-.9 1.1-.2 1.6 3.1 2.4 5.6 1.5 28.9 4.4 29.5 3.8 1-1-4.2-6.5-7.1-7.5-4.3-1.6-15.5-2.2-20.3-1M395.3 363.1c-11.6 1.9-21.3 8.3-25.4 16.7-2.1 4.1-2.4 6.2-2.4 17.2 0 11.3.2 13 2.4 17.3 6.5 12.6 27.5 25.6 53.1 33 15.1 4.4 27.3 6.1 44 6.1 16.4 0 24.6-1.3 33.3-5.4 5.3-2.5 11.9-8.9 14.3-13.8 2.3-4.6 3-16.7 1.5-22.9-4.4-17.1-30.7-35.8-61.6-43.7-20-5.2-44.3-7-59.2-4.5m43.1 10.9c33.2 5.7 59.9 21 64.8 37.1 2.1 7.3-1.7 11.8-12.4 14.5-7.8 2-31.2 1.4-42.8-1.1-25.1-5.5-49.4-17.3-60.3-29.5-5.4-6-6.5-9.6-4.2-13.9 4.8-9.3 25.9-12.1 54.9-7.1m-53.8 33.9c1.8 1.6 6.5 4.8 10.4 7.1 7.3 4.3 9.1 6.3 7.2 8.2-2 2-16.5-7.7-20.1-13.6-3.5-5.5-2.6-6.1 2.5-1.7m39.9 23.7c6.4 2.6 11.4 4.8 11.2 5.1-.9.8-15.4-3-19.9-5.3-4.4-2.2-6.3-4.4-3.8-4.4.5 0 6.2 2.1 12.5 4.6"/><path d="M406.5 379c-6.5 1-10.4 2.6-11.1 4.5-1.8 4.6 4.3 12.5 13.6 17.4 7.7 4.1 9.9 3.5 3.1-.8-2.8-1.8-6.7-5.2-8.7-7.4-7.3-8.6-2.5-11.2 19.1-10.3 14.1.5 27.6 3 40.8 7.4 7.4 2.5 7.4 1 0-1.8-11-4.1-22.4-6.9-34-8.5-12.6-1.6-15.1-1.7-22.8-.5M545.6 366c-10.5 2.7-18.8 10.8-19 18.8-.1 3.3.2 3.7 2.9 4.2 7.1 1.4 21.2-5.1 31.3-14.6 5.1-4.7 6.4-6.5 5.6-7.4-1.5-1.5-15.8-2.2-20.8-1M57.6 391.6c-9.3 1.7-20.2 6.7-23 10.7-1.9 2.6-1.9 3-.6 5.5 3.6 6.4 16 11.1 31.3 11.9 10.8.6 20.7-.9 20.7-3.2 0-.9-3.3-2.1-9.7-3.5-13.5-3-18.8-4.7-20.8-7-1.4-1.5-1.5-2.3-.6-3.3 1.6-2 10.9-4.8 20.2-6.1 4.2-.6 7.8-1.6 8-2.1.1-.6-1.3-1.8-3.2-2.7-4.1-2.1-11.2-2.2-22.3-.2M346.5 407.7c-12.8.9-28.5 5.3-35.5 9.9-2.2 1.5-5 4.3-6.3 6.3-2 3.2-2.2 4.9-2.2 16.1 0 13.9.8 16.6 6.7 21.5 15.6 13.2 60.1 19.2 92.8 12.5 16.5-3.4 30.6-9.7 28.6-12.8-.3-.6-5.7-3.1-11.9-5.7-6.1-2.6-16-6.9-22-9.7-8.4-3.9-11.3-4.9-13.5-4.3-5.2 1.4-17.6 1.7-28.6.6-22.9-2.2-36.8-8.7-34.9-16.1 1-3.7 13.6-9.3 25.8-11.5 4.9-.8 9.1-1.8 9.4-2 .3-.3-.6-1.6-2-2.8-1.8-1.7-3.4-2.2-6.4-2m-8 42.2c10.6 2.3 25.9 4.1 34.7 4.1 7.3 0 22.9 1.9 24.1 3 1.8 1.6-17.4 3.2-31.9 2.8-17.2-.6-26.7-2.5-37.1-7.4-6.2-3-12.3-8-12.3-10.3 0-.4 3 .8 6.8 2.6 3.7 1.8 10.8 4.2 15.7 5.2M244.5 441.6c-17 2.6-42 10.3-40 12.3.4.3 3.9 1.4 7.8 2.4 8.4 2.1 35.2 3.6 36.8 2 .7-.7-1.5-1.3-6.5-1.8-4.2-.4-7.8-1-8.1-1.4-.2-.5 3.3-1.1 7.8-1.4 9.3-.6 18-3.3 25.8-8 8.2-5 7.7-5.7-4.3-5.6-5.6.1-14.3.7-19.3 1.5"/></svg>