<?xml version="1.0" standalone="no"?>
<!DOCTYPE svg PUBLIC "-//W3C//DTD SVG 20010904//EN"
 "http://www.w3.org/TR/2001/REC-SVG-20010904/DTD/svg10.dtd">
<svg version="1.0" xmlns="http://www.w3.org/2000/svg"
 width="1024.000000pt" height="1024.000000pt" viewBox="0 0 1024.000000 1024.000000"
 preserveAspectRatio="xMidYMid meet">
<metadata>
Created by potrace 1.16, written by Peter Selinger 2001-2019
</metadata>
<g transform="translate(0.000000,1024.000000) scale(0.100000,-0.100000)"
fill="#000000" stroke="none">
<path d="M4710 8935 c-340 -42 -594 -106 -796 -200 -182 -84 -324 -207 -385
-330 -30 -62 -34 -79 -37 -169 -5 -126 14 -183 92 -277 209 -254 693 -414
1352 -448 196 -10 512 -1 673 19 577 74 968 259 1101 520 29 56 34 78 38 156
6 118 -13 183 -76 266 -170 225 -527 379 -1052 454 -162 23 -749 29 -910 9z
m870 -364 c203 -31 282 -49 425 -96 209 -68 331 -140 371 -218 20 -38 6 -74
-46 -121 -139 -125 -469 -222 -879 -257 -178 -15 -625 -6 -791 16 -401 53
-722 168 -787 281 -34 59 -30 81 26 135 119 114 439 220 796 263 197 24 201
24 485 21 203 -3 297 -9 400 -24z"/>
<path d="M2245 8101 c-39 -16 -57 -51 -117 -223 -116 -338 -133 -380 -151
-390 -10 -5 -116 -16 -235 -24 -119 -8 -227 -19 -240 -24 -57 -24 -83 -141
-42 -193 11 -14 84 -81 162 -148 79 -68 162 -142 184 -164 l42 -40 -60 -230
c-71 -277 -77 -339 -33 -385 25 -26 36 -30 85 -30 l56 0 182 139 c100 76 190
142 199 145 19 8 39 -4 251 -163 l164 -121 58 0 c53 0 61 3 84 31 40 47 35
103 -35 381 l-60 242 23 21 c13 12 96 85 184 163 89 78 170 154 180 169 10 16
18 47 18 75 1 41 -4 52 -31 79 -27 27 -41 33 -90 36 -310 22 -406 33 -424 49
-10 9 -55 128 -105 278 -48 143 -94 271 -102 284 -29 44 -96 63 -147 43z"/>
<path d="M7866 8082 c-9 -10 -54 -131 -100 -268 -47 -137 -89 -263 -96 -280
-6 -17 -23 -37 -38 -43 -27 -13 -310 -41 -410 -41 -64 0 -106 -20 -127 -60
-18 -35 -20 -103 -2 -131 6 -11 97 -93 200 -182 103 -89 190 -171 193 -182 3
-11 -22 -131 -56 -266 -33 -135 -60 -260 -60 -277 0 -21 11 -43 31 -67 29 -33
35 -35 93 -35 l61 0 194 145 c107 80 198 145 202 145 4 0 65 -43 135 -96 249
-187 261 -194 320 -194 46 0 55 4 77 30 45 53 43 82 -27 359 -36 140 -62 260
-58 266 8 13 65 65 244 219 69 60 131 120 137 133 6 13 11 45 11 72 0 40 -5
52 -32 78 -18 17 -42 33 -53 36 -11 3 -101 11 -200 17 -199 13 -250 22 -263
48 -5 9 -48 134 -97 277 -104 308 -109 315 -200 315 -47 0 -66 -4 -79 -18z"/>
<path d="M4957 7160 c-298 -47 -564 -246 -706 -528 -86 -170 -112 -297 -112
-537 0 -304 57 -504 206 -730 133 -201 330 -353 541 -416 101 -30 315 -38 420
-14 159 35 278 101 415 232 193 184 325 435 371 707 16 94 15 362 -1 456 -41
233 -132 404 -300 568 -130 126 -257 198 -429 243 -89 23 -311 34 -405 19z"/>
<path d="M1950 5653 c-28 -25 -39 -56 -109 -308 -43 -154 -84 -292 -91 -307
-11 -24 -88 -68 -118 -68 -5 0 -103 -25 -218 -56 -115 -30 -226 -60 -247 -65
-47 -12 -77 -57 -77 -115 0 -32 6 -46 33 -71 35 -34 52 -40 367 -123 218 -58
244 -69 263 -108 15 -28 59 -172 129 -417 51 -178 66 -197 152 -193 49 3 62 7
77 28 10 14 53 147 95 295 41 149 82 280 90 292 22 35 51 46 329 123 143 40
268 76 278 82 29 15 57 70 57 110 0 27 -8 46 -27 67 -25 28 -52 36 -293 96
-146 36 -279 72 -297 80 -18 8 -38 27 -46 42 -8 15 -49 152 -91 303 -72 256
-80 277 -111 308 -46 43 -101 45 -145 5z"/>
<path d="M8148 5653 c-26 -30 -34 -52 -87 -238 -112 -389 -118 -405 -155 -420
-19 -8 -143 -42 -277 -75 -134 -33 -257 -66 -273 -72 -65 -26 -87 -122 -39
-178 33 -40 22 -36 320 -115 136 -37 258 -73 270 -81 41 -26 57 -69 158 -434
39 -140 51 -169 76 -193 27 -25 37 -28 86 -25 47 3 59 7 75 29 11 15 53 138
94 275 96 324 98 328 137 348 18 9 133 43 257 77 313 83 316 84 340 123 34 57
25 142 -19 166 -11 5 -141 41 -290 79 -148 39 -279 75 -290 81 -12 6 -27 23
-35 38 -12 23 -121 395 -156 532 -7 25 -23 57 -38 73 -22 23 -34 27 -82 27
-42 0 -61 -5 -72 -17z"/>
<path d="M4344 4810 c-290 -66 -509 -181 -689 -365 -189 -192 -293 -421 -324
-711 -11 -101 -39 -447 -66 -809 -17 -235 -26 -345 -61 -755 -39 -459 -31
-515 88 -634 89 -88 146 -109 288 -104 86 3 114 8 155 28 88 43 177 150 198
241 6 25 62 890 87 1349 6 113 14 213 16 223 8 27 23 20 28 -15 3 -18 7 -410
10 -871 6 -921 3 -878 67 -931 27 -23 35 -24 271 -31 134 -4 559 -5 945 -3
l702 3 31 30 c69 66 64 -1 70 959 4 645 8 870 17 873 19 7 31 -55 37 -192 14
-299 73 -1288 81 -1350 11 -82 36 -135 92 -195 79 -86 141 -113 264 -118 143
-6 192 11 278 96 39 39 77 88 90 117 46 99 47 132 7 610 -19 242 -47 593 -61
780 -62 840 -75 921 -171 1117 -124 254 -343 452 -629 570 -102 41 -346 108
-397 108 -19 0 -58 -16 -99 -40 -208 -126 -499 -185 -714 -146 -157 29 -275
73 -406 152 -65 39 -87 41 -205 14z m1803 -2787 c-1 -235 -2 -45 -2 422 0 468
1 660 2 428 2 -232 2 -614 0 -850z"/>
</g>
</svg>
