<?xml version="1.0" standalone="no"?>
<!DOCTYPE svg PUBLIC "-//W3C//DTD SVG 20010904//EN"
 "http://www.w3.org/TR/2001/REC-SVG-20010904/DTD/svg10.dtd">
<svg version="1.0" xmlns="http://www.w3.org/2000/svg"
 width="1024.000000pt" height="1024.000000pt" viewBox="0 0 1024.000000 1024.000000"
 preserveAspectRatio="xMidYMid meet">
<metadata>
Created by potrace 1.16, written by Peter Selinger 2001-2019
</metadata>
<g transform="translate(0.000000,1024.000000) scale(0.100000,-0.100000)"
fill="#000000" stroke="none">
<path d="M4992 9235 c-50 -22 -127 -107 -146 -161 -20 -61 -21 -173 0 -222 8
-20 33 -58 54 -83 l39 -47 -110 -143 c-183 -240 -204 -268 -342 -449 -73 -96
-139 -176 -147 -178 -15 -2 -584 299 -607 321 -9 9 -8 25 3 67 20 72 14 172
-14 225 -53 104 -166 163 -290 152 -110 -11 -191 -67 -238 -166 -22 -45 -30
-163 -15 -217 23 -85 127 -184 193 -184 44 0 64 -28 71 -101 4 -35 18 -161 31
-279 14 -118 34 -298 46 -400 34 -293 39 -324 57 -337 13 -10 339 -13 1550
-13 l1534 0 13 33 c14 33 30 154 91 697 48 424 41 394 95 401 58 7 99 29 140
75 54 62 70 108 70 204 0 104 -18 148 -84 208 -58 53 -99 71 -180 79 -127 12
-240 -51 -292 -162 -29 -62 -33 -173 -8 -235 9 -23 15 -42 13 -44 -4 -3 -344
-185 -537 -286 -82 -44 -83 -44 -102 -25 -10 11 -145 186 -299 389 l-280 368
36 37 c56 58 76 105 81 198 4 75 2 88 -22 138 -29 59 -89 115 -149 140 -48 20
-209 20 -255 0z"/>
<path d="M4433 6732 l-723 -2 -15 -23 c-28 -43 -46 -228 -46 -472 0 -325 27
-511 111 -769 102 -310 246 -549 472 -779 l108 -110 -6 -76 c-15 -220 -37
-308 -97 -398 -67 -100 -211 -163 -932 -410 -296 -101 -642 -232 -730 -276
-126 -63 -209 -120 -305 -213 -256 -247 -338 -480 -465 -1324 -37 -250 -41
-312 -24 -375 14 -52 99 -136 154 -152 73 -22 1370 -135 1930 -168 821 -48
1635 -48 2485 0 623 36 1875 143 1950 167 54 17 108 65 138 122 24 45 27 61
26 141 -2 101 -57 479 -110 750 -75 383 -146 560 -298 743 -40 48 -104 112
-142 143 -190 155 -312 208 -1084 479 -590 206 -714 258 -790 326 -80 72 -122
203 -136 418 l-7 106 109 112 c173 179 265 309 370 523 155 318 214 598 214
1013 -1 265 -19 456 -47 484 -17 17 -57 18 -703 20 -377 2 -1010 2 -1407 0z"/>
</g>
</svg>
