<?xml version="1.0" standalone="no"?>
<!DOCTYPE svg PUBLIC "-//W3C//DTD SVG 20010904//EN"
 "http://www.w3.org/TR/2001/REC-SVG-20010904/DTD/svg10.dtd">
<svg version="1.0" xmlns="http://www.w3.org/2000/svg"
 width="1024.000000pt" height="1024.000000pt" viewBox="0 0 1024.000000 1024.000000"
 preserveAspectRatio="xMidYMid meet">

<g transform="translate(0.000000,1024.000000) scale(0.100000,-0.100000)"
fill="#000000" stroke="none">
<path d="M4125 8613 c-38 -11 -65 -30 -115 -82 -97 -99 -172 -261 -269 -583
-38 -127 -138 -509 -176 -675 -6 -26 0 -28 220 -72 500 -100 919 -136 1470
-128 472 8 770 38 1192 123 198 39 223 47 223 70 0 61 -138 578 -217 814 -118
354 -221 502 -376 541 -77 19 -148 5 -398 -77 -129 -43 -288 -92 -353 -111
-208 -58 -287 -48 -714 91 -342 112 -386 120 -487 89z"/>
<path d="M3165 7033 c-16 -2 -95 -20 -175 -40 -278 -67 -376 -124 -387 -227
-6 -53 21 -111 74 -156 57 -47 179 -101 368 -163 149 -49 217 -69 403 -117
l42 -11 0 -87 0 -88 -44 -12 c-59 -15 -99 -58 -121 -127 -26 -86 -17 -297 19
-418 54 -181 141 -307 268 -389 38 -24 50 -38 59 -71 30 -117 105 -321 155
-425 61 -123 173 -299 223 -346 22 -21 27 -33 21 -45 -5 -9 -14 -34 -20 -56
l-9 -40 -138 -59 c-167 -70 -565 -236 -958 -398 -539 -222 -544 -224 -640
-332 -95 -105 -165 -264 -219 -496 -31 -133 -118 -588 -157 -829 -26 -159 -29
-190 -19 -232 25 -102 102 -179 218 -218 l62 -21 2947 2 2948 3 50 23 c110 50
171 114 195 201 15 58 4 147 -70 551 -92 497 -147 715 -217 855 -70 138 -175
244 -308 309 -38 19 -259 112 -490 206 -634 260 -1037 428 -1047 438 -5 5 -15
33 -23 61 l-14 53 39 41 c130 143 302 487 357 718 17 71 18 72 90 125 124 92
208 222 255 394 19 71 23 110 23 240 0 146 -1 157 -24 198 -28 48 -57 70 -116
87 l-40 12 -3 86 -3 86 43 11 c431 110 699 209 793 292 55 48 82 113 67 158
-20 55 -52 89 -115 119 -113 55 -459 141 -566 141 -27 0 -120 -18 -207 -40
-637 -158 -1191 -222 -1779 -206 -550 15 -947 69 -1474 200 -178 45 -242 52
-336 39z m900 -837 c313 -36 448 -41 1085 -41 655 1 787 7 1099 50 57 8 107
13 110 10 11 -12 13 -498 2 -612 -15 -145 -61 -376 -101 -503 -124 -397 -370
-724 -672 -893 -147 -82 -375 -135 -523 -122 -416 38 -770 311 -984 756 -91
189 -146 373 -187 625 -18 111 -31 580 -19 689 7 65 7 66 33 61 15 -3 86 -12
157 -20z m362 -2210 c385 -248 826 -281 1218 -92 61 29 137 71 170 94 33 22
61 39 63 37 14 -14 -93 -628 -153 -879 -56 -236 -180 -640 -246 -803 -10 -24
-15 -2 -40 184 -26 203 -85 524 -114 619 -11 37 -11 52 1 97 33 124 74 343 69
368 -12 52 -19 54 -273 55 -274 0 -272 1 -272 -87 0 -57 41 -270 64 -336 13
-36 13 -47 0 -90 -39 -128 -134 -685 -134 -783 0 -39 -12 -38 -29 3 -146 363
-264 801 -345 1282 -26 151 -55 375 -50 375 2 0 34 -20 71 -44z"/>
<path d="M4048 6019 c-24 -14 -23 -74 3 -202 47 -235 94 -338 171 -379 41 -22
55 -23 280 -26 149 -2 251 1 277 8 96 26 167 119 207 271 23 88 46 111 117
117 93 7 109 -7 152 -144 43 -132 78 -186 145 -224 44 -24 50 -25 287 -28 282
-4 310 1 369 62 51 53 82 135 123 323 36 164 38 194 13 216 -17 16 -106 17
-1073 17 -697 -1 -1060 -4 -1071 -11z"/>
</g>
</svg>
