<?xml version="1.0" standalone="no"?>
<!DOCTYPE svg PUBLIC "-//W3C//DTD SVG 20010904//EN"
 "http://www.w3.org/TR/2001/REC-SVG-20010904/DTD/svg10.dtd">
<svg version="1.0" xmlns="http://www.w3.org/2000/svg"
 width="1024.000000pt" height="1024.000000pt" viewBox="0 0 1024.000000 1024.000000"
 preserveAspectRatio="xMidYMid meet">
<metadata>
Created by potrace 1.16, written by Peter Selinger 2001-2019
</metadata>
<g transform="translate(0.000000,1024.000000) scale(0.100000,-0.100000)"
fill="#000000" stroke="none">
<path d="M5767 8783 c-111 -41 -329 -240 -454 -413 -34 -48 -88 -135 -121
-195 -33 -61 -67 -118 -76 -127 -8 -9 -37 -24 -65 -32 -44 -13 -59 -13 -133 1
-113 20 -330 20 -438 -1 -271 -51 -493 -177 -711 -403 -157 -163 -259 -327
-332 -539 -77 -223 -102 -396 -94 -663 10 -351 89 -611 265 -876 78 -117 248
-294 366 -380 158 -116 347 -198 530 -230 103 -17 292 -20 381 -4 56 9 70 8
146 -15 148 -44 253 -60 404 -60 154 0 224 11 363 56 92 29 94 29 189 17 139
-17 334 -6 449 25 442 121 826 500 984 973 138 413 113 916 -65 1290 -77 163
-161 279 -305 424 -226 227 -455 349 -731 390 -76 11 -310 7 -444 -7 -34 -4
-56 -1 -69 9 -18 13 -18 16 14 75 48 91 113 165 239 275 154 134 164 147 169
217 4 54 2 60 -32 97 -21 24 -64 53 -108 74 -65 30 -84 34 -173 36 -76 3 -111
-1 -148 -14z"/>
<path d="M8165 5200 c-60 -12 -151 -46 -203 -75 -30 -17 -272 -253 -682 -665
-420 -422 -656 -652 -698 -680 -90 -59 -234 -126 -327 -152 -79 -22 -91 -22
-725 -23 -617 0 -647 1 -688 19 -100 45 -95 146 9 203 32 17 77 18 719 23
l685 5 65 23 c99 35 147 68 241 161 94 94 130 152 149 246 33 158 -44 312
-188 378 -47 22 -53 22 -902 28 -906 7 -878 5 -1184 58 -193 34 -337 44 -521
38 -420 -16 -793 -157 -1100 -417 -44 -38 -362 -348 -707 -689 -687 -682 -678
-671 -678 -785 0 -40 7 -74 21 -103 29 -60 1218 -1259 1274 -1284 49 -23 133
-24 182 -4 24 10 145 123 348 323 284 283 317 311 390 349 166 85 15 78 1580
78 l1390 0 79 23 c113 32 211 83 307 160 85 68 159 153 749 857 124 147 299
356 390 464 502 594 539 641 600 754 57 104 73 178 68 306 -5 125 -17 157 -94
241 -61 66 -144 113 -235 135 -68 16 -245 19 -314 5z"/>
</g>
</svg>
