<?xml version="1.0" standalone="no"?>
<!DOCTYPE svg PUBLIC "-//W3C//DTD SVG 20010904//EN"
 "http://www.w3.org/TR/2001/REC-SVG-20010904/DTD/svg10.dtd">
<svg version="1.0" xmlns="http://www.w3.org/2000/svg"
 width="668.000000pt" height="535.000000pt" viewBox="0 0 668.000000 535.000000"
 preserveAspectRatio="xMidYMid meet">

<g transform="translate(0.000000,535.000000) scale(0.100000,-0.100000)"
fill="#000000" stroke="none">
<path d="M3560 5302 c-19 -9 -44 -31 -55 -49 -12 -19 -28 -32 -41 -33 -30 0
-83 -39 -121 -88 -68 -90 -94 -259 -53 -345 l21 -42 -24 29 c-45 53 -62 170
-38 254 12 41 54 114 75 132 27 21 18 28 -25 19 -96 -22 -168 -86 -204 -181
-22 -58 -17 -166 10 -218 48 -97 140 -148 243 -136 39 5 79 1 130 -11 71 -16
76 -16 120 1 34 14 68 18 123 17 52 -2 89 3 115 14 146 61 202 262 111 396
-25 38 -88 77 -141 89 -72 16 -80 7 -43 -52 28 -45 32 -60 32 -122 0 -41 -6
-86 -15 -106 l-15 -35 -6 96 c-4 82 -10 104 -36 150 -16 30 -48 68 -71 84 -46
34 -51 56 -21 86 17 17 28 20 57 15 l37 -7 -33 31 c-38 35 -79 39 -132 12z"/>
<path d="M2683 5230 c-43 -6 -93 -42 -93 -66 0 -7 -21 -34 -46 -59 l-46 -45 4
-84 c3 -57 10 -92 22 -111 10 -15 15 -29 13 -32 -8 -8 -57 63 -67 98 -13 45
-13 125 0 150 29 52 -92 -6 -124 -61 -27 -46 -29 -149 -3 -201 27 -54 84 -106
136 -125 79 -28 78 -27 53 -31 -12 -3 -20 -8 -17 -13 2 -4 -9 -14 -26 -21 -25
-10 -43 -10 -87 -1 -72 15 -102 0 -102 -54 0 -41 12 -68 48 -106 20 -22 27
-25 36 -14 21 24 121 104 176 139 30 19 66 47 79 61 16 17 35 26 56 26 73 0
215 103 254 183 12 26 22 75 27 128 l7 87 -39 26 c-38 26 -104 36 -104 16 0
-5 -9 -10 -20 -10 -11 0 -20 -2 -20 -5 0 -3 9 -23 20 -45 32 -62 24 -75 -17
-28 -21 22 -62 52 -91 65 l-53 23 22 32 c12 17 35 36 51 42 59 22 25 46 -49
36z"/>
<path d="M4803 5149 c-22 -11 -53 -38 -68 -60 -27 -38 -29 -39 -91 -39 -87 0
-164 -30 -225 -89 -27 -26 -49 -41 -49 -34 0 25 28 70 64 101 20 17 36 36 36
41 0 20 -59 41 -113 41 -63 0 -110 -17 -157 -57 -35 -29 -90 -108 -90 -130 0
-7 19 -17 43 -24 178 -48 277 -119 277 -200 0 -22 7 -28 55 -43 77 -24 145
-82 189 -160 40 -72 103 -131 148 -141 l30 -7 -37 -31 c-104 -85 -97 -241 13
-324 32 -24 54 -33 83 -33 49 0 50 -16 2 -29 -57 -16 -105 -13 -148 9 -22 11
-40 20 -41 20 -5 0 -32 -80 -38 -114 -7 -37 -5 -41 47 -95 60 -61 93 -116 102
-171 l6 -35 -24 40 c-57 91 -108 135 -158 135 -29 0 -54 -24 -94 -90 -15 -25
-47 -66 -72 -91 l-45 -46 44 -11 c75 -19 155 -89 173 -152 7 -21 -1 -16 -48
27 -72 65 -178 110 -223 93 -32 -12 -64 -38 -64 -51 0 -5 24 -20 53 -35 28
-14 79 -52 112 -84 l60 -59 86 -7 c74 -6 90 -4 125 14 45 23 79 57 91 90 8 21
16 24 65 25 40 2 62 8 78 22 50 45 63 114 35 182 -24 57 -21 63 29 57 61 -9
109 10 151 59 33 38 95 152 95 174 0 5 -33 9 -74 9 -60 -1 -80 3 -102 20 -45
33 -41 44 12 28 26 -8 60 -14 76 -14 41 0 86 47 94 99 4 23 10 41 15 41 14 0
10 -52 -6 -84 -8 -15 -15 -30 -15 -32 0 -9 95 8 119 21 30 15 73 60 90 92 17
34 13 110 -9 152 -40 79 -131 105 -145 41 -10 -43 -25 -37 -25 10 0 70 -47
141 -101 155 -56 14 -103 -78 -81 -159 17 -65 2 -73 -30 -15 -45 84 -72 106
-162 134 l-41 13 35 1 c110 4 239 138 256 265 8 57 -18 142 -58 190 -29 36
-92 78 -136 91 -22 6 -23 5 -12 -16 18 -32 7 -136 -19 -187 -23 -45 -78 -112
-92 -112 -4 0 8 34 27 75 64 133 55 251 -26 336 l-38 40 26 17 c32 21 93 20
126 -2 34 -21 36 -21 36 13 0 34 -31 76 -70 96 -42 22 -127 19 -177 -6z"/>
<path d="M1843 5061 c-45 -21 -57 -37 -67 -93 -5 -27 -15 -42 -40 -57 -18 -11
-38 -32 -44 -46 -20 -45 -14 -153 12 -217 26 -63 25 -70 -5 -35 -58 67 -81
158 -56 220 9 20 13 37 9 37 -24 0 -107 -73 -138 -122 -21 -32 -43 -58 -49
-58 -22 0 -54 -40 -65 -81 -16 -58 8 -133 57 -181 69 -67 124 -72 219 -17 46
26 61 29 136 29 47 0 88 -3 91 -7 14 -13 -27 -43 -58 -43 -44 0 -114 -26 -142
-52 -29 -27 -30 -86 -4 -143 24 -52 48 -72 97 -83 l39 -9 -30 -12 c-71 -29
-100 -51 -118 -85 -45 -85 35 -206 136 -206 20 0 37 -4 37 -9 0 -13 -64 -41
-93 -41 -58 0 -107 -74 -107 -163 0 -49 3 -58 30 -81 17 -14 46 -28 65 -32 19
-3 35 -9 35 -13 0 -4 -21 -12 -47 -19 -42 -12 -49 -11 -72 6 -50 36 -69 34
-99 -11 -36 -53 -37 -116 -3 -171 29 -46 111 -88 177 -90 55 -1 56 -12 4 -26
-35 -10 -40 -14 -40 -41 0 -38 35 -74 88 -90 55 -16 75 -2 144 98 l54 78 -56
0 c-53 0 -55 1 -58 28 -4 32 7 35 32 6 14 -17 25 -20 52 -16 59 10 126 49 192
112 56 55 62 65 62 101 0 71 -14 79 -129 79 -115 1 -153 16 -80 34 68 17 185
79 205 109 28 41 25 104 -6 137 -44 47 -88 63 -184 64 -44 1 -23 14 46 28 67
14 120 48 144 95 21 41 21 136 -1 178 -16 32 -18 32 -67 26 -28 -4 -64 -10
-81 -13 -42 -8 -33 9 28 55 68 51 105 115 112 189 6 76 -14 134 -51 146 -23 8
-33 3 -81 -38 -43 -36 -58 -44 -72 -37 -14 8 -12 12 14 25 16 9 57 34 90 56
108 71 141 181 87 289 -48 97 -171 150 -244 103 -12 -8 -10 -14 13 -36 34 -35
67 -103 67 -141 0 -26 -2 -24 -24 21 -24 52 -97 128 -135 140 -11 3 -21 14
-21 24 0 22 44 71 64 71 8 0 22 8 32 17 15 16 15 17 -2 24 -31 12 -57 10 -101
-10z m267 -1325 c0 -13 -39 -30 -49 -21 -5 6 29 34 42 35 4 0 7 -6 7 -14z"/>
<path d="M4103 4762 c-38 -20 -56 -43 -72 -93 -10 -32 -17 -37 -52 -43 -73
-12 -128 -45 -165 -100 -36 -55 -64 -147 -64 -211 0 -44 25 -200 35 -215 3 -6
2 -10 -3 -10 -15 0 -71 113 -83 168 -14 66 1 139 46 230 19 36 33 67 32 68 -1
1 -27 -4 -57 -10 -78 -16 -146 -59 -181 -114 -71 -113 -62 -221 28 -341 21
-28 31 -51 28 -62 -12 -37 31 -103 119 -184 47 -43 92 -83 99 -87 6 -4 49 -8
94 -8 74 0 88 -3 150 -36 84 -43 109 -67 124 -113 21 -67 35 -81 82 -81 79 1
158 54 174 118 3 14 -1 39 -11 59 l-16 35 49 44 c59 53 74 92 70 178 -3 56 -1
66 23 94 66 78 87 221 48 325 -41 110 -144 187 -249 187 l-51 0 30 -46 c69
-110 80 -237 26 -327 -27 -47 -50 -61 -26 -17 8 15 11 59 8 129 -3 90 -8 115
-32 163 -29 61 -76 107 -138 136 -21 9 -38 20 -38 24 0 4 16 23 35 43 29 32
40 37 67 33 18 -3 42 -9 52 -13 17 -7 18 -5 12 21 -11 49 -49 74 -109 74 -29
-1 -66 -8 -84 -18z m242 -811 c-25 -50 -57 -65 -123 -58 -42 4 -62 12 -74 28
-26 32 -22 39 21 39 47 0 167 36 178 53 16 24 14 -31 -2 -62z m-472 -11 c47
-28 151 -44 190 -30 41 14 46 5 15 -27 -31 -31 -111 -43 -158 -23 -30 13 -90
72 -90 90 0 14 4 13 43 -10z"/>
<path d="M2899 4698 c-20 -14 -44 -44 -59 -75 -14 -29 -30 -53 -36 -53 -26 0
-103 -82 -121 -128 -22 -58 -22 -187 0 -252 9 -24 14 -46 12 -48 -8 -9 -55 76
-66 121 -17 68 -7 177 20 223 12 20 20 38 18 40 -2 2 -28 -3 -58 -12 -137 -40
-222 -168 -205 -306 11 -84 49 -138 127 -177 34 -17 75 -31 91 -31 33 0 37
-15 6 -24 -72 -19 -153 2 -199 50 l-23 25 -17 -43 c-24 -58 -24 -152 0 -204
16 -36 84 -104 103 -104 4 0 19 -5 35 -12 28 -11 28 -11 -21 -19 -103 -16
-148 -122 -86 -202 28 -35 62 -40 148 -21 66 15 85 15 159 4 98 -16 150 -5
183 37 19 24 21 35 15 98 l-7 72 51 32 c63 41 94 77 116 135 19 49 13 81 -26
145 -18 30 -22 33 -31 18 -19 -35 -89 -69 -143 -71 -48 -1 -125 27 -125 45 0
4 -2 13 -5 21 -4 10 17 13 102 13 95 0 113 3 147 23 35 21 40 21 56 7 40 -36
170 -1 232 62 53 54 72 104 71 189 -1 86 -24 142 -79 197 -48 48 -100 76 -159
84 -44 6 -63 -8 -30 -21 9 -3 29 -34 45 -68 33 -70 39 -142 18 -213 l-12 -40
-7 61 c-17 142 -61 221 -147 267 -41 22 -52 34 -50 49 4 29 45 57 97 66 l44 7
-32 28 c-42 35 -103 37 -152 5z m-180 -978 c51 -14 106 -12 148 5 45 19 51 14
23 -22 -30 -39 -58 -52 -108 -53 -70 0 -138 43 -161 102 l-10 27 36 -24 c19
-14 52 -29 72 -35z"/>
<path d="M1261 4443 c-38 -46 -40 -89 -9 -145 28 -49 88 -86 150 -91 53 -5 89
10 140 58 l32 30 -53 7 c-61 7 -106 38 -163 113 -53 69 -61 72 -97 28z"/>
<path d="M1127 4246 c-31 -125 -93 -195 -204 -231 -29 -9 -53 -20 -53 -24 0
-3 21 -13 48 -20 116 -33 170 -88 198 -204 10 -37 20 -64 25 -60 4 4 16 39 27
76 34 114 86 169 187 197 25 7 44 17 42 23 -1 5 -31 18 -64 28 -93 29 -141 95
-180 249 l-9 35 -17 -69z"/>
<path d="M3316 3785 c-76 -31 -122 -68 -168 -136 -49 -71 -68 -148 -68 -276 0
-57 -3 -103 -6 -103 -3 0 -26 12 -51 27 -59 34 -173 44 -221 19 -32 -17 -43
-36 -19 -36 17 0 87 -48 87 -61 0 -5 -12 -3 -27 5 -44 22 -191 49 -268 50 -90
0 -160 -17 -263 -65 -202 -93 -366 -292 -451 -545 -125 -372 -80 -747 128
-1058 59 -89 169 -201 246 -251 70 -46 191 -100 255 -114 l45 -10 -67 60
c-148 133 -247 315 -276 512 -9 60 1 81 12 24 8 -44 66 -163 120 -246 145
-225 371 -378 603 -411 40 -5 81 -6 93 -2 19 7 18 10 -20 47 -49 48 -53 69 -5
26 81 -70 201 -111 330 -111 143 0 271 50 338 132 17 21 32 36 34 34 8 -7 -24
-60 -51 -85 -14 -13 -23 -28 -20 -32 7 -12 89 -11 153 1 129 24 303 120 429
235 102 94 194 233 249 380 l34 90 -6 -65 c-16 -197 -100 -358 -268 -516 -93
-87 -86 -88 68 -14 230 111 386 283 484 535 59 151 76 244 76 420 0 164 -11
237 -57 390 -53 175 -122 292 -245 412 -131 129 -261 183 -446 183 -51 0 -83
7 -130 27 -79 33 -186 41 -277 20 -59 -14 -67 -14 -82 0 -37 34 -9 114 54 154
26 16 44 19 88 15 30 -2 70 -12 87 -21 32 -16 33 -16 58 12 13 15 25 31 25 36
0 4 11 7 25 7 32 0 45 -26 45 -94 0 -53 1 -56 24 -56 34 0 66 44 66 90 0 48
-46 112 -102 142 -36 19 -59 23 -139 23 -93 0 -98 -1 -183 -43 -60 -30 -109
-64 -157 -110 -80 -75 -89 -73 -89 16 0 57 23 113 59 146 22 20 52 23 127 11
26 -4 44 -3 48 4 14 23 -16 93 -58 135 -69 69 -166 84 -270 41z m184 -649
c144 -53 232 -157 245 -291 l6 -60 -34 70 c-49 99 -87 147 -159 198 -122 87
-285 118 -415 79 -85 -26 -175 -83 -230 -146 -38 -43 -54 -72 -101 -176 l-11
-25 0 31 c-1 17 6 54 15 84 45 150 169 244 344 259 104 8 286 -4 340 -23z
m-635 9 c-5 -3 -43 -11 -84 -19 -106 -22 -228 -84 -306 -157 -135 -127 -217
-270 -265 -464 l-27 -109 -7 50 c-7 53 6 173 25 234 81 254 256 424 479 463
31 5 199 7 185 2z m1093 -5 c116 -22 207 -91 255 -193 15 -30 27 -59 27 -63 0
-3 -29 25 -64 63 -102 110 -209 158 -374 170 -51 3 -90 8 -88 11 21 20 165 27
244 12z m-1487 -474 c66 -29 619 -303 626 -310 10 -10 -44 -68 -92 -101 -73
-48 -152 -68 -244 -63 -173 11 -281 119 -331 333 -18 76 -27 165 -16 165 2 0
28 -11 57 -24z m1774 -8 c7 -39 -9 -147 -30 -209 -36 -102 -114 -191 -203
-232 -38 -18 -66 -22 -143 -22 -90 0 -99 2 -170 37 -41 20 -93 57 -117 81
l-43 44 43 25 c24 14 120 60 213 104 94 43 226 107 295 141 69 34 130 62 137
62 7 1 15 -14 18 -31z m165 -63 c16 -33 36 -87 45 -120 17 -67 21 -190 5 -180
-5 3 -10 19 -10 36 0 50 -38 201 -70 279 -16 41 -30 77 -30 80 1 12 33 -39 60
-95z m-1067 -352 c30 -34 146 -227 141 -235 -8 -13 -314 -10 -314 4 0 24 135
248 150 248 4 0 14 -8 23 -17z m-1077 -93 c32 -38 145 -108 257 -160 87 -40
89 -41 113 -98 41 -95 58 -123 72 -117 7 2 39 23 72 45 59 40 107 51 139 31 8
-5 46 -55 85 -112 39 -57 76 -104 81 -104 6 0 37 39 69 88 l60 87 115 0 c64 0
183 5 265 10 l149 11 31 -29 c32 -31 106 -82 117 -82 6 0 68 124 95 188 6 16
47 40 137 81 70 33 162 83 204 110 42 28 78 50 80 48 1 -2 -4 -28 -13 -58 -45
-150 -161 -317 -294 -422 -78 -62 -210 -144 -247 -153 -12 -3 -47 18 -101 62
-46 36 -84 65 -86 63 -2 -2 -22 -40 -46 -84 -23 -44 -46 -85 -51 -92 -26 -31
-301 -46 -427 -23 -99 18 -106 22 -163 114 -30 47 -57 86 -61 86 -4 0 -37 -25
-72 -55 l-65 -55 -57 31 c-234 122 -403 317 -473 543 -28 92 -27 96 15 46z"/>
<path d="M5602 3723 c-27 -145 -87 -219 -213 -263 -40 -14 -74 -31 -76 -37 -2
-6 24 -20 61 -33 100 -33 166 -88 197 -166 7 -16 19 -60 28 -97 10 -37 20 -69
25 -70 4 -1 23 46 42 104 44 137 77 176 189 224 44 19 81 38 82 42 2 5 -28 19
-66 32 -119 41 -174 104 -216 249 -12 42 -26 77 -31 79 -5 2 -15 -27 -22 -64z"/>
<path d="M1228 3410 c-35 -36 -33 -71 8 -107 51 -46 114 -18 114 52 0 35 -6
45 -40 68 -34 24 -47 21 -82 -13z"/>
<path d="M930 3235 c0 -9 -12 -53 -27 -98 -34 -102 -80 -152 -171 -186 -34
-13 -62 -27 -62 -32 0 -4 28 -18 63 -31 95 -34 146 -90 181 -201 15 -48 31
-87 35 -87 5 0 15 29 24 65 37 151 68 182 235 240 24 9 10 21 -70 60 -114 56
-153 111 -183 258 -6 29 -25 38 -25 12z"/>
<path d="M1500 3145 c0 -19 143 -162 148 -147 4 13 -36 78 -79 126 -32 37 -69
48 -69 21z"/>
<path d="M4942 3079 c-71 -28 -122 -77 -122 -118 0 -20 6 -34 16 -38 22 -8 81
13 123 45 30 23 91 105 91 124 0 14 -53 8 -108 -13z"/>
<path d="M5151 2970 c-12 -40 -76 -100 -108 -100 -21 0 -15 -14 15 -32 48 -29
85 -76 97 -124 l12 -48 33 62 c23 44 46 71 78 92 25 16 50 30 56 30 6 0 -17
14 -52 31 -53 26 -66 37 -87 80 -14 27 -27 49 -29 49 -1 0 -8 -18 -15 -40z"/>
<path d="M1350 2952 c0 -18 65 -96 99 -119 19 -13 52 -28 73 -34 48 -12 128
-2 128 17 0 18 -94 92 -146 115 -49 22 -154 37 -154 21z"/>
<path d="M5869 2727 c-20 -13 -46 -45 -62 -77 -23 -45 -27 -63 -23 -100 l6
-45 -74 -23 c-43 -12 -94 -37 -120 -57 -25 -19 -46 -31 -46 -26 0 21 49 78 85
98 l40 22 -49 22 c-67 29 -169 23 -243 -15 -29 -14 -53 -30 -53 -34 0 -4 12
-15 28 -24 40 -24 74 -64 121 -143 41 -69 42 -69 100 -81 92 -19 169 -61 238
-130 75 -74 117 -156 135 -261 11 -67 14 -73 35 -73 29 0 79 24 110 53 13 11
26 18 29 14 12 -12 -6 -38 -42 -59 l-36 -21 23 -13 c39 -22 114 -17 168 10
141 72 207 239 167 430 -36 175 -137 273 -301 292 -30 4 -55 3 -55 -1 0 -4 13
-22 29 -40 47 -54 74 -138 69 -220 -3 -39 -13 -89 -24 -113 l-19 -43 0 113 c0
108 -2 116 -33 180 -23 47 -47 79 -80 105 -65 51 -72 61 -72 104 0 74 73 115
139 80 25 -14 26 -11 5 32 -32 68 -128 89 -195 44z"/>
<path d="M1325 2576 c-37 -16 -70 -52 -84 -89 -15 -40 -14 -100 3 -122 13 -18
11 -23 -24 -52 -56 -48 -74 -103 -67 -205 3 -46 8 -94 12 -108 l7 -25 -25 27
c-50 53 -60 179 -22 247 14 24 23 46 21 49 -9 8 -110 -20 -142 -39 -53 -32
-110 -103 -133 -164 -13 -34 -25 -97 -29 -149 l-7 -91 -20 40 c-14 29 -21 69
-25 147 -5 100 -7 109 -33 136 -47 49 -144 67 -192 36 -33 -21 -32 -28 9 -42
40 -15 86 -58 86 -81 -1 -9 -18 -28 -39 -43 -25 -17 -49 -46 -66 -82 -25 -51
-27 -64 -22 -134 3 -42 9 -88 12 -102 l7 -25 -16 22 c-53 71 -60 182 -17 267
l28 56 -36 -6 c-97 -18 -172 -79 -206 -168 -14 -36 -17 -63 -12 -116 13 -155
104 -261 236 -277 50 -6 114 9 141 33 12 10 26 10 75 -2 33 -7 66 -14 72 -14
7 0 25 24 39 53 72 142 175 251 291 307 48 24 72 41 72 53 2 51 64 127 135
164 73 38 207 12 278 -55 34 -31 40 -27 28 19 -5 19 -11 95 -13 169 -2 83 -8
144 -15 158 -16 27 -62 29 -111 3 l-33 -18 25 -20 c33 -26 67 -82 67 -112 0
-20 -5 -18 -44 26 -24 27 -66 60 -92 73 -77 40 -106 114 -67 170 26 38 34 41
88 35 l50 -6 -24 25 c-40 43 -111 56 -166 32z"/>
<path d="M5224 2366 c-8 -32 2 -63 37 -110 33 -45 35 -56 14 -56 -29 0 -132
-59 -159 -90 -14 -17 -26 -26 -26 -20 0 25 33 72 70 99 l39 28 -53 18 c-60 20
-111 15 -148 -14 -19 -16 -23 -32 -29 -107 -4 -49 -10 -101 -14 -116 -7 -28
-7 -28 41 -28 149 0 286 -82 330 -196 18 -46 18 -46 109 -64 76 -16 157 -56
219 -111 l49 -43 52 56 c61 65 81 121 79 219 -2 78 -26 139 -79 197 -43 49
-144 102 -192 102 l-33 0 27 -52 c47 -90 40 -235 -13 -279 -14 -11 -15 -8 -8
27 17 84 10 176 -18 235 -24 54 -77 114 -108 124 -11 3 -15 20 -15 64 0 49 -4
64 -25 86 -29 32 -78 55 -114 55 -19 0 -27 -7 -32 -24z"/>
<path d="M1410 1969 c-28 -12 -80 -58 -80 -72 0 -5 12 -6 26 -3 35 9 74 -17
74 -49 0 -16 -21 -47 -59 -89 -40 -45 -62 -80 -72 -113 -19 -65 -14 -192 10
-278 11 -38 18 -71 16 -73 -7 -8 -66 105 -81 157 -30 101 -9 225 49 289 l20
22 -38 0 c-109 0 -220 -73 -272 -178 -25 -51 -28 -67 -28 -162 0 -96 2 -110
28 -158 66 -126 163 -193 288 -200 68 -4 84 -1 135 22 l59 27 -48 26 c-26 15
-47 30 -47 33 0 4 30 -4 68 -17 85 -32 183 -29 255 7 26 13 47 27 47 30 0 4
35 5 78 2 97 -5 143 15 194 85 54 74 55 90 4 137 -64 61 -134 148 -220 273
-76 112 -115 147 -173 159 -21 4 -35 1 -46 -11 -21 -20 -22 -35 -3 -35 30 0
105 -71 130 -122 26 -55 50 -168 34 -168 -4 0 -8 6 -8 14 0 29 -50 123 -89
168 -23 26 -64 60 -91 75 l-50 29 25 22 c73 63 -40 190 -135 151z"/>
<path d="M4965 1797 l-39 -34 44 -6 c53 -7 90 -43 90 -88 0 -24 4 -29 24 -29
30 0 102 -32 136 -59 33 -27 22 -26 -53 5 -121 51 -207 18 -258 -100 -12 -28
-27 -82 -34 -121 l-12 -70 -13 39 c-24 74 11 204 71 262 16 15 29 33 29 40 0
19 -49 54 -66 47 -8 -3 -54 -58 -102 -122 -47 -64 -128 -158 -179 -208 -51
-51 -93 -96 -93 -101 0 -4 13 -29 29 -54 56 -88 191 -131 296 -93 39 14 41 14
82 -15 83 -60 185 -76 278 -45 33 12 50 13 64 5 11 -5 46 -13 78 -16 154 -16
314 96 337 235 14 88 -30 201 -100 259 -39 33 -150 72 -203 72 l-33 0 26 -31
c38 -45 53 -77 64 -138 12 -68 -8 -145 -50 -193 -18 -20 -27 -26 -24 -15 3 11
11 50 17 88 20 127 -25 247 -116 309 -41 28 -42 31 -38 73 4 36 1 48 -21 74
-35 41 -84 63 -143 63 -42 0 -56 -5 -88 -33z"/>
<path d="M6435 1716 c-54 -25 -119 -87 -129 -123 -7 -20 -4 -22 31 -17 61 9
101 24 131 48 15 13 46 33 70 45 24 12 46 29 49 37 15 40 -77 46 -152 10z"/>
<path d="M5943 1641 c-36 -17 -63 -45 -63 -67 0 -4 44 -4 98 -1 95 6 162 21
162 37 0 11 -99 50 -129 50 -14 0 -45 -9 -68 -19z"/>
<path d="M60 1641 c0 -14 59 -57 110 -80 47 -22 95 -27 104 -12 9 14 -33 60
-75 81 -40 21 -139 28 -139 11z"/>
<path d="M6358 1433 c-25 -7 -29 -29 -7 -49 16 -14 24 -15 44 -6 30 14 32 37
6 52 -11 5 -21 9 -23 9 -2 -1 -10 -3 -20 -6z"/>
<path d="M779 1319 c-66 -33 -126 -98 -135 -147 -18 -97 70 -200 240 -281 357
-172 1213 -344 1829 -368 l159 -6 105 -64 105 -63 139 125 139 126 136 -125
135 -125 104 63 103 63 191 7 c402 14 931 92 1327 196 479 126 747 288 719
436 -12 66 -121 162 -203 179 l-32 7 6 -69 c5 -58 3 -75 -14 -109 -75 -147
-362 -277 -801 -364 -114 -22 -334 -38 -271 -19 145 43 307 101 413 146 33 14
36 18 21 26 -10 6 -61 12 -114 15 -91 4 -101 2 -218 -37 -888 -298 -2178 -277
-3032 49 -47 18 -103 33 -125 34 -32 0 -196 -31 -265 -51 -17 -5 26 -26 175
-84 55 -22 120 -48 145 -59 25 -10 66 -26 93 -36 26 -9 46 -18 44 -20 -2 -2
-57 5 -123 16 -353 60 -699 181 -827 291 -70 60 -100 118 -107 205 l-5 72 -56
-29z"/>
<path d="M2114 1209 c-27 -29 -196 -119 -222 -119 -30 0 -6 -18 59 -43 134
-52 475 -132 711 -166 267 -39 376 -46 758 -46 326 1 401 4 570 23 227 27 419
61 580 103 63 17 129 34 145 38 28 7 24 9 -41 25 -85 21 -161 63 -211 115
l-36 39 -78 -29 c-305 -111 -784 -172 -1179 -149 -277 16 -430 39 -646 95
-144 38 -192 55 -303 109 -41 20 -75 36 -76 36 -1 0 -14 -14 -31 -31z"/>
<path d="M3302 456 c-29 -23 -89 -64 -133 -91 l-80 -48 -138 46 -138 47 -189
0 -189 -1 195 -63 c336 -109 550 -196 661 -267 l60 -39 42 29 c106 73 269 140
622 257 l250 83 -180 0 -180 1 -139 -41 c-77 -22 -143 -42 -148 -45 -9 -6 -66
32 -177 119 -40 31 -76 57 -80 57 -3 -1 -30 -20 -59 -44z"/>
</g>
</svg>
