<?xml version="1.0" standalone="no"?>
<!DOCTYPE svg PUBLIC "-//W3C//DTD SVG 20010904//EN"
 "http://www.w3.org/TR/2001/REC-SVG-20010904/DTD/svg10.dtd">
<svg version="1.0" xmlns="http://www.w3.org/2000/svg"
 width="1024.000000pt" height="1024.000000pt" viewBox="0 0 1024.000000 1024.000000"
 preserveAspectRatio="xMidYMid meet">
<metadata>
Created by potrace 1.16, written by Peter Selinger 2001-2019
</metadata>
<g transform="translate(0.000000,1024.000000) scale(0.100000,-0.100000)"
fill="#000000" stroke="none">
<path d="M4990 9433 c-20 -8 -69 -53 -83 -78 -8 -14 -14 -143 -17 -425 l-5
-405 -405 -5 c-399 -5 -405 -5 -436 -27 -48 -34 -67 -85 -72 -188 -5 -112 7
-161 53 -205 l36 -35 405 -5 c345 -4 406 -7 414 -20 6 -9 10 -322 10 -797 0
-526 3 -791 11 -810 13 -34 64 -90 102 -109 39 -21 144 -29 195 -15 48 13 105
59 130 105 15 28 17 103 22 836 l5 805 407 5 c391 5 408 6 434 26 51 37 64 79
66 206 2 110 1 117 -24 155 -48 73 -48 73 -476 73 -333 0 -383 2 -396 16 -14
13 -16 64 -16 403 0 386 0 388 -22 421 -46 67 -66 75 -201 77 -67 1 -129 0
-137 -4z"/>
<path d="M3120 7138 c-51 -14 -116 -82 -136 -141 -32 -96 -25 -115 190 -545
107 -215 209 -406 226 -425 45 -52 86 -67 178 -67 66 0 85 4 112 23 91 62 130
174 94 273 -11 28 -106 222 -212 432 -162 320 -199 386 -231 411 -57 46 -144
61 -221 39z"/>
<path d="M6972 7140 c-73 -17 -101 -61 -318 -492 -203 -404 -204 -408 -204
-472 0 -78 11 -110 53 -154 41 -44 71 -58 132 -65 79 -10 131 5 177 49 59 58
458 855 458 917 0 72 -18 116 -67 162 -60 58 -139 77 -231 55z"/>
<path d="M1780 6455 c-103 -46 -155 -176 -116 -287 14 -39 21 -48 310 -408
286 -357 301 -370 419 -370 80 0 139 29 181 88 26 37 31 54 34 115 2 40 -1 84
-7 99 -14 38 -567 724 -605 751 -40 29 -163 35 -216 12z"/>
<path d="M8284 6463 c-12 -2 -39 -21 -60 -41 -38 -36 -456 -555 -544 -675
l-45 -61 0 -86 c0 -82 2 -88 33 -127 50 -64 107 -87 198 -81 89 6 104 15 188
114 132 157 495 614 511 643 22 44 29 118 16 169 -14 51 -73 119 -118 139 -30
12 -130 16 -179 6z"/>
<path d="M4706 5985 c-530 -53 -1059 -198 -1531 -420 -546 -256 -1107 -721
-1493 -1234 -126 -168 -152 -218 -152 -293 0 -31 4 -67 9 -80 12 -32 170 -243
256 -343 390 -451 825 -802 1300 -1046 206 -106 356 -170 580 -244 318 -106
570 -162 955 -212 108 -14 209 -18 505 -18 325 1 390 3 530 22 949 130 1618
426 2308 1022 207 179 509 508 653 711 78 111 87 134 82 218 -3 68 -5 71 -82
178 -337 467 -777 871 -1266 1164 -484 290 -1099 492 -1720 566 -189 22 -747
28 -934 9z m510 -445 c372 -29 704 -178 954 -429 251 -252 400 -573 441 -953
20 -181 -19 -440 -95 -638 -272 -703 -1002 -1088 -1741 -918 -440 101 -777
362 -978 756 -122 237 -190 544 -172 772 27 346 133 622 335 873 242 301 650
511 1050 540 25 2 54 4 65 5 11 1 74 -3 141 -8z m-1626 -306 c0 -3 -20 -31
-44 -62 -100 -131 -211 -351 -265 -529 -64 -208 -76 -301 -76 -588 0 -304 15
-407 91 -635 64 -193 151 -357 292 -551 13 -16 12 -18 -9 -14 -42 8 -381 181
-514 262 -252 154 -498 348 -723 572 -124 123 -302 333 -302 354 0 7 32 50 71
97 378 455 864 829 1379 1061 86 39 100 44 100 33z m3250 -76 c292 -140 593
-343 879 -592 118 -103 338 -336 425 -450 l59 -76 -78 -97 c-109 -137 -415
-439 -567 -560 -136 -109 -270 -202 -438 -303 -117 -71 -481 -251 -492 -244
-4 3 13 31 37 63 144 190 260 433 318 666 49 196 52 229 52 500 0 234 -2 271
-24 375 -50 246 -145 479 -274 671 -84 127 -86 132 -39 112 20 -8 84 -37 142
-65z"/>
<path d="M4940 4876 c-161 -34 -288 -105 -406 -228 -167 -173 -231 -321 -241
-558 -11 -271 68 -467 262 -648 127 -119 244 -178 411 -207 111 -19 201 -19
304 1 184 35 321 112 454 255 161 174 235 381 223 623 -10 192 -71 348 -191
484 -118 134 -219 204 -363 255 -81 28 -101 31 -238 33 -99 2 -172 -1 -215
-10z"/>
<path d="M6615 1915 c-5 -2 -23 -6 -38 -9 -41 -10 -113 -81 -133 -132 -12 -32
-15 -61 -11 -105 5 -57 16 -78 153 -307 81 -136 164 -263 183 -283 40 -40 91
-59 161 -59 71 0 112 16 156 62 50 52 64 91 64 173 0 63 0 64 -125 269 -215
356 -226 369 -314 386 -54 10 -77 11 -96 5z"/>
<path d="M3475 1892 c-51 -33 -77 -70 -217 -302 -158 -264 -163 -273 -171
-324 -26 -166 127 -285 303 -236 56 16 99 70 240 304 176 293 173 289 174 366
1 77 -21 120 -87 172 -38 31 -47 33 -127 36 -70 2 -90 0 -115 -16z"/>
<path d="M5015 1696 c-16 -8 -44 -29 -62 -47 -61 -65 -63 -77 -63 -410 0 -342
0 -343 78 -407 41 -34 51 -37 119 -40 102 -6 138 3 185 46 68 61 68 65 69 419
l0 316 -26 39 c-14 21 -47 52 -72 69 -42 26 -56 29 -122 29 -42 -1 -89 -7
-106 -14z"/>
</g>
</svg>
