<?xml version="1.0" standalone="no"?>
<!DOCTYPE svg PUBLIC "-//W3C//DTD SVG 20010904//EN"
 "http://www.w3.org/TR/2001/REC-SVG-20010904/DTD/svg10.dtd">
<svg version="1.0" xmlns="http://www.w3.org/2000/svg"
 width="1024.000000pt" height="1024.000000pt" viewBox="0 0 1024.000000 1024.000000"
 preserveAspectRatio="xMidYMid meet">
<metadata>
Created by potrace 1.16, written by Peter Selinger 2001-2019
</metadata>
<g transform="translate(0.000000,1024.000000) scale(0.100000,-0.100000)"
fill="#000000" stroke="none">
<path d="M3265 8345 c-185 -38 -376 -195 -459 -376 -110 -240 -83 -532 68
-728 93 -120 192 -192 331 -238 72 -23 95 -26 225 -27 136 0 150 2 230 30 111
39 182 87 273 184 136 144 194 308 185 519 -9 191 -74 328 -222 468 -88 84
-170 131 -271 159 -83 22 -272 27 -360 9z"/>
<path d="M2675 6780 c-185 -26 -367 -156 -452 -323 -66 -132 -251 -669 -347
-1012 -61 -218 -161 -623 -177 -717 -23 -140 11 -240 109 -315 54 -41 98 -53
196 -53 96 0 148 21 203 84 48 55 48 56 132 396 130 534 287 1074 304 1044 13
-22 2 -2241 -13 -2844 -7 -256 -13 -600 -14 -765 -1 -290 0 -301 21 -340 25
-47 105 -126 150 -149 79 -39 236 -39 320 1 54 25 140 114 165 170 24 54 25
80 47 1033 6 261 16 680 22 930 6 250 15 462 20 472 5 10 23 25 39 33 27 14
33 14 59 1 15 -8 33 -28 39 -43 6 -17 13 -174 17 -393 10 -620 34 -1779 39
-1892 7 -129 27 -178 105 -251 90 -84 194 -112 326 -87 81 15 145 56 197 125
75 99 74 83 55 718 -10 309 -22 807 -28 1107 -14 656 -8 2165 8 2181 7 7 51
-36 145 -143 223 -252 272 -291 389 -303 57 -7 63 -5 289 63 74 22 172 50 216
62 72 19 92 30 160 86 44 35 96 76 117 89 38 26 47 54 24 74 -21 17 -78 35
-385 126 -191 56 -294 92 -316 108 -18 14 -77 78 -131 144 -191 228 -383 448
-421 484 -99 92 -170 114 -349 107 -79 -3 -130 -10 -149 -20 -15 -8 -103 -90
-195 -181 -92 -92 -175 -167 -184 -167 -10 0 -92 75 -183 166 -99 99 -180 172
-202 181 -43 19 -271 27 -367 13z"/>
<path d="M6010 6323 c-17 -22 -21 -36 -16 -68 27 -189 30 -282 9 -362 -7 -29
-51 -52 -163 -86 -110 -34 -210 -100 -343 -226 -121 -115 -125 -117 -437 -201
-305 -83 -307 -86 -297 -325 8 -174 20 -228 64 -276 l35 -39 185 0 c142 0 190
-3 212 -15 26 -13 41 -33 41 -55 0 -19 -74 -31 -220 -37 -177 -6 -190 -12
-190 -75 0 -97 122 -252 225 -284 48 -15 66 -16 143 -6 168 22 493 125 690
217 74 35 90 40 82 24 -27 -49 -143 -123 -370 -236 -204 -102 -242 -125 -290
-173 -139 -140 -199 -354 -187 -667 10 -266 76 -480 187 -606 34 -38 48 -47
75 -47 18 0 38 6 44 13 6 8 29 62 50 120 83 223 159 346 294 474 177 168 344
249 809 393 409 127 583 196 710 281 77 51 152 121 185 173 64 99 95 267 95
511 -1 262 -32 442 -113 645 -161 401 -540 740 -999 893 -143 48 -252 67 -380
67 -106 0 -109 -1 -130 -27z m810 -633 c88 -14 179 -60 209 -105 96 -142 74
-315 -56 -456 -59 -63 -155 -119 -206 -119 l-31 0 45 37 c120 101 177 194 186
302 8 92 -2 134 -40 178 -55 62 -101 77 -267 81 -80 2 -149 8 -154 12 -11 11
66 50 129 66 63 16 104 16 185 4z m-1074 -388 c17 -11 46 -71 39 -82 -19 -30
-163 -37 -205 -10 -13 9 -11 13 10 30 31 23 120 70 135 70 5 0 15 -4 21 -8z"/>
<path d="M7379 3920 c-106 -79 -353 -166 -824 -290 -400 -105 -586 -197 -743
-364 -105 -113 -143 -199 -255 -576 -52 -173 -98 -331 -103 -350 -12 -44 -49
-59 -149 -59 -101 -1 -140 -15 -201 -73 -81 -76 -108 -140 -112 -263 -4 -99
-4 -101 25 -131 22 -25 40 -32 83 -38 85 -10 826 1 848 13 27 15 40 37 125
221 41 91 130 278 197 415 99 203 127 271 151 365 35 137 70 213 133 297 116
153 362 269 496 233 l44 -12 -115 -42 c-140 -50 -195 -85 -281 -174 -112 -116
-153 -224 -146 -387 4 -87 9 -111 35 -166 34 -72 107 -173 157 -217 19 -17 32
-33 29 -36 -4 -3 -70 -6 -147 -6 -78 0 -157 -5 -177 -10 -53 -15 -125 -83
-159 -150 -56 -111 -63 -275 -13 -322 l25 -23 766 0 c716 0 771 1 827 18 33
11 76 27 95 37 56 29 140 109 181 174 l37 59 21 -33 c69 -114 3 -258 -153
-331 -125 -59 -133 -59 -911 -58 -691 0 -712 0 -776 -20 -131 -41 -237 -162
-288 -327 -23 -73 -28 -173 -9 -192 17 -17 74 -15 159 7 41 10 132 21 204 25
161 9 204 25 280 107 30 33 67 64 82 70 19 7 206 9 573 7 484 -3 555 -1 637
14 182 35 293 90 407 203 126 124 181 262 174 441 -5 136 -36 200 -148 307
-43 42 -86 89 -94 104 -8 16 -19 89 -25 173 -34 420 -152 716 -401 1006 -94
109 -244 244 -352 318 -74 50 -88 56 -133 56 -34 -1 -59 -7 -76 -20z"/>
</g>
</svg>
