<?xml version="1.0" standalone="no"?>
<!DOCTYPE svg PUBLIC "-//W3C//DTD SVG 20010904//EN"
 "http://www.w3.org/TR/2001/REC-SVG-20010904/DTD/svg10.dtd">
<svg version="1.0" xmlns="http://www.w3.org/2000/svg"
 width="630.000000pt" height="613.000000pt" viewBox="0 0 630.000000 613.000000"
 preserveAspectRatio="xMidYMid meet">

<g transform="translate(0.000000,613.000000) scale(0.100000,-0.100000)"
fill="#000000" stroke="none">
<path d="M1271 6073 c-6 -21 -15 -60 -21 -87 -23 -107 -64 -147 -186 -185
-112 -34 -121 -53 -37 -76 106 -29 142 -46 172 -81 26 -29 61 -114 61 -148 0
-6 5 -28 11 -49 8 -31 14 -38 31 -35 18 2 25 17 42 88 37 149 73 187 207 216
71 15 80 20 77 38 -2 16 -18 25 -79 42 -140 38 -177 75 -204 202 -24 111 -24
112 -45 112 -14 0 -22 -11 -29 -37z"/>
<path d="M3023 5620 c-64 -38 -63 -32 -63 -530 0 -481 1 -492 50 -535 30 -27
153 -34 198 -11 69 36 67 19 67 541 0 512 1 499 -58 535 -44 28 -150 27 -194
0z"/>
<path d="M5811 5247 c-6 -8 -20 -58 -31 -111 -42 -205 -92 -264 -260 -305
-111 -28 -130 -37 -130 -60 0 -22 4 -24 115 -50 181 -43 234 -102 278 -303 22
-101 38 -127 69 -115 9 3 21 37 32 91 46 232 99 294 286 331 93 18 104 24 98
51 -3 19 -7 21 -160 65 -88 25 -147 68 -178 130 -11 21 -32 91 -46 155 -13 65
-27 121 -30 126 -8 12 -30 10 -43 -5z"/>
<path d="M2728 5199 c-31 -4 -110 -20 -175 -35 -817 -182 -1480 -807 -1723
-1626 -26 -87 -80 -329 -80 -359 0 -5 57 -9 128 -9 l127 0 24 108 c89 407 282
777 551 1056 180 187 378 330 615 446 209 102 356 149 590 189 92 15 100 19
99 39 0 12 -1 63 -2 112 l-2 90 -47 -1 c-27 -1 -74 -5 -105 -10z"/>
<path d="M3362 5100 l3 -114 135 -26 c357 -71 679 -221 960 -447 153 -123 334
-324 447 -493 142 -214 258 -494 305 -737 l22 -113 121 0 c67 0 124 2 127 5 7
8 -16 134 -53 284 -163 660 -623 1227 -1244 1532 -229 112 -529 199 -746 216
l-80 6 3 -113z"/>
<path d="M2701 4844 c-587 -122 -1097 -505 -1365 -1022 -88 -171 -175 -433
-201 -609 l-7 -43 85 0 85 0 7 48 c42 296 190 619 397 867 281 338 651 543
1138 632 38 7 45 12 44 31 -4 132 -1 122 -36 121 -18 0 -84 -12 -147 -25z"/>
<path d="M3360 4796 l0 -75 48 -6 c401 -55 835 -297 1114 -621 204 -238 355
-552 418 -866 l11 -58 84 0 83 0 -23 108 c-70 323 -198 596 -393 842 -298 373
-706 626 -1171 724 -180 38 -171 41 -171 -48z"/>
<path d="M3034 4270 c-133 -20 -244 -79 -349 -185 -257 -257 -259 -620 -5
-876 119 -121 262 -179 439 -179 181 0 319 58 447 185 63 63 89 98 118 159
106 223 83 438 -68 643 -132 180 -375 286 -582 253z"/>
<path d="M4261 3718 c-6 -13 -17 -49 -26 -80 -20 -73 -59 -113 -131 -134 -69
-20 -69 -40 2 -64 28 -10 60 -24 72 -31 27 -17 56 -75 72 -147 9 -40 16 -52
28 -50 15 3 27 35 46 120 11 49 53 86 119 106 81 24 87 45 17 62 -53 13 -102
46 -122 84 -7 11 -19 50 -28 85 -17 70 -34 86 -49 49z"/>
<path d="M374 3060 c-33 -13 -72 -66 -79 -109 -8 -47 18 -113 59 -151 l28 -25
491 -2 492 -3 40 23 c95 54 102 202 12 257 -31 19 -53 20 -527 19 -272 0 -504
-4 -516 -9z"/>
<path d="M4794 3038 c-77 -72 -63 -202 28 -249 35 -18 65 -19 531 -19 l494 0
34 23 c90 60 93 204 6 257 -31 19 -54 20 -545 20 l-512 0 -36 -32z"/>
<path d="M2738 2979 c-14 -11 -86 -40 -159 -65 -319 -109 -468 -214 -550 -389
-42 -88 -59 -165 -69 -310 -9 -119 -8 -167 6 -282 l5 -41 108 -26 c238 -57
572 -87 966 -85 218 0 441 12 452 22 3 4 -5 46 -18 94 -21 75 -24 110 -24 243
l0 155 38 79 c96 196 298 310 515 291 43 -3 72 -2 72 4 0 11 -58 57 -110 88
-78 47 -202 103 -325 148 -71 26 -147 56 -168 67 l-38 19 -92 -28 c-82 -24
-108 -28 -232 -28 -139 0 -169 5 -321 53 -24 8 -35 6 -56 -9z"/>
<path d="M858 2663 c-76 -3 -108 -7 -108 -16 0 -69 59 -332 106 -472 258 -778
956 -1377 1799 -1544 55 -11 128 -23 163 -27 l63 -7 -3 128 -3 128 -120 22
c-278 51 -500 134 -760 283 -285 165 -586 474 -747 767 -120 221 -162 345
-236 705 -8 40 2 38 -154 33z"/>
<path d="M1203 2662 c-98 -3 -93 8 -58 -146 121 -532 410 -950 860 -1241 230
-149 548 -265 823 -301 l52 -7 0 82 c0 76 -1 81 -22 85 -13 2 -70 11 -127 20
-126 19 -337 88 -463 152 -255 127 -492 331 -664 569 -74 103 -190 333 -228
450 -30 96 -66 253 -66 294 0 16 -6 32 -12 37 -7 5 -50 8 -95 6z"/>
<path d="M5045 2662 c-3 -3 -5 -12 -5 -20 0 -19 32 -92 40 -92 4 0 17 18 29
40 17 31 20 44 12 54 -12 14 -67 27 -76 18z"/>
<path d="M5241 2660 c-4 -3 -13 -32 -20 -65 -7 -33 -26 -84 -43 -114 -16 -29
-28 -54 -26 -55 2 -1 21 -8 43 -15 101 -33 155 -88 155 -155 0 -47 -71 -247
-126 -355 -139 -274 -408 -541 -729 -726 -118 -68 -147 -75 -202 -46 l-41 21
-146 -71 c-178 -86 -396 -159 -581 -194 -77 -15 -146 -29 -152 -31 -10 -2 -13
-37 -13 -129 l0 -125 34 0 c43 0 226 32 338 59 174 42 447 153 611 247 430
247 701 532 911 955 116 233 211 554 218 736 l3 66 -113 1 c-63 0 -117 -1
-121 -4z"/>
<path d="M4917 2643 c-3 -5 -10 -42 -16 -82 -25 -164 -71 -217 -241 -283 l-25
-10 24 -19 c13 -10 32 -19 43 -19 10 0 44 -12 75 -26 65 -31 105 -86 124 -170
12 -55 30 -81 48 -70 5 3 19 38 31 77 31 103 72 144 175 174 71 20 80 25 80
46 0 20 -8 26 -45 37 -80 24 -120 45 -149 78 -29 32 -64 124 -77 199 -10 62
-32 93 -47 68z"/>
<path d="M3864 2560 c-128 -42 -216 -119 -272 -239 -50 -109 -41 -289 23 -428
85 -187 428 -513 698 -663 l57 -32 71 42 c207 123 478 366 614 551 87 118 184
359 145 359 -20 0 -85 -38 -106 -62 -12 -12 -32 -54 -45 -91 -31 -91 -71 -129
-124 -117 -51 12 -82 44 -90 94 -20 125 -47 157 -158 187 -171 47 -170 154 0
207 81 26 124 65 144 131 19 65 10 75 -69 68 -86 -9 -206 -42 -257 -72 -22
-12 -61 -42 -87 -65 l-47 -41 -86 69 c-48 39 -110 79 -143 92 -81 32 -189 36
-268 10z"/>
<path d="M346 2008 c-3 -7 -7 -30 -11 -52 -29 -174 -83 -233 -253 -276 -39
-10 -63 -32 -50 -46 3 -3 44 -15 91 -28 141 -37 180 -82 214 -246 15 -72 21
-85 38 -85 21 0 26 12 60 150 15 60 25 77 65 116 37 36 59 49 101 58 83 19
110 32 107 50 -3 15 -32 27 -124 51 -98 24 -145 86 -173 228 -16 75 -21 87
-40 90 -11 2 -23 -3 -25 -10z"/>
<path d="M5641 1513 c-5 -21 -17 -67 -26 -103 -20 -78 -55 -142 -93 -168 -26
-19 -85 -40 -170 -62 -35 -9 -43 -15 -40 -32 2 -16 19 -24 88 -42 102 -27 118
-35 158 -80 27 -31 72 -143 72 -180 0 -6 5 -28 11 -48 7 -27 16 -38 28 -38 22
0 24 4 50 115 12 47 27 98 35 114 35 66 112 109 230 126 82 13 69 57 -21 75
-162 34 -215 87 -248 245 -22 110 -24 115 -45 115 -14 0 -22 -11 -29 -37z"/>
<path d="M3031 1377 c-13 -6 -34 -25 -45 -40 -21 -28 -21 -36 -21 -540 0 -476
1 -514 18 -545 45 -82 219 -84 274 -4 17 25 18 62 18 542 0 483 -1 518 -18
544 -10 15 -34 34 -52 42 -42 17 -141 18 -174 1z"/>
<path d="M3930 1294 c-115 -51 -303 -110 -430 -135 -63 -12 -121 -23 -127 -25
-19 -5 -18 -164 1 -164 65 0 345 69 471 117 99 37 305 133 305 142 0 5 -51 40
-120 83 -23 14 -30 13 -100 -18z"/>
</g>
</svg>
