<?xml version="1.0" standalone="no"?>
<!DOCTYPE svg PUBLIC "-//W3C//DTD SVG 20010904//EN"
 "http://www.w3.org/TR/2001/REC-SVG-20010904/DTD/svg10.dtd">
<svg version="1.0" xmlns="http://www.w3.org/2000/svg"
 width="1024.000000pt" height="1024.000000pt" viewBox="0 0 1024.000000 1024.000000"
 preserveAspectRatio="xMidYMid meet">
<metadata>
Created by potrace 1.16, written by Peter Selinger 2001-2019
</metadata>
<g transform="translate(0.000000,1024.000000) scale(0.100000,-0.100000)"
fill="#000000" stroke="none">
<path d="M7031 8434 c-18 -10 -45 -35 -60 -58 l-26 -40 -5 -1635 -5 -1636
-330 -3 c-181 -1 -341 0 -354 3 -14 4 -59 40 -101 81 l-76 74 -500 0 c-274 0
-509 -3 -522 -6 -25 -7 -52 -51 -52 -86 0 -21 126 -183 640 -821 52 -65 104
-120 116 -123 12 -3 59 6 104 20 255 81 505 50 780 -96 167 -89 179 -94 250
-117 171 -54 360 -55 532 -1 35 11 128 55 207 99 164 91 285 134 423 152 109
14 221 3 331 -31 77 -24 104 -25 116 -2 5 9 41 105 81 212 40 107 101 271 136
364 69 184 77 231 43 262 -20 18 -44 19 -724 16 -647 -3 -703 -2 -719 13 -14
15 -16 36 -14 144 l3 126 549 3 c494 2 551 4 568 19 35 32 23 88 -78 376 -106
301 -219 625 -328 939 -39 114 -80 216 -91 228 -16 18 -27 21 -60 16 -34 -6
-302 -86 -487 -146 -46 -15 -59 -16 -68 -5 -7 8 -9 94 -8 256 l3 244 484 3
c337 1 488 6 498 13 7 6 13 29 13 49 0 33 -12 53 -78 137 -149 189 -162 206
-162 217 0 6 29 47 63 91 171 217 177 226 177 271 0 33 -5 46 -19 54 -13 6
-183 10 -485 10 -409 0 -466 2 -480 16 -12 12 -16 36 -16 100 0 95 -9 121 -64
174 -33 31 -43 35 -104 38 -48 2 -76 -2 -101 -14z"/>
<path d="M2723 8378 c-61 -13 -103 -58 -103 -110 0 -36 7 -47 80 -123 44 -46
80 -88 80 -92 0 -5 -35 -17 -77 -27 -219 -50 -424 -167 -597 -341 -100 -100
-136 -156 -136 -216 0 -39 4 -51 26 -68 15 -12 38 -21 53 -21 29 0 139 -25
147 -33 3 -3 -22 -38 -56 -79 -179 -213 -300 -514 -340 -848 -17 -138 -14
-415 5 -544 48 -324 150 -589 371 -966 123 -211 174 -313 212 -425 73 -214 60
-402 -37 -552 -45 -70 -92 -110 -183 -158 -202 -106 -449 -73 -686 91 -69 48
-102 54 -132 24 -19 -19 -20 -33 -20 -424 l0 -404 39 -35 c83 -75 261 -166
403 -204 97 -27 365 -24 473 6 108 29 206 77 339 165 155 102 208 130 311 165
154 51 317 56 480 15 85 -22 224 -89 351 -171 260 -167 430 -220 783 -244 281
-20 535 8 755 82 127 42 180 69 316 159 128 85 206 126 306 159 217 73 433 57
639 -46 39 -20 125 -71 193 -115 142 -92 182 -111 288 -138 148 -38 340 -18
473 50 33 16 110 64 173 106 176 120 298 167 463 183 206 18 410 -40 615 -178
77 -52 131 -66 158 -39 9 9 12 112 12 403 l0 391 -27 26 c-42 39 -199 137
-278 174 -152 70 -200 79 -410 79 -181 -1 -194 -2 -275 -29 -106 -35 -138 -52
-274 -139 -209 -134 -328 -173 -496 -164 -143 8 -245 46 -434 161 -154 94
-183 108 -286 141 -73 24 -107 28 -236 33 -166 5 -261 -8 -380 -53 -63 -24
-91 -39 -269 -148 -182 -110 -311 -149 -505 -149 -196 0 -391 59 -488 147 -54
48 -115 170 -131 261 -56 320 -83 415 -162 581 -27 56 -85 156 -130 224 -97
145 -270 327 -544 574 -274 247 -366 351 -464 530 -81 146 -105 229 -106 360
0 122 14 179 63 252 l28 42 68 -49 c124 -90 226 -117 406 -104 286 20 391 9
629 -67 116 -38 133 -40 216 -37 113 5 166 31 260 128 89 93 142 202 157 326
15 122 4 160 -72 238 -58 60 -108 94 -346 234 -229 135 -355 242 -509 437
-223 280 -442 462 -649 539 -154 58 -404 83 -533 54z m969 -994 c33 -17 58
-62 58 -102 0 -52 -66 -112 -122 -112 -62 0 -125 75 -115 137 8 44 22 62 72
84 41 19 58 17 107 -7z"/>
<path d="M6718 7243 c-13 -16 -69 -86 -123 -158 -228 -301 -456 -600 -690
-905 -137 -179 -316 -412 -397 -518 -130 -170 -148 -198 -148 -231 0 -26 7
-44 21 -57 20 -18 49 -19 728 -22 l708 -2 19 21 c18 20 19 49 22 937 l2 915
-22 24 c-31 33 -86 32 -120 -4z m129 -1370 c-1 -247 -2 -45 -2 447 0 492 1
694 2 448 2 -247 2 -649 0 -895z"/>
<path d="M2920 2947 c-109 -29 -194 -70 -295 -140 -169 -118 -305 -186 -450
-223 -101 -26 -274 -24 -380 4 -86 24 -258 103 -330 152 -54 37 -98 40 -120 6
-14 -21 -15 -93 -13 -607 3 -575 3 -585 25 -631 26 -57 103 -133 163 -162 l45
-21 3550 0 3550 0 46 21 c63 29 125 94 158 163 l26 56 3 551 3 551 -68 55
c-159 128 -301 203 -436 233 -63 14 -110 16 -235 12 -236 -7 -310 -33 -542
-189 -141 -95 -247 -143 -364 -166 -72 -14 -88 -14 -170 0 -116 19 -206 61
-385 178 -239 155 -305 175 -566 175 -176 0 -182 -1 -275 -32 -92 -31 -209
-94 -335 -180 -269 -182 -654 -263 -1056 -222 -282 28 -515 111 -759 269 -215
138 -288 162 -530 167 -158 3 -183 1 -260 -20z"/>
</g>
</svg>
