<?xml version="1.0" standalone="no"?>
<!DOCTYPE svg PUBLIC "-//W3C//DTD SVG 20010904//EN"
 "http://www.w3.org/TR/2001/REC-SVG-20010904/DTD/svg10.dtd">
<svg version="1.0" xmlns="http://www.w3.org/2000/svg"
 width="1024.000000pt" height="1024.000000pt" viewBox="0 0 1024.000000 1024.000000"
 preserveAspectRatio="xMidYMid meet">
<metadata>
Created by potrace 1.16, written by Peter Selinger 2001-2019
</metadata>
<g transform="translate(0.000000,1024.000000) scale(0.100000,-0.100000)"
fill="#000000" stroke="none">
<path d="M5035 9500 c-27 -29 -29 -35 -30 -123 l0 -92 -98 -7 c-55 -4 -105
-13 -114 -19 -24 -20 -43 -66 -43 -102 0 -71 58 -107 171 -107 33 0 61 -5 67
-12 12 -15 21 -208 10 -208 -4 0 -34 -26 -67 -58 -67 -66 -91 -124 -91 -222 0
-64 13 -108 46 -162 13 -20 20 -39 15 -42 -10 -7 -196 55 -339 113 -168 67
-232 82 -382 88 -268 11 -427 -43 -597 -201 -80 -74 -149 -178 -187 -281 -25
-70 -30 -97 -34 -218 -8 -234 26 -352 175 -605 115 -195 193 -395 193 -493 0
-15 8 -36 18 -48 l17 -21 1353 -1 c1140 -1 1356 1 1367 12 7 8 20 58 29 112
22 133 59 224 176 428 167 291 207 419 197 633 -8 192 -60 316 -189 447 -91
93 -199 162 -317 201 -94 32 -99 32 -281 32 -217 1 -230 -2 -484 -103 -234
-94 -318 -113 -273 -63 37 41 57 105 57 187 0 103 -20 147 -99 222 l-61 57 0
97 c0 54 4 100 9 103 5 3 37 6 72 7 88 1 124 14 149 53 46 76 7 165 -73 167
-68 1 -138 15 -148 30 -5 8 -9 46 -9 86 0 66 -3 75 -31 108 -29 32 -35 35 -88
35 -51 0 -61 -4 -86 -30z m-803 -1264 c40 -8 141 -39 225 -70 134 -49 192 -67
389 -122 31 -8 55 -21 59 -31 5 -14 44 -533 57 -760 2 -49 -16 -74 -77 -106
-56 -28 -112 -26 -168 7 -61 35 -117 130 -174 296 -55 158 -75 180 -164 180
-54 0 -64 -3 -91 -31 l-31 -30 8 -117 c11 -161 9 -189 -19 -236 -29 -49 -106
-96 -157 -96 -42 0 -126 39 -156 71 -12 13 -49 74 -84 134 -152 269 -189 381
-169 515 34 233 211 392 457 409 12 0 54 -5 95 -13z m1924 3 c160 -22 284
-111 354 -253 76 -154 76 -264 1 -441 -44 -100 -131 -256 -184 -326 -41 -53
-122 -99 -177 -99 -57 0 -121 38 -154 93 -33 53 -35 82 -22 243 l9 100 -33 37
c-31 35 -35 37 -95 37 -58 0 -65 -3 -88 -30 -14 -16 -42 -80 -62 -142 -39
-118 -92 -230 -126 -267 -30 -32 -99 -64 -140 -64 -47 0 -125 38 -146 70 -18
27 -19 -20 21 633 6 102 14 190 19 197 4 6 26 14 50 18 77 13 180 44 374 115
106 39 207 70 225 71 18 1 44 5 58 9 35 11 30 11 116 -1z"/>
<path d="M3767 6503 c-11 -14 -16 -46 -18 -135 -3 -103 -1 -119 15 -137 l19
-21 1332 0 c1261 0 1334 1 1355 18 20 16 22 27 23 134 2 101 0 118 -17 137
l-19 21 -1337 0 c-1261 0 -1338 -1 -1353 -17z"/>
<path d="M2684 5999 c-18 -21 -19 -59 -19 -1438 0 -1493 0 -1503 46 -1701 110
-478 408 -878 967 -1296 271 -203 815 -550 1257 -800 192 -109 189 -109 400
15 364 213 830 506 1067 671 394 274 702 572 890 865 112 173 208 418 250 639
21 110 22 128 25 1562 l4 1450 -21 27 -21 27 -2413 0 -2413 0 -19 -21z m4636
-239 c7 -10 9 -488 7 -1330 -3 -1186 -5 -1323 -20 -1400 -83 -416 -291 -755
-657 -1073 -208 -180 -390 -312 -715 -520 -292 -187 -785 -477 -811 -477 -21
0 -451 250 -754 438 -618 385 -964 679 -1185 1007 -102 153 -204 393 -239 567
-35 169 -37 263 -34 1533 l3 1259 25 7 c14 4 1003 7 2198 6 1919 -2 2174 -4
2182 -17z"/>
<path d="M4846 5419 c-106 -16 -179 -38 -276 -86 -82 -40 -108 -60 -190 -142
-105 -106 -163 -197 -204 -321 -49 -148 -59 -332 -27 -485 l19 -90 -39 -34
c-90 -76 -100 -157 -43 -370 58 -221 89 -279 180 -337 37 -24 56 -43 60 -62
25 -115 68 -213 142 -325 l45 -68 -5 -122 c-3 -85 -10 -131 -21 -153 -17 -33
24 -13 -730 -363 -142 -65 -269 -127 -282 -135 -18 -12 -25 -25 -25 -49 0 -36
31 -69 200 -218 245 -216 577 -450 1040 -731 344 -209 380 -228 429 -228 50 0
49 0 381 198 543 325 945 612 1188 846 96 94 103 102 100 136 -3 33 -7 37 -88
78 -84 42 -290 138 -714 335 -258 120 -244 105 -253 291 l-6 121 48 74 c55 86
111 211 129 291 10 45 18 57 42 69 43 20 108 86 132 134 26 52 88 267 104 360
18 99 3 148 -66 213 l-53 51 19 74 c16 63 19 100 15 244 -3 150 -7 178 -28
235 -49 129 -125 217 -264 305 -33 21 -86 61 -118 90 -105 95 -227 147 -397
170 -114 16 -350 18 -444 4z"/>
</g>
</svg>
