<?xml version="1.0" standalone="no"?>
<!DOCTYPE svg PUBLIC "-//W3C//DTD SVG 20010904//EN"
 "http://www.w3.org/TR/2001/REC-SVG-20010904/DTD/svg10.dtd">
<svg version="1.0" xmlns="http://www.w3.org/2000/svg"
 width="1024.000000pt" height="1024.000000pt" viewBox="0 0 1024.000000 1024.000000"
 preserveAspectRatio="xMidYMid meet">
<metadata>
Created by potrace 1.16, written by Peter Selinger 2001-2019
</metadata>
<g transform="translate(0.000000,1024.000000) scale(0.100000,-0.100000)"
fill="#000000" stroke="none">
<path d="M5035 9188 c-104 -112 -166 -210 -207 -328 -24 -67 -34 -224 -20
-300 6 -30 8 -57 6 -60 -3 -2 -17 4 -32 14 -109 71 -236 94 -346 62 -46 -14
-70 -29 -110 -69 -63 -63 -92 -120 -106 -210 -20 -126 13 -238 97 -328 65 -70
127 -109 175 -109 l38 0 0 59 c0 111 46 194 132 237 61 31 101 28 159 -11 56
-36 82 -94 83 -179 l1 -70 -39 -8 c-71 -15 -106 -65 -106 -149 0 -49 3 -55 45
-96 25 -23 45 -46 45 -49 0 -18 -59 -80 -114 -121 -295 -217 -769 -253 -1098
-82 -113 59 -160 106 -209 203 -32 66 -41 94 -41 138 -1 78 31 142 90 179 56
35 102 37 162 7 38 -19 50 -34 78 -90 36 -75 54 -84 90 -45 69 74 101 237 67
353 -32 111 -137 216 -231 230 -71 10 -185 0 -228 -21 -58 -28 -127 -103 -170
-184 -20 -39 -41 -69 -46 -66 -5 3 -16 28 -24 56 -8 27 -27 72 -43 100 -31 58
-132 157 -186 182 -67 32 -189 57 -313 63 l-124 7 0 -27 c0 -15 34 -104 76
-199 97 -219 439 -1003 471 -1082 14 -33 30 -66 35 -73 8 -9 422 -12 2031 -10
l2021 3 42 95 c23 52 104 237 179 410 76 173 177 405 225 515 125 285 140 322
140 346 0 22 -1 22 -124 15 -217 -11 -320 -50 -424 -160 -53 -56 -88 -118
-116 -203 -10 -29 -20 -53 -22 -53 -3 0 -12 17 -20 37 -45 106 -155 221 -232
243 -49 13 -187 13 -236 -1 -27 -7 -60 -31 -102 -73 -54 -54 -65 -72 -84 -135
-18 -59 -21 -88 -17 -154 7 -106 19 -144 63 -195 35 -42 84 -58 84 -29 0 7 12
37 26 65 46 92 137 127 220 84 48 -25 68 -46 90 -97 44 -104 -3 -255 -110
-352 -222 -203 -687 -250 -1039 -103 -98 40 -218 120 -262 174 -19 24 -35 46
-35 50 0 4 14 19 30 33 43 36 60 74 60 134 0 46 -4 55 -39 90 -25 25 -48 39
-64 39 -43 0 -58 25 -51 83 13 101 41 145 116 183 60 30 82 30 146 -2 46 -23
55 -33 87 -96 29 -59 35 -81 35 -136 l0 -65 44 5 c85 10 203 126 243 240 25
72 25 225 0 289 -21 55 -117 152 -173 175 -98 41 -245 25 -346 -37 l-47 -28 5
127 c7 150 -6 222 -62 334 -59 120 -209 298 -251 298 -13 0 -45 -26 -88 -72z"/>
<path d="M3095 7007 c-3 -6 -4 -185 -3 -397 l3 -385 2023 -3 2022 -2 0 400 0
400 -2020 0 c-1610 0 -2022 -3 -2025 -13z m926 -199 c58 -30 67 -39 97 -98 28
-55 33 -73 29 -117 -8 -113 -110 -207 -222 -207 -68 0 -146 41 -182 94 -92
140 -38 288 126 346 55 20 83 17 152 -18z m1168 17 c69 -24 101 -54 133 -122
38 -80 36 -139 -8 -210 -38 -61 -121 -107 -192 -107 -47 1 -117 29 -156 63
-34 30 -69 113 -69 166 0 91 50 157 153 204 54 25 84 26 139 6z m1217 -9 c64
-30 90 -56 122 -125 56 -121 -6 -246 -148 -296 -150 -53 -320 118 -274 274 19
65 59 110 128 142 74 35 105 36 172 5z"/>
<path d="M2737 6083 c-11 -11 -8 -1568 3 -1735 62 -907 357 -1577 964 -2184
306 -306 629 -556 1106 -856 229 -144 289 -178 312 -178 27 0 275 150 540 326
223 149 442 311 604 450 144 123 401 384 506 514 339 421 549 873 657 1415 71
356 81 539 81 1498 l0 757 -2383 0 c-1311 0 -2387 -3 -2390 -7z"/>
</g>
</svg>
