<?xml version="1.0" standalone="no"?>
<!DOCTYPE svg PUBLIC "-//W3C//DTD SVG 20010904//EN"
 "http://www.w3.org/TR/2001/REC-SVG-20010904/DTD/svg10.dtd">
<svg version="1.0" xmlns="http://www.w3.org/2000/svg"
 width="1024.000000pt" height="1024.000000pt" viewBox="0 0 1024.000000 1024.000000"
 preserveAspectRatio="xMidYMid meet">
<metadata>
Created by potrace 1.16, written by Peter Selinger 2001-2019
</metadata>
<g transform="translate(0.000000,1024.000000) scale(0.100000,-0.100000)"
fill="#000000" stroke="none">
<path d="M3439 9085 c-104 -17 -266 -69 -367 -115 -249 -117 -581 -357 -714
-519 -32 -38 -38 -53 -38 -92 0 -35 5 -51 25 -69 35 -32 95 -24 227 33 244
105 452 157 555 137 152 -27 233 -113 269 -279 36 -174 -2 -418 -161 -1016
-131 -495 -182 -657 -213 -683 -15 -12 -182 -101 -372 -197 -512 -259 -704
-374 -842 -503 -84 -79 -108 -127 -108 -213 0 -56 4 -70 30 -105 83 -113 243
-160 583 -171 l197 -6 0 -126 c0 -524 152 -975 442 -1312 339 -395 746 -598
1208 -602 164 -2 206 7 231 46 28 44 22 127 -11 162 l-23 24 -161 -6 c-140 -4
-174 -2 -264 16 -302 63 -605 251 -806 498 -224 277 -353 606 -386 986 -18
198 11 444 75 641 34 104 94 233 111 240 8 3 112 28 232 56 777 179 1500 381
2922 815 351 107 391 117 415 101 103 -68 280 -228 369 -335 264 -317 430
-700 477 -1096 15 -124 6 -428 -15 -544 -106 -572 -430 -997 -901 -1180 -132
-52 -232 -72 -395 -80 l-134 -6 -23 -34 c-38 -57 -48 -107 -48 -251 1 -205 46
-336 168 -488 93 -114 108 -138 128 -204 23 -72 24 -135 4 -248 -22 -127 -20
-256 6 -327 29 -77 151 -200 260 -260 85 -48 271 -113 399 -140 120 -25 427
-25 520 0 102 27 204 82 266 143 68 66 68 86 3 95 -105 15 -188 74 -257 182
-70 108 -76 102 106 102 154 0 158 1 217 29 116 57 213 186 218 288 l2 43 -35
-2 c-171 -11 -205 -8 -265 22 -80 41 -100 70 -100 148 1 83 28 129 166 287
185 210 243 315 275 502 32 184 -8 382 -133 667 -95 218 -163 392 -186 475
-24 92 -27 175 -13 521 6 141 5 245 -3 318 -37 362 -171 703 -392 997 l-68 90
82 68 c173 145 363 370 428 507 88 185 72 315 -49 395 -66 43 -129 55 -297 55
-185 -1 -258 -14 -743 -135 -403 -100 -469 -113 -509 -104 -81 20 -217 106
-360 228 -104 89 -161 151 -353 386 -205 251 -309 367 -466 520 -355 345 -696
557 -997 620 -108 23 -290 25 -408 5z m930 -258 c315 -208 557 -441 922 -888
204 -250 251 -300 368 -401 168 -144 284 -215 369 -224 30 -4 86 2 152 16 151
32 167 33 65 4 -59 -16 -120 -26 -175 -27 -78 -2 -90 1 -145 29 -89 47 -213
139 -321 238 -85 80 -230 247 -469 542 -99 123 -376 402 -510 513 -81 67 -235
176 -381 268 -11 6 -15 12 -10 12 5 1 66 -36 135 -82z m1074 -1314 c34 -31 99
-91 143 -133 l81 -76 -66 -17 c-36 -9 -231 -57 -432 -107 -725 -179 -1341
-364 -1744 -524 -132 -53 -165 -63 -165 -51 0 3 15 58 34 123 19 64 40 136 46
160 11 42 14 44 103 86 450 211 958 377 1577 516 102 23 219 50 260 60 41 10
81 18 88 19 7 1 40 -25 75 -56z m-2364 -983 c-8 -26 -26 -53 -48 -71 -20 -16
-187 -106 -371 -199 -495 -251 -706 -375 -837 -494 -172 -157 -128 -325 105
-400 42 -14 70 -25 61 -26 -8 0 -43 9 -77 21 -128 43 -202 121 -202 212 0 70
29 125 103 194 134 125 335 244 828 494 185 93 354 182 376 198 30 22 43 40
53 75 7 26 15 45 17 42 2 -2 -1 -23 -8 -46z"/>
<path d="M6315 6700 c-33 -9 -224 -67 -425 -128 -704 -213 -1490 -442 -1825
-532 -150 -40 -694 -174 -918 -225 -140 -32 -136 -28 -191 -194 -54 -164 -77
-308 -83 -521 -8 -284 29 -490 132 -730 153 -357 477 -675 795 -778 164 -54
338 -66 490 -36 l81 16 89 -41 c106 -49 239 -94 352 -118 125 -27 391 -24 516
5 177 41 314 106 476 225 81 60 90 64 119 56 60 -17 275 -11 367 11 295 71
585 332 760 688 174 352 217 809 114 1216 -67 267 -161 462 -332 688 -129 171
-388 419 -436 417 -12 0 -48 -9 -81 -19z m-383 -567 c69 -73 180 -212 240
-305 71 -108 149 -248 139 -248 -5 0 -60 -9 -122 -20 -268 -47 -643 -110 -655
-110 -8 0 -14 4 -14 9 0 5 65 142 144 305 80 163 157 323 172 356 15 33 32 60
38 60 7 0 32 -21 58 -47z m-1349 -894 c-20 -20 -567 -48 -591 -31 -12 8 -11
15 3 43 26 50 197 319 273 429 l66 94 129 -263 c81 -164 125 -267 120 -272z
m694 -261 c17 -20 12 -21 -156 -43 -108 -14 -161 -12 -161 5 0 10 50 163 86
266 l26 74 95 -143 c53 -78 102 -149 110 -159z m1187 86 c-5 -53 -49 -179 -92
-264 -156 -312 -427 -535 -811 -669 -76 -26 -127 -39 -132 -34 -6 6 -20 52
-32 104 l-23 94 -39 0 c-22 -1 -95 -6 -162 -13 -67 -7 -167 -12 -222 -12 -119
0 -114 4 -126 -123 -7 -75 -8 -77 -34 -77 -89 0 -387 90 -544 163 -279 131
-438 271 -546 482 -60 117 -57 121 47 68 48 -24 143 -62 212 -84 69 -23 127
-42 129 -44 2 -2 12 -46 22 -97 26 -128 27 -128 65 -144 41 -17 298 -74 334
-74 25 0 30 8 66 107 l39 107 200 -2 c200 -3 391 11 579 42 49 8 93 13 98 10
4 -3 29 -35 55 -72 64 -92 83 -112 108 -112 25 0 324 126 344 145 11 11 11 27
-3 102 -9 48 -16 93 -16 99 0 6 65 51 146 99 80 48 189 121 242 161 53 40 98
73 98 73 1 1 0 -15 -2 -35z"/>
<path d="M5550 3410 c-47 -20 -132 -50 -190 -65 -191 -51 -471 -44 -668 17
-100 30 -106 27 -114 -63 -22 -241 -113 -422 -279 -553 -149 -118 -316 -191
-824 -360 -270 -90 -418 -159 -534 -246 -94 -71 -191 -186 -245 -289 -85 -164
-130 -367 -91 -411 18 -20 35 -20 2055 -20 1927 0 2038 1 2053 18 8 9 18 29
22 44 12 48 -8 65 -118 99 -194 60 -401 173 -490 268 -116 124 -158 295 -122
496 17 96 19 190 4 249 -6 26 -33 71 -65 112 -123 156 -155 202 -188 270 -54
110 -76 202 -83 347 -5 108 -8 127 -22 126 -9 -1 -54 -18 -101 -39z m-2924
-1960 c7 -7 661 -9 2039 -8 l2029 3 12 23 c15 30 27 41 18 17 -4 -11 -14 -28
-22 -37 -14 -17 -124 -18 -2040 -18 -2291 0 -2063 -9 -2061 84 l2 51 6 -52 c4
-29 11 -57 17 -63z"/>
</g>
</svg>
