<?xml version="1.0" standalone="no"?>
<!DOCTYPE svg PUBLIC "-//W3C//DTD SVG 20010904//EN"
 "http://www.w3.org/TR/2001/REC-SVG-20010904/DTD/svg10.dtd">
<svg version="1.0" xmlns="http://www.w3.org/2000/svg"
 width="1024.000000pt" height="1024.000000pt" viewBox="0 0 1024.000000 1024.000000"
 preserveAspectRatio="xMidYMid meet">
<metadata>
Created by potrace 1.16, written by Peter Selinger 2001-2019
</metadata>
<g transform="translate(0.000000,1024.000000) scale(0.100000,-0.100000)"
fill="#000000" stroke="none">
<path d="M4275 8729 c-127 -29 -447 -183 -915 -441 -146 -80 -319 -175 -385
-211 -142 -76 -165 -102 -165 -185 0 -50 3 -58 38 -92 52 -53 93 -56 447 -36
161 9 299 14 308 10 29 -11 26 -32 -14 -116 -41 -83 -286 -632 -332 -743 -22
-53 -30 -62 -68 -77 -24 -10 -102 -40 -172 -68 -284 -111 -484 -226 -607 -350
-94 -93 -115 -141 -115 -260 0 -85 3 -100 27 -140 37 -64 171 -189 255 -239
99 -59 220 -108 347 -141 59 -16 111 -32 114 -35 3 -3 11 -62 19 -133 24 -232
72 -409 164 -602 80 -168 167 -289 312 -435 l129 -130 -6 -139 c-9 -196 -16
-209 -137 -268 -52 -25 -220 -98 -374 -161 -526 -216 -717 -302 -899 -405
-372 -210 -535 -469 -674 -1073 -82 -352 -119 -643 -92 -714 18 -48 108 -133
159 -149 92 -31 570 -100 901 -131 91 -8 181 -17 200 -20 19 -3 159 -14 310
-25 1272 -90 2210 -77 3430 50 280 30 668 87 743 110 76 24 145 80 176 143 40
83 20 273 -80 740 l-42 196 56 193 c31 106 97 339 147 518 50 179 120 426 155
550 35 124 109 388 164 585 55 198 151 545 215 770 152 544 201 723 225 825
24 100 28 229 7 268 -18 34 -72 86 -111 104 -76 38 -194 28 -255 -21 -66 -53
-58 -30 -268 -776 -185 -656 -306 -1082 -439 -1550 -79 -280 -161 -573 -180
-650 -20 -77 -37 -142 -39 -144 -2 -2 -32 19 -67 47 -219 175 -510 318 -1221
603 -170 68 -323 132 -340 144 -58 39 -69 74 -78 234 l-8 145 110 111 c148
148 246 281 325 440 101 203 151 385 175 630 5 59 14 113 20 120 6 7 38 18 71
24 218 43 434 155 562 290 89 95 111 145 112 251 0 74 -3 91 -27 130 -43 73
-93 125 -191 198 -144 109 -340 210 -587 304 -58 22 -114 45 -126 53 -11 7
-37 54 -58 103 -57 138 -303 631 -401 803 -164 288 -415 685 -513 809 -112
143 -161 170 -302 169 -52 -1 -113 -5 -135 -10z"/>
<path d="M7950 8683 c-45 -23 -55 -42 -205 -398 -69 -165 -132 -306 -139 -313
-12 -12 -199 -56 -346 -81 -171 -30 -389 -73 -413 -83 -38 -15 -77 -84 -77
-137 0 -79 15 -95 347 -380 111 -96 205 -182 208 -192 7 -21 -2 -67 -76 -412
-27 -126 -49 -253 -49 -283 0 -48 4 -58 36 -94 42 -47 96 -65 163 -55 55 8 71
18 270 158 263 186 361 249 379 245 9 -3 123 -80 253 -171 334 -234 321 -227
409 -227 64 0 78 3 108 26 41 32 62 78 62 137 0 24 -29 184 -65 357 -36 172
-64 319 -61 325 2 7 109 104 238 217 128 113 250 224 271 246 35 40 37 46 37
110 0 64 -2 70 -35 102 -32 31 -44 35 -232 71 -109 21 -274 53 -367 71 -124
24 -176 38 -192 53 -14 12 -73 142 -149 330 -152 373 -162 387 -272 393 -51 2
-77 -1 -103 -15z"/>
</g>
</svg>
