<?xml version="1.0" standalone="no"?>
<!DOCTYPE svg PUBLIC "-//W3C//DTD SVG 20010904//EN"
 "http://www.w3.org/TR/2001/REC-SVG-20010904/DTD/svg10.dtd">
<svg version="1.0" xmlns="http://www.w3.org/2000/svg"
 width="1028.000000pt" height="1028.000000pt" viewBox="0 0 1028.000000 1028.000000"
 preserveAspectRatio="xMidYMid meet">
<metadata>
Created by potrace 1.16, written by Peter Selinger 2001-2019
</metadata>
<g transform="translate(0.000000,1028.000000) scale(0.100000,-0.100000)"
fill="#000000" stroke="none">
<path d="M5086 8905 c-49 -17 -93 -59 -117 -110 -18 -38 -19 -110 -20 -1795
-1 -965 -5 -1948 -8 -2185 l-6 -430 -343 -3 c-189 -1 -349 1 -357 5 -7 5 -64
73 -127 153 -100 128 -118 146 -148 150 -19 3 -516 4 -1105 2 l-1070 -3 -28
-30 c-22 -24 -27 -38 -27 -82 1 -51 3 -55 137 -237 75 -102 264 -360 420 -575
156 -214 298 -408 317 -430 l33 -40 184 0 c160 -1 196 -4 273 -24 121 -31 251
-86 388 -162 267 -149 381 -200 591 -263 217 -66 502 -118 727 -132 58 -4 110
-10 115 -14 17 -13 631 -5 762 10 67 7 120 17 118 21 -3 4 3 5 13 2 24 -6 181
22 323 57 215 55 411 133 602 243 190 109 219 124 309 161 48 20 136 48 195
63 94 23 128 27 258 26 171 0 273 -21 432 -89 64 -28 103 -38 143 -38 53 -1
55 0 73 34 9 19 58 152 108 295 50 143 129 366 175 496 95 267 104 320 59 364
l-24 25 -1516 0 c-1059 0 -1515 3 -1515 11 0 5 -4 7 -10 4 -5 -3 -11 0 -11 7
-1 7 -1 987 1 2178 1 1615 -1 2173 -10 2195 -17 45 -96 125 -110 111 -8 -8 -9
-6 -4 9 7 18 6 19 -9 6 -15 -12 -17 -12 -11 3 5 14 3 15 -20 6 -21 -8 -28 -7
-32 5 -8 19 -75 19 -128 0z m311 -2217 c-1 -376 -2 -69 -2 682 0 751 1 1058 2
683 2 -376 2 -990 0 -1365z"/>
<path d="M5583 8410 c-55 -22 -52 88 -54 -1730 l-2 -1675 32 -32 32 -33 1030
0 1031 0 40 39 c22 22 37 45 33 50 -3 6 -1 11 4 11 6 0 11 18 11 40 0 31 -4
40 -17 40 -15 0 -15 2 -4 9 17 11 12 25 -97 281 -117 275 -194 440 -203 435
-4 -3 -11 0 -15 6 -4 8 -3 9 4 5 7 -4 12 -1 12 6 0 8 -78 171 -174 363 -232
465 -414 782 -644 1120 -110 162 -297 411 -317 422 -8 5 -14 12 -14 16 0 23
-350 403 -496 539 -107 100 -133 112 -192 88z"/>
<path d="M4594 8352 c-11 -4 -43 -26 -70 -50 -41 -35 -46 -44 -34 -53 12 -8
11 -9 -6 -5 -17 5 -47 -21 -160 -136 -482 -494 -887 -989 -1219 -1488 -138
-207 -315 -497 -315 -516 0 -7 -4 -14 -9 -16 -23 -8 -369 -683 -357 -695 3 -3
-2 -12 -10 -20 -8 -8 -12 -19 -9 -24 4 -5 1 -9 -5 -9 -6 0 -8 -4 -5 -10 3 -5
-1 -10 -10 -10 -9 0 -13 -4 -10 -10 3 -5 1 -10 -6 -10 -8 0 -8 -4 1 -15 10
-12 9 -15 -6 -16 -11 0 -14 -3 -6 -6 19 -7 14 -23 -5 -16 -16 6 -16 5 -4 -10
12 -16 12 -17 -5 -10 -17 6 -17 5 -5 -10 12 -15 11 -17 -5 -17 -16 0 -17 -2
-4 -10 13 -8 12 -10 -4 -10 -12 0 -16 -5 -13 -14 3 -8 1 -16 -6 -19 -8 -2 -12
-27 -12 -66 0 -59 2 -64 37 -97 l38 -34 1163 0 1163 0 35 37 c19 20 27 33 17
30 -12 -4 -15 -2 -11 8 3 8 9 13 13 10 5 -3 11 -1 15 5 3 5 2 10 -3 10 -5 0
-5 23 -1 53 4 28 8 757 8 1618 l1 1567 -40 36 c-41 37 -81 45 -136 28z"/>
<path d="M2705 3074 c-11 -2 -45 -9 -75 -15 -101 -19 -184 -51 -340 -130 -189
-95 -213 -105 -315 -130 -140 -33 -263 -22 -412 38 -93 38 -156 38 -189 0
l-24 -28 0 -288 c0 -334 -4 -318 104 -373 194 -98 419 -122 635 -67 45 11 157
58 271 114 247 119 315 139 475 139 193 -1 306 -42 595 -216 226 -136 337
-195 485 -256 287 -120 648 -203 953 -219 61 -3 112 -9 112 -14 0 -4 118 -6
263 -4 256 2 410 12 403 24 -2 3 24 7 58 7 133 4 433 81 661 171 181 71 294
130 501 259 260 162 377 213 537 234 171 23 296 -8 553 -138 185 -94 247 -115
375 -132 173 -23 351 6 478 77 119 66 111 40 111 383 l0 297 -23 21 c-36 34
-101 29 -216 -15 -88 -34 -105 -37 -201 -38 -138 0 -202 20 -445 141 -226 112
-327 142 -506 151 -85 4 -143 1 -217 -11 -169 -28 -258 -65 -482 -196 -395
-232 -742 -339 -1252 -385 -139 -13 -215 -14 -454 -5 -157 5 -345 17 -416 26
-72 8 -139 13 -149 11 -11 -3 -17 -2 -14 2 2 4 -32 13 -76 20 -308 47 -672
175 -958 337 -305 174 -397 204 -636 210 -82 1 -159 1 -170 -2z"/>
<path d="M2684 2070 c-97 -18 -209 -59 -299 -111 -234 -135 -347 -174 -505
-173 -123 0 -183 16 -312 80 -107 54 -147 57 -189 15 l-29 -29 0 -367 c0 -406
-1 -400 67 -452 l36 -28 2561 -7 c1409 -4 3066 -7 3683 -5 1115 2 1122 2 1149
23 15 11 37 33 48 48 20 26 21 42 24 406 l3 378 -31 26 c-46 38 -80 34 -195
-24 -134 -68 -228 -88 -334 -73 -105 16 -203 51 -330 120 -273 148 -340 168
-551 167 -126 -1 -157 -5 -233 -28 -49 -14 -107 -36 -130 -47 -74 -38 -237
-141 -237 -150 0 -5 -4 -8 -8 -6 -4 1 -59 -26 -122 -60 -265 -143 -485 -233
-732 -298 -169 -44 -400 -84 -503 -87 -44 -2 -83 -7 -87 -12 -4 -6 -126 -4
-305 4 -164 7 -321 14 -350 14 -28 1 -49 3 -47 5 3 3 -55 15 -128 27 -412 69
-773 208 -1198 461 -183 109 -249 141 -339 164 -87 23 -295 34 -377 19z m1159
-1057 c-424 -2 -1122 -2 -1550 0 -428 1 -80 2 772 2 853 0 1203 -1 778 -2z
m4240 -10 c-365 -2 -961 -2 -1325 0 -365 1 -67 2 662 2 729 0 1027 -1 663 -2z"/>
</g>
</svg>
