<?xml version="1.0" standalone="no"?>
<!DOCTYPE svg PUBLIC "-//W3C//DTD SVG 20010904//EN"
 "http://www.w3.org/TR/2001/REC-SVG-20010904/DTD/svg10.dtd">
<svg version="1.0" xmlns="http://www.w3.org/2000/svg"
 width="1024.000000pt" height="1024.000000pt" viewBox="0 0 1024.000000 1024.000000"
 preserveAspectRatio="xMidYMid meet">

<g transform="translate(0.000000,1024.000000) scale(0.100000,-0.100000)"
fill="#000000" stroke="none">
<path d="M4965 8736 c-101 -24 -234 -75 -360 -138 -520 -261 -910 -687 -1230
-1343 -202 -414 -374 -920 -496 -1458 -50 -223 -59 -343 -35 -471 52 -271 251
-572 579 -872 l78 -72 -263 -147 c-321 -181 -537 -309 -643 -384 -102 -71
-225 -188 -283 -269 -54 -76 -183 -349 -281 -597 l-72 -179 23 -18 c64 -49
320 -193 538 -302 320 -160 726 -327 1082 -445 l126 -43 79 84 c44 46 97 103
119 127 43 49 376 363 694 656 113 103 241 222 284 263 l79 75 -84 81 c-101
97 -313 290 -579 526 -107 95 -212 189 -233 207 -22 19 -37 36 -35 38 8 8 618
-297 968 -483 l86 -45 264 135 c465 239 803 408 814 408 6 -1 -5 -13 -24 -28
-185 -144 -1011 -883 -1500 -1341 -274 -257 -761 -733 -755 -739 8 -9 176 -50
308 -76 608 -121 1260 -116 1878 14 519 110 1017 289 1579 569 329 164 580
311 580 340 0 34 -179 460 -266 633 -127 252 -248 361 -668 602 -169 97 -474
265 -564 310 l-52 26 81 72 c220 195 451 502 533 709 85 217 85 337 0 687
-252 1038 -637 1838 -1110 2305 -247 245 -601 471 -873 558 -116 37 -269 47
-366 25z m299 -1571 c346 -100 778 -454 1053 -863 l76 -112 -2 -68 c-3 -154
-65 -429 -147 -649 -148 -400 -409 -736 -764 -984 -124 -87 -325 -192 -367
-192 -15 0 -68 18 -117 41 -408 192 -762 546 -966 967 -116 238 -200 541 -225
805 -5 62 -4 68 32 129 21 35 84 121 140 191 309 389 660 658 973 746 79 22
217 17 314 -11z"/>
<path d="M4077 6265 c-13 -33 -7 -133 12 -187 51 -148 172 -253 333 -288 86
-19 237 -8 322 23 104 38 106 43 50 111 -50 60 -163 156 -251 212 -104 67
-275 127 -397 140 -54 6 -64 4 -69 -11z"/>
<path d="M5990 6265 c-143 -32 -235 -71 -358 -151 -90 -58 -262 -220 -262
-246 0 -8 21 -25 48 -37 152 -71 347 -68 486 7 145 78 243 254 222 397 -7 44
-8 45 -44 44 -20 -1 -62 -7 -92 -14z"/>
</g>
</svg>
