<?xml version="1.0" standalone="no"?>
<!DOCTYPE svg PUBLIC "-//W3C//DTD SVG 20010904//EN"
 "http://www.w3.org/TR/2001/REC-SVG-20010904/DTD/svg10.dtd">
<svg version="1.0" xmlns="http://www.w3.org/2000/svg"
 width="1024.000000pt" height="1024.000000pt" viewBox="0 0 1024.000000 1024.000000"
 preserveAspectRatio="xMidYMid meet">
<metadata>
Created by potrace 1.16, written by Peter Selinger 2001-2019
</metadata>
<g transform="translate(0.000000,1024.000000) scale(0.100000,-0.100000)"
fill="#000000" stroke="none">
<path d="M2140 8400 c-463 -6 -444 -3 -513 -79 -20 -22 -39 -57 -44 -78 -4
-21 -8 -1206 -8 -2633 0 -2844 -4 -2675 61 -2870 57 -171 148 -315 289 -455
170 -171 369 -283 580 -326 86 -18 196 -19 2820 -19 3045 0 2786 -6 2945 72
65 33 102 60 165 123 125 125 189 255 214 439 16 114 15 4660 -1 4723 -13 53
-70 116 -124 139 -26 11 -96 14 -323 14 -250 0 -292 2 -305 16 -14 13 -16 62
-16 377 0 199 -5 379 -9 401 -13 53 -58 106 -114 134 l-47 24 -2577 1 c-1418
1 -2765 0 -2993 -3z m5214 -471 c60 -28 56 138 56 -2507 0 -2679 -4 -2502 66
-2712 19 -58 57 -147 85 -199 33 -64 46 -97 38 -102 -6 -3 -1128 -6 -2493 -4
-2798 2 -2505 -7 -2680 83 -183 94 -316 273 -361 490 -12 57 -15 436 -15 2474
0 1503 4 2416 10 2432 22 59 -176 55 2667 56 1922 0 2609 -3 2627 -11z"/>
<path d="M2610 7424 c-59 -50 -60 -56 -60 -365 l0 -282 44 -43 43 -44 131 0
c127 0 131 1 163 27 42 35 59 79 59 150 0 100 44 133 174 133 54 0 79 -4 90
-16 14 -14 16 -75 16 -519 0 -281 -4 -514 -9 -528 -12 -30 -48 -44 -135 -51
-61 -5 -74 -10 -103 -38 -43 -42 -57 -93 -50 -196 4 -74 8 -87 33 -113 15 -16
45 -34 66 -39 23 -7 197 -10 462 -8 l425 3 31 30 c40 38 53 91 48 191 -7 127
-41 164 -161 171 -86 6 -113 21 -127 70 -7 26 -10 199 -8 538 l3 500 90 3
c146 5 195 -30 195 -140 0 -66 24 -115 70 -146 33 -22 42 -23 167 -20 124 3
133 4 158 28 59 55 60 62 60 350 0 298 -2 307 -72 355 l-38 25 -867 0 -866 0
-32 -26z"/>
<path d="M4887 7430 c-59 -47 -58 -22 -55 -980 l3 -875 23 -32 c14 -20 37 -36
60 -43 56 -15 1916 -13 1962 3 21 8 42 25 55 47 20 35 20 46 20 928 l0 893
-42 40 -42 39 -979 0 c-966 0 -980 0 -1005 -20z"/>
<path d="M2655 4963 c-34 -9 -72 -41 -89 -77 -11 -24 -16 -62 -16 -126 0 -77
4 -99 21 -127 42 -68 -140 -63 2188 -63 l2110 0 36 31 c44 39 59 91 53 192 -5
83 -18 112 -72 151 l-27 21 -2092 1 c-1151 1 -2101 -1 -2112 -3z"/>
<path d="M2595 4135 c-44 -44 -48 -61 -43 -184 3 -95 4 -101 33 -131 16 -17
45 -35 65 -41 23 -7 724 -9 2127 -7 l2092 3 36 35 c45 44 58 93 53 199 -5 83
-5 84 -46 122 l-41 39 -2120 0 -2120 0 -36 -35z"/>
<path d="M2630 3362 c-19 -9 -45 -32 -57 -51 -20 -29 -23 -47 -23 -128 0 -106
11 -138 62 -175 l33 -23 2106 0 c2324 0 2138 -5 2182 64 19 31 22 50 22 138
l0 102 -35 36 c-19 19 -50 40 -70 45 -22 6 -779 10 -2110 10 -1956 0 -2077 -1
-2110 -18z"/>
</g>
</svg>
