<?xml version="1.0" standalone="no"?>
<!DOCTYPE svg PUBLIC "-//W3C//DTD SVG 20010904//EN"
 "http://www.w3.org/TR/2001/REC-SVG-20010904/DTD/svg10.dtd">
<svg version="1.0" xmlns="http://www.w3.org/2000/svg"
 width="1024.000000pt" height="1024.000000pt" viewBox="0 0 1024.000000 1024.000000"
 preserveAspectRatio="xMidYMid meet">
<metadata>
Created by potrace 1.16, written by Peter Selinger 2001-2019
</metadata>
<g transform="translate(0.000000,1024.000000) scale(0.100000,-0.100000)"
fill="#000000" stroke="none">
<path d="M5346 9000 c-64 -25 -145 -105 -182 -179 -27 -52 -29 -64 -29 -171 0
-103 3 -120 25 -163 35 -69 136 -160 202 -183 70 -25 194 -24 266 0 71 24 162
109 199 184 39 82 45 221 12 307 -27 72 -102 156 -174 193 -43 23 -65 26 -160
29 -91 3 -118 0 -159 -17z"/>
<path d="M4543 8416 c-91 -29 -185 -115 -231 -214 -25 -52 -27 -67 -27 -182 0
-113 2 -130 25 -173 35 -69 135 -160 207 -188 77 -30 223 -32 301 -5 76 26
172 118 214 205 30 61 33 74 33 166 0 118 -17 177 -73 247 -51 64 -133 124
-195 143 -61 18 -196 19 -254 1z"/>
<path d="M3989 7401 c-86 -17 -172 -92 -218 -191 -23 -48 -26 -68 -26 -160 0
-125 18 -170 96 -251 58 -59 117 -88 181 -89 81 0 78 15 78 -380 l0 -348 -57
-23 c-83 -34 -294 -163 -398 -244 -524 -409 -852 -1013 -916 -1685 -14 -154
-6 -473 16 -620 83 -543 337 -1016 750 -1394 378 -346 767 -529 1290 -607 139
-21 550 -18 695 4 523 82 961 307 1340 686 352 353 570 785 657 1306 14 88 18
164 18 385 0 256 -2 286 -28 435 -73 409 -230 765 -474 1071 -203 254 -505
507 -754 630 -47 24 -91 50 -98 57 -8 11 -11 110 -9 368 l3 354 71 6 c89 8
137 33 202 104 41 44 57 72 73 127 27 89 23 198 -10 275 -27 62 -102 135 -169
166 l-47 22 -1115 1 c-613 1 -1131 -1 -1151 -5z m1673 -8 c-298 -2 -786 -2
-1085 0 -298 1 -54 2 543 2 597 0 841 -1 542 -2z m32 -709 c14 -14 16 -69 16
-460 0 -483 0 -484 56 -535 16 -15 61 -39 99 -54 251 -99 521 -293 706 -508
185 -216 348 -516 433 -800 40 -136 49 -177 36 -177 -6 0 -35 20 -65 45 -80
65 -181 128 -292 184 -181 90 -356 131 -564 131 -247 0 -443 -60 -689 -210
-237 -144 -441 -211 -650 -211 -162 -1 -225 16 -581 150 -58 22 -156 49 -219
61 -98 19 -137 22 -289 17 -199 -5 -282 -22 -410 -82 -53 -26 -77 -32 -82 -24
-12 21 58 244 124 393 180 404 508 760 876 949 69 35 153 74 186 87 72 27 119
74 134 135 7 29 11 193 11 478 0 238 3 437 7 440 3 4 262 7 574 7 503 0 569
-2 583 -16z m69 -2887 c62 -35 104 -132 86 -199 -21 -81 -129 -156 -204 -142
-58 10 -124 59 -145 107 -47 103 -12 192 95 244 58 28 106 25 168 -10z m-938
-406 c85 -40 136 -89 175 -167 90 -175 22 -358 -168 -451 -101 -50 -167 -52
-262 -7 -88 41 -133 83 -169 155 -47 95 -56 152 -37 229 28 107 90 186 186
235 100 52 174 53 275 6z"/>
<path d="M5230 5474 c-51 -22 -119 -91 -146 -149 -27 -56 -33 -168 -13 -239
15 -54 119 -157 175 -174 68 -20 191 -15 240 8 53 26 120 98 146 158 26 59 28
179 4 237 -22 51 -100 132 -151 156 -51 24 -203 26 -255 3z"/>
<path d="M4705 4921 c-87 -24 -154 -81 -195 -166 -32 -66 -36 -210 -6 -265 26
-49 94 -118 141 -143 48 -25 179 -35 242 -18 66 18 136 80 172 152 27 55 31
72 31 146 0 53 -6 97 -15 121 -20 47 -98 127 -149 154 -44 22 -170 33 -221 19z"/>
</g>
</svg>
