<?xml version="1.0" standalone="no"?>
<!DOCTYPE svg PUBLIC "-//W3C//DTD SVG 20010904//EN"
 "http://www.w3.org/TR/2001/REC-SVG-20010904/DTD/svg10.dtd">
<svg version="1.0" xmlns="http://www.w3.org/2000/svg"
 width="1024.000000pt" height="1024.000000pt" viewBox="0 0 1024.000000 1024.000000"
 preserveAspectRatio="xMidYMid meet">
<metadata>
Created by potrace 1.16, written by Peter Selinger 2001-2019
</metadata>
<g transform="translate(0.000000,1024.000000) scale(0.100000,-0.100000)"
fill="#000000" stroke="none">
<path d="M1920 8732 c-36 -9 -85 -29 -110 -44 -57 -33 -161 -141 -189 -195
-54 -107 -51 44 -51 -2616 0 -2748 -6 -2537 72 -2696 32 -65 62 -105 131 -177
102 -107 173 -158 284 -204 43 -18 81 -38 85 -44 4 -6 8 -101 8 -211 0 -227
12 -300 61 -401 66 -134 243 -287 388 -336 l66 -23 1775 -5 1775 -6 119 -37
c164 -51 270 -68 483 -74 341 -10 590 40 851 171 345 174 693 562 828 923 14
38 38 82 54 98 45 47 91 150 106 239 12 68 14 432 12 2246 -3 2081 -4 2167
-22 2216 -44 121 -168 240 -296 285 -60 20 -88 22 -388 27 -263 4 -326 7 -338
19 -11 12 -14 55 -14 223 0 307 -19 372 -144 495 -79 78 -149 117 -240 134
-42 8 -815 11 -2650 10 -2405 0 -2596 -1 -2656 -17z m5214 -413 c59 -27 56 56
56 -1649 0 -857 -3 -1561 -7 -1563 -5 -3 -35 0 -68 6 -33 6 -157 11 -275 11
-246 0 -365 -17 -557 -79 -405 -133 -774 -459 -973 -860 -76 -152 -118 -270
-152 -428 -19 -87 -22 -138 -24 -337 l-3 -235 -1402 -3 c-1543 -2 -1463 -5
-1575 59 -67 38 -109 86 -148 169 l-31 65 -3 2375 c-2 1608 0 2386 7 2411 22
74 -215 68 2603 68 1866 1 2534 -2 2552 -10z m1061 -883 c70 -30 65 82 65
-1516 0 -792 -2 -1440 -5 -1440 -2 0 -62 58 -132 128 -140 140 -264 238 -386
304 -43 24 -89 51 -103 61 l-24 18 0 1223 c0 672 3 1226 7 1229 3 4 127 7 275
7 210 0 276 -3 303 -14z m-1095 -2742 c184 -37 389 -124 551 -236 200 -136
380 -379 473 -636 93 -259 95 -566 5 -842 -30 -90 -100 -229 -167 -330 -189
-281 -534 -497 -887 -556 -138 -22 -341 -14 -487 20 -528 122 -908 506 -1019
1029 -29 134 -32 371 -6 497 54 268 169 482 367 681 216 218 494 351 820 393
61 8 272 -4 350 -20z m-1873 -1942 c6 -4 21 -31 32 -60 48 -120 143 -274 250
-401 35 -42 58 -78 53 -83 -5 -5 -621 -7 -1403 -6 l-1394 3 -56 26 c-65 31
-104 77 -125 145 -15 49 -21 364 -7 377 9 10 2635 8 2650 -1z"/>
<path d="M3310 7834 c-92 -24 -171 -69 -237 -134 -116 -115 -160 -247 -150
-454 9 -193 55 -317 167 -455 35 -44 60 -83 60 -97 0 -29 -52 -57 -180 -99
-325 -106 -500 -320 -500 -611 0 -62 2 -67 39 -107 l40 -42 935 0 935 0 30 29
c42 40 54 84 46 159 -31 297 -183 463 -529 583 -114 39 -156 64 -156 93 0 10
25 49 55 87 62 77 125 198 150 289 9 33 19 116 22 185 8 208 -25 315 -134 430
-71 76 -149 122 -244 145 -82 19 -275 19 -349 -1z"/>
<path d="M4909 7710 c-133 -40 -183 -237 -87 -346 65 -74 3 -69 888 -71 437
-2 836 1 887 6 78 7 98 12 129 36 54 41 77 101 72 191 -3 63 -7 78 -34 111
-16 21 -50 48 -74 61 l-44 22 -856 -1 c-470 0 -867 -4 -881 -9z"/>
<path d="M4885 6965 c-79 -40 -125 -141 -111 -240 11 -70 78 -140 150 -155 36
-7 318 -10 897 -8 823 3 845 3 878 23 19 11 48 37 65 58 26 33 31 48 34 107 2
39 1 81 -2 95 -9 35 -74 105 -113 122 -26 10 -195 13 -900 13 -753 0 -872 -2
-898 -15z"/>
<path d="M4885 6238 c-44 -24 -85 -74 -101 -121 -35 -107 4 -216 95 -264 l44
-23 861 0 862 0 44 23 c24 12 57 39 74 60 26 32 31 49 34 107 2 39 1 81 -2 95
-9 35 -74 105 -113 122 -43 17 -1766 19 -1798 1z"/>
<path d="M2545 5404 c-81 -42 -119 -114 -113 -213 4 -78 30 -122 95 -163 l38
-23 1561 0 1561 0 40 28 c62 43 88 98 88 184 0 63 -3 76 -30 114 -16 23 -50
53 -74 66 l-44 23 -1546 0 c-1381 0 -1549 -2 -1576 -16z"/>
<path d="M2550 4683 c-26 -10 -81 -67 -101 -105 -22 -42 -26 -145 -8 -181 6
-12 30 -41 52 -64 31 -33 52 -45 91 -53 35 -7 418 -10 1186 -8 1123 3 1135 3
1170 23 108 64 136 234 53 326 -68 75 35 69 -1260 68 -642 0 -1175 -3 -1183
-6z"/>
<path d="M7410 4174 c-8 -4 -205 -196 -437 -427 l-422 -421 -174 171 c-143
142 -179 172 -210 178 -73 14 -104 0 -190 -88 -106 -109 -117 -127 -117 -206
l0 -64 313 -313 c272 -273 317 -314 350 -320 93 -16 65 -40 664 559 596 597
585 584 568 674 -5 31 -27 58 -115 147 l-107 109 -54 3 c-30 2 -61 1 -69 -2z"/>
</g>
</svg>
