<?xml version="1.0" standalone="no"?>
<!DOCTYPE svg PUBLIC "-//W3C//DTD SVG 20010904//EN"
 "http://www.w3.org/TR/2001/REC-SVG-20010904/DTD/svg10.dtd">
<svg version="1.0" xmlns="http://www.w3.org/2000/svg"
 width="1024.000000pt" height="1024.000000pt" viewBox="0 0 1024.000000 1024.000000"
 preserveAspectRatio="xMidYMid meet">
<metadata>
Created by potrace 1.16, written by Peter Selinger 2001-2019
</metadata>
<g transform="translate(0.000000,1024.000000) scale(0.100000,-0.100000)"
fill="#000000" stroke="none">
<path d="M2941 7930 c-38 -39 -43 -74 -39 -270 l3 -155 -498 -5 -498 -5 -39
-41 c-51 -55 -60 -93 -60 -255 0 -349 67 -740 180 -1045 188 -505 551 -942
1008 -1213 210 -125 424 -205 687 -257 l89 -18 85 -79 c129 -120 196 -174 305
-245 113 -75 281 -162 358 -187 102 -33 148 -57 153 -79 3 -11 4 -201 3 -421
l-3 -400 -530 -5 c-492 -5 -533 -6 -565 -24 -47 -25 -128 -103 -150 -146 -42
-81 -201 -607 -203 -672 -2 -42 2 -52 31 -80 l32 -33 1831 0 1831 0 29 33 c47
52 41 91 -57 409 -47 153 -94 297 -104 320 -24 54 -103 138 -155 166 -39 22
-51 22 -563 27 -450 4 -524 7 -532 20 -6 9 -9 177 -7 424 l2 408 95 34 c259
92 521 258 720 455 38 38 79 71 92 73 13 3 77 17 143 32 407 88 757 285 1075
603 185 186 319 370 440 606 129 252 210 521 261 860 18 121 23 196 23 390 l1
240 -25 33 c-14 18 -39 42 -56 53 -30 18 -54 19 -502 19 -418 0 -472 2 -487
16 -13 14 -15 37 -9 173 8 174 0 217 -43 251 -26 20 -35 20 -2174 20 l-2147 0
-31 -30z m1841 -656 c70 -23 122 -74 167 -163 73 -148 77 -287 12 -427 -39
-84 -89 -136 -162 -169 -72 -32 -106 -30 -188 12 -104 53 -186 220 -186 378 0
170 66 299 184 360 54 28 109 31 173 9z m844 -13 c69 -33 99 -66 143 -161 64
-137 62 -280 -3 -417 -77 -160 -215 -225 -341 -161 -67 35 -97 69 -139 158
-69 145 -71 289 -7 425 37 80 80 128 143 159 70 35 126 34 204 -3z m-2733
-195 c10 -10 16 -56 21 -168 23 -544 154 -1061 380 -1504 35 -71 63 -130 61
-132 -8 -8 -165 82 -254 146 -470 334 -768 900 -836 1584 -4 37 -4 72 0 78 4
6 113 10 310 10 248 0 306 -3 318 -14z m5071 -2 c20 -19 20 -21 1 -171 -55
-445 -205 -819 -456 -1134 -101 -128 -283 -297 -405 -379 -104 -69 -194 -120
-213 -120 -5 0 26 73 69 163 43 89 94 204 115 256 146 375 235 807 251 1226 3
83 7 156 10 163 2 9 73 12 308 12 264 0 307 -2 320 -16z m-3769 -443 c74 -34
107 -72 156 -176 76 -161 73 -289 -9 -401 -64 -87 -186 -117 -287 -70 -64 29
-98 69 -149 176 -40 83 -41 88 -41 191 0 98 2 110 30 164 33 64 82 109 141
130 58 21 93 18 159 -14z m2042 -1 c53 -26 64 -38 92 -90 18 -33 39 -91 47
-130 12 -61 12 -79 0 -139 -38 -183 -159 -313 -291 -313 -59 0 -140 45 -182
100 -136 180 -38 512 174 588 58 20 94 17 160 -16z m-977 -309 c82 -31 147
-86 213 -179 75 -106 137 -168 259 -259 109 -81 134 -110 177 -203 63 -134 63
-230 1 -355 -39 -80 -99 -139 -183 -182 -125 -62 -228 -62 -366 4 -102 47
-162 63 -246 63 -72 -1 -110 -11 -242 -69 -98 -43 -168 -55 -240 -41 -80 14
-173 60 -222 109 -53 53 -107 161 -122 245 -17 89 6 190 60 273 43 66 64 86
176 170 106 80 145 119 225 227 101 135 150 174 265 213 56 18 177 11 245 -16z"/>
</g>
</svg>
