<?xml version="1.0" standalone="no"?>
<!DOCTYPE svg PUBLIC "-//W3C//DTD SVG 20010904//EN"
 "http://www.w3.org/TR/2001/REC-SVG-20010904/DTD/svg10.dtd">
<svg version="1.0" xmlns="http://www.w3.org/2000/svg"
 width="1024.000000pt" height="1024.000000pt" viewBox="0 0 1024.000000 1024.000000"
 preserveAspectRatio="xMidYMid meet">
<metadata>
Created by potrace 1.16, written by Peter Selinger 2001-2019
</metadata>
<g transform="translate(0.000000,1024.000000) scale(0.100000,-0.100000)"
fill="#000000" stroke="none">
<path d="M5063 9349 c-17 -5 -41 -23 -53 -39 -21 -30 -21 -33 -20 -672 l0
-643 -27 -16 c-58 -33 -1514 -896 -1653 -979 -170 -102 -190 -125 -190 -210 0
-55 2 -60 40 -94 l40 -36 1921 0 c2088 0 1955 -4 1993 54 10 17 16 46 16 86 0
54 -3 64 -32 94 -18 19 -206 137 -418 262 -212 125 -506 299 -655 387 -148 88
-376 223 -505 300 -129 76 -241 146 -247 155 -10 12 -13 75 -13 234 0 205 1
218 19 228 54 28 211 -3 381 -75 208 -89 308 -115 435 -115 140 0 304 42 350
90 l30 31 0 398 c0 436 1 431 -59 431 -18 0 -72 -14 -120 -31 -105 -36 -209
-47 -298 -30 -35 7 -128 40 -208 73 -80 33 -172 69 -205 79 -73 23 -214 40
-315 38 -41 -1 -97 1 -125 4 -27 4 -64 2 -82 -4z"/>
<path d="M3425 6448 c-3 -7 -6 -290 -8 -628 l-2 -615 -217 -3 -216 -2 -31 -36
-31 -35 0 -734 0 -735 848 2 847 3 5 370 c5 352 6 373 28 430 48 130 132 224
252 284 174 87 334 73 511 -44 65 -44 122 -112 167 -200 44 -87 46 -108 51
-480 l6 -360 848 -3 847 -2 0 738 0 738 -33 32 -33 32 -199 0 c-110 0 -207 5
-215 10 -13 8 -16 92 -20 627 l-5 618 -1698 3 c-1353 2 -1699 0 -1702 -10z
m872 -428 c17 -6 35 -22 42 -36 11 -26 16 -281 5 -320 -9 -35 -46 -44 -190
-44 -140 0 -184 10 -198 45 -3 9 -6 86 -6 171 l0 154 33 20 c27 17 50 20 158
20 69 0 140 -5 156 -10z m972 -1 c17 -6 36 -19 41 -29 6 -10 10 -91 10 -179
l0 -160 -30 -16 c-22 -11 -63 -15 -168 -15 -126 0 -142 2 -166 21 l-26 20 0
170 0 170 33 14 c39 17 259 20 306 4z m992 -3 c31 -14 39 -55 39 -207 l0 -149
-32 -20 c-29 -17 -51 -20 -171 -20 l-139 0 -29 29 -29 29 0 149 c0 154 3 169
44 191 22 11 291 9 317 -2z"/>
<path d="M2098 5318 c-62 -74 -82 -104 -127 -195 -68 -136 -86 -222 -85 -408
0 -144 3 -169 27 -248 27 -88 60 -160 102 -227 25 -38 45 -180 26 -180 -5 0
-26 20 -46 45 -129 157 -369 284 -545 288 l-75 2 1 -110 c2 -179 61 -359 168
-509 91 -127 277 -278 396 -322 25 -8 85 -24 134 -34 48 -11 90 -21 93 -24 3
-2 22 -53 44 -111 21 -59 50 -127 65 -152 14 -24 23 -47 21 -50 -3 -3 -30 4
-59 15 -165 61 -384 74 -553 33 -115 -29 -159 -50 -163 -79 -5 -30 57 -141
124 -223 148 -181 349 -293 571 -318 99 -11 281 1 358 24 31 8 61 12 68 8 8
-4 50 -48 94 -98 44 -49 92 -101 106 -114 15 -13 24 -28 21 -32 -3 -5 -42 -9
-88 -9 -96 0 -211 -26 -303 -69 -124 -59 -283 -185 -283 -225 0 -40 129 -143
250 -200 94 -45 165 -63 295 -76 226 -23 442 32 604 153 l54 40 46 -27 c72
-42 251 -131 303 -151 l48 -18 -75 -37 c-169 -85 -307 -226 -399 -407 -28 -57
-33 -95 -13 -111 35 -29 195 -64 319 -69 209 -9 361 27 517 124 88 55 214 172
263 243 18 27 41 50 50 50 30 0 292 -39 338 -51 25 -7 58 -18 73 -26 l28 -14
-143 -88 c-163 -101 -188 -127 -188 -203 0 -41 5 -54 29 -79 24 -24 38 -29 77
-29 42 0 66 12 246 121 116 71 206 119 216 117 9 -3 104 -57 211 -121 170
-102 200 -117 238 -117 36 0 50 6 74 29 25 26 29 37 29 87 0 52 -3 59 -34 89
-19 18 -91 67 -161 110 -69 43 -128 82 -131 86 -13 22 397 99 439 83 9 -3 24
-18 33 -32 101 -156 304 -302 490 -352 163 -45 398 -37 554 18 71 26 75 29 78
60 2 23 -7 52 -33 100 -81 146 -221 289 -362 368 l-85 47 129 62 c70 34 153
77 184 97 l57 36 35 -23 c182 -124 328 -170 537 -168 153 1 257 21 367 73 129
60 273 171 273 209 0 9 -17 33 -37 53 -149 140 -324 223 -498 234 -44 3 -95 7
-114 10 l-33 5 79 82 c43 45 95 101 115 125 l36 43 103 -22 c74 -15 138 -21
224 -21 181 1 308 34 442 113 73 44 213 176 268 253 54 77 100 169 92 188 -9
24 -144 68 -262 85 -144 21 -291 9 -426 -37 -50 -17 -94 -29 -96 -27 -2 3 12
36 32 75 19 38 47 108 62 153 15 46 31 87 36 90 5 4 32 10 59 13 158 21 318
105 448 235 186 184 275 382 287 635 l6 119 -74 -5 c-205 -16 -406 -118 -540
-275 -24 -28 -48 -50 -54 -49 -19 5 -9 133 13 163 80 113 132 282 139 448 11
252 -47 430 -202 618 -31 37 -63 67 -73 67 -35 0 -137 -129 -197 -249 -61
-122 -87 -242 -86 -401 0 -196 42 -347 139 -492 24 -37 25 -42 18 -144 -10
-150 -49 -374 -65 -374 -5 0 -17 19 -27 42 -35 78 -96 162 -177 246 -44 45
-86 82 -93 82 -6 0 -25 -15 -41 -34 -112 -126 -183 -377 -168 -586 13 -170 67
-316 166 -445 l51 -67 -36 -51 c-96 -140 -336 -409 -351 -395 -4 4 -3 34 4 65
20 97 25 243 12 334 -24 162 -88 309 -135 309 -53 0 -230 -160 -312 -282 -97
-145 -134 -264 -141 -453 -4 -109 -1 -146 17 -230 35 -160 47 -139 -127 -226
-146 -74 -344 -152 -411 -162 l-32 -5 46 51 c57 66 128 209 154 312 23 87 37
279 26 338 -7 36 -8 37 -49 37 -54 0 -170 -32 -254 -70 -251 -114 -449 -384
-484 -662 -17 -131 -21 -141 -54 -150 -17 -4 -68 -17 -115 -28 -56 -13 -112
-36 -163 -65 l-77 -45 -68 40 c-74 45 -166 77 -248 86 -30 4 -59 14 -67 23 -8
9 -19 60 -26 113 -14 120 -48 230 -103 328 -50 91 -231 277 -321 329 -79 46
-208 91 -283 98 -72 7 -72 7 -81 -107 -7 -98 11 -245 43 -340 27 -81 88 -191
136 -245 28 -33 29 -35 9 -35 -58 0 -492 187 -548 236 l-21 19 24 95 c65 252
32 500 -91 692 -85 131 -273 308 -329 308 -22 0 -30 -11 -65 -82 -56 -118 -76
-215 -75 -373 0 -81 6 -154 16 -192 l15 -62 -27 14 c-50 26 -334 362 -357 422
-3 7 16 41 42 75 171 228 216 524 123 806 -42 127 -129 262 -168 262 -44 0
-209 -208 -265 -336 -20 -44 -28 -55 -35 -44 -16 29 -49 226 -61 363 l-12 136
40 63 c46 73 85 166 110 258 23 87 24 327 0 421 -35 141 -99 263 -200 381 -55
63 -74 62 -129 -4z"/>
</g>
</svg>
