<?xml version="1.0" standalone="no"?>
<!DOCTYPE svg PUBLIC "-//W3C//DTD SVG 20010904//EN"
 "http://www.w3.org/TR/2001/REC-SVG-20010904/DTD/svg10.dtd">
<svg version="1.0" xmlns="http://www.w3.org/2000/svg"
 width="1024.000000pt" height="1024.000000pt" viewBox="0 0 1024.000000 1024.000000"
 preserveAspectRatio="xMidYMid meet">
<metadata>
Created by potrace 1.16, written by Peter Selinger 2001-2019
</metadata>
<g transform="translate(0.000000,1024.000000) scale(0.100000,-0.100000)"
fill="#000000" stroke="none">
<path d="M4810 8579 c-468 -47 -913 -203 -1285 -452 -718 -479 -1161 -1202
-1254 -2050 -17 -151 -15 -569 4 -720 92 -769 485 -1432 1141 -1926 268 -201
494 -318 822 -426 78 -25 142 -49 142 -52 0 -3 -8 -17 -19 -31 -15 -23 -138
-221 -452 -735 -83 -136 -77 -241 17 -334 43 -42 63 -53 107 -63 37 -7 367
-10 1118 -8 l1064 3 41 22 c89 48 128 121 122 233 -3 72 -6 82 -52 156 -27 43
-112 183 -189 309 -77 127 -168 275 -203 331 -34 55 -64 106 -66 113 -2 8 36
24 107 46 322 99 643 268 935 494 124 96 338 308 449 446 351 436 559 942 610
1480 52 543 -16 1011 -213 1481 -195 464 -576 915 -1031 1222 -306 205 -695
360 -1070 427 -232 41 -621 56 -845 34z m69 -497 c5 -10 8 -321 8 -781 l-2
-763 -56 -17 c-30 -10 -69 -26 -86 -36 l-32 -19 -39 36 c-114 103 -1081 1083
-1075 1088 5 4 44 32 88 62 320 220 673 365 1050 432 110 19 133 19 144 -2z
m721 -18 c240 -48 532 -162 766 -299 103 -61 274 -174 274 -182 0 -2 -249
-255 -554 -561 l-554 -557 -64 29 c-34 15 -74 33 -88 40 l-25 12 -5 757 c-3
417 -2 767 3 779 6 18 13 20 65 13 31 -3 113 -18 182 -31z m-1780 -1379 c305
-306 557 -558 559 -560 2 -2 -6 -23 -17 -47 -12 -24 -24 -55 -28 -71 -4 -16
-15 -29 -28 -32 -34 -9 -1554 -1 -1562 8 -11 11 21 225 51 340 54 209 136 414
231 580 70 123 217 334 234 336 3 1 255 -249 560 -554z m3289 380 c113 -170
227 -401 291 -592 52 -158 118 -457 107 -486 -6 -16 -71 -17 -791 -17 -700 0
-786 2 -800 16 -9 8 -16 23 -16 32 0 9 -9 35 -19 57 l-18 40 556 561 556 561
24 -21 c12 -12 62 -79 110 -151z m-1850 -1027 c79 -38 130 -88 167 -164 25
-51 29 -70 29 -144 0 -69 -5 -93 -23 -128 -54 -101 -148 -170 -265 -193 -49
-10 -68 -9 -119 5 -117 32 -189 92 -235 194 -75 162 -13 334 152 423 38 21 81
40 95 42 54 10 136 -5 199 -35z m-952 -536 c9 -6 44 -89 59 -142 3 -9 -199
-221 -549 -574 l-553 -560 -23 25 c-51 54 -194 283 -264 424 -86 174 -154 353
-191 510 -30 128 -58 304 -50 316 6 11 1554 12 1571 1z m3187 -8 c20 -19 20
-26 1 -144 -45 -273 -155 -575 -297 -815 -70 -118 -187 -284 -211 -299 -15 -9
-101 72 -578 550 l-561 561 15 29 c8 16 20 47 27 69 7 22 17 46 23 53 7 9 177
12 788 12 694 0 779 -2 793 -16z m-2722 -519 c29 -14 61 -25 70 -25 9 0 23 -7
32 -15 13 -14 15 -88 16 -599 l0 -583 -65 -97 c-36 -54 -86 -134 -111 -177
-36 -62 -51 -79 -68 -79 -69 0 -361 100 -543 185 -183 86 -499 283 -491 305 4
11 1091 1108 1100 1109 3 1 30 -10 60 -24z m1312 -534 c365 -365 546 -553 541
-561 -4 -7 -69 -53 -144 -102 -132 -87 -388 -220 -521 -271 -113 -44 -303 -99
-349 -100 l-43 -2 -45 75 c-25 41 -74 119 -109 172 l-64 97 2 592 c3 514 5
593 18 599 28 13 135 48 150 49 8 1 262 -246 564 -548z m-456 -2648 c-285 -2
-751 -2 -1035 0 -285 1 -52 2 517 2 569 0 802 -1 518 -2z"/>
</g>
</svg>
