<?xml version="1.0" standalone="no"?>
<!DOCTYPE svg PUBLIC "-//W3C//DTD SVG 20010904//EN"
 "http://www.w3.org/TR/2001/REC-SVG-20010904/DTD/svg10.dtd">
<svg version="1.0" xmlns="http://www.w3.org/2000/svg"
 width="1024.000000pt" height="1024.000000pt" viewBox="0 0 1024.000000 1024.000000"
 preserveAspectRatio="xMidYMid meet">
<metadata>
Created by potrace 1.16, written by Peter Selinger 2001-2019
</metadata>
<g transform="translate(0.000000,1024.000000) scale(0.100000,-0.100000)"
fill="#000000" stroke="none">
<path d="M2608 8646 c-144 -51 -269 -135 -384 -259 -82 -89 -130 -166 -162
-261 -44 -129 -41 -420 4 -457 28 -23 194 28 305 93 139 82 280 248 343 404
50 122 76 353 53 467 -8 36 -9 37 -50 37 -23 0 -72 -11 -109 -24z"/>
<path d="M7483 8643 c-5 -16 -8 -93 -8 -173 0 -150 8 -197 55 -322 46 -123
179 -287 302 -371 111 -76 322 -141 343 -107 18 30 34 142 35 241 0 129 -24
234 -77 328 -69 123 -256 293 -408 369 -60 30 -164 62 -201 62 -28 0 -35 -5
-41 -27z"/>
<path d="M1567 7970 c-50 -58 -133 -231 -159 -330 -19 -71 -23 -110 -22 -240
0 -148 1 -159 32 -250 42 -122 92 -205 182 -303 46 -51 69 -84 66 -94 -4 -8
-20 -90 -37 -182 -17 -91 -32 -167 -34 -169 -1 -1 -30 35 -63 81 -122 168
-303 297 -416 297 -34 0 -34 0 -50 -69 -26 -113 -22 -316 8 -434 61 -239 240
-459 451 -551 32 -15 63 -32 67 -39 4 -7 8 -33 8 -58 0 -45 34 -263 46 -293
10 -27 -10 -18 -72 30 -158 123 -366 201 -515 192 l-54 -3 0 -85 c1 -109 24
-198 86 -327 41 -85 63 -117 136 -194 164 -173 345 -259 546 -259 34 0 67 -4
74 -8 7 -4 26 -41 44 -82 32 -77 79 -165 111 -212 23 -34 22 -34 -72 -4 -167
54 -371 59 -506 14 -64 -21 -69 -25 -72 -55 -8 -85 167 -317 318 -420 195
-132 422 -170 698 -116 l83 16 31 -39 c17 -21 63 -69 102 -106 39 -38 67 -68
63 -68 -203 0 -348 -24 -452 -75 -108 -53 -165 -99 -165 -134 0 -50 161 -191
295 -259 236 -118 562 -103 796 39 l84 51 30 -18 c148 -86 442 -215 602 -265
74 -23 75 -26 71 -154 l-3 -90 -78 -5 c-75 -5 -80 -7 -112 -41 -43 -48 -48
-90 -42 -342 6 -215 9 -228 72 -267 32 -20 46 -20 1378 -20 l1345 0 32 26 c58
49 60 60 60 325 l0 241 -39 39 c-36 37 -42 39 -99 39 -87 0 -93 9 -90 128 l3
96 35 13 c19 7 94 33 165 59 126 45 333 140 445 204 l55 32 67 -45 c125 -84
257 -119 448 -120 149 0 244 19 349 69 138 65 311 215 311 270 0 45 -161 139
-299 175 -62 17 -196 29 -307 29 -9 0 30 48 87 108 l103 108 49 -13 c231 -60
498 -29 682 79 94 55 258 220 311 313 51 88 68 130 60 150 -9 24 -81 50 -175
65 -143 22 -294 7 -467 -48 l-31 -10 73 145 c41 79 74 151 74 159 0 16 20 21
125 28 288 21 534 197 664 477 52 112 73 196 75 299 l1 85 -54 3 c-69 4 -194
-21 -291 -59 -75 -29 -139 -67 -238 -142 -29 -22 -55 -37 -58 -34 -4 3 3 54
15 114 12 59 25 141 29 182 l7 74 85 43 c204 103 357 289 426 519 22 74 27
115 31 235 3 96 0 169 -9 215 l-13 70 -41 3 c-106 8 -317 -149 -426 -316 -23
-34 -45 -59 -49 -55 -6 7 -58 240 -76 346 -5 24 4 38 59 95 277 288 305 787
63 1102 -31 40 -53 60 -67 60 -26 0 -106 -84 -153 -161 -111 -180 -149 -343
-135 -574 4 -60 6 -112 4 -114 -1 -1 -29 23 -61 54 -168 166 -358 254 -558
258 l-90 2 1 -100 c1 -86 6 -112 32 -183 41 -111 92 -191 176 -280 134 -141
266 -215 458 -256 32 -7 32 -5 63 -191 34 -202 33 -196 29 -193 -2 2 -41 40
-87 85 -129 125 -280 213 -366 213 -45 0 -45 1 -62 -110 -32 -207 32 -457 161
-629 72 -98 202 -217 289 -267 33 -19 33 -19 28 -79 -8 -83 -59 -335 -68 -335
-4 0 -17 30 -30 68 -47 145 -116 249 -239 365 -102 97 -126 101 -171 30 -65
-103 -106 -295 -96 -451 14 -216 87 -396 227 -556 l51 -58 -22 -36 c-87 -144
-218 -332 -231 -332 -5 0 -8 56 -8 124 0 192 -36 339 -112 459 -25 40 -35 47
-61 47 -25 0 -43 -12 -90 -61 -238 -251 -320 -605 -212 -920 14 -41 27 -80 28
-88 2 -17 -131 -120 -279 -216 -134 -86 -458 -250 -595 -300 -82 -30 -103 -35
-110 -24 -5 8 -9 64 -9 124 0 140 -10 173 -63 222 -42 39 -45 40 -138 47 -51
3 -123 13 -158 21 -89 21 -220 89 -285 147 -65 58 -138 171 -172 265 -38 109
-35 123 44 201 47 47 71 79 80 108 27 91 9 148 -65 215 -88 77 -105 148 -58
242 44 85 78 120 180 177 99 56 171 109 269 194 53 46 62 50 144 62 239 38
501 181 734 403 311 296 483 642 560 1126 27 172 30 387 6 431 -13 23 -74 88
-101 106 -1 1 -133 4 -294 7 -160 3 -295 9 -299 13 -4 4 3 83 15 175 29 229
28 257 -8 294 l-29 29 -1567 0 -1567 0 -28 -29 c-16 -16 -32 -41 -36 -57 -4
-16 2 -111 15 -217 12 -103 19 -192 16 -197 -4 -6 -116 -10 -280 -10 -169 0
-284 -4 -302 -11 -38 -14 -80 -56 -106 -104 -19 -35 -22 -55 -21 -170 2 -206
38 -412 115 -655 41 -129 155 -354 236 -470 88 -124 300 -335 429 -428 178
-127 402 -221 568 -239 55 -6 63 -10 130 -71 96 -87 175 -145 257 -188 83 -44
117 -77 157 -153 40 -75 53 -124 42 -163 -5 -17 -38 -61 -74 -97 -46 -49 -67
-79 -76 -111 -23 -85 11 -170 89 -225 65 -44 75 -93 41 -194 -84 -250 -316
-413 -609 -428 -102 -6 -105 -7 -144 -42 -58 -53 -67 -81 -67 -225 0 -69 -4
-127 -8 -130 -26 -16 -454 181 -652 300 -103 62 -270 178 -313 218 l-27 25 20
43 c75 169 85 427 24 618 -40 127 -151 294 -249 374 -61 51 -80 46 -122 -30
-76 -140 -120 -339 -108 -491 3 -46 2 -83 -2 -83 -16 0 -253 360 -253 384 0 5
19 32 43 60 133 157 196 303 219 508 20 180 -12 368 -84 488 -21 34 -41 56
-54 58 -30 4 -134 -76 -196 -152 -76 -92 -116 -163 -154 -272 -26 -77 -34 -92
-42 -77 -9 16 -52 228 -67 329 l-6 41 66 48 c150 107 294 282 356 435 54 133
76 297 59 433 -14 116 -15 117 -61 117 -97 0 -255 -94 -372 -222 -41 -44 -77
-76 -80 -72 -7 13 53 357 65 372 6 6 21 12 33 12 40 0 157 40 224 77 257 139
434 405 436 653 l0 85 -95 -2 c-155 -3 -308 -52 -424 -136 -27 -19 -80 -66
-118 -103 l-70 -68 7 125 c12 208 -25 379 -113 526 -50 84 -147 193 -172 193
-10 0 -34 -18 -53 -40z m1997 -1026 c9 -8 16 -21 16 -27 0 -7 9 -75 21 -152
42 -292 128 -623 226 -870 30 -77 60 -146 65 -153 26 -31 -7 -22 -64 18 -248
172 -440 443 -547 773 -46 143 -99 406 -84 421 4 3 84 6 179 6 144 0 175 -3
188 -16z m3469 2 c12 -13 12 -28 1 -111 -52 -371 -206 -699 -437 -927 -100
-98 -257 -211 -257 -184 0 2 13 34 30 70 110 245 225 676 275 1026 9 63 18
121 21 128 5 19 347 17 367 -2z"/>
</g>
</svg>
