<?xml version="1.0" standalone="no"?>
<!DOCTYPE svg PUBLIC "-//W3C//DTD SVG 20010904//EN"
 "http://www.w3.org/TR/2001/REC-SVG-20010904/DTD/svg10.dtd">
<svg version="1.0" xmlns="http://www.w3.org/2000/svg"
 width="1024.000000pt" height="1024.000000pt" viewBox="0 0 1024.000000 1024.000000"
 preserveAspectRatio="xMidYMid meet">

<g transform="translate(0.000000,1024.000000) scale(0.100000,-0.100000)"
fill="#000000" stroke="none">
<path d="M4920 7543 c-498 -20 -1088 -135 -1550 -301 -251 -90 -559 -232 -712
-329 -21 -12 -40 -23 -42 -23 -2 0 -55 80 -117 177 -122 190 -187 265 -265
304 l-49 24 -435 0 c-478 0 -478 0 -519 -60 -20 -30 -23 -43 -18 -93 5 -52
122 -455 328 -1128 l79 -262 -34 -68 c-41 -82 -84 -205 -93 -269 l-6 -45 3743
0 3742 0 -7 38 c-15 80 -70 232 -120 333 -374 744 -1341 1364 -2490 1594 -438
88 -962 127 -1435 108z"/>
<path d="M1404 5157 c-12 -17 -128 -194 -259 -392 -251 -382 -291 -449 -301
-514 -13 -84 43 -169 127 -191 26 -7 198 -10 517 -7 441 3 483 5 552 23 l75
21 115 -108 c276 -260 518 -423 900 -608 192 -92 400 -175 580 -230 58 -18
108 -36 112 -39 6 -7 41 -119 282 -913 53 -174 103 -334 112 -355 44 -106 149
-199 262 -234 61 -19 94 -20 761 -20 456 0 718 4 756 11 88 16 154 50 223 114
51 47 72 76 105 147 l42 88 142 0 c79 0 143 -3 143 -7 0 -5 -16 -64 -35 -133
-36 -128 -46 -223 -27 -270 26 -67 98 -110 182 -110 61 0 106 18 142 56 59 64
62 135 13 319 -19 72 -35 133 -35 136 0 4 14 9 31 13 45 9 95 63 103 113 10
54 -9 119 -43 154 -46 45 -92 52 -318 44 -114 -4 -203 -4 -203 1 0 5 20 61 45
124 25 63 96 250 158 415 l112 299 40 8 c65 14 293 87 400 130 409 162 737
349 1010 573 102 85 295 277 377 375 166 201 296 449 358 685 25 96 50 242 50
297 0 17 -166 18 -3792 18 l-3793 0 -21 -33z m3708 -2435 l33 -32 3 -128 c3
-119 2 -129 -19 -156 -39 -50 -69 -56 -288 -56 -234 0 -290 9 -326 51 -46 56
-78 214 -56 282 13 37 41 62 82 70 13 3 140 4 281 4 l258 -2 32 -33z m1023 24
c77 -32 84 -109 23 -239 -66 -138 -114 -157 -405 -157 -298 0 -308 7 -308 217
0 115 1 123 24 147 14 15 39 30 55 35 17 5 154 10 304 10 214 1 280 -2 307
-13z"/>
</g>
</svg>
