<?xml version="1.0" standalone="no"?>
<!DOCTYPE svg PUBLIC "-//W3C//DTD SVG 20010904//EN"
 "http://www.w3.org/TR/2001/REC-SVG-20010904/DTD/svg10.dtd">
<svg version="1.0" xmlns="http://www.w3.org/2000/svg"
 width="1024.000000pt" height="1024.000000pt" viewBox="0 0 1024.000000 1024.000000"
 preserveAspectRatio="xMidYMid meet">
<metadata>
Created by potrace 1.16, written by Peter Selinger 2001-2019
</metadata>
<g transform="translate(0.000000,1024.000000) scale(0.100000,-0.100000)"
fill="#000000" stroke="none">
<path d="M5085 9016 c-5 -3 -26 -7 -46 -10 -25 -5 -87 -45 -205 -132 -447
-333 -817 -532 -1261 -680 -409 -136 -743 -191 -1218 -200 -302 -7 -328 -12
-380 -80 -62 -81 -58 11 -63 -1364 -4 -1343 6 -2117 33 -2380 70 -680 318
-1155 835 -1601 208 -178 500 -364 890 -566 85 -44 254 -131 375 -193 355
-183 586 -319 832 -492 135 -94 182 -112 270 -104 77 6 91 14 278 141 277 189
470 298 1080 611 444 228 685 378 930 580 114 93 305 285 387 389 230 289 381
640 447 1040 30 174 40 325 51 735 11 394 12 2767 1 2992 -6 131 -7 138 -36
180 -17 24 -51 57 -77 74 l-46 31 -243 7 c-303 8 -440 20 -644 52 -406 65
-809 198 -1195 395 -235 119 -417 235 -685 434 -82 62 -160 117 -171 123 -23
12 -122 24 -139 18z m149 -585 c215 -164 424 -295 656 -412 567 -285 1185
-446 1823 -476 93 -4 143 -10 152 -19 28 -28 32 -2314 5 -3019 -15 -369 -58
-614 -151 -849 -138 -350 -401 -653 -793 -915 -145 -98 -271 -168 -626 -351
-573 -295 -748 -394 -983 -554 -200 -136 -194 -133 -211 -121 -163 116 -225
157 -351 232 -208 125 -414 237 -805 438 -368 189 -459 240 -630 356 -571 386
-855 836 -929 1474 -22 186 -32 876 -29 2080 l3 1240 70 2 c973 33 1844 338
2595 907 47 36 88 65 92 65 4 1 54 -34 112 -78z"/>
<path d="M4955 7456 c-80 -21 -132 -43 -211 -87 -120 -66 -117 -66 -268 -7
-108 42 -145 52 -211 56 -108 6 -153 -8 -203 -62 -69 -74 -78 -167 -28 -279
48 -110 276 -441 317 -463 24 -12 145 -14 767 -14 l738 0 30 33 c68 71 269
372 310 462 23 49 26 67 22 135 -3 74 -5 81 -38 115 -53 55 -99 75 -172 75
-78 0 -135 -15 -262 -69 -55 -22 -113 -41 -130 -41 -20 0 -67 20 -126 54 -145
83 -201 99 -355 102 -87 2 -147 -1 -180 -10z"/>
<path d="M4315 6333 c-29 -7 -95 -73 -111 -110 -19 -44 -18 -146 2 -186 9 -18
35 -51 57 -75 l42 -43 -81 -77 c-315 -299 -659 -798 -816 -1185 -113 -277
-154 -486 -145 -742 4 -134 9 -175 32 -250 43 -147 96 -237 200 -340 143 -143
286 -211 470 -222 l90 -6 1 89 c1 192 80 339 238 446 77 53 228 124 401 188
77 29 146 57 153 62 8 7 12 41 12 103 l0 93 -65 56 c-127 112 -243 295 -267
422 -20 111 27 262 128 409 24 36 44 75 44 87 0 11 -15 49 -34 82 -90 162 -56
216 164 263 114 24 329 24 420 0 101 -27 205 -82 264 -141 126 -126 270 -530
251 -701 -15 -130 -97 -275 -229 -407 l-77 -77 3 -93 3 -93 180 -72 c410 -165
515 -231 588 -371 48 -91 68 -170 68 -264 l0 -78 34 0 c52 0 184 45 253 87
278 168 417 461 399 841 -7 146 -25 247 -72 411 -119 412 -450 940 -837 1336
l-146 150 39 33 c59 50 83 104 83 184 0 59 -4 74 -30 110 -16 23 -49 52 -73
65 l-44 23 -786 -1 c-432 -1 -795 -3 -806 -6z"/>
</g>
</svg>
