<?xml version="1.0" standalone="no"?>
<!DOCTYPE svg PUBLIC "-//W3C//DTD SVG 20010904//EN"
 "http://www.w3.org/TR/2001/REC-SVG-20010904/DTD/svg10.dtd">
<svg version="1.0" xmlns="http://www.w3.org/2000/svg"
 width="1024.000000pt" height="1024.000000pt" viewBox="0 0 1024.000000 1024.000000"
 preserveAspectRatio="xMidYMid meet">
<metadata>
Created by potrace 1.16, written by Peter Selinger 2001-2019
</metadata>
<g transform="translate(0.000000,1024.000000) scale(0.100000,-0.100000)"
fill="#000000" stroke="none">
<path d="M5940 8641 c-31 -5 -175 -47 -320 -94 -524 -170 -484 -169 -940 -22
-330 106 -363 115 -452 115 -116 0 -152 -14 -225 -87 -132 -132 -253 -451
-403 -1063 -54 -220 -57 -242 -37 -257 13 -11 320 -72 517 -103 786 -122 1730
-97 2457 66 137 30 153 37 153 66 0 63 -133 569 -216 818 -89 269 -137 364
-233 461 -79 78 -107 93 -201 102 -25 3 -70 2 -100 -2z"/>
<path d="M2999 7016 c-236 -57 -309 -86 -364 -147 -20 -22 -40 -51 -45 -65
-44 -114 56 -232 264 -313 118 -45 316 -108 461 -146 168 -44 170 -45 163
-136 -3 -42 -5 -45 -43 -57 -48 -15 -106 -75 -124 -129 -22 -67 -25 -237 -7
-342 43 -244 146 -408 334 -527 1 -1 20 -60 42 -131 75 -248 164 -430 300
-613 38 -52 68 -102 65 -110 -2 -8 -7 -27 -10 -41 -5 -21 -21 -32 -83 -58
-183 -77 -642 -269 -817 -341 -695 -285 -697 -286 -775 -353 -109 -94 -203
-252 -255 -432 -59 -205 -215 -1045 -215 -1157 0 -30 7 -75 16 -100 21 -63
110 -147 189 -179 l60 -24 2965 0 2965 0 60 24 c72 29 155 104 184 167 37 77
30 167 -44 569 -148 807 -202 956 -404 1128 -92 79 -89 77 -736 342 -832 341
-919 378 -932 397 -4 7 -13 29 -19 48 -10 33 -8 38 32 85 135 162 279 452 345
701 20 75 24 82 65 108 72 46 176 166 218 251 76 155 112 388 86 544 -11 64
-18 80 -52 117 -22 23 -52 46 -68 49 -47 10 -61 35 -58 101 l3 59 138 36 c208
56 452 136 544 179 149 69 213 141 213 239 0 47 -4 56 -42 98 -51 54 -110 83
-257 122 -312 85 -417 91 -629 35 -511 -132 -953 -192 -1487 -201 -636 -11
-1094 40 -1688 188 -180 45 -208 49 -310 48 -90 0 -139 -7 -248 -33z m976
-826 c80 -12 235 -27 428 -40 207 -14 1189 -14 1427 0 172 10 417 33 467 45
43 10 49 -12 57 -197 26 -657 -159 -1226 -512 -1574 -132 -131 -312 -238 -487
-290 -78 -23 -108 -27 -225 -28 -173 0 -265 23 -445 112 -406 201 -679 650
-777 1277 -18 116 -22 185 -22 405 0 146 2 273 6 283 9 20 6 20 83 7z m504
-2259 c188 -113 352 -160 587 -168 179 -6 277 4 413 43 97 28 247 96 315 143
24 17 47 31 50 31 30 0 -51 -486 -144 -865 -79 -320 -203 -706 -222 -687 -5 5
-18 75 -29 156 -23 171 -59 376 -93 518 -22 92 -23 104 -10 152 32 117 64 290
64 340 0 91 -1 91 -290 90 l-243 0 -23 -28 c-17 -20 -24 -39 -24 -71 0 -48 32
-223 59 -326 17 -64 17 -67 -6 -160 -28 -114 -76 -381 -98 -544 -9 -66 -18
-124 -20 -130 -11 -36 -150 377 -218 651 -101 402 -187 904 -154 904 2 0 41
-22 86 -49z"/>
<path d="M5006 6042 c-1076 -2 -996 4 -996 -75 0 -56 46 -277 77 -372 30 -91
90 -165 151 -187 52 -18 522 -18 574 0 22 8 58 36 87 68 50 54 75 107 108 226
18 64 46 89 103 90 70 2 104 -34 125 -132 13 -64 71 -174 107 -206 63 -55 87
-59 373 -59 298 0 310 3 369 84 45 61 78 156 115 332 38 178 38 192 5 218 -24
19 -38 21 -133 19 -58 -2 -538 -4 -1065 -6z"/>
</g>
</svg>
