<?xml version="1.0" standalone="no"?>
<!DOCTYPE svg PUBLIC "-//W3C//DTD SVG 20010904//EN"
 "http://www.w3.org/TR/2001/REC-SVG-20010904/DTD/svg10.dtd">
<svg version="1.0" xmlns="http://www.w3.org/2000/svg"
 width="1024.000000pt" height="1024.000000pt" viewBox="0 0 1024.000000 1024.000000"
 preserveAspectRatio="xMidYMid meet">
<metadata>
Created by potrace 1.16, written by Peter Selinger 2001-2019
</metadata>
<g transform="translate(0.000000,1024.000000) scale(0.100000,-0.100000)"
fill="#000000" stroke="none">
<path d="M4825 7553 c-345 -27 -496 -47 -755 -99 -377 -75 -703 -176 -1023
-318 -127 -57 -314 -152 -380 -193 -46 -29 -52 -26 -104 61 -136 226 -239 348
-328 387 -42 19 -65 19 -505 17 l-462 -3 -33 -37 c-43 -46 -52 -100 -31 -188
13 -58 274 -936 362 -1217 l35 -112 -31 -61 c-43 -85 -89 -229 -92 -286 l-3
-49 3755 0 3755 0 -3 42 c-4 70 -50 212 -106 328 -190 395 -579 789 -1069
1083 -622 374 -1376 591 -2232 642 -154 9 -651 11 -750 3z"/>
<path d="M1408 5193 c-36 -41 -523 -793 -549 -848 -63 -132 -21 -270 91 -298
14 -3 248 -7 520 -7 424 -2 503 1 553 14 32 9 67 16 79 16 13 0 50 -30 97 -76
348 -350 858 -648 1426 -836 l185 -61 30 -96 c16 -53 101 -333 188 -622 88
-289 170 -545 182 -569 34 -66 134 -166 199 -198 l56 -27 764 -3 c665 -2 771
0 824 13 120 31 220 121 284 256 l36 77 111 4 c61 3 117 3 124 0 17 -6 13 -36
-22 -166 -27 -104 -33 -186 -15 -233 15 -42 79 -102 119 -113 102 -29 202 2
255 78 28 41 30 49 28 130 -1 63 -9 116 -31 192 -17 57 -28 108 -26 112 3 4
14 8 24 8 30 0 88 65 96 105 3 20 4 61 2 91 -4 49 -10 60 -47 97 l-41 42 -224
5 c-124 3 -227 8 -231 12 -4 3 34 113 84 245 50 131 116 307 148 392 l58 154
70 19 c421 112 944 362 1257 599 329 249 590 544 733 830 102 203 161 399 172
577 l6 102 -3800 0 c-3606 0 -3801 -1 -3815 -17z m3671 -2468 c40 -20 56 -66
56 -165 0 -122 -8 -146 -56 -171 -38 -19 -55 -20 -269 -17 -212 3 -231 4 -257
24 -38 27 -61 77 -78 168 -18 95 -6 138 47 161 48 21 517 21 557 0z m1052 -1
c17 -8 37 -30 45 -49 12 -30 12 -40 -2 -82 -37 -110 -73 -161 -139 -196 -37
-20 -57 -22 -262 -25 -250 -4 -273 1 -299 63 -15 36 -19 214 -5 249 4 10 23
27 42 37 31 16 62 18 312 19 233 0 283 -3 308 -16z"/>
</g>
</svg>
