<?xml version="1.0" standalone="no"?>
<!DOCTYPE svg PUBLIC "-//W3C//DTD SVG 20010904//EN"
 "http://www.w3.org/TR/2001/REC-SVG-20010904/DTD/svg10.dtd">
<svg version="1.0" xmlns="http://www.w3.org/2000/svg"
 width="1024.000000pt" height="1024.000000pt" viewBox="0 0 1024.000000 1024.000000"
 preserveAspectRatio="xMidYMid meet">
<metadata>
Created by potrace 1.16, written by Peter Selinger 2001-2019
</metadata>
<g transform="translate(0.000000,1024.000000) scale(0.100000,-0.100000)"
fill="#000000" stroke="none">
<path d="M5052 9550 c-143 -21 -253 -163 -252 -324 1 -73 17 -123 56 -172 16
-20 33 -42 38 -49 6 -8 -59 -94 -212 -281 -121 -148 -236 -287 -255 -309 l-35
-40 -79 42 c-43 23 -166 90 -273 150 -180 100 -195 110 -191 133 2 14 4 70 5
125 1 92 -1 104 -27 147 -31 53 -95 110 -153 134 -59 25 -195 23 -256 -4 -60
-26 -127 -93 -157 -157 -20 -41 -25 -66 -25 -140 0 -61 5 -101 16 -125 27 -60
95 -128 158 -157 41 -18 62 -35 69 -52 5 -14 14 -102 20 -196 31 -470 52 -735
61 -781 9 -40 20 -60 58 -97 26 -25 60 -51 75 -56 46 -18 132 -13 341 19 363
56 542 71 926 77 451 7 791 -14 1195 -74 211 -31 350 -39 399 -23 46 15 110
88 124 142 12 44 39 359 68 773 8 127 17 235 18 240 2 6 25 16 51 23 34 9 61
27 99 65 66 66 96 139 96 234 0 103 -15 139 -90 213 -77 78 -109 90 -237 90
-76 0 -97 -4 -141 -26 -52 -26 -105 -81 -135 -140 -29 -56 -39 -153 -23 -215
8 -30 12 -57 8 -61 -18 -17 -538 -298 -548 -296 -10 3 -459 546 -492 596 -13
21 -12 25 21 61 50 56 70 125 65 226 -5 95 -29 147 -99 209 -74 68 -171 93
-287 76z"/>
<path d="M4662 7260 c-328 -26 -713 -75 -917 -118 l-80 -17 -23 -49 c-88 -186
-142 -485 -142 -794 l0 -153 -50 -49 c-28 -27 -62 -73 -75 -102 -73 -156 19
-530 193 -791 57 -86 120 -141 182 -162 43 -14 50 -21 63 -58 112 -322 194
-487 336 -677 l56 -75 5 -170 5 -171 32 -39 c46 -55 185 -168 277 -226 327
-202 761 -224 1093 -56 108 55 240 149 331 235 l72 69 0 173 0 172 59 81 c77
108 130 196 190 315 49 98 132 310 145 369 9 39 20 48 67 57 44 8 114 67 171
144 110 149 226 465 235 643 7 132 -10 182 -88 259 l-59 58 0 129 c-1 219 -26
424 -76 623 -29 113 -70 224 -89 240 -32 26 -525 102 -855 130 -161 15 -911
21 -1058 10z"/>
<path d="M3780 3736 c-113 -46 -362 -145 -555 -221 -427 -169 -661 -267 -736
-311 -316 -185 -576 -528 -723 -953 -86 -246 -150 -581 -144 -751 3 -99 5
-109 35 -156 69 -107 116 -132 378 -203 1065 -285 2034 -414 3105 -414 899 0
1706 91 2569 289 217 50 264 62 546 142 l200 56 61 60 c111 111 127 216 78
507 -69 408 -207 755 -407 1024 -72 98 -227 248 -333 324 -149 107 -255 153
-1325 574 -162 65 -304 117 -315 117 -15 0 -36 -39 -103 -188 -47 -103 -89
-193 -95 -200 -5 -7 -23 -19 -40 -26 -54 -24 -366 -156 -511 -217 l-140 -59
-45 15 c-75 27 -206 31 -295 10 -92 -22 -48 -35 -450 135 l-300 127 -81 174
c-109 232 -107 229 -141 228 -15 0 -120 -38 -233 -83z m875 -951 c99 -43 183
-83 187 -89 4 -6 8 -46 8 -88 0 -70 -2 -79 -22 -92 -13 -8 -133 -62 -268 -121
-135 -60 -290 -127 -344 -151 -54 -24 -103 -44 -108 -44 -5 0 -20 11 -33 25
l-25 24 0 375 0 375 26 14 c25 13 38 8 213 -68 102 -45 267 -117 366 -160z
m1525 205 c6 -12 10 -156 10 -389 l0 -371 -25 -16 c-30 -20 7 -33 -355 124
-392 169 -408 177 -415 204 -3 13 -5 54 -3 92 l3 68 280 123 c154 67 321 140
370 162 94 43 114 43 135 3z"/>
</g>
</svg>
