<?xml version="1.0" standalone="no"?>
<!DOCTYPE svg PUBLIC "-//W3C//DTD SVG 20010904//EN"
 "http://www.w3.org/TR/2001/REC-SVG-20010904/DTD/svg10.dtd">
<svg version="1.0" xmlns="http://www.w3.org/2000/svg"
 width="1024.000000pt" height="1024.000000pt" viewBox="0 0 1024.000000 1024.000000"
 preserveAspectRatio="xMidYMid meet">

<g transform="translate(0.000000,1024.000000) scale(0.100000,-0.100000)"
fill="#000000" stroke="none">
<path d="M2638 8635 c-221 -78 -435 -251 -523 -425 -62 -122 -89 -298 -65
-426 19 -101 23 -107 73 -99 190 31 411 193 522 382 92 158 136 382 107 548
-9 50 -23 52 -114 20z"/>
<path d="M7506 8645 c-20 -20 -30 -174 -17 -265 39 -281 200 -513 437 -631 93
-47 213 -82 231 -67 38 31 51 282 19 398 -66 244 -322 483 -603 564 -45 13
-55 13 -67 1z"/>
<path d="M1590 7970 c-202 -254 -251 -619 -120 -897 39 -84 82 -145 156 -223
l61 -65 -28 -140 c-16 -77 -34 -180 -41 -229 l-13 -90 -47 82 c-56 96 -147
196 -235 259 -69 49 -197 108 -217 100 -20 -8 -37 -91 -43 -207 -18 -358 170
-680 480 -819 l62 -28 17 -139 c15 -120 28 -183 64 -314 6 -21 -2 -17 -48 27
-61 57 -200 151 -263 178 -122 52 -292 91 -342 79 -25 -7 -25 -8 -18 -77 15
-152 93 -347 190 -469 65 -83 167 -163 270 -213 110 -53 191 -74 313 -82 50
-3 92 -10 92 -15 0 -35 105 -241 184 -361 l19 -27 -84 36 c-46 19 -120 44
-164 55 -141 34 -354 21 -446 -27 -36 -18 -34 -28 23 -129 104 -186 276 -328
479 -396 152 -51 360 -52 513 -2 l49 15 25 -33 c34 -44 157 -167 206 -205 l39
-31 -131 5 c-112 4 -146 1 -228 -18 -106 -24 -232 -83 -291 -136 l-38 -34 85
-83 c133 -130 271 -201 440 -228 92 -14 254 -7 335 15 77 21 195 77 257 122
l49 34 67 -39 c150 -87 382 -190 557 -247 l100 -33 3 -125 3 -126 -68 0 c-82
0 -128 -21 -155 -71 -17 -31 -18 -55 -16 -261 3 -211 4 -229 24 -255 11 -15
36 -36 55 -45 32 -17 117 -18 1347 -18 1306 0 1313 0 1353 21 71 35 79 68 79
315 0 203 -1 212 -23 245 -32 48 -79 69 -155 69 l-63 0 3 125 3 126 102 34
c195 65 416 164 568 253 l50 30 47 -34 c59 -44 174 -97 258 -120 94 -26 308
-26 414 0 96 24 205 78 294 148 78 61 155 145 146 160 -12 19 -140 96 -204
122 -111 45 -208 60 -353 52 l-128 -6 77 62 c42 34 104 95 137 135 41 49 65
72 76 68 135 -40 306 -55 427 -36 176 27 327 106 463 241 91 91 180 224 184
276 2 26 -3 30 -53 50 -76 31 -208 45 -312 34 -107 -11 -152 -23 -256 -67 -46
-19 -85 -33 -87 -31 -2 2 12 26 31 54 40 54 134 238 153 297 12 35 15 37 54
37 59 0 202 25 262 45 123 42 207 96 310 199 82 83 109 117 147 192 59 113 98
247 101 339 l2 70 -65 -3 c-88 -4 -169 -24 -267 -65 -95 -40 -228 -126 -291
-188 -23 -23 -45 -40 -48 -37 -2 3 7 50 21 104 14 55 33 158 42 229 l16 130
96 47 c151 73 278 202 359 363 71 143 104 335 84 498 -7 53 -17 108 -22 122
-13 33 -32 30 -135 -20 -132 -64 -268 -199 -338 -332 -17 -35 -35 -63 -39 -63
-3 0 -9 24 -13 53 -3 28 -22 130 -42 224 l-36 173 59 63 c178 190 257 419 233
676 -14 152 -93 348 -179 444 -27 30 -28 31 -54 14 -72 -48 -196 -260 -231
-397 -31 -121 -30 -340 1 -470 5 -18 -13 -4 -69 56 -162 174 -373 280 -579
292 l-88 5 0 -34 c0 -64 21 -162 51 -240 99 -256 330 -455 592 -509 44 -9 60
-17 67 -33 7 -18 25 -125 74 -434 5 -36 -8 -27 -44 29 -46 70 -135 157 -221
214 -75 50 -212 109 -234 100 -35 -13 -47 -240 -19 -374 27 -134 103 -289 194
-397 51 -60 161 -155 232 -200 33 -21 48 -37 48 -52 0 -75 -85 -473 -101 -473
-5 0 -8 3 -7 8 4 16 -16 101 -39 164 -58 163 -177 319 -307 403 -28 19 -28 19
-47 -6 -30 -39 -78 -162 -95 -246 -20 -95 -15 -299 10 -387 40 -144 122 -295
215 -395 26 -28 39 -51 36 -61 -15 -47 -292 -446 -302 -436 -3 3 0 44 7 92 15
104 7 232 -20 337 -29 116 -104 267 -131 267 -18 0 -120 -103 -164 -165 -92
-130 -148 -274 -165 -425 -16 -141 7 -299 61 -418 l28 -63 -77 -60 c-160 -128
-358 -250 -570 -351 -142 -69 -363 -158 -389 -158 -10 0 -13 34 -13 148 0 133
-2 151 -23 187 -31 56 -91 85 -177 85 -99 0 -195 25 -297 75 -154 76 -261 200
-317 367 -14 42 -26 89 -26 105 0 37 27 76 78 114 49 36 82 100 82 158 0 55
-10 73 -86 152 -86 90 -95 149 -38 262 40 77 97 131 206 192 99 57 176 113
253 185 37 35 49 39 139 54 342 58 744 342 979 694 115 172 195 355 252 577
53 207 68 313 69 486 1 153 1 156 -27 197 -52 79 -66 82 -391 82 -179 0 -287
4 -291 10 -3 6 5 100 20 210 14 109 23 210 19 224 -3 13 -17 35 -31 48 l-25
23 -1516 3 c-834 2 -1537 0 -1561 -3 -61 -9 -91 -43 -91 -106 0 -57 27 -306
39 -359 7 -31 5 -40 -6 -44 -8 -3 -140 -6 -294 -6 -259 0 -283 -1 -319 -20
-74 -38 -100 -100 -100 -239 0 -269 90 -632 223 -896 229 -459 682 -819 1112
-885 78 -12 82 -14 140 -70 86 -82 149 -129 244 -180 94 -50 145 -102 191
-193 52 -104 35 -189 -54 -262 -24 -20 -51 -51 -60 -69 -37 -78 -7 -173 72
-230 79 -57 88 -99 48 -219 -36 -106 -72 -163 -156 -248 -122 -122 -245 -175
-435 -188 -69 -5 -122 -14 -142 -24 -73 -38 -96 -115 -86 -287 3 -61 3 -110
-1 -110 -24 0 -277 105 -411 170 -225 111 -453 252 -599 373 l-30 24 26 59
c48 109 62 187 62 339 0 116 -3 154 -22 220 -27 94 -92 221 -156 304 -44 57
-141 151 -156 151 -12 0 -79 -134 -105 -210 -36 -106 -49 -207 -41 -328 3 -59
9 -120 12 -136 10 -44 -8 -27 -90 83 -67 90 -226 333 -226 345 0 3 22 30 48
59 94 104 166 231 203 359 29 102 37 315 15 417 -19 92 -60 199 -91 237 -22
27 -24 28 -50 14 -53 -28 -166 -143 -215 -218 -57 -87 -102 -195 -123 -297 -8
-39 -17 -63 -21 -55 -22 54 -104 478 -94 484 193 116 367 317 433 499 52 143
68 319 42 447 -12 53 -13 55 -44 54 -40 -2 -143 -50 -220 -102 -71 -49 -161
-137 -210 -210 -26 -37 -39 -49 -41 -38 -4 18 15 150 49 342 l22 121 61 12
c190 39 396 179 508 344 74 109 123 242 135 370 l6 67 -71 0 c-227 0 -487
-133 -624 -317 -22 -30 -41 -53 -43 -51 -2 2 4 41 12 88 19 106 12 327 -12
415 -30 111 -110 258 -183 335 l-67 71 -25 -31z m2010 -1077 c59 -441 192
-923 321 -1162 16 -30 27 -56 25 -59 -8 -7 -97 46 -166 97 -89 66 -233 218
-304 320 -145 206 -262 522 -291 786 -4 33 -9 68 -11 77 -5 16 11 18 198 21
112 1 206 3 209 5 4 1 12 -37 19 -85z m3344 77 l119 0 -7 -77 c-46 -510 -303
-949 -704 -1202 -29 -19 -55 -32 -57 -29 -2 2 13 41 35 86 122 254 242 684
300 1076 12 77 23 143 26 147 2 4 41 6 87 4 45 -2 135 -4 201 -5z"/>
</g>
</svg>
