<?xml version="1.0" standalone="no"?>
<!DOCTYPE svg PUBLIC "-//W3C//DTD SVG 20010904//EN"
 "http://www.w3.org/TR/2001/REC-SVG-20010904/DTD/svg10.dtd">
<svg version="1.0" xmlns="http://www.w3.org/2000/svg"
 width="1024.000000pt" height="1024.000000pt" viewBox="0 0 1024.000000 1024.000000"
 preserveAspectRatio="xMidYMid meet">
<metadata>
Created by potrace 1.16, written by Peter Selinger 2001-2019
</metadata>
<g transform="translate(0.000000,1024.000000) scale(0.100000,-0.100000)"
fill="#000000" stroke="none">
<path d="M5020 8594 c-240 -29 -430 -140 -566 -331 -238 -332 -244 -920 -12
-1306 58 -98 223 -263 308 -310 121 -66 194 -82 375 -82 150 0 166 2 249 29
276 91 497 386 573 764 26 130 24 405 -4 532 -43 199 -117 343 -234 462 -122
123 -243 192 -388 223 -72 15 -244 26 -301 19z"/>
<path d="M2800 8490 c-332 -46 -603 -353 -660 -749 -18 -118 -7 -353 20 -456
68 -263 194 -463 434 -692 193 -184 538 -432 745 -538 87 -43 99 -39 220 78
126 121 224 196 363 278 114 67 128 80 128 119 0 37 -24 55 -108 80 -285 84
-648 275 -860 453 -212 179 -362 441 -362 632 0 269 212 451 482 415 46 -6
121 -25 168 -42 47 -17 106 -33 131 -35 40 -4 49 -2 63 18 36 52 10 113 -91
213 -111 111 -214 174 -337 206 -88 22 -248 32 -336 20z"/>
<path d="M7210 8490 c-174 -28 -341 -118 -462 -249 -78 -84 -98 -132 -77 -177
21 -42 82 -44 180 -6 130 51 239 68 331 52 220 -40 349 -210 335 -444 -10
-177 -91 -337 -261 -515 -210 -218 -577 -432 -924 -537 -64 -19 -122 -40 -129
-46 -19 -15 -16 -72 5 -90 9 -8 44 -30 77 -48 140 -77 349 -236 460 -349 71
-74 88 -72 256 30 275 166 496 334 680 518 196 195 300 353 368 557 82 244 82
543 -1 770 -91 254 -310 468 -529 518 -82 19 -238 27 -309 16z"/>
<path d="M4445 6415 c-195 -46 -370 -118 -513 -211 -154 -100 -321 -282 -394
-429 -60 -119 -145 -407 -274 -933 -52 -213 -125 -506 -161 -652 -85 -342 -84
-400 9 -505 51 -59 107 -86 191 -92 103 -8 165 14 232 81 59 59 42 18 235 591
219 648 253 740 262 715 7 -19 31 -307 83 -1015 8 -115 31 -415 50 -665 19
-250 48 -651 65 -890 38 -543 39 -554 94 -628 46 -62 103 -107 157 -122 19 -6
74 -10 124 -10 73 0 99 5 141 24 96 44 161 122 183 216 11 46 42 488 86 1227
13 227 29 421 34 432 6 10 23 24 40 30 43 18 87 -7 100 -57 6 -20 17 -152 26
-292 9 -140 22 -347 30 -460 8 -113 19 -284 25 -380 25 -411 35 -505 64 -564
34 -70 111 -139 177 -161 72 -24 228 -17 284 12 55 30 130 109 155 165 21 47
33 162 60 548 70 1023 178 2523 186 2569 3 19 9 30 14 25 14 -14 111 -287 320
-896 60 -175 116 -331 124 -347 9 -16 36 -49 61 -75 54 -53 116 -76 208 -76
92 0 135 17 198 80 93 92 109 180 64 351 -14 51 -86 335 -159 629 -239 957
-291 1109 -441 1298 -192 238 -480 402 -833 474 l-104 20 -112 -56 c-69 -35
-148 -66 -211 -82 -90 -23 -114 -25 -235 -21 -162 6 -263 32 -413 108 -54 27
-105 49 -115 48 -9 0 -62 -11 -117 -24z"/>
<path d="M2124 5855 c-157 -29 -288 -106 -429 -250 -189 -192 -275 -414 -262
-670 12 -219 86 -382 245 -541 124 -124 262 -201 432 -243 168 -41 328 -50
508 -30 156 17 234 36 257 62 15 17 45 120 103 358 45 184 82 348 82 365 0 72
-57 72 -216 0 -195 -88 -246 -101 -409 -101 -122 0 -147 3 -196 23 -131 52
-190 116 -230 246 -59 187 48 424 261 579 97 70 120 97 120 137 0 58 -26 75
-119 77 -42 1 -108 -4 -147 -12z"/>
<path d="M7883 5861 c-42 -19 -56 -78 -28 -118 8 -12 50 -46 93 -76 104 -73
184 -163 233 -262 78 -159 87 -270 31 -388 -37 -80 -88 -131 -165 -168 -88
-41 -155 -52 -282 -46 -136 6 -246 37 -386 108 -85 42 -108 50 -147 47 -78 -5
-78 -6 19 -400 99 -402 92 -389 212 -413 356 -71 725 -23 949 124 187 122 302
274 365 478 23 78 26 104 26 233 0 129 -3 155 -27 235 -92 303 -343 557 -624
629 -75 20 -239 30 -269 17z"/>
<path d="M3768 3665 c-307 -494 -453 -689 -642 -857 -76 -67 -124 -100 -200
-138 -157 -78 -252 -81 -374 -15 -140 76 -199 230 -188 488 l6 138 -26 25
c-35 36 -87 28 -127 -18 -41 -48 -112 -199 -144 -303 -25 -83 -27 -104 -27
-265 0 -164 2 -180 27 -253 42 -120 83 -184 181 -283 103 -102 185 -151 313
-186 66 -18 104 -22 248 -21 152 0 181 3 270 26 222 60 409 180 631 408 99
103 180 199 243 292 l32 48 -25 287 c-14 158 -33 377 -42 487 -8 110 -20 205
-26 212 -6 7 -25 13 -43 13 -31 0 -37 -6 -87 -85z"/>
<path d="M6340 3730 c-6 -10 -13 -45 -15 -77 -18 -189 -65 -798 -67 -853 l-3
-66 75 -99 c93 -123 268 -306 374 -392 229 -184 465 -273 722 -273 122 0 239
21 332 58 210 86 381 290 427 510 19 92 19 277 1 374 -29 149 -120 348 -182
397 -35 27 -85 27 -110 0 -17 -19 -19 -39 -19 -208 -1 -166 -3 -192 -22 -243
-31 -83 -77 -144 -138 -184 -279 -186 -619 38 -1050 691 -62 94 -136 211 -165
260 -29 50 -60 98 -68 108 -21 24 -78 23 -92 -3z"/>
</g>
</svg>
