<?xml version="1.0" standalone="no"?>
<!DOCTYPE svg PUBLIC "-//W3C//DTD SVG 20010904//EN"
 "http://www.w3.org/TR/2001/REC-SVG-20010904/DTD/svg10.dtd">
<svg version="1.0" xmlns="http://www.w3.org/2000/svg"
 width="1024.000000pt" height="1024.000000pt" viewBox="0 0 1024.000000 1024.000000"
 preserveAspectRatio="xMidYMid meet">

<g transform="translate(0.000000,1024.000000) scale(0.100000,-0.100000)"
fill="#000000" stroke="none">
<path d="M2492 7855 c-19 -16 -42 -56 -67 -120 -37 -93 -39 -96 -64 -90 -14 4
-44 8 -66 9 -38 1 -41 -1 -67 -49 -43 -80 -188 -421 -188 -443 0 -26 36 -52
71 -52 29 0 35 12 145 270 29 69 59 125 66 125 7 0 12 -7 10 -15 -2 -8 -61
-161 -133 -340 -71 -179 -129 -333 -129 -343 0 -20 39 -39 193 -98 74 -28 90
-31 97 -18 5 7 104 252 221 542 164 411 208 531 199 542 -18 22 -216 105 -251
105 -4 0 -21 -11 -37 -25z"/>
<path d="M7645 7842 c-127 -52 -135 -58 -135 -91 0 -15 31 -102 69 -192 38
-90 112 -272 166 -404 140 -346 187 -459 194 -468 9 -9 282 94 287 108 2 5
-55 156 -127 335 -72 179 -134 340 -136 358 -10 65 15 29 67 -95 125 -300 113
-278 144 -281 15 -2 39 4 53 13 21 14 24 23 20 48 -5 34 -170 426 -196 466
-15 24 -15 24 -118 5 -26 -5 -34 -3 -39 12 -28 85 -81 198 -98 210 -30 21 -51
17 -151 -24z"/>
<path d="M4924 7576 c-215 -41 -410 -142 -555 -287 -365 -365 -412 -962 -109
-1369 57 -76 174 -192 245 -242 287 -204 708 -244 1030 -97 205 93 400 278
504 479 190 367 155 784 -94 1115 -138 183 -354 326 -583 386 -101 26 -337 34
-438 15z"/>
<path d="M8322 6782 c-7 -2 -17 -15 -22 -28 -6 -14 -18 -27 -27 -30 -73 -24
-253 -97 -270 -109 l-23 -16 24 -62 c13 -34 56 -145 96 -246 l72 -183 40 6
c78 13 221 78 269 123 90 84 121 221 80 346 -23 69 -82 147 -130 171 -36 19
-93 34 -109 28z"/>
<path d="M1884 6757 c-144 -68 -206 -274 -128 -429 49 -98 99 -134 263 -188
66 -22 89 -26 97 -17 14 16 184 447 184 468 0 17 -42 38 -190 97 -78 31 -95
41 -100 62 -8 35 -59 38 -126 7z"/>
<path d="M7739 6653 c-55 -48 -495 -466 -794 -754 -136 -130 -376 -351 -446
-409 -124 -103 -254 -190 -284 -190 -34 0 -10 -18 83 -62 178 -85 363 -223
497 -372 38 -42 74 -76 80 -76 9 0 1245 1226 1253 1243 3 6 -41 113 -245 595
-44 102 -55 104 -144 25z"/>
<path d="M2441 6687 c-17 -21 -281 -629 -281 -648 0 -10 268 -282 601 -612
l601 -594 107 106 c145 144 312 257 483 326 l82 33 -45 27 c-114 71 -339 274
-933 839 -590 562 -585 558 -615 523z"/>
<path d="M1776 6119 c-41 -64 -45 -89 -36 -231 11 -157 20 -188 53 -188 26 0
76 49 195 192 101 122 109 135 86 153 -23 16 -210 86 -251 92 -25 4 -34 1 -47
-18z"/>
<path d="M8346 6095 c-65 -24 -125 -50 -133 -58 -21 -21 -4 -49 124 -202 112
-133 144 -155 172 -121 7 8 19 82 27 165 l15 150 -26 55 c-17 36 -32 56 -43
55 -9 0 -70 -20 -136 -44z"/>
<path d="M1874 5475 c-20 -31 -384 -1002 -384 -1025 0 -10 8 -20 18 -23 9 -3
71 -26 137 -51 66 -25 125 -46 131 -46 12 0 13 2 169 415 58 154 110 284 116
289 6 6 13 6 19 0 6 -6 -13 -67 -55 -174 -36 -91 -68 -179 -71 -196 -5 -28 -2
-33 29 -47 42 -20 61 -21 75 -4 16 19 192 473 192 496 0 22 -34 44 -87 56 -41
8 -41 21 -7 110 35 95 31 114 -31 144 -64 30 -202 81 -220 81 -8 0 -22 -11
-31 -25z"/>
<path d="M8202 5452 c-63 -26 -118 -55 -124 -65 -8 -14 -2 -40 22 -109 18 -49
28 -93 24 -98 -5 -4 -27 -13 -49 -20 -42 -13 -75 -36 -75 -52 0 -9 27 -79 152
-396 22 -57 47 -106 54 -109 18 -7 79 14 94 32 10 12 -3 53 -59 199 -39 102
-71 190 -71 196 0 5 6 10 14 10 8 0 35 -58 71 -152 185 -488 211 -553 227
-556 24 -5 278 97 285 114 3 7 -33 116 -80 241 -203 542 -298 787 -308 800
-19 22 -59 14 -177 -35z"/>
<path d="M4220 5241 c-301 -79 -547 -237 -710 -452 -151 -201 -217 -376 -240
-639 -16 -176 -9 -1402 8 -1451 17 -50 79 -118 126 -140 36 -16 69 -19 264
-19 l222 0 0 633 c0 347 3 642 6 655 9 32 51 30 64 -4 6 -15 10 -270 10 -655
l0 -629 1135 0 1135 0 0 613 c0 336 5 630 10 651 14 63 50 70 69 14 7 -21 11
-237 11 -654 l0 -624 228 0 c257 0 276 5 345 76 68 70 67 57 67 820 0 630 -1
691 -19 796 -24 139 -52 230 -100 329 -163 333 -482 580 -878 680 -127 32
-162 35 -185 17 -8 -7 -76 -89 -151 -183 -358 -447 -505 -625 -517 -625 -15 0
-44 32 -637 713 -109 125 -99 122 -263 78z"/>
<path d="M1322 4419 c-124 -62 -192 -241 -148 -390 21 -71 79 -146 143 -185
67 -40 219 -92 232 -79 19 19 191 474 185 489 -3 8 -24 21 -47 30 -235 84
-252 92 -267 124 -18 38 -39 40 -98 11z"/>
<path d="M8830 4422 c0 -31 -34 -53 -142 -94 -149 -56 -174 -69 -170 -93 2
-11 42 -118 88 -237 46 -119 84 -222 84 -227 0 -18 34 -13 126 20 104 37 146
62 198 119 60 67 80 121 80 215 0 69 -5 90 -31 146 -37 80 -86 129 -150 152
-62 22 -83 22 -83 -1z"/>
<path d="M1883 4398 c-14 -23 -263 -652 -263 -665 0 -10 150 -13 765 -13 l766
0 -7 133 c-9 172 19 454 53 543 4 12 -82 14 -650 14 -514 0 -658 -3 -664 -12z"/>
<path d="M7050 4398 c0 -7 10 -65 21 -128 16 -87 22 -168 25 -330 l4 -215 756
-3 c415 -1 761 1 769 5 10 6 -6 55 -69 208 -46 110 -98 238 -116 285 -18 47
-43 109 -56 138 l-23 52 -655 0 c-518 0 -656 -3 -656 -12z"/>
<path d="M1232 3783 c-7 -3 -23 -26 -36 -51 -23 -46 -23 -50 -14 -197 16 -239
33 -252 155 -118 110 120 183 219 183 247 0 20 -11 28 -67 51 -61 24 -205 76
-207 74 -1 0 -7 -3 -14 -6z"/>
<path d="M8890 3751 c-181 -66 -186 -70 -144 -135 49 -74 223 -274 245 -281
33 -11 59 20 59 72 0 25 5 98 11 162 10 106 10 121 -6 152 -19 37 -44 69 -54
68 -3 0 -53 -17 -111 -38z"/>
</g>
</svg>
