<?xml version="1.0" standalone="no"?>
<!DOCTYPE svg PUBLIC "-//W3C//DTD SVG 20010904//EN"
 "http://www.w3.org/TR/2001/REC-SVG-20010904/DTD/svg10.dtd">
<svg version="1.0" xmlns="http://www.w3.org/2000/svg"
 width="1024.000000pt" height="1024.000000pt" viewBox="0 0 1024.000000 1024.000000"
 preserveAspectRatio="xMidYMid meet">
<metadata>
Created by potrace 1.16, written by Peter Selinger 2001-2019
</metadata>
<g transform="translate(0.000000,1024.000000) scale(0.100000,-0.100000)"
fill="#000000" stroke="none">
<path d="M829 9716 c-155 -42 -294 -208 -319 -381 -14 -103 -14 -8338 1 -8442
14 -102 50 -172 126 -249 83 -83 148 -113 272 -125 59 -6 1692 -9 4276 -7
4027 3 4182 4 4235 21 146 49 254 168 295 322 13 53 15 519 15 4265 0 3746 -2
4212 -15 4265 -23 87 -61 149 -135 219 -69 64 -128 99 -202 116 -69 15 -8490
12 -8549 -4z m8492 -359 c19 -13 39 -38 46 -57 17 -51 17 -8299 0 -8350 -9
-26 -23 -41 -57 -58 l-44 -22 -4154 0 c-4075 0 -4153 0 -4190 19 -21 11 -45
32 -53 48 -12 24 -14 581 -16 4188 -2 3316 0 4165 10 4185 7 13 28 35 46 47
l34 23 4172 0 4172 0 34 -23z"/>
<path d="M4900 9084 c-297 -37 -635 -167 -882 -340 -191 -134 -454 -378 -552
-513 -42 -58 -46 -68 -46 -123 0 -33 5 -69 11 -81 36 -68 274 -317 416 -434
323 -266 641 -414 1005 -468 158 -24 489 -16 632 15 405 87 780 309 1132 672
178 184 204 222 204 299 0 52 -4 62 -47 121 -122 162 -357 376 -571 519 -224
150 -471 257 -717 310 -82 17 -140 22 -325 24 -124 2 -241 1 -260 -1z m435
-349 c287 -53 570 -188 835 -399 110 -87 242 -226 235 -246 -13 -40 -241 -236
-390 -335 -422 -281 -839 -359 -1284 -240 -193 52 -414 162 -592 295 -98 73
-319 273 -319 289 0 12 181 187 250 242 103 83 266 186 385 244 311 152 603
202 880 150z"/>
<path d="M4985 8606 c-128 -32 -238 -116 -314 -239 -79 -128 -89 -350 -21
-494 33 -72 118 -167 190 -213 83 -53 150 -70 276 -70 143 0 213 21 307 92
202 151 273 430 167 657 -56 119 -193 230 -331 266 -65 18 -206 18 -274 1z"/>
<path d="M4965 6939 c-383 -51 -768 -346 -1062 -813 -133 -210 -303 -585 -411
-901 -88 -258 -188 -669 -217 -888 -20 -150 -19 -368 1 -460 20 -89 70 -187
141 -275 29 -37 53 -69 53 -72 0 -3 36 -36 81 -75 76 -66 79 -70 57 -79 -386
-155 -707 -436 -894 -782 -144 -267 -225 -638 -241 -1106 -6 -195 -6 -198 14
-198 27 0 318 76 538 141 635 186 1142 397 1549 643 180 109 376 244 477 329
38 31 72 57 75 57 3 0 34 -24 67 -53 109 -93 243 -188 427 -302 474 -293 1008
-511 1756 -715 104 -28 228 -62 276 -76 134 -37 122 -60 115 209 -10 398 -69
698 -193 981 -155 352 -472 660 -855 831 l-106 47 102 102 c154 153 226 273
262 441 47 215 -43 745 -214 1270 -131 403 -277 715 -461 985 -110 163 -175
243 -298 365 -309 308 -668 444 -1039 394z m281 -1160 c201 -62 405 -230 557
-456 114 -171 229 -426 276 -609 l21 -80 -24 -90 c-53 -197 -113 -337 -202
-470 -68 -104 -195 -238 -280 -299 -174 -125 -396 -185 -570 -156 -411 70
-702 383 -854 920 l-32 112 27 92 c129 451 399 836 695 987 135 70 266 86 386
49z m519 -2354 c7 -38 21 -90 29 -114 l16 -44 -37 -46 c-63 -77 -173 -178
-263 -242 -95 -68 -351 -199 -388 -199 -54 0 -291 122 -422 218 -81 59 -255
232 -265 263 -4 10 5 51 19 91 13 40 28 94 31 121 4 26 11 50 16 53 5 3 31
-10 57 -30 84 -61 221 -124 332 -151 138 -33 322 -35 450 -5 95 23 256 98 340
159 64 46 61 48 85 -74z"/>
</g>
</svg>
