<?xml version="1.0" standalone="no"?>
<!DOCTYPE svg PUBLIC "-//W3C//DTD SVG 20010904//EN"
 "http://www.w3.org/TR/2001/REC-SVG-20010904/DTD/svg10.dtd">
<svg version="1.0" xmlns="http://www.w3.org/2000/svg"
 width="1028.000000pt" height="1028.000000pt" viewBox="0 0 1028.000000 1028.000000"
 preserveAspectRatio="xMidYMid meet">
<metadata>
Created by potrace 1.16, written by Peter Selinger 2001-2019
</metadata>
<g transform="translate(0.000000,1028.000000) scale(0.100000,-0.100000)"
fill="#000000" stroke="none">
<path d="M4910 8764 c-187 -30 -286 -54 -268 -66 8 -6 4 -7 -13 -3 -55 13
-436 -163 -412 -190 4 -4 3 -5 -4 -1 -19 10 -169 -109 -288 -229 -250 -252
-402 -544 -466 -895 -6 -36 -14 -204 -18 -375 l-6 -310 -376 -5 -376 -5 -42
-28 c-46 -31 -97 -102 -110 -157 -5 -19 -12 -71 -16 -115 -7 -90 -47 -528 -70
-765 -9 -85 -17 -191 -20 -234 -2 -51 -8 -82 -17 -87 -11 -7 -10 -11 2 -19 12
-8 12 -10 1 -10 -10 0 -12 -9 -8 -35 3 -19 2 -35 -2 -35 -3 0 -15 -91 -25
-202 -10 -112 -19 -221 -21 -243 -9 -90 -86 -928 -95 -1025 -5 -58 -23 -256
-39 -440 -32 -348 -67 -748 -97 -1098 -26 -304 -7 -380 126 -506 69 -65 129
-99 205 -116 46 -10 1172 -15 3975 -15 l1385 0 68 32 c93 44 186 138 229 230
45 94 47 176 14 543 -15 162 -43 471 -62 685 -19 215 -50 557 -69 760 -19 204
-48 521 -65 705 -17 184 -33 362 -36 395 -3 33 -8 63 -10 67 -3 5 0 8 6 8 7 0
8 5 3 13 -4 6 -6 36 -4 65 2 34 -1 52 -9 52 -6 0 -8 5 -4 11 8 14 -47 659 -56
654 -4 -3 -5 6 -3 18 4 20 -40 573 -53 677 -11 85 -89 179 -167 201 -17 5
-187 9 -377 9 -199 0 -351 4 -360 10 -13 8 -16 59 -21 322 -7 351 -18 438 -85
631 -38 109 -140 317 -155 317 -5 0 -9 7 -9 15 0 8 -5 15 -11 15 -5 0 -8 4 -4
9 3 5 -5 17 -17 26 -13 8 -21 18 -19 21 2 3 -29 46 -69 95 -132 164 -324 323
-515 428 -139 76 -359 152 -485 167 -25 3 -46 8 -48 12 -1 4 -22 6 -47 4 -31
-3 -45 0 -45 8 0 8 -4 9 -12 4 -7 -5 -26 -8 -43 -6 -47 6 -337 10 -365 6z
m149 -484 c10 0 21 4 23 8 3 10 207 -10 296 -28 138 -29 354 -126 481 -219 35
-25 68 -45 75 -43 6 2 8 1 5 -3 -4 -3 20 -32 53 -63 84 -79 180 -210 237 -322
109 -214 141 -381 141 -743 0 -133 -3 -179 -12 -182 -22 -8 -1138 -10 -1138
-2 0 13 -265 8 -279 -5 -11 -11 -13 -10 -7 0 6 10 -55 12 -311 12 -689 -1
-670 -2 -689 17 -15 16 -16 38 -11 243 8 314 30 439 111 628 111 260 389 519
676 630 41 16 84 33 95 37 11 5 24 7 29 6 4 -1 14 3 20 9 7 5 15 7 19 4 3 -3
14 -1 26 5 13 7 22 8 26 1 4 -6 12 -4 22 5 11 11 19 13 28 5 9 -8 14 -6 19 5
4 12 10 14 25 5 11 -5 29 -10 40 -10z m-1299 -2181 c59 -27 77 -44 108 -104
58 -113 20 -223 -97 -282 -80 -41 -111 -41 -190 -2 -51 25 -67 40 -91 82 -42
73 -47 123 -20 183 28 64 54 92 115 120 61 29 116 30 175 3z m2961 -17 c46
-24 59 -37 86 -91 39 -75 41 -118 9 -186 -28 -61 -45 -77 -119 -111 -45 -20
-66 -24 -95 -19 -56 10 -129 52 -148 84 -10 17 -22 27 -27 24 -6 -3 -7 -2 -4
4 3 5 -1 29 -9 53 -18 53 -11 110 21 160 30 46 51 65 105 89 63 29 117 27 181
-7z"/>
</g>
</svg>
