<?xml version="1.0" standalone="no"?>
<!DOCTYPE svg PUBLIC "-//W3C//DTD SVG 20010904//EN"
 "http://www.w3.org/TR/2001/REC-SVG-20010904/DTD/svg10.dtd">
<svg version="1.0" xmlns="http://www.w3.org/2000/svg"
 width="1024.000000pt" height="1024.000000pt" viewBox="0 0 1024.000000 1024.000000"
 preserveAspectRatio="xMidYMid meet">
<metadata>
Created by potrace 1.16, written by Peter Selinger 2001-2019
</metadata>
<g transform="translate(0.000000,1024.000000) scale(0.100000,-0.100000)"
fill="#000000" stroke="none">
<path d="M2477 7872 c-9 -9 -30 -49 -47 -87 -45 -100 -56 -120 -66 -118 -88
15 -103 14 -121 -4 -25 -25 -223 -473 -223 -505 0 -38 34 -62 86 -63 28 0 44
-4 44 -12 0 -7 -22 -68 -50 -135 -52 -126 -59 -158 -37 -176 31 -25 247 -103
279 -100 l33 3 106 265 c59 146 154 383 213 528 58 145 106 276 106 291 0 39
-21 55 -127 96 -104 40 -170 46 -196 17z"/>
<path d="M7622 7856 c-98 -40 -132 -68 -132 -109 0 -16 22 -82 49 -147 28 -64
102 -247 167 -406 169 -421 204 -501 220 -515 20 -17 65 -7 194 43 114 44 115
45 118 79 2 23 -12 72 -43 149 -62 153 -61 145 -9 146 54 2 84 26 84 67 0 38
-175 449 -208 489 -23 27 -30 30 -66 24 -23 -3 -50 -7 -60 -9 -16 -2 -26 14
-52 78 -18 44 -45 95 -59 113 -23 28 -32 32 -73 32 -30 0 -77 -13 -130 -34z"/>
<path d="M4939 7595 c-474 -69 -835 -452 -889 -945 -37 -339 80 -658 329 -892
171 -162 345 -242 597 -274 255 -33 516 25 712 157 179 122 344 326 417 519
100 266 93 583 -20 827 -89 194 -276 390 -475 501 -180 100 -438 141 -671 107z"/>
<path d="M1906 6790 c-130 -39 -223 -217 -197 -376 12 -77 37 -127 90 -181 47
-49 86 -70 198 -107 134 -45 120 -58 229 214 51 129 93 243 94 252 0 27 -45
55 -163 100 -93 36 -113 47 -130 75 -16 28 -24 33 -55 32 -21 0 -50 -5 -66 -9z"/>
<path d="M8290 6776 c-7 -19 -36 -34 -142 -76 -163 -63 -178 -72 -178 -108 0
-16 21 -80 46 -143 25 -63 63 -161 85 -218 58 -155 64 -158 185 -117 171 58
243 114 284 222 29 77 32 197 6 271 -35 103 -144 193 -234 193 -36 0 -44 -4
-52 -24z"/>
<path d="M7772 6706 c-35 -26 -77 -65 -387 -361 -327 -313 -602 -573 -738
-698 -197 -180 -378 -314 -450 -332 -44 -11 -29 -37 38 -68 206 -97 367 -211
530 -376 55 -56 106 -101 115 -101 8 0 295 280 638 623 548 548 622 626 622
652 0 17 -25 89 -56 160 -30 72 -89 211 -131 310 -41 99 -82 188 -90 198 -22
24 -53 21 -91 -7z"/>
<path d="M2426 6695 c-15 -22 -201 -440 -263 -589 -14 -34 -22 -69 -19 -81 3
-13 257 -269 563 -570 307 -301 577 -567 600 -591 23 -24 47 -44 54 -44 6 0
62 48 123 108 152 146 331 263 501 327 33 13 61 30 63 38 2 10 -21 32 -60 58
-154 104 -373 303 -1241 1132 -269 255 -285 266 -321 212z"/>
<path d="M1745 6098 c-27 -58 -31 -123 -16 -290 9 -98 25 -128 71 -128 21 0
45 21 116 103 227 258 229 265 79 320 -116 42 -136 47 -182 47 -43 0 -44 -1
-68 -52z"/>
<path d="M8409 6140 c-9 -5 -27 -12 -40 -14 -13 -3 -25 -5 -26 -7 -2 -1 -6 -2
-10 -3 -5 -1 -14 -5 -20 -9 -7 -5 -13 -6 -13 -4 0 3 -24 -7 -52 -22 -47 -23
-53 -30 -56 -61 -2 -30 7 -47 68 -122 123 -153 189 -218 220 -218 15 0 33 7
40 15 7 8 21 88 31 177 l19 163 -27 55 c-27 54 -29 55 -73 57 -25 2 -52 -2
-61 -7z"/>
<path d="M1882 5513 c-7 -3 -19 -18 -28 -35 -21 -41 -374 -985 -381 -1019 -4
-21 0 -31 18 -42 30 -19 261 -107 281 -107 25 0 33 16 93 177 l57 153 30 -25
c22 -18 41 -25 74 -25 52 0 39 -23 153 267 97 245 100 261 69 289 -13 12 -39
27 -60 34 -41 15 -41 18 -8 114 11 33 20 67 20 77 0 29 -55 65 -164 108 -101
40 -126 45 -154 34z"/>
<path d="M8270 5501 c-75 -25 -170 -68 -192 -88 -25 -23 -23 -77 7 -153 14
-35 25 -65 25 -67 0 -1 -19 -7 -42 -14 -57 -15 -78 -35 -78 -76 0 -45 166
-472 195 -502 27 -28 69 -23 113 14 l28 24 59 -152 c32 -84 63 -158 68 -164
17 -22 59 -13 192 41 l130 52 -1 55 c-1 45 -31 134 -182 527 -99 260 -187 484
-196 497 -20 30 -49 31 -126 6z"/>
<path d="M4195 5255 c-239 -66 -402 -156 -567 -313 -215 -204 -330 -427 -368
-715 -15 -119 -14 -1488 2 -1541 17 -57 100 -141 155 -155 26 -7 123 -10 260
-9 l218 3 5 642 c4 490 8 645 17 654 7 7 16 9 20 5 5 -4 10 -299 13 -654 l5
-647 1150 0 1150 0 5 647 c3 355 8 650 13 654 4 4 13 2 20 -5 9 -9 13 -164 17
-654 l5 -642 250 0 c281 0 281 0 349 75 75 84 71 32 71 835 -1 786 -2 810 -61
997 -84 264 -284 507 -555 672 -148 89 -408 176 -530 176 l-58 0 -147 -182
c-81 -101 -186 -230 -233 -288 -181 -223 -273 -330 -285 -330 -10 0 -350 383
-655 738 -60 68 -65 72 -104 71 -23 0 -96 -15 -162 -34z"/>
<path d="M1312 4439 c-52 -26 -102 -85 -139 -165 -24 -51 -28 -72 -28 -149 1
-111 23 -166 98 -243 61 -62 91 -79 210 -118 87 -28 87 -28 106 -9 10 11 30
49 44 85 14 36 53 136 86 222 34 86 61 168 61 182 0 34 -23 48 -173 103 -119
44 -131 50 -144 80 -11 28 -19 33 -46 33 -17 0 -51 -10 -75 -21z"/>
<path d="M8815 4427 c-12 -30 -24 -37 -142 -81 -163 -61 -173 -68 -172 -109 0
-17 40 -133 88 -257 l88 -225 38 -3 c81 -7 239 63 304 133 70 77 86 122 86
250 0 100 -2 115 -27 161 -36 68 -115 138 -172 153 -66 16 -76 14 -91 -22z"/>
<path d="M1859 4393 c-5 -16 -66 -168 -134 -339 -69 -170 -125 -318 -125 -327
0 -16 51 -17 781 -15 l781 3 2 240 c3 201 7 255 25 335 11 52 21 103 21 113 0
16 -39 17 -670 17 l-670 0 -11 -27z"/>
<path d="M7030 4408 c0 -7 10 -60 21 -118 15 -80 22 -162 26 -342 l5 -238 784
0 784 0 0 26 c0 14 -25 85 -55 157 -30 73 -89 220 -133 327 l-79 195 -676 3
c-538 2 -677 0 -677 -10z"/>
<path d="M1202 3775 c-43 -55 -46 -77 -35 -257 7 -102 16 -175 23 -183 7 -9
29 -15 50 -15 36 0 44 6 139 117 158 182 184 229 143 266 -25 22 -231 97 -269
97 -22 0 -38 -8 -51 -25z"/>
<path d="M8865 3765 c-55 -20 -111 -44 -125 -54 -37 -27 -38 -73 -4 -119 43
-58 184 -225 211 -249 28 -27 84 -31 103 -8 8 10 16 66 21 148 13 217 12 240
-14 278 -31 47 -67 47 -192 4z"/>
</g>
</svg>
