<?xml version="1.0" standalone="no"?>
<!DOCTYPE svg PUBLIC "-//W3C//DTD SVG 20010904//EN"
 "http://www.w3.org/TR/2001/REC-SVG-20010904/DTD/svg10.dtd">
<svg version="1.0" xmlns="http://www.w3.org/2000/svg"
 width="1024.000000pt" height="1024.000000pt" viewBox="0 0 1024.000000 1024.000000"
 preserveAspectRatio="xMidYMid meet">
<metadata>
Created by potrace 1.16, written by Peter Selinger 2001-2019
</metadata>
<g transform="translate(0.000000,1024.000000) scale(0.100000,-0.100000)"
fill="#000000" stroke="none">
<path d="M5023 9331 c-123 -99 -190 -181 -244 -296 -57 -123 -70 -226 -47
-390 2 -15 -2 -19 -17 -17 -175 23 -267 9 -333 -51 -25 -23 -51 -56 -58 -74
-19 -43 -18 -179 1 -234 19 -55 90 -143 146 -181 36 -24 52 -28 111 -28 42 0
80 6 98 15 27 14 30 14 38 -2 35 -68 13 -169 -49 -233 -77 -79 -205 -123 -317
-109 -121 16 -272 119 -316 218 l-19 41 41 36 c79 67 119 166 107 262 -6 47
-14 62 -50 101 l-44 46 -98 3 -99 4 -36 77 c-45 96 -160 211 -260 260 -77 38
-222 70 -247 54 -35 -22 -24 -81 108 -599 72 -280 166 -651 210 -824 70 -275
83 -318 106 -337 l26 -23 1343 0 1342 0 26 28 c30 31 27 22 238 857 78 308
157 619 176 692 52 202 47 220 -55 210 -74 -8 -180 -47 -246 -91 -104 -69
-200 -190 -229 -288 -5 -16 -19 -18 -100 -18 -93 0 -96 -1 -131 -31 -53 -47
-65 -77 -65 -165 0 -97 22 -148 91 -207 27 -23 49 -49 49 -58 0 -27 -77 -125
-127 -162 -145 -105 -287 -118 -436 -40 -77 41 -119 90 -144 169 -20 65 -8
131 23 126 56 -10 148 -14 179 -8 51 10 147 106 185 187 26 56 30 75 30 151 0
82 -2 88 -33 130 -67 88 -147 115 -305 104 l-94 -7 9 43 c4 24 8 84 8 133 0
159 -58 288 -194 428 -145 150 -207 171 -298 98z"/>
<path d="M4790 6709 c-566 -23 -1158 -113 -1745 -264 -225 -58 -503 -142 -533
-162 -55 -35 -53 21 -49 -1336 3 -1072 6 -1269 20 -1368 55 -401 205 -802 415
-1104 225 -325 561 -646 977 -935 291 -201 866 -549 1135 -685 86 -44 145 -40
245 15 328 179 864 500 1050 628 284 196 479 354 660 537 470 473 700 930 792
1575 17 115 18 229 18 1377 l0 1253 -26 26 c-33 33 -240 99 -577 184 -617 157
-1162 235 -1812 260 -287 11 -282 11 -570 -1z"/>
</g>
</svg>
