<?xml version="1.0" standalone="no"?>
<!DOCTYPE svg PUBLIC "-//W3C//DTD SVG 20010904//EN"
 "http://www.w3.org/TR/2001/REC-SVG-20010904/DTD/svg10.dtd">
<svg version="1.0" xmlns="http://www.w3.org/2000/svg"
 width="1024.000000pt" height="1024.000000pt" viewBox="0 0 1024.000000 1024.000000"
 preserveAspectRatio="xMidYMid meet">
<metadata>
Created by potrace 1.16, written by Peter Selinger 2001-2019
</metadata>
<g transform="translate(0.000000,1024.000000) scale(0.100000,-0.100000)"
fill="#000000" stroke="none">
<path d="M2065 8486 c-61 -19 -85 -34 -149 -95 -60 -57 -96 -116 -115 -187 -7
-28 -11 -953 -12 -3154 0 -2903 1 -3119 17 -3165 34 -102 133 -207 232 -247
l57 -23 2975 -3 c1809 -1 3002 1 3043 7 37 5 89 20 115 32 66 32 157 126 190
196 l27 58 0 3160 0 3160 -24 48 c-38 76 -113 152 -189 189 l-67 33 -3030 2
c-2416 1 -3038 -1 -3070 -11z m5814 -507 c66 -23 61 219 61 -2924 0 -1940 -3
-2862 -10 -2876 -28 -52 153 -49 -2815 -49 -3022 0 -2791 -5 -2814 61 -16 45
-16 5708 0 5742 6 13 25 31 42 40 29 14 302 16 2768 16 1978 1 2745 -2 2768
-10z m78 -4341 c-1 -788 -2 -146 -2 1427 0 1573 1 2218 2 1433 2 -784 2 -2071
0 -2860z m-1459 -1525 c-757 -2 -1999 -2 -2760 0 -761 1 -141 2 1377 2 1518 0
2140 -1 1383 -2z"/>
<path d="M4463 7419 c-81 -55 -229 -156 -328 -224 -99 -69 -202 -137 -230
-152 l-50 -28 -340 -5 c-396 -7 -405 -9 -512 -99 -75 -64 -121 -125 -155 -209
-21 -51 -23 -73 -23 -212 0 -150 1 -157 28 -213 35 -70 124 -169 193 -213 28
-18 77 -39 110 -48 32 -8 64 -23 71 -32 13 -18 66 -161 169 -459 62 -178 73
-204 111 -241 51 -53 102 -68 200 -61 85 6 123 28 153 87 38 74 29 121 -70
401 -49 140 -90 260 -90 267 0 9 26 12 95 12 l95 0 138 -94 c75 -51 184 -126
242 -166 58 -39 156 -106 219 -148 l113 -76 74 0 c72 0 74 0 113 38 22 21 45
51 51 65 7 18 10 298 8 924 l-3 898 -47 45 c-46 43 -48 44 -117 44 l-70 0
-148 -101z"/>
<path d="M6149 7360 c-756 -5 -702 -1 -761 -62 -37 -39 -51 -88 -46 -173 3
-64 7 -78 33 -111 17 -20 46 -45 65 -55 33 -18 80 -19 1048 -19 1116 0 1040
-4 1099 64 42 47 56 95 51 175 -4 76 -24 111 -85 154 l-38 26 -335 3 c-184 2
-648 1 -1031 -2z"/>
<path d="M5515 6493 c-80 -9 -126 -41 -156 -108 -23 -49 -25 -164 -5 -203 24
-45 81 -93 122 -103 22 -5 478 -9 1025 -9 l986 0 42 23 c24 12 57 42 75 66 29
40 31 48 31 131 0 84 -2 90 -31 127 -17 21 -46 47 -65 58 -33 20 -53 20 -1014
21 -539 0 -993 -1 -1010 -3z m1467 -410 c-272 -2 -713 -2 -980 0 -268 1 -46 2
493 2 539 0 758 -1 487 -2z"/>
<path d="M5444 5610 c-25 -10 -82 -74 -95 -107 -14 -38 -11 -160 5 -192 22
-41 81 -89 118 -96 18 -3 488 -4 1044 -3 l1011 3 35 27 c51 39 82 108 82 183
-1 71 -17 108 -73 158 l-41 37 -1033 -1 c-567 0 -1041 -4 -1053 -9z"/>
<path d="M2769 4727 c-18 -12 -44 -40 -56 -62 l-23 -40 0 -607 0 -608 37 -41
c20 -22 49 -47 64 -55 24 -12 355 -14 2374 -14 2600 0 2376 -6 2432 67 l28 36
5 581 c3 320 2 602 -1 629 -6 50 -40 96 -91 123 -23 12 -374 14 -2381 14
l-2354 0 -34 -23z"/>
<path d="M2800 2873 c-27 -10 -81 -67 -102 -107 -16 -31 -19 -54 -16 -112 3
-61 8 -79 33 -115 61 -86 -24 -80 1077 -80 579 0 985 4 999 10 32 12 95 79
108 114 14 36 14 138 0 174 -12 34 -64 90 -101 109 -23 12 -180 14 -1005 13
-538 0 -985 -3 -993 -6z"/>
<path d="M5445 2864 c-80 -42 -109 -103 -104 -223 4 -76 6 -82 39 -116 67 -70
-15 -65 1106 -65 1147 0 1056 -7 1118 79 29 41 31 48 31 137 l0 94 -53 52 -52
53 -1028 3 c-916 2 -1030 0 -1057 -14z"/>
</g>
</svg>
