<svg xmlns="http://www.w3.org/2000/svg" width="746.667" height="736" version="1.0" viewBox="0 0 560 552"><path d="M264 9c-4.6 15.7-5.3 17.7-8.7 23.8-4.8 8.8-16 16.9-25.8 18.7-5 .9-8 2.4-6.9 3.5.5.5 4.1 2.1 7.9 3.5 18 6.8 23.7 12.9 29.4 31.2 1.2 4 3.1 8.3 4.1 9.5 1.7 2 2 2.1 3.3.8.8-.8 2.5-4.7 3.7-8.5 6.1-18.8 13.1-26.2 31-32.5 10.9-3.9 11.2-5 1.6-7.5-8.2-2.1-16.1-6.3-20.8-10.8-3.6-3.5-10.8-16.8-10.8-20 0-.7-1.3-5.3-2.9-10.2l-2.8-9zM385.5 47.7c14.7 14.4 21.4 27.1 21.5 40.4 0 12.8-8.6 23.3-26.2 31.8-5.8 2.8-12.3 5.5-14.4 5.9-7.6 1.8-.5 2.6 11 1.3 13.2-1.4 29.3-5.2 39.4-9.2 7.3-2.9 19.2-8.6 19.2-9.3 0-1-4.3-12.5-6.7-17.9-7.1-16.1-21.3-32.3-35.9-40.9-10.8-6.4-12.8-7-7.9-2.1M161.5 51c-1.6.4-9.1 2.2-16.5 4-41.8 9.9-72 30.3-85.6 57.5-6.4 13-8.2 30.6-4.5 43.7 3.3 11.6 7.6 18.4 18.7 29.5 8.8 8.8 11.4 10.7 19.5 14.7 10.5 5 23.3 8.9 28.1 8.4l3.2-.3-4-2.6c-15.6-10.3-19.4-13.2-25.8-19.9-7.7-8.1-12.6-16.9-14.5-25.8-1.7-8.4-1.3-22.2.8-22.2.3 0 1.5 1.9 2.6 4.3 2.7 5.9 13.8 16.6 21 20.4 9.9 5.2 22.2 8.3 33.1 8.3 5.1 0 9.5-.4 9.9-1 .3-.5-2.8-2.4-6.8-4.3-16.5-7.6-31.7-20.8-37.4-32.6-2.5-5-2.8-6.7-2.8-15.6 0-9.5.2-10.4 3.8-17.7 4.3-8.9 14.1-19.6 24.8-27.1 8.3-5.8 30-17.2 38.7-20.3l6.7-2.4-5 .1c-2.7 0-6.3.4-8 .9M347.5 73.5c-4.6 2.5-6.5 5.4-6.4 10.5 0 4.9 1.3 7.3 5.6 10.2 7.7 5 18.3-1.1 18.3-10.6 0-8.1-10.2-14-17.5-10.1"/><path d="M181 78.7c-2.8 8.5-6.3 13.5-12.4 17.4l-5.9 3.7 3.9 2c6.1 3.1 10 8 13 15.9 2.5 6.9 4 8.8 4.8 6 3.8-12.9 7.4-18 15.4-22.1l4.6-2.3-5.7-2.7c-6.8-3.2-10.2-7.4-12.7-15.3-1-3.1-2.2-5.9-2.8-6.1-.5-.1-1.6 1.4-2.2 3.5M462 101.5c0 4.9-2.8 14.5-6.2 21.4-3.6 7.5-14.1 18.6-23.3 24.8-7.2 4.9-18.2 10.5-29 14.9-4.3 1.7-8.1 3.6-8.2 4.1-.2.5 3.5 1.6 8.1 2.3 15.4 2.4 36.1-1.7 54-10.5l6.9-3.4-.7 4.5c-1.8 13.2-14 25.5-37.4 37.4-4.5 2.3-8.2 4.4-8.2 4.7 0 1.4 14.6-1.3 24-4.3 19.5-6.4 35.8-16 46.5-27.6 8.7-9.3 11.8-15.5 12.3-24.9.4-7.5-1.6-17-3.9-18.4-.4-.3-1.8 1.4-2.9 3.9-6 12.6-9.8 10-21.7-14.4-3.3-6.9-7-13.6-8.2-15l-2-2.5zM250.5 119.4c-11.6 2-20.2 4.2-28 7.1-38 14.3-69.9 47.7-80.8 84.5-4.9 16.8-5.2 18.8-5.2 39 .1 17.1.3 20.7 2.4 29 4.8 19.1 11.9 34.3 23.3 49.5 13.7 18.2 28.4 29.1 56.3 41.5 6.1 2.8 24.4 7.4 34.5 8.8 11.5 1.6 37.7.7 49.5-1.7 32.3-6.5 58.2-21.7 78.7-46.1 21.4-25.7 31.9-61.5 27.7-95-5.5-44.5-35.7-85.6-77.2-105-8.5-4-24.6-9-35.2-11-9.8-1.8-36.9-2.1-46-.6m15 21.5c-10 3.6-23.5 11.7-23.5 14.1 0 .4 1.6 1.1 3.6 1.5 7.5 1.4 10.1 7.1 6.8 15.1-3.4 8.3-21.4 27.5-35.8 38.3-9.2 6.9-23.5 14.6-28.9 15.6-3.3.7-4.3.3-7.7-2.4l-3.9-3.1-2 5.5c-2 5.3-4.2 15.6-5.9 28l-.8 6-1.3-4c-.7-2.2-1.5-8.7-1.8-14.5-2-38.3 19.7-73.5 56.2-91 15.5-7.5 28.2-10.8 41.5-10.8l8.5-.1zm52.2 13.4c14 5.6 23.7 12 34.8 23.3 12.6 12.7 20.5 26.3 25.2 43.5 1.4 5 1.8 10.2 1.8 23.4 0 15.8-.2 17.6-2.9 26-8.7 27.9-26.9 46.9-52.1 54.7-7.3 2.2-9 2.2-5 .1 4.1-2.2 15-11.1 20.6-17 13.7-14.2 22.4-34.7 23.8-56.3 1.9-28.6-6.8-53.9-26.1-76.1-7-8-19-17.8-26-21.1-12.7-6.1-8.9-6.4 5.9-.5m-94 74.9c-4.4 6.3-10.2 16.5-12.6 22.1-2.3 5.6-2.6 7.4-2.6 19.7 0 12.4.2 14 2.7 19.7 1.4 3.4 2.1 5.9 1.5 5.7-1.8-.8-7.1-8.3-10.8-15.4-3.1-6-3.4-7.2-3.4-15.5 0-8 .3-9.7 2.9-14.8 2.9-5.6 12.3-15.9 19.5-21.2 4.3-3.1 4.8-3.1 2.8-.3m146.7 93c-11.7 18.8-26.4 30.7-45.6 37.1-8.5 2.9-19.6 5.3-20.4 4.4-.3-.3 1.9-1.4 4.8-2.5 19.8-7.4 42-21.5 54.4-34.6 4.3-4.6 8.2-8.4 8.7-8.5.4 0-.5 1.8-1.9 4.1"/><path d="M218.7 166.4c-7.2 3-12.3 6.4-19.9 13.5-10.9 10.1-21.1 28.6-17.8 32.5 4.9 6.1 25.9-6.2 38.6-22.6 6.1-7.8 9.4-15.2 9.4-21.1 0-4.2-.2-4.7-2.2-4.7-1.3 0-4.9 1.1-8.1 2.4M130.6 133.6c-3.3 3.2-1.3 7.4 3.6 7.4 3.8 0 5.5-3.3 3.3-6.6-1.8-2.8-4.6-3.1-6.9-.8M27.6 159.2c-.2.7-1.2 4.4-2.1 8.2-2.8 12.1-7.2 17.7-17.8 23.1-3.2 1.5-5.7 3.2-5.7 3.6 0 .5 2.1 1.7 4.6 2.8 10.7 4.8 15.5 11.3 19.4 26.3 1.3 5 2.8 8.8 3.5 8.8s1.8-2.1 2.5-4.8c2.5-9.6 4.1-14 6.9-18.4 3.1-4.9 5.8-7.1 13.9-11.3 2.8-1.5 5.2-3 5.2-3.5 0-.4-2.9-1.9-6.4-3.4-10.4-4.4-14.8-10.1-19.7-25.4-2.2-6.9-3.5-8.7-4.3-6M496 178.8c0 .5-1.6 3.4-3.5 6.6l-3.5 5.8 6.5 7.1c7.5 8.2 13.5 19.6 16.1 30.4 2.3 10.2 1.6 30.9-1.6 40.8-5 15.6-14.2 29.9-26.3 41-3.9 3.6-6.5 6.5-5.7 6.5 1.8 0 19-9.2 26.4-14.3 7.8-5.2 18.2-15.6 23-22.9 6.1-9.1 9.6-21 9.6-32.2 0-21.4-8.5-38.9-29.4-60.2-8.3-8.5-11.6-10.9-11.6-8.6M57.9 218.3c-25.8 17.6-38.3 38.7-35 58.8 1.5 9.2 4.9 15.7 11.6 22.3 6.4 6.4 14.4 11.4 24.7 15.5 9.8 4 11.3 3.9 6.2-.4-4.7-4-14.4-15.6-16.7-20-2.7-5.4-5.7-15.8-6.3-21.9-1.6-17 5.6-35.8 21.3-55.4 1.9-2.3 3.1-4.2 2.6-4.1-.4 0-4.2 2.4-8.4 5.2"/><path d="M473.9 217.9c-7.5 7.6.2 19.5 10.5 16.1 4.2-1.3 6.6-4.8 6.8-9.7.1-2.9-.5-4.2-3-6.5-4.5-4-10.2-3.9-14.3.1M86.9 222.2c-2.5 9.3-7.5 16-14.1 18.9-1.6.6-2.8 1.5-2.8 2s2.5 2.4 5.5 4.3c5.6 3.6 8.6 8 11 16 .7 2.2 1.7 4.2 2.2 4.3.6.2 2.1-2.6 3.3-6.2 2.7-8.2 5.2-11.2 12.4-14.9 3.1-1.6 5.6-3.1 5.6-3.2 0-.2-2.2-1.5-4.9-2.8-7.4-3.8-9.6-7.1-14.6-21.4-.9-2.4-2.4-1.1-3.6 3M450.4 233.7c-1.8 8.4-4.7 16.4-7.2 19.9-2.6 3.6-8.6 7.3-16.6 10.4-3 1.1-3.4 2.8-.8 3.7.9.3 4.5 1.9 7.9 3.5 7.9 3.6 11.3 8.2 15 19.9 1.8 6.1 3.2 8.9 4.1 8.7.8-.2 2.4-3.5 3.6-7.3 4.6-14.3 8.9-19.4 20-23.8 3.3-1.4 6.2-2.9 6.3-3.3.2-.5-2.4-2-5.8-3.4-12.2-4.8-16.3-9.3-20-21.5-1.1-3.9-2.2-7.6-2.4-8.3-.8-2.2-3.5-1.2-4.1 1.5M92.8 279c-2.5 2.6-2.9 3.6-2.4 6.3.8 4.2 4 6.7 8.5 6.7 7.4 0 10.9-8.3 5.6-13.5-3.4-3.5-7.8-3.3-11.7.5M422.1 312.9c36.3 18.3 51.5 38.2 42.6 55.6-5.2 10.2-22.7 23.5-46.1 35-4.4 2.1-7.5 4-6.8 4.3.6.2 6.3-1.1 12.7-2.8 37.9-10.1 60.8-25.2 64-42.2.9-4.9-1.8-14.9-5.5-20.3-3.9-5.6-14.2-14.4-22.3-18.9-12.3-6.9-35-14.9-45.5-16-4.5-.5-4.2-.3 6.9 5.3M121.2 310.1c-10.8 2.8-26.7 9.4-35.2 14.7-9.4 5.8-18.9 14.8-22.2 21-8.3 15.2-1 32.4 19.2 45.8 11.8 7.8 39.1 17.6 58 20.8l3.5.6-3.5-1.7c-26.9-13-37.3-19.5-46.1-29.1-8.1-8.9-11.3-15.8-11.3-24.2.1-15.2 12.1-28.9 38.9-44.7 9.8-5.7 9.7-6.1-1.3-3.2M518.9 322.9c-2.4 1.6-6.5 5-9 7.7-6.2 6.5-16.2 20.8-14.9 21.2 1.2.4 8.1-3.8 11.8-7.1 1.2-1.1 2.2-1.6 2.2-1 0 2.2-4.4 15.2-9.5 28.3-8.6 21.8-10.5 27-9.6 27 .4 0 5.5-5.3 11.2-11.7 10.1-11.3 14.6-15.8 21.8-21.9 4.9-4.1 4-2.1-9.1 18.9-6.1 9.8-10.8 18-10.5 18.3 1.6 1.6 53.4-17.3 53-19.3-.4-2.2-8.2-3.5-18-3l-10.3.6 6.7-8.7c9.9-13 13.9-23 9.7-24.6-5-1.9-15.9 2-25.1 9-1.8 1.4-3.3 2.1-3.3 1.7 0-.5 1.8-5.3 4-10.6 4.4-10.9 7-19.9 7-24.6 0-4-2.1-4.1-8.1-.2"/><path d="M393.5 332c-.9 1.5 1.1 3.6 7.5 8 19.7 13.3 18.2 26.1-4.5 38.5-32.2 17.6-101.3 25.3-170.7 18.9-35.2-3.2-64.2-10.7-81.4-21-7.6-4.6-10.9-7.8-13.5-13l-2-4.3 2.1-4.9c2.2-5 6-8.8 15-14.7 2.7-1.8 4.6-3.9 4.8-5.3.3-2 0-2.2-5-2.2-6.7 0-17.9 3.1-27.5 7.5-13.7 6.3-21.2 17-18.3 26.2 3.1 9.4 12.6 18.1 28.5 26 44.8 22.3 147.8 31 221.5 18.7 35.7-5.9 65.7-15.4 80.7-25.4 24.1-16.3 23.2-33.7-2.4-46.1-12.7-6.1-32.8-10.1-34.8-6.9"/><path d="M158.3 348.9c-6.9 5-9 10.1-6.3 15.1 4.6 8.6 30 17.9 57 21 11.1 1.3 35.3 1.5 37.2.4.7-.5-3.3-1.7-9.8-2.9-20.9-4.2-35.5-10-51.4-20.7-4.7-3.1-10.7-7.9-13.5-10.7-2.9-3-5.8-5.1-7.1-5.1-1.1 0-3.9 1.3-6.1 2.9M376.5 350c-14.3 14.7-37.8 26.6-70 35.4-8.7 2.4-8.9 2.4-4.5 2.7 29.3 1.6 69.3-6 84-15.9 9.3-6.3 11.4-11.4 7.4-17.9-1.8-2.9-7.3-7-10.4-7.8-2-.5-3.3.2-6.5 3.5M14.8 355.5c-.4.4 1.9 4.2 5.1 8.4 7.6 10 23.1 33.9 30.9 47.6.6 1.1 0 .7-6.4-4.3-8-6.3-26.1-11.6-30-8.8-1.6 1.3-1.3 1.8 4.4 7.1 3.4 3.1 6.2 6.1 6.2 6.7 0 .5-2.4.7-5.7.4-6-.5-15.1.8-16.7 2.4s1.9 5.5 9.3 10.4c23.9 15.9 79.3 34 124.4 40.7 17.4 2.5 48.2 3.8 47.6 2s-12.7-6.9-31.9-13.6c-15.8-5.5-38.1-15.2-39.3-17.2-.3-.5 3.3-.1 8.1.9 11.8 2.4 30.6 2.5 39.2.3 12.9-3.3 15.7-5.6 8.7-7-1.7-.4-8.1-2-14.2-3.6-36.6-9.8-59-18.6-76.4-30-4.1-2.7-7.6-4.7-7.9-4.5-.4.4 2 10.6 4.4 19.1 1.1 3.6-1.2.3-8.1-11.5-12.3-21.3-24.9-35.9-36.2-41.8-6-3.2-14.1-5.1-15.5-3.7M472 396c-16.5 10.1-50.1 21.7-84.7 29-14.9 3.2-43.7 9-44.8 9-3.3.2 3.6 2 13 3.5 17 2.7 57.2 2.4 70-.5l4-.9-2.5 1.9c-1.4 1.1-2.9 2-3.5 2-.5 0-2.3.7-4 1.6-5.3 2.8-31.6 11-49.3 15.5l-17.3 4.3-10.3-3.6-10.4-3.6-13.3 6.2c-16.2 7.6-26.1 11.6-28.7 11.6-1 0-9.7-3.2-19.3-7l-17.4-7.1-11 4.1c-6 2.2-15.5 5.5-20.9 7.3-5.5 1.8-10.1 3.7-10.3 4.2-.2.6 3.6 2.1 8.4 3.4 13.2 3.6 28.7 9.3 49.7 18.3l18.8 8.1 9.2-4.3c30.8-14.3 40-17.4 62.8-21 41.2-6.7 50.7-8.4 64.2-11.6 44.2-10.3 80.5-24.4 92-35.6 6.1-6.1 7.6-8.5 7.6-12.6 0-4.2-3.5-6.1-15.5-8.5-12.6-2.5-18.1-1.9-22.2 2.3l-2.9 3-1.3-10.3c-1.4-10.7-1.9-12.7-3-12.7-.3 0-3.5 1.8-7.1 4"/><path d="M194.5 416.2c-6 17.4-6.8 18.3-20.9 26.3l-4.9 2.8 5.2 2.6c10.7 5.4 14.2 9.7 19.5 24.4 1.6 4.3 3.3 7.6 3.9 7.4s2.3-4.4 3.9-9.4c3.4-11.2 8.7-17.7 17.3-21.4 3-1.3 5.5-2.7 5.5-3.1 0-.5-2.1-1.8-4.7-3-11.3-5.2-15.9-10.2-20.3-22.1q-3.15-8.25-4.5-4.5M142.5 491.2c9.3 5.7 36.8 14.7 61 19.8 21.3 4.5 35.1 7.8 42 10.2 7.7 2.6 23.9 10.5 33.7 16.4l7.8 4.6 2.8-2c5.2-3.7 26.9-15.1 37.4-19.5 5.6-2.4 18.2-7.1 27.8-10.5 24.4-8.4 48-18.1 48-19.8 0-.4-2.1-.4-4.7 0-7.6 1.1-39.4 4.6-56.3 6.2-3.6.3-7.8 1.1-9.5 1.7-6.3 2.3-27.3 12.6-34.9 17.1l-7.8 4.6-8.2-4.5c-4.4-2.5-13.7-7.3-20.4-10.7l-12.4-6.1-24.1-.9c-24.9-.9-60.1-4.1-80.7-7.3-3.1-.5-3.3-.4-1.5.7"/></svg>