<?xml version="1.0" standalone="no"?>
<!DOCTYPE svg PUBLIC "-//W3C//DTD SVG 20010904//EN"
 "http://www.w3.org/TR/2001/REC-SVG-20010904/DTD/svg10.dtd">
<svg version="1.0" xmlns="http://www.w3.org/2000/svg"
 width="1024.000000pt" height="1024.000000pt" viewBox="0 0 1024.000000 1024.000000"
 preserveAspectRatio="xMidYMid meet">
<metadata>
Created by potrace 1.16, written by Peter Selinger 2001-2019
</metadata>
<g transform="translate(0.000000,1024.000000) scale(0.100000,-0.100000)"
fill="#000000" stroke="none">
<path d="M5210 9067 c-25 -8 -94 -35 -155 -61 -60 -26 -169 -72 -241 -101 -72
-29 -189 -79 -260 -110 -290 -128 -339 -164 -448 -333 -185 -285 -611 -1071
-733 -1352 -48 -111 -45 -109 -263 -191 -179 -67 -449 -200 -582 -287 -124
-82 -226 -179 -262 -251 -33 -65 -36 -172 -7 -229 25 -48 132 -150 196 -189
104 -61 287 -126 500 -177 190 -45 183 -42 195 -84 5 -20 10 -47 10 -60 0 -13
11 -78 25 -145 76 -366 217 -645 475 -936 l92 -104 -4 -171 c-3 -156 -5 -175
-27 -219 -42 -86 -90 -113 -689 -378 -652 -289 -866 -401 -1005 -526 -162
-145 -281 -329 -383 -588 -133 -341 -242 -958 -190 -1078 17 -39 91 -112 128
-126 83 -31 607 -97 1163 -146 159 -13 325 -25 820 -57 136 -9 444 -13 965
-12 684 0 798 2 1080 22 801 56 1516 139 1654 192 38 14 94 60 116 95 40 65
42 110 15 348 -14 122 -30 236 -35 253 -13 40 -45 69 -155 142 -245 163 -400
350 -466 562 -32 100 -32 268 -1 383 64 235 226 459 437 603 79 54 184 114
200 114 12 0 3 -44 -27 -132 -25 -74 -32 -115 -36 -202 -5 -125 7 -193 49
-279 38 -78 55 -100 170 -230 182 -205 233 -362 185 -570 -19 -82 -46 -137
-96 -197 -63 -76 -63 -137 1 -159 71 -25 147 -7 316 75 349 170 584 409 706
719 59 148 78 262 84 485 6 224 -6 333 -62 565 -57 237 -192 589 -259 678 -15
19 -40 40 -57 47 -33 14 -93 8 -116 -12 -8 -6 -56 -73 -106 -147 -102 -151
-234 -296 -302 -332 -55 -29 -66 -19 -54 44 36 182 43 243 43 407 1 230 -23
349 -104 510 -73 146 -293 440 -392 524 -36 31 -49 36 -93 36 -81 0 -96 -22
-107 -157 -28 -349 -130 -567 -433 -928 -282 -336 -357 -439 -444 -609 -27
-55 -62 -137 -77 -183 -17 -52 -32 -83 -41 -83 -20 0 -223 89 -373 163 -218
108 -241 148 -244 412 l-1 152 79 84 c291 309 474 704 511 1106 4 40 12 77 19
82 7 6 68 22 137 36 339 71 563 163 684 281 72 71 95 122 95 213 0 89 -12 114
-99 204 -152 158 -433 316 -827 466 -87 34 -164 68 -171 77 -6 8 -32 66 -57
127 -25 62 -93 229 -152 372 -174 426 -236 586 -229 593 5 6 117 -22 564 -138
185 -48 246 -51 290 -14 36 30 48 78 31 128 -8 26 -80 102 -263 282 -277 272
-692 658 -737 687 -37 24 -114 30 -170 14z"/>
</g>
</svg>
