<?xml version="1.0" standalone="no"?>
<!DOCTYPE svg PUBLIC "-//W3C//DTD SVG 20010904//EN"
 "http://www.w3.org/TR/2001/REC-SVG-20010904/DTD/svg10.dtd">
<svg version="1.0" xmlns="http://www.w3.org/2000/svg"
 width="1024.000000pt" height="1024.000000pt" viewBox="0 0 1024.000000 1024.000000"
 preserveAspectRatio="xMidYMid meet">
<metadata>
Created by potrace 1.16, written by Peter Selinger 2001-2019
</metadata>
<g transform="translate(0.000000,1024.000000) scale(0.100000,-0.100000)"
fill="#000000" stroke="none">
<path d="M6700 9480 c-460 -84 -1194 -216 -1585 -285 -203 -36 -404 -72 -445
-80 -41 -8 -129 -24 -195 -35 -66 -12 -230 -41 -365 -65 -543 -98 -922 -166
-1060 -189 -190 -33 -354 -62 -520 -92 -74 -14 -223 -40 -331 -59 -238 -41
-298 -66 -399 -165 -70 -69 -111 -139 -135 -231 -22 -83 -22 -6860 0 -6964 22
-102 59 -169 141 -255 79 -82 134 -117 229 -147 58 -17 177 -18 3080 -18
l3020 0 70 22 c128 40 262 158 324 284 66 135 61 -139 59 3631 l-3 3423 -23
57 c-26 63 -101 153 -166 197 -88 60 -99 61 -562 61 -371 0 -424 2 -438 16
-14 13 -16 59 -16 349 0 388 -3 406 -89 494 -115 118 -187 124 -591 51z m264
-396 c3 -9 6 -125 6 -259 l0 -244 -35 -7 c-30 -5 -2753 2 -2822 8 -13 1 -20 5
-15 8 4 4 178 36 387 73 361 64 887 157 1115 198 58 10 265 48 460 84 195 36
418 77 495 90 77 14 185 33 240 44 128 24 161 25 169 5z m1195 -899 c16 -8 31
-22 35 -30 3 -9 6 -1525 6 -3368 0 -3346 0 -3351 -20 -3393 -16 -32 -34 -48
-79 -73 l-59 -31 -2929 2 -2928 3 -48 28 c-31 18 -55 42 -70 70 l-22 42 -3
3345 c-1 1840 0 3355 3 3367 13 56 -197 52 3073 53 2625 0 3017 -2 3041 -15z"/>
<path d="M4140 7535 c-511 -79 -943 -362 -1245 -815 -94 -141 -181 -332 -229
-500 -47 -169 -71 -440 -56 -644 29 -405 172 -748 443 -1062 291 -337 641
-538 1063 -611 140 -24 469 -24 620 0 343 54 620 181 878 401 413 351 641 811
663 1336 19 456 -111 862 -385 1205 -172 214 -403 402 -642 521 -165 82 -271
118 -477 160 -107 22 -514 28 -633 9z m438 -385 c642 -70 1145 -526 1283
-1163 26 -121 35 -317 20 -430 -7 -49 -25 -139 -40 -200 -136 -531 -570 -940
-1124 -1059 -147 -31 -409 -31 -554 0 -285 62 -537 195 -729 387 -257 256
-409 592 -439 965 -12 147 19 363 76 535 207 623 851 1035 1507 965z"/>
<path d="M4345 6862 c-17 -11 -39 -31 -48 -46 -14 -21 -170 -387 -236 -553 -7
-17 -19 -34 -28 -37 -8 -3 -128 -17 -266 -31 -139 -14 -278 -28 -311 -31 -105
-11 -163 -88 -154 -202 5 -56 5 -57 99 -146 52 -49 155 -143 229 -209 74 -66
140 -126 146 -133 8 -10 -4 -89 -48 -306 -39 -194 -57 -309 -55 -340 9 -103
89 -166 199 -156 44 4 85 23 238 108 102 56 216 120 255 143 l69 40 46 -24
c25 -14 131 -72 235 -129 262 -143 255 -140 326 -140 94 0 142 36 169 127 11
37 7 69 -50 353 -60 304 -62 313 -44 330 11 10 109 100 219 200 110 100 210
199 222 219 27 42 31 127 9 169 -16 30 -50 64 -82 80 -21 11 -178 29 -444 53
-69 6 -142 15 -163 20 -44 12 -32 -12 -184 349 -118 282 -135 303 -245 308
-58 2 -79 -1 -103 -16z m155 -762 c33 -79 71 -155 83 -168 35 -38 72 -49 215
-63 74 -7 140 -18 148 -24 12 -8 -5 -29 -92 -110 -59 -54 -113 -114 -120 -132
-20 -48 -17 -96 16 -255 16 -78 28 -143 26 -145 -1 -2 -63 31 -137 72 -128 72
-137 75 -199 75 -58 0 -73 -4 -135 -41 -109 -64 -185 -100 -196 -94 -5 4 -7 9
-5 13 2 4 18 78 36 164 27 134 30 163 20 192 -8 25 -48 70 -131 147 -66 62
-118 114 -115 116 2 2 76 12 165 22 217 24 215 22 308 257 26 67 49 122 50
121 1 -1 29 -67 63 -147z"/>
<path d="M6409 4703 c-53 -48 -69 -86 -69 -166 0 -73 22 -116 79 -154 l34 -23
568 0 568 0 37 32 c101 88 96 243 -9 319 l-40 29 -563 0 -564 0 -41 -37z"/>
<path d="M5764 3926 c-50 -53 -69 -118 -55 -193 8 -38 19 -56 59 -95 l51 -48
878 0 878 0 37 25 c106 72 118 227 23 314 l-45 41 -891 0 -892 0 -43 -44z"/>
<path d="M4955 3191 c-75 -45 -112 -125 -100 -215 6 -43 15 -58 55 -98 l47
-48 1309 0 1309 0 38 25 c65 44 102 153 78 227 -6 19 -32 54 -57 79 l-45 44
-1302 3 c-1255 2 -1303 1 -1332 -17z"/>
<path d="M3795 2438 c-11 -6 -33 -22 -48 -37 -104 -95 -76 -273 50 -327 50
-21 3751 -21 3792 0 41 22 88 80 100 123 24 86 8 144 -58 208 l-42 40 -1887 2
c-1366 2 -1893 -1 -1907 -9z"/>
</g>
</svg>
