<?xml version="1.0" standalone="no"?>
<!DOCTYPE svg PUBLIC "-//W3C//DTD SVG 20010904//EN"
 "http://www.w3.org/TR/2001/REC-SVG-20010904/DTD/svg10.dtd">
<svg version="1.0" xmlns="http://www.w3.org/2000/svg"
 width="1024.000000pt" height="1024.000000pt" viewBox="0 0 1024.000000 1024.000000"
 preserveAspectRatio="xMidYMid meet">
<metadata>
Created by potrace 1.16, written by Peter Selinger 2001-2019
</metadata>
<g transform="translate(0.000000,1024.000000) scale(0.100000,-0.100000)"
fill="#000000" stroke="none">
<path d="M4954 8544 c-238 -147 -408 -242 -643 -358 -482 -238 -800 -336
-1321 -408 -66 -9 -226 -13 -532 -13 -436 0 -438 0 -453 -22 -19 -27 -21 -357
-5 -873 28 -946 116 -1614 296 -2243 210 -734 522 -1254 1065 -1768 246 -235
439 -387 744 -590 360 -239 952 -569 1021 -569 68 0 725 372 1074 608 734 497
1215 1035 1518 1697 220 480 384 1168 461 1930 35 349 70 1145 71 1607 l0 168
-29 32 c-24 27 -35 32 -72 32 -24 -1 -181 -4 -349 -9 -206 -5 -346 -4 -433 4
-388 34 -814 142 -1185 300 -272 116 -658 322 -936 498 -57 36 -110 63 -126
63 -15 0 -83 -35 -166 -86z m421 -1428 c254 -75 482 -237 607 -431 240 -372
240 -763 -1 -1130 -127 -194 -360 -358 -605 -425 -39 -11 -77 -28 -83 -37 -18
-24 -19 -903 -1 -921 8 -8 63 -12 183 -12 169 0 231 -8 247 -32 4 -7 8 -70 8
-139 0 -100 -3 -129 -15 -139 -11 -9 -69 -12 -207 -12 -159 0 -196 -3 -210
-16 -16 -13 -18 -34 -18 -152 0 -92 4 -140 12 -148 8 -8 53 -12 136 -12 118 0
157 -7 174 -34 4 -6 8 -66 8 -133 0 -111 -2 -123 -19 -133 -12 -6 -128 -10
-307 -10 -253 0 -290 2 -306 17 -17 15 -18 58 -18 938 l0 922 -23 21 c-12 11
-44 26 -72 32 -235 53 -489 242 -619 462 -218 368 -215 757 9 1097 137 207
369 372 605 429 47 12 94 23 105 26 11 3 88 3 170 2 127 -3 164 -7 240 -30z
m-428 -3443 c-1 -257 -2 -49 -2 462 0 512 1 722 2 468 2 -254 2 -672 0 -930z"/>
<path d="M4988 6840 c-147 -26 -248 -80 -364 -195 -104 -103 -152 -177 -197
-310 -28 -82 -31 -101 -31 -220 0 -176 27 -276 108 -397 70 -107 203 -221 310
-269 164 -72 401 -82 569 -24 169 59 326 210 407 389 84 186 81 444 -6 619
-37 74 -123 184 -187 239 -136 118 -267 168 -447 174 -63 1 -136 -1 -162 -6z"/>
</g>
</svg>
