<?xml version="1.0" standalone="no"?>
<!DOCTYPE svg PUBLIC "-//W3C//DTD SVG 20010904//EN"
 "http://www.w3.org/TR/2001/REC-SVG-20010904/DTD/svg10.dtd">
<svg version="1.0" xmlns="http://www.w3.org/2000/svg"
 width="1024.000000pt" height="1024.000000pt" viewBox="0 0 1024.000000 1024.000000"
 preserveAspectRatio="xMidYMid meet">
<metadata>
Created by potrace 1.16, written by Peter Selinger 2001-2019
</metadata>
<g transform="translate(0.000000,1024.000000) scale(0.100000,-0.100000)"
fill="#000000" stroke="none">
<path d="M5097 9163 c-8 -16 -85 -242 -172 -503 -87 -261 -162 -481 -168 -487
-7 -10 -129 -13 -548 -13 l-539 0 0 -24 c0 -26 3 -28 545 -421 149 -108 278
-204 288 -214 18 -18 13 -34 -147 -522 -91 -278 -166 -517 -166 -532 0 -21 5
-27 21 -27 22 0 63 29 613 424 174 125 295 206 305 203 9 -2 210 -143 446
-312 237 -170 440 -310 453 -313 19 -4 22 0 22 29 0 19 -74 257 -165 529 -91
272 -165 498 -165 502 0 4 57 50 128 102 70 52 258 190 417 308 241 178 291
219 293 241 l3 27 -523 0 c-404 0 -528 3 -540 13 -16 11 -44 93 -263 737 -45
135 -86 253 -90 263 -11 25 -33 21 -48 -10z m82 -848 c27 -76 48 -143 45 -147
-7 -11 -176 -10 -194 2 -13 8 -8 30 34 155 27 80 53 142 57 138 5 -5 31 -71
58 -148z m-535 -391 c9 -3 16 -13 16 -21 0 -26 -52 -163 -62 -163 -11 0 -244
166 -253 180 -7 11 272 14 299 4z m652 -2 c6 -4 16 -17 22 -29 17 -31 115
-314 111 -317 -45 -39 -297 -216 -306 -216 -8 0 -70 41 -140 91 -69 50 -132
93 -140 96 -35 14 -32 39 24 204 31 90 62 167 67 171 6 4 88 8 181 8 94 0 175
-4 181 -8z m581 0 c8 -5 -31 -40 -113 -101 -69 -51 -127 -91 -130 -88 -5 5
-64 178 -64 189 0 10 291 10 307 0z m-1040 -656 c40 -28 72 -55 72 -61 0 -13
-289 -219 -296 -211 -3 3 21 82 53 175 67 194 49 183 171 97z m737 -100 c62
-176 59 -166 47 -166 -13 0 -291 199 -291 208 1 12 175 130 182 124 4 -4 32
-78 62 -166z"/>
<path d="M4352 6366 l-47 -45 0 -91 0 -91 47 -45 c34 -32 55 -44 77 -44 18 0
40 -9 51 -20 19 -19 20 -33 20 -387 0 -364 -1 -369 -24 -423 -13 -30 -105
-224 -205 -430 -100 -206 -219 -451 -264 -545 -45 -93 -208 -424 -363 -735
-401 -806 -460 -928 -479 -994 -24 -83 -17 -240 14 -311 53 -120 173 -230 290
-265 65 -20 86 -20 1666 -18 l1600 3 55 22 c161 65 282 234 297 414 10 115 -7
168 -144 447 -69 141 -172 352 -228 467 -56 116 -234 478 -395 805 -160 327
-358 730 -438 895 l-147 300 0 385 0 385 57 5 c48 4 63 11 92 39 93 91 85 237
-18 300 -33 21 -43 21 -750 21 l-717 0 -47 -44z m941 -1470 c67 -20 106 -53
133 -110 28 -59 30 -102 9 -153 -21 -51 -41 -71 -100 -101 -64 -32 -117 -32
-183 2 -57 29 -88 67 -108 132 -29 98 37 199 156 235 36 11 42 10 93 -5z
m-378 -715 c111 -50 175 -199 131 -305 -36 -85 -142 -158 -231 -158 -58 0
-138 37 -177 80 -131 150 -70 338 132 403 33 11 95 2 145 -20z m1301 -759 c6
-4 112 -207 234 -451 238 -474 248 -499 217 -571 -20 -46 -48 -75 -100 -102
l-42 -23 -1400 0 -1400 0 -52 27 c-72 38 -108 99 -108 183 0 58 6 72 219 495
120 239 224 438 230 442 6 4 502 8 1101 8 600 0 1095 -4 1101 -8z"/>
<path d="M5305 3202 c-44 -27 -91 -85 -105 -127 -7 -21 -10 -63 -8 -95 7 -98
73 -172 170 -190 157 -30 277 62 278 213 0 74 -16 111 -74 167 l-47 45 -92 3
c-76 2 -97 0 -122 -16z"/>
<path d="M4405 2941 c-80 -37 -125 -111 -125 -203 1 -92 60 -180 139 -207 42
-14 124 -14 170 -1 42 12 96 62 122 112 23 45 26 156 5 196 -20 37 -85 99
-119 111 -45 17 -147 13 -192 -8z"/>
<path d="M2815 4953 c-163 -22 -310 -117 -404 -263 -102 -158 -118 -375 -40
-536 34 -71 123 -160 197 -196 59 -29 78 -33 164 -36 125 -5 179 12 252 79 70
63 99 129 100 224 0 59 -4 78 -26 116 -15 25 -43 58 -62 72 -29 23 -45 27 -99
27 -75 0 -97 -16 -97 -72 0 -28 7 -42 29 -61 82 -68 70 -139 -31 -181 -39 -17
-67 -12 -135 22 -53 27 -86 68 -112 137 -61 163 19 334 197 422 72 36 81 38
171 38 90 0 101 -2 173 -36 42 -20 96 -56 121 -78 52 -48 119 -169 142 -257
32 -122 11 -301 -54 -470 -51 -132 -153 -299 -345 -564 -296 -409 -398 -594
-453 -820 -26 -109 -26 -406 1 -505 67 -248 251 -457 488 -552 202 -82 499
-85 776 -7 429 121 658 155 823 124 77 -15 185 -68 221 -109 49 -56 81 -135
75 -186 -10 -98 -110 -195 -197 -195 -105 1 -183 96 -139 169 21 36 25 91 7
109 -7 7 -33 12 -59 12 -87 0 -139 -70 -139 -189 0 -81 8 -108 51 -160 73 -92
182 -138 304 -128 106 9 158 31 231 99 92 87 127 161 132 285 8 168 -46 289
-170 381 -111 83 -196 110 -378 119 -218 10 -442 -23 -717 -106 -211 -63 -281
-75 -438 -75 -163 -1 -211 11 -350 82 -124 64 -198 139 -259 263 -63 128 -80
200 -79 329 1 244 97 453 395 866 338 469 444 674 485 939 29 191 -3 413 -80
545 -18 30 -70 94 -117 141 -66 67 -102 94 -160 122 -114 55 -262 78 -395 60z"/>
<path d="M7181 4945 c-227 -41 -426 -240 -492 -492 -15 -59 -20 -110 -21 -208
0 -157 12 -238 57 -371 65 -195 150 -342 403 -691 286 -397 387 -590 423 -808
64 -397 -218 -745 -625 -772 -110 -7 -223 7 -376 47 -351 92 -437 112 -555
126 -154 19 -378 13 -469 -12 -199 -53 -342 -208 -365 -392 -11 -89 1 -190 31
-251 31 -65 126 -157 195 -189 51 -24 70 -27 158 -27 89 0 106 3 157 28 72 35
141 111 163 178 25 75 17 166 -18 213 -53 69 -129 87 -166 40 -26 -33 -26 -54
-1 -104 11 -22 20 -48 20 -58 0 -47 -88 -112 -150 -112 -32 0 -102 31 -134 59
-30 26 -57 90 -63 147 -5 44 -1 62 21 108 44 90 124 142 259 170 179 37 335
18 752 -95 231 -62 339 -79 500 -79 256 0 448 70 611 222 159 149 241 326 263
570 24 255 -46 501 -223 784 -30 49 -109 163 -175 254 -273 376 -373 544 -435
730 -60 180 -70 294 -36 424 40 156 115 253 248 318 83 42 89 43 182 43 91 0
100 -2 172 -38 137 -67 220 -188 221 -322 1 -112 -58 -202 -162 -249 -47 -21
-63 -24 -91 -16 -47 13 -77 36 -95 70 -21 41 -10 74 36 111 33 26 39 36 39 70
0 55 -29 73 -115 67 -55 -3 -69 -8 -96 -33 -71 -68 -96 -178 -64 -276 25 -75
119 -169 193 -194 84 -27 229 -18 305 19 114 55 219 198 248 333 15 77 6 222
-20 295 -43 124 -168 261 -288 319 -116 56 -269 71 -422 44z"/>
</g>
</svg>
