<?xml version="1.0" standalone="no"?>
<!DOCTYPE svg PUBLIC "-//W3C//DTD SVG 20010904//EN"
 "http://www.w3.org/TR/2001/REC-SVG-20010904/DTD/svg10.dtd">
<svg version="1.0" xmlns="http://www.w3.org/2000/svg"
 width="196.000000pt" height="286.000000pt" viewBox="0 0 196.000000 286.000000"
 preserveAspectRatio="xMidYMid meet">

<g transform="translate(0.000000,286.000000) scale(0.100000,-0.100000)"
fill="#000000" stroke="none">
<path d="M1112 2663 c-45 -22 -74 -67 -80 -123 -6 -64 19 -114 73 -145 99 -59
210 -9 236 105 8 37 6 49 -13 89 -30 60 -77 91 -137 91 -25 0 -61 -8 -79 -17z
m117 -73 c10 -5 24 -23 31 -39 30 -73 -68 -135 -126 -80 -65 61 15 162 95 119z"/>
<path d="M750 2372 c-101 -50 -107 -184 -11 -243 61 -37 155 -16 191 43 74
122 -53 264 -180 200z m102 -79 c30 -34 31 -61 4 -88 -32 -32 -60 -32 -92 1
-20 19 -24 31 -19 51 12 50 76 71 107 36z"/>
<path d="M634 1991 c-49 -30 -74 -68 -74 -115 0 -56 27 -106 74 -136 l39 -25
-6 -150 c-3 -82 -10 -165 -16 -183 -10 -32 -131 -257 -343 -634 -127 -226
-141 -263 -136 -348 8 -106 51 -169 152 -223 41 -22 45 -22 620 -25 650 -3
637 -4 719 68 59 52 87 113 87 188 0 81 -8 101 -125 307 -138 244 -242 430
-305 549 -50 93 -54 107 -66 210 -7 61 -13 140 -13 176 0 62 1 66 31 85 52 33
73 70 73 129 0 63 -18 100 -61 126 -29 19 -50 20 -325 20 -270 0 -296 -2 -325
-19z m567 -91 c22 -12 26 -64 7 -76 -7 -5 -37 -11 -67 -15 -74 -10 -83 -31
-40 -87 14 -18 17 -46 18 -158 3 -236 -13 -195 321 -794 54 -96 112 -203 129
-237 50 -101 40 -182 -31 -237 -60 -45 -92 -47 -598 -44 -452 3 -477 4 -514
23 -55 28 -97 84 -103 137 -7 58 12 101 162 368 202 358 266 477 287 532 17
43 21 84 26 222 l5 170 29 27 c20 18 29 34 26 50 -3 22 -9 24 -64 29 -90 7
-131 50 -82 84 19 13 60 16 246 16 135 0 231 -4 243 -10z"/>
<path d="M1011 1084 c-31 -39 -27 -77 10 -108 38 -32 60 -33 95 -2 22 18 28
32 27 60 -1 50 -27 76 -74 76 -29 0 -42 -6 -58 -26z"/>
<path d="M792 900 c-23 -22 -29 -68 -12 -100 23 -43 106 -44 129 -1 31 56 -4
121 -64 121 -18 0 -41 -9 -53 -20z"/>
<path d="M1225 712 c-16 -2 -95 -16 -174 -33 -157 -32 -244 -36 -381 -17 -128
17 -162 -4 -211 -131 -23 -62 -24 -93 -3 -136 30 -63 45 -65 497 -65 245 0
416 4 439 10 49 14 78 55 78 113 0 54 -71 201 -110 229 -29 20 -93 35 -135 30z"/>
</g>
</svg>
