<?xml version="1.0" standalone="no"?>
<!DOCTYPE svg PUBLIC "-//W3C//DTD SVG 20010904//EN"
 "http://www.w3.org/TR/2001/REC-SVG-20010904/DTD/svg10.dtd">
<svg version="1.0" xmlns="http://www.w3.org/2000/svg"
 width="1024.000000pt" height="1024.000000pt" viewBox="0 0 1024.000000 1024.000000"
 preserveAspectRatio="xMidYMid meet">
<metadata>
Created by potrace 1.16, written by Peter Selinger 2001-2019
</metadata>
<g transform="translate(0.000000,1024.000000) scale(0.100000,-0.100000)"
fill="#000000" stroke="none">
<path d="M5057 8393 c-26 -4 -461 -221 -1912 -953 -346 -175 -785 -395 -975
-490 -190 -95 -357 -182 -373 -192 -41 -29 -57 -70 -64 -161 -7 -105 7 -156
53 -196 l35 -31 3298 2 c3282 3 3299 3 3321 23 46 41 55 73 55 192 0 110 0
112 -30 143 -28 29 -450 244 -2575 1312 -621 312 -701 349 -750 352 -30 2 -67
2 -83 -1z"/>
<path d="M2386 6183 c-68 -5 -103 -25 -137 -80 -20 -32 -23 -50 -23 -144 0
-100 2 -110 28 -149 37 -56 79 -80 143 -80 91 0 83 92 81 -968 l-3 -937 -67
-6 c-36 -3 -77 -13 -91 -22 -71 -46 -104 -140 -93 -260 8 -82 24 -117 73 -154
l36 -28 581 -3 c320 -2 600 0 624 3 52 8 116 61 131 108 30 100 19 226 -25
284 -36 47 -65 63 -129 72 -31 4 -61 14 -66 22 -5 8 -8 414 -6 949 l2 935 68
6 c60 5 72 10 103 40 51 49 66 91 67 184 1 101 -14 144 -64 189 l-39 36 -533
0 c-292 0 -548 2 -567 4 -19 2 -62 1 -94 -1z"/>
<path d="M4623 6180 l-142 -5 -36 -35 c-47 -46 -58 -86 -53 -208 l3 -102 46
-46 c44 -43 51 -47 114 -53 41 -5 70 -13 76 -22 5 -8 8 -397 6 -949 l-2 -935
-66 -6 c-79 -6 -127 -38 -158 -103 -26 -52 -30 -207 -7 -259 19 -45 67 -87
112 -98 54 -12 1160 -12 1203 1 46 13 99 65 111 110 17 61 12 200 -9 245 -31
68 -86 105 -156 105 -70 0 -65 -71 -63 968 l3 937 68 6 c59 5 72 10 102 39 54
52 68 101 63 220 l-4 100 -45 46 -45 45 -490 2 c-269 1 -553 0 -631 -3z"/>
<path d="M6615 6149 c-56 -50 -65 -75 -65 -189 0 -117 13 -156 67 -197 24 -19
51 -27 99 -32 40 -5 69 -13 75 -22 5 -8 8 -397 6 -949 l-2 -935 -40 -3 c-106
-6 -148 -30 -187 -106 -18 -35 -21 -57 -20 -144 1 -116 15 -152 75 -194 l32
-23 585 -3 c322 -2 604 0 628 3 54 8 105 52 127 109 13 33 16 68 13 143 -3 92
-5 103 -32 137 -38 51 -82 76 -133 76 -79 0 -73 -81 -71 968 l3 937 68 6 c56
5 72 10 98 35 51 48 69 97 69 197 0 103 -13 140 -64 185 l-37 32 -629 0 -629
0 -36 -31z"/>
<path d="M1971 3144 c-54 -46 -56 -52 -61 -314 l-5 -245 -137 -5 c-128 -5
-138 -6 -163 -30 -53 -49 -55 -61 -55 -308 l0 -228 33 -32 c18 -18 49 -37 68
-42 22 -7 1249 -10 3472 -10 3733 0 3473 -4 3527 54 l25 28 3 244 3 245 -39
40 -40 39 -120 0 c-96 0 -124 3 -136 16 -14 13 -16 49 -16 235 0 245 -5 269
-62 313 l-35 26 -3116 0 -3115 0 -31 -26z"/>
</g>
</svg>
