<?xml version="1.0" standalone="no"?>
<!DOCTYPE svg PUBLIC "-//W3C//DTD SVG 20010904//EN"
 "http://www.w3.org/TR/2001/REC-SVG-20010904/DTD/svg10.dtd">
<svg version="1.0" xmlns="http://www.w3.org/2000/svg"
 width="271.000000pt" height="283.000000pt" viewBox="0 0 271.000000 283.000000"
 preserveAspectRatio="xMidYMid meet">

<g transform="translate(0.000000,283.000000) scale(0.100000,-0.100000)"
fill="#000000" stroke="none">
<path d="M1237 2796 c-277 -116 -529 -395 -634 -701 -13 -38 -48 -169 -78
-290 -29 -121 -92 -337 -139 -480 -101 -305 -114 -371 -92 -448 24 -83 84
-155 190 -231 18 -12 15 -15 -39 -31 -182 -52 -304 -163 -378 -340 -76 -182
-75 -286 1 -259 22 8 30 20 43 69 26 94 78 212 119 266 81 107 171 150 336
157 135 5 181 -7 287 -78 75 -51 159 -130 122 -115 -105 41 -303 84 -336 73
-6 -2 26 -16 72 -32 184 -61 311 -134 492 -282 l91 -74 67 0 c38 0 71 4 74 10
8 13 158 137 220 182 83 60 220 129 328 165 l102 34 -80 -5 c-79 -5 -223 -43
-251 -67 -8 -6 -17 -9 -20 -6 -8 8 125 115 177 142 78 40 164 58 259 52 121
-6 189 -35 265 -112 70 -70 106 -133 155 -270 l35 -100 35 0 c34 0 35 2 38 40
5 52 -21 142 -69 242 -69 144 -193 253 -346 304 -35 11 -63 24 -63 28 0 4 10
12 23 18 49 23 127 105 158 169 45 91 39 144 -44 399 -88 271 -130 415 -167
575 -61 265 -118 413 -223 572 -109 167 -281 323 -443 400 -115 55 -197 62
-287 24z m190 -131 c28 -8 84 -37 124 -63 254 -167 412 -416 492 -772 29 -129
58 -223 149 -485 l62 -180 1 -120 c0 -107 -3 -125 -23 -163 -50 -93 -160 -183
-347 -282 -44 -23 -117 -64 -161 -91 -79 -47 -114 -59 -114 -40 0 10 79 68
250 186 284 194 361 340 297 563 -34 118 -118 288 -196 396 -106 147 -269 290
-362 317 -21 7 -39 16 -39 20 0 16 58 19 110 6 30 -8 57 -13 59 -11 10 9 -38
35 -102 55 -58 19 -82 21 -175 16 -158 -8 -294 -61 -447 -174 -197 -146 -397
-432 -451 -644 -46 -179 39 -347 249 -494 31 -22 101 -73 154 -114 54 -40 110
-79 126 -87 27 -15 37 -44 15 -44 -7 0 -53 23 -103 51 -90 51 -160 89 -269
148 -139 75 -210 137 -247 215 -58 122 -47 223 54 501 62 171 96 289 147 505
60 256 147 417 316 585 120 121 273 211 360 214 11 1 43 -6 71 -14z m129 -837
c110 -46 223 -140 245 -205 15 -45 6 -140 -22 -230 -55 -177 -149 -307 -265
-364 -58 -29 -75 -33 -145 -32 -71 0 -88 4 -154 37 -84 42 -143 101 -206 207
-80 135 -120 309 -86 376 20 38 150 144 221 180 99 51 153 64 256 59 73 -2
109 -9 156 -28z m-454 -955 c24 -34 71 -101 106 -149 34 -47 61 -88 59 -90 -8
-8 -99 25 -205 76 l-112 53 19 21 c25 27 47 79 56 135 8 51 10 49 77 -46z
m582 65 c2 -7 10 -35 17 -62 7 -26 24 -62 38 -78 24 -30 24 -31 5 -45 -46 -36
-279 -131 -291 -120 -2 3 22 43 54 89 173 250 169 244 177 216z m-314 -423 c0
-30 40 -93 77 -124 21 -17 61 -39 90 -48 29 -9 50 -20 48 -24 -3 -4 -36 -17
-74 -28 -77 -23 -99 -46 -131 -129 l-18 -47 -25 56 c-29 65 -69 100 -145 124
-29 10 -51 23 -49 29 2 6 25 17 51 24 63 18 130 82 145 140 11 41 31 58 31 27z"/>
</g>
</svg>
