<svg xmlns="http://www.w3.org/2000/svg" width="1365.333" height="2048" version="1.0" viewBox="0 0 1024 1536"><path d="M511 287.1c-4.7 22.8-10.8 27.5-41 31.4-6.3.8-12.8 1.9-14.5 2.5-2.8.9-2.8 1 1 .5 2.2-.2 6.7-.7 10-.9l6-.5-5.5 1c-3 .5-9.7 1.7-14.9 2.6s-8.9 1.9-8.3 2.1 6.9-.6 14-1.7c14.2-2.3 27-2.7 33.7-1 5.9 1.5 12.7 7.5 15.3 13.7 1.2 2.7 2.6 8.2 3.2 12.3 2.3 15.5 2.1 15.3 4.1 3.6 4.7-27.3 14-33.3 45.9-29.3 7.4 1 17.8 2.6 23 3.6 14 2.7 17.6 3.2 16.9 2.6-.7-.7-12.6-3.3-25.4-5.6-5.5-1-9.2-1.9-8.2-2 .9-.1 2.3-.3 3-.4.6-.1 3.4.4 6.2 1.1 2.7.7 5.9 1.3 7 1.2 4.3-.2-13.7-3.9-28.8-5.9-19.8-2.6-25.3-4.6-30.9-11.1-4.5-5.1-8.6-14.3-8.8-19.4-.3-6.8-1.6-7-3-.4m5.9 19.6c2.3 4.7 5.7 7.4 11.6 9.4 4.7 1.5 6.6 2.9 4.2 2.9-5.4 0-14.8 7.8-17.9 14.8-1.8 3.9-3.8 4.9-3.8 1.8 0-2.4-6.1-10.4-9.8-12.8-2.1-1.4-5.2-2.9-7-3.3-1.8-.3-3.2-1.1-3.2-1.6 0-.6.4-.7 1-.4 1.4.9 8.1-2.9 11.9-6.7 3-2.9 5.1-6.8 7.6-13.3.6-1.7.9-1.6 2 1.6.7 1.9 2.2 5.4 3.4 7.6m44.7 15.1c-1 .2-2.2 0-2.8-.6s0-.7 1.9-.4c2.1.5 2.3.7.9 1M513.7 341c.1 1.1-.2 2.2-.8 2.5-.5.4-.7 2.5-.4 4.8l.5 4.2-1.2-3.4c-.9-2.5-.9-3.8 0-5.2.6-1 .9-2.5.6-3.4-.3-.8-.2-1.5.3-1.5s.9.9 1 2"/><path d="M445.5 323c-1.6.7-1.7.9-.3.9.9.1 2-.4 2.3-.9.7-1.1.7-1.1-2 0M449.8 322.7c.7.3 1.6.2 1.9-.1.4-.3-.2-.6-1.3-.5-1.1 0-1.4.3-.6.6M383.5 330.3c-1.8 2.1-3.7 7.5-3 8.6 1.2 2 2 1.1 2.1-2.4.1-5.5 1.7-6.3 5.9-3.1 2.4 1.9 3.5 2.3 3.5 1.3 0-1.6-2.4-4-3.2-3.2-.3.3-1.1-.1-1.8-1-1.5-1.8-2.2-1.8-3.5-.2M410 332c-.8.5-1 1-.5 1 1.6 0-1.8 2-3.5 2-1.3 0-1.3-.1 0-1.1 1.1-.7.4-.8-2.5-.3-7.1 1.2-9.6 2.4-4 2l5-.5-4 1.9c-5.9 2.7-3.9 2.4 7.2-1.2 7.5-2.4 9.3-3.3 7.8-3.9-2.7-1-3.8-1-5.5.1m3.7.6c-.3.3-1.2.4-1.9.1-.8-.3-.5-.6.6-.6 1.1-.1 1.7.2 1.3.5M608 332.4c0 .2 4.6 2.1 10.3 4.1 5.6 2.1 13.8 5.3 18.1 7.1 4.4 1.9 8.1 3.2 8.4 3 .2-.2-.6-.7-1.7-1.1-1.2-.3-2.1-1-2.1-1.4s-.6-.8-1.2-.9c-.7 0-8-2.5-16.1-5.6-15-5.7-15.7-5.9-15.7-5.2M542 334.2c.3.3 4.3.9 8.9 1.2 12.8 1.1 28.8 4.2 44.6 8.7 15.1 4.3 20.6 6.1 20.1 6.6-.2.3-2.6-.2-5.3-1.1-16.5-5.4-51.1-12.7-49.7-10.5.3.5 1.6.9 3 .9 4.1 0 21.8 3.9 34.3 7.6 34.1 10 67.8 26.1 90.6 43.2 9.4 7.1 9.2 7 7.6 4.9-.7-.9-3.6-3.3-6.2-5.3-2.7-2-4.6-4-4.3-4.6.3-.5 0-.8-.7-.7-1.7.3-8.9-3.9-8.9-5.2 0-.5.5-.9 1.1-.9.5 0 .8.4.4.9-.5.8 3.1 2.7 4.5 2.4.3-.1 4.4 2.6 9 5.9 4.7 3.3 7.7 5.2 6.7 4.1-7.2-8.1-40.2-27.3-62.7-36.5-18.1-7.5-47.4-15.9-66.5-19.2-9.5-1.7-27.3-3.2-26.5-2.4m77.5 17.8c.3.6-.1.7-.9.4-1.8-.7-2.1-1.4-.7-1.4.6 0 1.3.4 1.6 1m11.8 4c.5.4-1 .3-3.2-.3-2.3-.6-4.1-1.4-4.1-1.9 0-.8 6 1 7.3 2.2m25.2 11.9c.3.5-.8.3-2.5-.5-1.6-.9-3.2-2-3.6-2.5-.3-.6.8-.4 2.4.5 1.7.9 3.3 2 3.7 2.5m17.6 10.8c1.3 1.6 1.2 1.7-.3.4-1.7-1.3-2.2-2.1-1.4-2.1.2 0 1 .8 1.7 1.7M466.3 335.7c.9.2 2.5.2 3.5 0 .9-.3.1-.5-1.8-.5s-2.7.2-1.7.5M459.8 336.7c.6.2 1.8.2 2.5 0 .6-.3.1-.5-1.3-.5s-1.9.2-1.2.5M453.8 337.7c.6.2 1.8.2 2.5 0 .6-.3.1-.5-1.3-.5s-1.9.2-1.2.5"/><path d="M545.8 337.7c1.2.2 3.2.2 4.5 0 1.2-.2.2-.4-2.3-.4s-3.5.2-2.2.4M443.5 339c-4.2 1.1-.1 1.1 5 .1 3.4-.7 3.5-.9 1-.9-1.6 0-4.3.4-6 .8M554.3 338.7c.9.2 2.5.2 3.5 0 .9-.3.1-.5-1.8-.5s-2.7.2-1.7.5M393.5 340c-.3.6.1.7.9.4 1.8-.7 2.1-1.4.7-1.4-.6 0-1.3.4-1.6 1M457.8 339.7c.6.2 1.8.2 2.5 0 .6-.3.1-.5-1.3-.5s-1.9.2-1.2.5M638.9 340.4c1.1 1.2 5.1 2.9 5.1 2.1 0-.2-1.4-1-3.1-1.9-2.3-1.2-2.8-1.2-2-.2M750.8 339.5c-.4.4 1.3 3.3 3.7 6.4 10.3 13.1 12.7 26.2 7 37.5-3.3 6.4-14 17.3-20.2 20.5-8 4-16.6 5.4-30.2 4.7l-12.3-.7 2.1 3c6.1 8.5 20.6 18.2 32.6 21.7 13.4 3.9 32.4 1.1 46.7-6.9 20.7-11.6 28.4-37.8 17.8-60.5-4.4-9.4-14.4-19-23.5-22.6-7-2.8-22.1-4.8-23.7-3.1m13.3 4.1c18 5.3 28.9 17.6 32.1 36.2 4.4 25.8-18.1 49.2-47.3 49.2-11.6 0-27.7-5.8-35.9-12.9l-3.4-3 7 .6c21.5 1.8 42.1-9.3 50.6-27.2 2.4-5.1 2.8-7.2 2.8-14.5s-.4-9.4-2.9-14.5c-1.5-3.3-4.4-8.1-6.4-10.8-2-2.6-3.3-4.7-2.9-4.7.5 0 3.3.7 6.3 1.6M389 341.5c-1.4.7-3.4 1.7-4.5 2.1-1.7.6-1.8.8-.3 1.1 2 .5 7.8-2.3 7.8-3.7 0-1.2 0-1.2-3 .5M437.8 340.7c.7.3 1.6.2 1.9-.1.4-.3-.2-.6-1.3-.5-1.1 0-1.4.3-.6.6M424.5 343.3c-4.4 1.1-7.5 2.2-7 2.3.6.2 5.1-.7 10-2 5-1.3 8.1-2.4 7-2.4s-5.6.9-10 2.1M447.8 341.7c.7.3 1.6.2 1.9-.1.4-.3-.2-.6-1.3-.5-1.1 0-1.4.3-.6.6M442.8 342.7c.7.3 1.6.2 1.9-.1.4-.3-.2-.6-1.3-.5-1.1 0-1.4.3-.6.6M367.5 347.3c-4.9 2.3-12 5.9-15.7 7.9-3.6 2.1-6.8 3.8-7.1 3.8-1.3 0-24.5 16.2-26.7 18.6-2.3 2.5-2.1 2.5 2-.6 2.5-1.8 5-3.7 5.6-4.2.6-.4 1.1-.2 1.1.7 0 .7-.5 1.3-1.1 1.2-.5-.1-1 .3-1.1.9 0 .6-4.6 4.8-10.2 9.3-12.5 10-35 31.6-41.8 40.1-2.7 3.5-6.3 7.7-7.9 9.4-1.5 1.7-4.2 5-5.8 7.4-1.6 2.3-3.3 4-3.9 3.7-1.2-.8-1.1-1.1.4-2.7 2.9-3 10.5-13.7 9.4-13.2-2.7 1.3-18.1 23-24.7 34.9-1.8 3.3-4.4 7.7-5.7 9.8-6.2 9.8-19.3 39.5-19.3 43.7 0 1.3.5 1.8 1.5 1.4.9-.4 1.5 0 1.6.7 0 .8 2.2-4 4.8-10.6 13.5-33.9 36.4-70 60.1-94.7 7.8-8.1 25.2-23.5 37-32.8 17.5-13.6 29.2-21.1 45.5-29.2 16.5-8.2 14.3-8.1-3 .2-6.6 3.1-16 8.4-21 11.7-4.9 3.4-9.3 5.9-9.8 5.6-.9-.5 1.1-3.3 2.4-3.3.5 0 3.1-1.6 5.8-3.5 2.6-1.9 5.3-3.5 5.8-3.5s3.1-1.4 5.8-3.1c2.8-1.7 6.6-3.7 8.7-4.5 4.1-1.4 18.9-9.4 17.3-9.3-.5 0-5 1.9-10 4.2m-36.1 23.5c.2.4-.4 1.3-1.4 1.9-1.7 1.1-2 .5-1.1-2.5.2-.5 2-.1 2.5.6m-79.9 81.6c-2.1 3-4.1 5.3-4.6 5s-.6.1-.4.8c.5 1.3-6 12.5-9.1 15.5-.8.8-1.1 1.9-.8 2.5.4.7.2.8-.5.4-.9-.6-.8-1.3.3-3.1.8-1.3 2.9-4.9 4.7-8.2 5.7-10.6 9.9-17.1 11.5-17.7.9-.3 1.2-1.1.8-1.8-.5-1-.4-1 .5-.2 1 .9.5 2.4-2.4 6.8M433.8 344.7c.7.3 1.6.2 1.9-.1.4-.3-.2-.6-1.3-.5-1.1 0-1.4.3-.6.6"/><path d="M403.5 349.4c-37.9 12.7-72.7 34.3-104.4 65.1-15.3 14.7-16.8 16.4-26.7 29.5-16.7 22-28.5 43.4-38.7 70-7.6 19.9-10.1 28.7-13.8 49-3.1 16.8-3.3 18.5-3.3 44-.1 30.3 1.7 45.8 7.9 68.5 6.8 24.9 20.5 54.3 26.7 57.6l2.3 1.2-2.1-2.4c-1.2-1.3-1.9-3.1-1.7-3.9.4-1.3.3-1.3-.5-.1-.8 1.1-2.5-1.7-7.1-11-3.4-6.8-6.1-12.8-6.1-13.4.1-.5 2.5 3.9 5.5 10 3 6 6 11.4 6.6 12 1.4 1.4.3-1.4-6.4-16-14.9-32.5-21.6-68-20.4-108 .4-11 1.3-24.7 2.2-30.4 3.8-25.9 14-57.6 26.3-81.4 8.7-17 26.1-43.9 34.7-53.6 4.7-5.4 5.4-6.6 4.3-8-1-1.3-1-1.4.2-.4 1.1 1 3.6-1 13.4-10.4 6.7-6.4 12.1-12.5 12.1-13.4 0-1 .3-2.1.7-2.5.4-.3.6.3.3 1.5-.2 1.1-.2 2.1 0 2.1.3 0 4.4-3.2 9.2-7 25.5-20.5 51.7-34.8 82.3-45.1 8-2.6 13.9-4.8 13.3-4.9-4.6-.1-34.6 11.1-49.5 18.5-5.8 2.9-11 5-11.4 4.7-.4-.4-.4-.1.1.7.5.9.4 1.2-.3.7-.7-.4-1.2-.9-1.2-1.1 0-1.8 33.8-17.1 47.5-21.5 5.5-1.7 10.2-3.3 10.4-3.6 1.1-1.1-3.3 0-12.4 3M352 376c0 .5-.7 1-1.6 1s-1.2.5-.8 1.2c.5.7.3.8-.6.3-1-.6-.9-1.1.5-2.2 2.2-1.6 2.5-1.6 2.5-.3m-4.4 3.2c.4.7.3.8-.4.4s-1.2-.2-1.2.5-.3 1-.6.6c-.6-.5.3-2.7 1.1-2.7.2 0 .7.5 1.1 1.2m-39.2 30.7c-1.1 1-4.8 4.4-8.3 7.7-3.6 3.2-6.1 5.2-5.6 4.4 1.7-3 14-14.8 14.8-14.3.5.3.1 1.3-.9 2.2M660 354.6c15.7 8.3 35 20.2 43 26.5 2.8 2.2 5 3.6 5 3.2 0-.5-1.5-1.8-3.3-3-1.8-1.3-4.2-3.1-5.3-4.1-4.9-4.4-25.8-16.9-41.1-24.6-16.3-8.2-15.2-6.8 1.7 2M274.9 352.5c-.1.5-.2 1.4-.3 2 0 .5-.7 2-1.4 3.2-.7 1.3-.9 2.3-.5 2.3.4.1-.3.7-1.7 1.5-2.8 1.6-.9 2.1 2 .5 1.1-.6 1.7-1.7 1.4-2.4-.3-.8-.1-1.7.5-2.1.6-.3 1.1.1 1.1.9s1.4 2.5 3.1 3.9l3.1 2.4-2.6 2.1c-1.6 1.2-2.2 2.3-1.6 2.7.5.3 1 .2 1-.3s1.1-1.5 2.5-2.2c3.1-1.7 3.2-3.3.3-5.2-1.3-.9-3.3-3.5-4.5-5.9-1.3-2.4-2.3-4-2.4-3.4M664 352.4c0 .6 9.2 5.7 9.7 5.3.2-.2-1.9-1.6-4.7-3.1-2.7-1.5-5-2.5-5-2.2"/><path d="M269 365c0 .6.6 1 1.3 1 1.2 0 4.7 6.8 4.7 9.1 0 1.7 1.7.1 2.3-2.2.3-1.1.3-1.8 0-1.5s-1.3-.9-2.2-2.6c-1.5-3-6.1-5.8-6.1-3.8M216.8 377.5c-.3.6-.8 2.7-1.2 4.8-2.3 12.6-10.2 20.9-22.6 23.7-8.7 2-8.9 2.2-2.3 3.6 3.4.7 8.9 2.7 12.2 4.3 7.7 3.9 10.6 8.6 12.8 20.8l1.7 8.8 1.7-8.7c1.8-9.3 3.9-13.7 8.6-17.9 3.8-3.4 11.9-7.5 16.6-8.3 4.5-.8 4.9-2.6.6-2.6-6 0-11.9-2.2-16.4-6.2-5.5-4.8-7.4-8.2-9.5-16.8-.9-3.5-1.9-6-2.2-5.5m4.7 19.4c1.9 3.8 8 8.8 12.4 10.2l3.6 1.2-4.6 1.3c-5.6 1.7-12.5 8.3-14.1 13.6l-1.1 3.8-1.6-4.7c-2-6-7.8-10.7-15.6-12.4-5.5-1.2-7.4-2.9-3.2-2.9 1.2 0 4.6-1.1 7.4-2.5 6.3-2.9 10.7-9 11.8-16.3l.7-4.7 1.4 5.3c.8 2.9 2 6.5 2.9 8.1M312 382c-1.4 1.1-2 2-1.4 2s1.9-.9 2.9-2c2.3-2.5 1.7-2.5-1.5 0M710.5 387c1 1.1 2 2 2.3 2s-.3-.9-1.3-2-2-2-2.3-2 .3.9 1.3 2M301 392.1c-3.6 3.4-7.9 7.3-9.6 8.8s-3.4 3.4-3.9 4.2c-1.1 1.7 11.5-9.4 17-15 5.8-6 3.9-5-3.5 2M282.4 409.2l-1.9 2.3 2.3-1.9c1.2-1.1 2.2-2.1 2.2-2.3 0-.8-.8-.2-2.6 1.9M273.9 418.2c-5.9 7-8.5 10.6-5.3 7.2 1.2-1.3 2.5-2 3-1.6.4.4.4.2.1-.4-.4-.6.5-2.2 1.9-3.5 2.8-2.6 6.9-7.9 6.1-7.9-.3 0-2.9 2.8-5.8 6.2M498 418.5c-39 8.7-75.8 39.6-102.1 85.7-12.7 22.3-21 44.6-30.9 83.3-13.9 54.1-17.2 64.8-31.7 103.5-9.2 24.4-9.6 25.9-10.1 35.1-.4 7.9-.1 10.9 1.6 16.5 2.9 9.4 10.4 21.2 20.2 31.6 6.5 7 7.7 8.8 6.1 8.8-3.5 0-14.3 4.1-20.2 7.6-7.8 4.7-14.2 11.8-16.8 18.9-1.2 3.2-3 6.5-3.9 7.2-6.9 5.3-32.4 18.7-54.5 28.6-3.1 1.4-6 3.3-6.3 4.2-3 7.8 13.2 21.2 76.1 62.8 17.1 11.2 35.6 23.3 41.2 26.8 18 11.2 55.4 37.4 68.7 48 26.5 21.1 47.2 44.6 58 65.8 6 11.8 12.4 29.4 15.1 41.6 1 4.4 2.1 8.4 2.5 8.8s2-4.1 3.5-10c2.9-11.1 8.7-28.8 12.3-37.9 6.7-16.7 27.4-41.6 50.8-61 9.3-7.8 30.4-22.9 55.3-39.7 9.5-6.4 10.1-7 10.7-10.9.6-3.7.8-3.9 2.1-2.3.7 1.1 1.3 1.3 1.3.7 0-.7.4-1.2 1-1.2.5 0 .6.8.3 1.7-1.2 3 9.8-4.1 52-33.6 5.9-4.2 13.5-9.2 16.7-11.1 20.3-11.9 54.3-37.9 56.8-43.5 2-4.3 1.5-5.1-5-8-17.8-7.8-43.2-21.6-51.6-28.1-5.3-4-6.2-5.3-8.7-11.9-2.7-7.2-9.8-13.8-20.1-18.7-4.7-2.1-10-4.2-11.9-4.5s-3.5-.8-3.5-1c0-.3 2.4-3.1 5.3-6.4 8.1-8.9 16.7-21.3 19.6-28.2 3.6-8.8 4.1-22.4 1.1-33.3-2.5-9.3-7-21.6-14-38.4-7.7-18.5-13.1-35.8-20.9-67.1-17.3-69.9-29.7-100.1-55-133.4-18.8-24.9-52.5-49.5-76.6-56-8.6-2.3-26.5-2.8-34.5-1m33.5 2c7.5 2.1 23 9.3 31.3 14.7 3.4 2.2 6.2 4.3 6.2 4.5 0 .3-1.1-.2-2.5-1.1-2.8-1.8-4.5-2.1-4.5-.5 0 .5.6.7 1.3.3.6-.4.8-.3.4.2-1.7 1.8-6.4 1.1-11.5-1.8-25.3-14.3-50.6-14.6-77.5-.9-6.2 3.1-13.4 7.3-16.1 9.4-3.7 2.8-5.2 3.4-5.8 2.5q-.9-1.35-.6.6c.2 1-.3 2.1-1 2.3-.8.3-1-.2-.6-1.4.3-1 .2-1.4-.3-.8-1.1 1.5-3.9 1.2-3.5-.4.1-.7-.2-1-.8-.6-.6.3-.8 1.1-.5 1.6.4.5.2.9-.4.9-.7 0-.7.8-.1 2.5.6 1.6.6 2.7-.2 3.1-.6.4-.9.3-.6-.2s.2-2-.3-3.3l-.9-2.4-2.8 2.4c-1.7 1.5-1.4.9.8-1.4 12.4-13.6 35.8-26.5 56.7-31.1 8.3-1.9 24.9-1.4 33.8.9M530 429c26.6 7.3 57.7 32.8 79.8 65.5 16.5 24.5 30.8 61.5 40.3 104.2 1.7 7.6 4.6 18.4 6.5 24.1s3.4 10.7 3.4 11c-.1 1.4-10-16.3-10-17.8 0-.8-3.1-13.9-6.9-29-10-39.6-15.8-55-28.6-75.5-8.5-13.6-17.5-25.2-25.2-32.6-7-6.7-19.2-16.3-19.9-15.7-.2.3 1.3 1.7 3.3 3.1 5.3 3.7 13.3 11.2 10.4 9.7-2.1-1.1-2.3-1-1.8.4.9 2.2-.6 2-2.8-.4-1-1.1-2.1-1.7-2.6-1.4-.5.2-2.5-1.3-4.5-3.6-2-2.2-6.4-6.4-9.8-9.2-4.5-3.9-3.2-2.3 5.1 6.4 6.2 6.4 12.4 13.6 13.8 15.8 1.5 2.3 4.6 6.9 7.1 10.2 2.4 3.3 4.4 6.8 4.4 7.7s.4 2.1.9 2.7c.5.5 1.2 2 1.5 3.4.4 1.4-.2.8-1.4-1.5-1.1-2.2-2.8-4.7-3.6-5.5-1.4-1.3-1.4-1.2-.5 1.3.6 1.5 1.8 4.1 2.7 5.8 2.2 4.3 2.5 6.6.9 6.6-.8 0-1.2-.4-1-.8.3-.4-.6-1.4-1.8-2.2l-2.4-1.5 1.5 3.3c.9 1.9 1.9 3.2 2.4 2.9.4-.3.5.3.1 1.2-.4 1.2-.3 1.5.5 1s1-.2.5.9c-.4 1.3-1.2.6-3.1-2.9-1.4-2.5-2.7-4.4-3-4.1-.3.2.1 1.1.8 2 .7.8.9 1.5.5 1.5s.4 1.5 1.9 3.4c1.4 1.9 2.6 3.7 2.6 4 0 1.3 5.6 8.2 6.5 8.2.6-.1 1 2.4 1 5.5.1 3.2.6 6.3 1.3 7.1.6.8 1 1.7.7 2s.4 1.3 1.4 2.2c1.9 1.7 1.9 1.7 1.6-.1-.1-1-.8-1.7-1.6-1.5-.9.2-.9-.1.1-1.5 2.2-2.8 2.4-2.9 1.7-1-.5 1.4.1 2.2 3 3.4 2.1.8 4.3 2.2 5 3.2 1.4 1.8 1.8 4.5.5 3.7-1.1-.6-.9 5.1.2 6.1.5.4.6.1.2-.7s0-.6.9.5c1.6 2 1.7 2 1.5-.5-.3-3.8 0-4.7.9-2.5.5 1.1.5 2.8 0 3.7-.7 1.3-1.5 1.5-3.9.8-2.2-.6-3-.5-3 .4 0 1.8 3.5 4.8 4.5 3.9.4-.5.5-.3.2.4-.4.6-.3 2.3.3 3.7 1.2 3.2.9 3.2-1.6.4-1-1.2-1.3-1.8-.5-1.3 1 .5 1.2.4.7-.4-.4-.6-1.1-.9-1.5-.6-.5.2-1.7-.5-2.7-1.6-1.1-1.2-3.2-3-4.9-4.2-1.6-1.1 3.8 4.9 12 13.4 24.5 25.1 30.8 32.6 30.8 35.9 0 1.6.4 2.7.9 2.4.4-.3.8 0 .8.5 0 2.3-2.1.9-6.7-4.7-7.1-8.5-28.3-29.4-49.8-49.2-10.4-9.6-21.5-20.1-24.5-23.3-3-3.3-12-12.1-20-19.6-18.8-17.6-25.5-21.5-37.5-21.4-7 0-8.8.4-14.1 3.1-7.4 3.7-22.3 16.3-31.5 26.4-3.6 4-24.8 25.1-47 46.8s-39 37.9-37.3 36 4.6-5.8 6.5-8.5c1.8-2.8 9.2-11.2 16.3-18.8 13.1-13.7 17.7-19.8 9.5-12.2-2.7 2.5-3.4 2.9-1.9 1.1 4.4-5.2 6-6.6 6-5.4 0 1.7 2.9-1.2 17.8-17.7 7.5-8.3 10.8-12.4 7.5-9.2-3.7 3.6-6.3 5.5-6.7 4.8-.4-.6-.2-1.1.4-1.1s.8-.5.5-1c-.4-.6-1-.8-1.5-.5s-1.2.1-1.5-.5c-.4-.6-.1-.9.6-.8.6.2 1.4-.3 1.7-1.1.3-.9 0-1.1-.8-.6-.9.5-1.1.4-.6-.4.4-.6.2-1.9-.6-2.8-.7-.9-1.2-1.8-1-2 .1-.1.2-.9.2-1.6 0-.8-.4-.7-1 .3-.6.9-1 1-1 .3s.8-1.7 1.8-2.3c1.5-1 1.4-1.1-.6-.6-1.8.3-2.1.1-1.3-.8s.7-1.3-.4-1.3c-.8 0-1.5.7-1.5 1.6-.1 1.4-.2 1.3-1.1-.1-.7-1.2-.7-3 0-5.3.5-1.9.8-3.5.6-3.5s-1.7 2.5-3.4 5.5c-1.7 3.1-4 6.4-5.1 7.5-1 1-2.8 3.8-3.9 6.2l-2.1 4.3.5-3.7c.3-2.1 1.6-5.9 2.8-8.5 3.3-7 14.8-27.3 15.9-27.9.5-.3.4-1.2-.3-2-.9-1.1-.4-2.5 2.3-6.6 1.9-2.9 4.2-6.4 5-7.8.9-1.4 3.7-4.9 6.4-7.9 3.2-3.6 4-4.9 2.3-3.7-1.5.9-4.8 4.4-7.3 7.6-2.6 3.3-5 6-5.2 6-.3 0-.3-1.3-.1-2.9.4-2.4.2-2.9-1.1-2.4-1 .3 1-2.3 4.3-5.7l6-6.4-7.9 7c-16.4 14.4-26.9 28.4-37.1 49.6-8 16.7-11.9 28.7-18.5 56.3-7.6 32.2-8.9 36.4-12.8 42.7-3.3 5.5-5.4 8-3.2 3.8.6-1 1.7-5.9 2.6-10.7 4.6-26.9 17.5-69.2 28.3-93.3 10.7-23.8 23.6-43.3 39.9-60.3 17.1-17.6 40.2-32.4 57.7-36.6 11.1-2.7 25.7-2.7 35.5-.1m-80.1 21.9c.7.2-2.2 3.1-3 3.1-.5 0-.9-.9-.9-1.9 0-1.8.4-1.9 3.9-1.2M582 481.6c.8 1-.3.3-2.3-1.5-2-1.9-3.7-3.9-3.7-4.4 0-1 3.2 2.2 6 5.9m1.7-2.1c0 .8-.4 1.2-.9.9s-.6-1-.3-1.5c.9-1.3 1.2-1.1 1.2.6m5.4 1.2c1.3 1.6 1.2 1.7-.3.4-1.7-1.3-2.2-2.1-1.4-2.1.2 0 1 .8 1.7 1.7M435 486c-.6 1-.5 2.1.1 2.8.5.7.6 1 .3.7-.4-.3-1.4.1-2.3.7-1.3 1-1.4 1-.4-.2 1-1.1 1-1.7 0-2.9s-.9-1.3.2-.6c1.1.6 1.3.4.9-.7-.4-.8 0-1.5.7-1.5 1 0 1.1.5.5 1.7m159.1-.3c1.3 1.6 1.2 1.7-.3.4-1.7-1.3-2.2-2.1-1.4-2.1.2 0 1 .8 1.7 1.7m3.4 4.3c1 1.1 1.6 2 1.3 2s-1.3-.9-2.3-2-1.6-2-1.3-2 1.3.9 2.3 2m-166.4 4.3c-1 .9-1.1.8-.5-.6.3-1 .9-1.5 1.2-1.2s0 1.1-.7 1.8m93.6 6.8c4 1.9 9.6 6.1 15.7 11.7 10.7 9.9 11.5 11 7.9 10.6-2.9-.3-11.8-8.5-10.3-9.4 1.2-.8-.1-2.5-2.5-3.3-2-.7-2-.7-.1.8 1.3.9 1.6 1.9 1 2.4-.5.6-3.3-.5-7-2.8-8.4-5.1-18.7-7.5-25.1-6-6.4 1.6-13 5-18.2 9.3-2.4 2-4.7 3.3-5.2 3-.6-.3-1.6 0-2.4.6-.8.7-1.5.9-1.5.5s-.8-.1-1.7.6c-1.6 1.1-1.6 1.1-.5-.1.7-.8 1.8-1.5 2.5-1.5.7-.1 1.1-.6 1-1.2-.4-1.8 13.7-13.5 15.4-12.9.8.3 1.2.2.9-.3-.8-1.2 5.4-4 10.7-5 6.5-1.1 12.6-.2 19.4 3m-8.4 5.8c14.2 3.7 18.5 7.1 59.2 46.7 37.1 36.2 68.3 69.7 79.7 85.6 10.1 14 25.7 47.5 30.5 65.3.7 2.7 1.6 8.6 1.9 13 2 24.8-15 44.8-63.1 74.2-32.6 20-34.1 21-57.5 39.7-21.5 17.2-30.1 26.6-39.7 43.6-4.6 8-5.1 9.5-2.9 8.7.7-.3 1.9 0 2.5.6 1.4 1.4 1.5 4 .1 3.2-.6-.3-.7.1-.4.9.3.9.7 1.6.8 1.6s2-2.7 4.1-6c2.8-4.4 5.9-7.4 11.2-11.1 4-2.7 7.2-5.5 7-6.1-.1-.6.4-1.3 1.2-1.6.8-.2 1.1 0 .8.5s2-.3 5.1-1.8 14.5-5.9 25.2-9.7c34.7-12.4 75.3-29.2 87.7-36.3 9.3-5.3 12.5-11.4 8.8-16.7-2.1-2.8-9.8-8.2-12.2-8.3-1.1 0-.5-.6 1.6-1.6 9.3-4 24.2 4 27.1 14.6 2.1 7.8-1 10.6-21 19.7-12.6 5.6-62.2 23.8-90 32.9-18 5.9-29.3 10.9-37.7 16.6-5.1 3.5-17.3 15.1-17.3 16.5 0 .4.5.3 1.2-.4 1.6-1.6 3.1-1.5 2.5.1-.3.8.4 1.4 2 1.5 1.7.1 2.2-.2 1.7-1.1-.5-.8-.2-.7.9.2 1.9 1.5 2.3 2.6.6 1.5-.7-.4-1-.1-.7.7s1.2 1.3 1.9 1.1c.8-.2 1.1 0 .7.3-.4.4-.3 1.7.3 2.9.8 1.7.6 1.6-1-.4-1.1-1.4-2.3-2.1-2.7-1.7s-.3.7.3.7c1.3 0 3.9 5.9 3.5 8-.2 1.3-.2 1.3.7 0 .5-.8.7-1.8.5-2.2-.3-.4-.1-1.5.3-2.3.5-.9.8.8.8 4.5 0 6 0 6-3 6.1l-3 .1 3 .9c1.7.4 5.5 1.5 8.5 2.4 8.2 2.3 8.2 2.4-.5 2.3-6.3-.1-8.8.3-12 2-4.7 2.5-4.5 2.7 1 .7 2.2-.8 4.9-1.4 6-1.4 1.4 0 1.6.2.5.6-2.4.9-5 3.5-4.4 4.4.3.5 1 .7 1.5.3.5-.3.6-1.1.2-1.7-.4-.7 0-.6 1 .2 1.8 1.4 2.3 2.6.8 1.7-1-.7-2.3 1.9-1.4 2.8.4.3 1.1.1 1.8-.4.8-.7 1.2-.5 1.2.5 0 1.1-1.2 1.5-4.3 1.5-5.6 0-6.5 1.6-1.3 2.4 4.2.7 13.3 4.8 14.4 6.6.3.5 1.5 1 2.6 1 1 0 1.9.5 1.9 1.1s-.8.8-1.7.5c-1-.3-4.7-1.3-8.3-2.1-3.6-.9-7.6-2.4-9-3.4-4.9-3.4-5.4-3.6-4.6-1.6.5 1.5.4 1.6-.8.6-1.2-1.1-1.3-.8-.7 1.6.5 1.6 1.4 2.7 2.2 2.5s1.1 0 .7.4-.2 1.4.4 2.3c.7.9-.4.1-2.3-1.7-6.4-5.9-5.2-3.3 1.9 4.3 6.6 6.9 9.7 12.5 8.4 14.9-.9 1.5-9.8-8.9-13.3-15.4-1.8-3.3-3.4-5.8-3.7-5.5-.7.6 1.7 6.4 4.2 9.9 1.1 1.6 1.5 2.6.8 2.2s-2.1-.9-3.3-1.1c-1.1-.2-3-.7-4.2-1-1.2-.4-1.7-.3-1.2.2.6.4 1.1 1.8 1.1 3.1.1 1.2-.1 2-.4 1.7-.3-.2-1.2.1-2 .8-1.3 1-1.4.9-.7-.3 1.4-2.3 1.3-3.4-.6-5.2-1.8-1.7-1.9-1.6-2.8 1.5-.8 2.9-.9 2.7-1-2.7-.1-8.9-1-6.2-2.1 6.3-1 10.5-.9 11.6 1.3 18 2.2 6.6 2.2 7 .6 10.7-1 2.2-1.8 4.8-1.8 5.9-.1 1.1-.5 2.6-1 3.4-.6.9-1.9-1.4-4.3-7.5l-3.4-8.9 2.3-5.7c2.4-6 2.9-12.9 1.4-20.3-.8-3.8-.9-3.9-1-.8 0 1.7-.5 3.5-1.1 3.8-.5.3-1 1.6-1 2.8 0 1.6-.3 1.8-.9.8-.5-.7-.7-2.3-.5-3.5.2-1.1.2-1.5-.2-.9-.3.7-1.3 1.3-2.2 1.3-1.1 0-1.3-.3-.6-.8 1.6-1 1.3-4.1-.3-3.5-.7.3-1.3 0-1.3-.6 0-2.1-.3-2.6-2.1-3.9-1-.7-1.9-2.2-2.1-3.5-.2-1.6-1.1-.2-3.1 4.9-2.1 5.3-3.8 7.9-6.7 10.3-2.1 1.7-4.3 3.1-4.9 3.1-1.7 0 2.5-8.2 7.3-14.2 5.1-6.3 6-8.4 2.1-4.8-1.4 1.3-2.6 1.8-2.6 1.2-.1-.7-.2-2.1-.3-3.1 0-1.1-.7-2.6-1.3-3.2-1-1-.9-1.6.4-3.1 3.3-3.6-.8-1.8-5.2 2.3-7.2 6.8-17.7 13-19.3 11.4-.9-.9 11.6-9.8 19-13.6 2.1-1.1 3.7-2.3 3.7-2.7-.1-.4-.1-1.4 0-2.2.1-1.3.2-1.3 1.1 0 .8 1.3 1 1.2 1-.3 0-1.7-1-2.1-4-1.7-1 .1-.9-.3.5-1.4 1.1-.8 2.9-1.6 4-1.6 3.6-.2-2.4-2.1-9-2.8l-6-.7 7.8-2.9c8-3 9.8-4.3 3.4-2.5-3.8 1-5.7.6-5.7-1.3 0-.7.5-.7 1.4.1 1.1.9 1.5.8 2-.4.3-.9.2-1.3-.3-1s-1.3.1-1.6-.5c-.4-.6-.1-.9.6-.8.7.2 1.3-.2 1.4-.9 0-.6.4-1.5.9-2s.6-.3.2.4c-1 1.7.2 1.6 1.9-.1.8-.7 1.1-1.7.7-2.1-.4-.5.2-.5 1.3-.2 2 .7 2 .7.1-.8-1.6-1.2-1.7-1.5-.4-1.5 2.4 0 3.9-2.3 2.6-4-.8-1.2-.9-1.2-.4.2.3 1 .2 2-.3 2.2-.4.3-.7-.8-.7-2.4 0-2.6.2-2.8 2-1.8 1.9 1 2 1 .7-.5-.9-1.2-1-1.7-.2-1.7.7 0 .9-.5.5-1.1-.4-.7.2-.9 1.4-.7 1.1.2 3.4-.7 5.2-2 3.5-2.6 3.5-3.5-.7-11.7-7.2-14-20.2-29.4-36.7-43.2-18-15.1-31-24.1-68.1-46.8-28.7-17.5-38.1-24.9-46.1-36.1-10.4-14.6-12.4-31.6-5.9-50.9 6.7-20.2 23.6-51.7 35.9-67.3 21.2-26.7 21.2-26.7 61-67.6 31.5-32.4 48.7-48.8 56.1-53.4 3.2-2.1 13-5.9 15.6-6.1.3-.1 4 .8 8.2 1.8m34.2 19.1c1 1.1 1.6 2 1.3 2s-1.3-.9-2.3-2-1.6-2-1.3-2 1.3.9 2.3 2m45.2-.6c-.1.6.5 1 1.4 1 .9-.1 1.6.4 1.6 1.1 0 1.9-2.1 1.4-3.9-1-1.3-1.7-1.3-2.2-.3-2.2.8 0 1.3.5 1.2 1.1m9.9-.2c.4.6.2 1.4-.4 1.6-.7.2-.9.8-.6 1.3.4.6 1.1.6 1.9-.1.9-.7 1.6-.6 2.5.4 1.4 1.8 2.1 6.6.8 6.6-.5 0-.6.5-.2 1.1 1 1.8-2.8-.6-5-3-2.5-2.8-.9-2.7 2.3.1 1.5 1.3 1.1.6-.9-1.7-1.9-2.2-4.2-4.4-5-4.9-1.2-.8-1.1-1.1.5-1.7 2.8-1.1 3.3-1 4.1.3m6.8 3.3c.3.8.1 1.5-.3 1.5-.5 0-1.1-.7-1.5-1.5-.3-.8-.1-1.5.3-1.5.5 0 1.1.7 1.5 1.5m2 12.4c-.5.5-3.3-3-3.4-4.3 0-.4.9.2 1.9 1.5 1.1 1.3 1.7 2.6 1.5 2.8m-11.4 1.5c0 2.6-.6 1.8-1.4-1.9-.5-2.2-.4-2.6.4-1.5.5.8 1 2.4 1 3.4m7.8.7c-.3.8-.7.3-1.1-1-.4-1.7-.3-2.1.5-1.3.5.5.8 1.6.6 2.3m-175.5 1c.4.3-2 3.4-5.4 7-3.4 3.5-5.4 5.4-4.5 4.2 1-1.2 1.3-2.4.8-2.7s-1.5.1-2.2.9-1.8 1.5-2.4 1.5-.4-.5.4-1 1.6-1.4 1.6-2c.1-.5.2-1.3.3-1.7 0-.3 1 .2 2 1.1 1.9 1.7 2 1.7 3-.3 1.4-2.6 1.4-3.4-.1-2.5-.8.5-.8.1.2-1.2 2.2-2.9 2.4-3 1.7-1.2-.7 2.1.8 2.5 1.6.4.3-.7 0-1.9-.6-2.6-.9-1-.9-1.1.1-.6.7.4 1.2.2 1.2-.5s.3-.8.8-.3c.4.5 1 1.1 1.5 1.5m173.7 1c0 1-.5 1.9-1.2 1.9-.6 0-.8-.3-.5-.6.3-.4.2-1.5-.4-2.5-.7-1.5-.6-1.7.6-1.3.8.4 1.5 1.5 1.5 2.5m9-1.5c0 .8-.4 1.2-1 .9-.5-.3-1-1-1-1.6 0-.5.5-.9 1-.9.6 0 1 .7 1 1.6m-206 1.3c-.5 1.1-1.5 2.3-2.1 2.7-.6.3-.3-.5.6-2 2-3 3-3.5 1.5-.7m8.6 5.8c-1 1-1.9-.5-1-1.8.6-1.1.8-1.1 1.2 0 .2.7.1 1.5-.2 1.8m201.8 2.9c.3.8.2 1.2-.4.9s-1-1-1-1.6c0-1.4.7-1.1 1.4.7M407 557.9c0 4.8-.9 6.2-3.1 5-2.4-1.2-2.4-2.4-.1-5.4 2.3-3.2 3.2-3.1 3.2.4m4 1.1c0 .5-.5 1-1.1 1-.5 0-.7-.5-.4-1 .3-.6.8-1 1.1-1 .2 0 .4.4.4 1m1.3 4.3c-1.5 1.9-3 3.2-3.2 3-.5-.3 4.9-6.3 5.7-6.3.2 0-.9 1.5-2.5 3.3m-3.3-.3c0 .5-.5 1-1.1 1-.5 0-.7-.5-.4-1 .3-.6.8-1 1.1-1 .2 0 .4.4.4 1m204.5 1c.3.6-.1.7-.9.4-1.8-.7-2.1-1.4-.7-1.4.6 0 1.3.4 1.6 1m-236 229c16.7 16 12.9 14.5-6.6-2.6-12.3-10.8-19.2-18.1-25.9-27.7-3.7-5.1-3-4.6 6.7 5.1 5.9 5.9 17.6 17.3 25.8 25.2m299.3-26.3c-3.7 6.5-36 35.1-48.4 42.8-3.8 2.5-3.9 2.5 10.1-9.7 6.6-5.8 18.3-16.6 26-24 7.7-7.5 14.1-13.5 14.3-13.3.1.1-.8 2-2 4.2m-319.3 25.8c2.8 1.4 3.9 2.3 2.5 1.9-1.4-.3-3.5-.8-4.8-1.1-1.7-.4-3.4.6-7.2 4.4-4.1 4.1-5 5.6-5 8.5 0 7.3 3.2 9.4 39 24.8 26.7 11.5 44.1 18.3 63.9 24.9 25.6 8.6 39.2 16.5 46 26.7 4.4 6.7 3 8.6-2.3 3.1-5.1-5.2-14.8-12.2-23.6-17-3.6-1.9-19.5-7.8-35.4-13.2-28.9-9.6-60.3-21-77.1-28-18-7.4-25.5-12.7-25.5-17.8 0-1.2 1.1-4.5 2.4-7.3 2.6-5.5 6.6-8.7 13.9-11 6-1.8 7.6-1.7 13.2 1.1m56.5 34.6c17.1 11.3 30.8 19.8 36.8 22.8 2.4 1.3 4.2 2.5 3.9 2.8-.9.8-31.8-15.1-38.6-19.8-3.4-2.4-7.2-5.1-8.5-5.9-1.2-.8-4.9-4.2-8.2-7.5-3.4-3.4-4.6-5.1-2.9-4s9.5 6.3 17.5 11.6m206.4-5.6c-4.6 7.1-33 24.1-50.6 30.4-7.3 2.6-7.5 1.8-.3-1.4 3-1.3 14.3-8.1 25.1-15 10.8-7 20.7-13 22-13.5s2.9-1.8 3.6-3c.7-1.1 1.4-1.6 1.6-1.1.2.6-.4 2.1-1.4 3.6M316.5 819c-1 1.6 1.5 3.5 10.1 7.5 4.3 2.1 8.3 4.1 8.8 4.3.5.3.6 0 .2-.6-.4-.7-.1-1.2.7-1.2 3.8 0 36.6 13 56.7 22.5 8.5 4 18.3 8.5 21.8 10 3.5 1.4 9.1 4 12.5 5.6 3.4 1.7 9 4.2 12.5 5.5 8 3.1 14.7 6.5 21.9 11.1 5.9 3.7 13.9 11 13.1 11.8-.3.3-6-2-12.7-5-6.7-3.1-16.3-7-21.4-8.8l-9.2-3.2-19.5.1c-10.7.1-24 .7-29.5 1.3s-18.1 1.4-28 1.7c-26.8.9-48.4-2.5-70.8-11.2-5.1-2-9.9-4.3-10.7-5.1s1.1-.2 4.2 1.2c3.7 1.7 6.6 2.4 8 2 1.5-.4 1.8-.3 1.1.2-.9.6 2 2 8.5 4.1 9.2 3 23.8 5.9 24.8 4.9.3-.2-1.7-.8-4.3-1.1-5.3-.8-19.5-4.7-19-5.3.2-.2 4.2.7 8.8 1.9 7.7 2.1 10.6 2.3 33.9 2.3 14.7-.1 30.1-.6 36.5-1.4 6.1-.7 20-1.3 31-1.2 13 0 19.5-.3 18.5-.9-.8-.5-3.3-1-5.5-1.1-3 0-3.5-.2-2-.8 1.8-.7 1.7-.8-.7-1.3-1.8-.3-2.5-.1-2.2.7.6 1.4-2.4 1.3-4.6-.1-.8-.5-1.6-1.7-1.6-2.7-.2-1.4.1-1.5 1.2-.7.7.7 2.3 1 3.6.8 1.6-.3.3-1-4.6-2.6-7.8-2.5-10.5-2.8-6.1-.7l3 1.5-4-.6c-2.2-.3-4.4-.9-4.9-1.4s-1.9-.4-3.2 0c-2.4.9-3.1.9-6.9-.6-2.5-.9-3.2-1.1-4.7-1.3-.9-.1-.8-.4.2-1.1.9-.6 1-1 .3-1-.6 0-1.4.4-1.8 1-.8 1.3-3.5.1-3.5-1.6 0-.8-1.6-1.6-4-2-3.5-.6-3.9-.9-3.4-2.8.5-2-.6-2.8-8.8-6.8-10.7-5.4-24.2-10.8-26.6-10.8-.9 0-2.8-.6-4.2-1.3s-4.6-1.9-7.2-2.6c-2.7-.8-4.8-1.7-4.8-2.2s-.8-.6-1.7-.3c-1.7.5-1.7.5 0-.9 3.2-2.7 1.7-2.5-3.6.4-10.5 5.7-39.4 17.5-40.4 16.5-.2-.2 2-1.5 5-2.9s9.3-4.9 13.8-7.9c4.6-3 11.4-7.3 15.1-9.7 3.7-2.3 7.2-4.9 7.9-5.7 1.3-1.6 3.3-1.9 2.4-.4m109.5.2c0 .5 1.1 1.4 2.5 2s2.5 1.6 2.5 2.1 1.9 2.7 4.3 4.9l4.2 3.9-4.1-2.3c-4-2.3-9.8-6.9-12.1-9.9-1-1.2-.8-1.5.8-1.5 1 0 1.9.4 1.9.8m172.1.5c-.5 1-2.1 2.9-3.5 4.2s-2.3 2.8-2 3.2c.3.5-.5.9-1.8.9s-3.4.7-4.6 1.6c-2.5 1.7-3.1.4-.7-1.6 1-.9 1.2-1.7.6-2.3-1.2-1.2 1.3-3.8 5.2-5.5 2.3-1 2.7-.9 2.7.5 0 1.5.3 1.4 2.2-.5 2.7-2.7 3.2-2.8 1.9-.5m122.9 6.8c6.3 4.2 16.6 10.6 22.9 14.3 6.2 3.6 10.9 6.8 10.4 6.9-1.2.4-29.2-11.3-39.2-16.4-7.8-4-9.8-4.2-11.8-1.3-1.4 2-4.2 3.2-14.4 5.9-4.1 1.2-9.7 3.2-12.5 4.5-2.7 1.2-7.1 3.1-9.7 4.1s-4.3 2.1-3.8 2.5c.7.3.3 1.2-.8 2.2-1.1.9-2.2 1.4-2.5 1.1-.3-.4-.6-.1-.6.6s-.5.9-1.2.5c-.8-.5-.9-.2-.4 1.1.5 1.5.4 1.6-.9.5-1.2-1-1.8-1-3.2.1-.9.8-1.9 1.3-2.2 1.1-.3-.1-.6.3-.6 1 0 .6-.6 1.3-1.2 1.5-.7.3-1.3 0-1.3-.7 0-.6.5-.8 1.2-.4s.8.3.4-.5c-.6-.9-1.1-.9-2.2 0-.7.6-1.1 1.5-.9 1.9.3.5-.7.8-2.2.8-4.5-.1-9.4 1.3-8.7 2.4.4.7.2.8-.4.4-.7-.4-1.8-.4-2.4.1-.7.4-1.7.8-2.3.8-.5.1-.9.6-.8 1.1.1.6-.4 1.1-1.2 1.1s-1.2-.4-.9-.9c.3-.4.1-.8-.4-.8-.6 0-1.2.7-1.6 1.5-.3.9-1.2 1.2-2.2.8-1.3-.5-1.5-.3-.9.7q.75 1.35-.3.6c-.7-.4-2-.2-2.9.4-1.6 1-1.6 1.1-.1.6 1.1-.3 1.5 0 1.2.7-.6 1.6-4.6 2-5.5.6-.3-.6-1.2-.3-2 .7-1.2 1.6-1.2 1.7.1.9.8-.4 1.2-.4.7 0-.4.5-2.9.8-5.5.6-2.6-.1-5.8.2-7.2.7-1.7.7 4.4 1 19 1.1 11.8.1 29.6.8 39.5 1.7 16.5 1.5 44.4 1.5 52.5 0 1.4-.2 4.8-.7 7.5-1 3.9-.4 4.3-.3 2 .4-4.7 1.4-20.4 4.2-26.5 4.7-7.3.6-7.7 1.3-.9 1.3 9.3 0 28.1-3.8 35.9-7.3 2.5-1.1 6.3-2.6 8.5-3.2 2.2-.7 4.9-1.5 6-1.9s.7 0-.9 1c-6.2 3.5-25.1 9.5-36.9 11.5-16 2.8-40.3 3-60.9.5-11.3-1.4-19.2-1.7-34.5-1.3-23.9.5-28.9 1.7-52.3 12.4-3.6 1.7-7.6 3.4-9 3.8l-2.5.8 2-2.4c6.9-8.5 16.7-14.6 37.6-23.5 8.5-3.6 20.6-8.8 26.9-11.6 20.1-8.9 60.6-25.1 67-26.8 2.4-.6 6.7-2.2 9.6-3.5 3-1.3 5.4-2 5.4-1.6 0 .5-1.4 1.4-3 2.1-1.7.7-2.9 1.5-2.6 1.7.6.7 14.3-6.8 16.2-8.8 1-1.1 2-1.9 2.3-1.9.4 0 5.8 3.4 12.1 7.5m-397.6-3.6c-.2.3-1.2-.3-2.2-1.3-1.6-1.7-1.6-1.8.5-.5 1.2.7 2 1.5 1.7 1.8m380.6-2.5c0 .2-.8 1-1.7 1.7-1.6 1.3-1.7 1.2-.4-.4s2.1-2.1 2.1-1.3M427.5 826c.3.5.1 1-.4 1-.6 0-1.1-.5-1.1-1 0-.6.2-1 .4-1 .3 0 .8.4 1.1 1M699 848.2c2.2-.2 2.3-.1.8.8-2.2 1.3-2.3 3-.3 3 .8 0 1.5.4 1.5 1 0 .5-.9 1-2 1-1 0-2.4.9-3 2-1.3 2.4-3 2.6-3 .5 0-.9-1.3-1.8-3.1-2.2-2.8-.5-3-.8-1.5-1.8 2.4-1.8 2-2.1-2-1.7-2.6.3-3.5.1-3-.7.4-.6 2.5-1.1 4.6-1.1 2.2 0 4.5-.6 5.2-1.4 1-1.1 1.5-1.2 2.3-.3.6.7 2.1 1.1 3.5.9m-368.2 2.5c1 1 .9 1.4-.7 2.3-2.7 1.4-5.1 1.3-5.1-.4 0-.8-.8-1.7-1.7-2-1.5-.6-1.4-.9.7-2 2.5-1.3 3.5-1 6.8 2.1m379.9 1c-.3.3-1.6.2-2.8-.2-2.2-.7-2.2-.8-.4-2.1 1.7-1.2 2-1.2 2.8.2.5.8.7 1.8.4 2.1M305 849.4c0 .3-.4.8-1 1.1-.5.3-1 .1-1-.4 0-.6.5-1.1 1-1.1.6 0 1 .2 1 .4m7 .6c0 .5-.8 1-1.7 1-1.5 0-1.6-.2-.3-1 1.9-1.2 2-1.2 2 0m389 6c0 .5-.4 1-1 1-.5 0-1-.5-1-1 0-.6.5-1 1-1 .6 0 1 .4 1 1m-340.5 3c-.3.5-1 1-1.6 1-.5 0-.9-.5-.9-1 0-.6.7-1 1.6-1 .8 0 1.2.4.9 1m186.5.7c0 .9-4 7.1-4 6.2 0-1.7 2.3-6.9 3.1-6.9.5 0 .9.3.9.7m-194.2 3.5c2.2 2.2 1.4 4.8-1.3 4.8s-2.8-.3-1.9-3.8c.7-2.5 1.5-2.7 3.2-1m203.2-.8c0 .2-.7.7-1.6 1-.8.3-1.2.2-.9-.4.6-1 2.5-1.4 2.5-.6m194 2.6c-.8.5-1.9 1-2.5 1-.5 0-.3-.5.5-1s2-1 2.5-1c.6 0 .3.5-.5 1m-210.7 7c-.3 1-1.2 2.5-2.1 3.2-1.3 1.1-1.2.8.2-2 1.9-3.6 2.7-4.1 1.9-1.2m-89.8 2.8c-.3.3-1.1 0-1.8-.7-.9-1-.8-1.1.6-.5 1 .3 1.5.9 1.2 1.2m6.5.2c0 .5-.2 1-.4 1-.3 0-.8-.5-1.1-1-.3-.6-.1-1 .4-1 .6 0 1.1.4 1.1 1m41.7 11.2c-.3.8-.6.5-.6-.6-.1-1.1.2-1.7.5-1.3.3.3.4 1.2.1 1.9m-64.8 1.7c1.1.7.9 1-.7 1.5-1.9.6-6.2-.7-6.2-1.9 0-.9 5.4-.5 6.9.4m196.1-.2c0 .5-.4 1.4-.9 2.2-.8 1.2-1.2 1.2-2.5.2-.9-.7-1.3-1.7-1-2.2.6-1.1 4.4-1.2 4.4-.2m-93.7 2.8c-.3.9-.8 1.4-1 1.1-.3-.3-.2-.9.2-1.5.9-1.6 1.5-1.3.8.4m-128.1 6c-.3.5.1.4 1-.3 1.3-1 1.5-.8 1.1 1.5-.3 1.7-.1 2.3.4 1.6.6-.8 1.4-.6 3.1.7 2.4 2 3 3.5 1 2.5-.7-.4-.4.1.6.9 1.1.9 4 1.6 6.5 1.7 3.8.1 4.2.2 2.1.9-1.4.4-4.1.9-6 .9-1.9.1-4.5.9-5.7 1.9-2.2 1.8-4.2 7.4-4.4 12.7-.1 1.6-.5.1-.9-3.4-.6-5.5-1.2-6.9-3.9-9.3-1.7-1.5-4.2-2.8-5.6-2.8-3.8 0-3-1.5 1.5-2.9 4.2-1.3 7-4.3 7-7.7 0-1.1.3-2.4.7-2.8.9-.9 2.2 2.6 1.5 3.9m186.3-1.5c.3.5-.3 1-1.4 1-1.2 0-2.1-.5-2.1-1 0-.6.6-1 1.4-1s1.8.4 2.1 1m-5.7 1.5c-.7.5-15.1 1.5-14.6 1 .9-1 10-2.1 12.6-1.7 1.3.3 2.2.6 2 .7m-22.8-.1c0 .3-.4.8-1 1.1-.5.3-1 .1-1-.4 0-.6.5-1.1 1-1.1.6 0 1 .2 1 .4m-16 1.6c0 .5-.5 1-1.1 1-.5 0-.7-.5-.4-1 .3-.6.8-1 1.1-1 .2 0 .4.4.4 1m69.5 5.6c2.2.7 3.1 1.3 2 1.3-3.3.1-6.2 2.8-7 6.3-.6 2.6-.9 2.9-1.2 1.3-.9-3.6-3.4-5.5-7.7-5.6l-4.1-.1 3.5-1.2c4.6-1.5 6.2-2.5 5.5-3.7-.4-.5.1-.9.9-.9s1.8-1 2.2-2.3c.7-2.1.8-2 1.3.8.5 2.4 1.4 3.2 4.6 4.1m26.8-.6c.6 0 .1 1-1.2 2.1-1.6 1.5-2.6 1.8-3.3 1.1-1.5-1.5-.1-4.5 1.8-3.8.9.3 2.1.6 2.7.6m27.5.7c.2.8-.5 1.3-1.7 1.3s-2.1-.6-2.1-1.6c0-1.8 3.1-1.5 3.8.3m-203.3.5c2.5.7 4.4 1.7 4.2 2.3-.2.5-2.6 1.8-5.3 2.8-5.5 1.9-18.1 1.7-30.4-.7l-6.5-1.2 6-.7c3.3-.4 8.3-1.4 11-2.1 6.4-1.8 15.2-1.9 21-.4m104.7.2c2.4.8 8.4 1.8 13.3 2.2l9 .8-5.5.7c-3 .4-8.6 1.2-12.5 1.8-14.1 2.1-24.4 1.2-27.3-2.6-1-1.5-.8-1.9 1.5-2.9 3.9-1.7 16.3-1.7 21.5 0m-202.2 6c-1.2 1.2-4 0-4-1.8 0-2 3.4-2.5 4.1-.6.4.8.3 1.9-.1 2.4m-22-1.4c0 .5-.4 1-1 1-.5 0-1-.5-1-1 0-.6.5-1 1-1 .6 0 1 .4 1 1m303.1 7.3c-1.3 1.3-2.6.3-1.6-1.2.3-.6 1.1-.8 1.7-.5.6.4.6 1-.1 1.7M547.5 919c-.3.5-1 1-1.6 1-.5 0-.9-.5-.9-1 0-.6.7-1 1.6-1 .8 0 1.2.4.9 1m39.5.6c0 .2-.7.4-1.5.4s-1.5-.4-1.5-1c0-.5.7-.7 1.5-.4.8.4 1.5.8 1.5 1M448 921c.9 1.6.8 2.2-.4 2.6-2.1.8-3.6-.3-3.6-2.7 0-2.5 2.6-2.5 4 .1m36-1c0 .5-.2 1-.4 1-.3 0-.8-.5-1.1-1-.3-.6-.1-1 .4-1 .6 0 1.1.4 1.1 1m129 0c0 .5-.4 1-.9 1-.6 0-1.3-.5-1.6-1-.3-.6.1-1 .9-1 .9 0 1.6.4 1.6 1m-8 3.6c0 .8-.4 1.4-.9 1.4-1.1 0-2.2-2.6-1.4-3.4.9-.9 2.3.3 2.3 2m-223 .4c0 1.6-.7 2-3 2-3.6 0-3.9-1.1-.7-2.6 3.3-1.7 3.7-1.6 3.7.6m91-.5c-1.5 1.7-16.3 6.5-20.3 6.5-4.3 0-3.2-2.6 1.6-3.9 2.3-.6 6.5-1.8 9.2-2.6 2.8-.7 6.3-1.4 7.9-1.4 2.4-.1 2.7.1 1.6 1.4m155 .5c0 1.1-.7 2-1.5 2s-1.9-.9-2.5-2c-.9-1.8-.8-2 1.5-2 1.8 0 2.5.5 2.5 2m-60.5 1.6c2.8.9 5.8 2.6 6.9 3.6 2.2 2.3 1.4 3.7-.9 1.4-1-1-3.3-1.6-6-1.6-5.3 0-13.7-1.7-17.2-3.5-2.2-1.2-2.3-1.4-.6-1.8 3-.9 12.4.1 17.8 1.9M448 926c0 .5-.2 1-.4 1-.3 0-.8-.5-1.1-1-.3-.6-.1-1 .4-1 .6 0 1.1.4 1.1 1m138 2c0 1.3-3 1.3-5 0-1.1-.7-.7-1 1.8-1 1.7 0 3.2.4 3.2 1m-100.5 7.1c-.4.5 0 .9.7 1 1 0 1 .2.1.6-1 .3-.9.8.2 2 1.2 1.2 1.3 1.8.4 2.9-.6.8-1.5 1.1-2.1.8-.5-.4-.5-1.1.1-1.8s.8-1.6.4-2c-1-1-1.1-5.6-.1-5 .4.3.6 1 .3 1.5m-63.2 3c-.3 1.9-1.1 2.6-2.8 2.6-3.2 0-2.9-3.9.5-4.7 3.1-.8 2.9-1 2.3 2.1m167.4-1.5c-.3.3-1.2.4-1.9.1-.8-.3-.5-.6.6-.6 1.1-.1 1.7.2 1.3.5M449 942.5c0 .8.7 1.5 1.5 1.5s1.5.5 1.5 1.1c0 .5-.6.7-1.2.4-.7-.4-.4.1.6.9 1.1.9 3 1.6 4.3 1.6 3.4 0 2.8 1.4-1.1 2.8-2.6 1-3.8 2.3-5.1 5.5l-1.8 4.2-.8-3.1c-1.1-3.9-2.5-5.1-8-6.8l-4.4-1.3 3.7-.8c2.5-.5 4.6-1.8 6.5-4.1 2.9-3.7 4.3-4.3 4.3-1.9m33 3.5c-3.3 4.6-6 6.2-7.6 4.5-1.8-1.7-1.7-2.2 0-2.8q1.5-.6.9.9c-1 2.6 1.8 1.4 3.5-1.6.9-1.6 2.4-3.1 3.2-3.4.8-.2 1.6-.4 1.8-.5.2 0-.6 1.2-1.8 2.9m47.4 4.6c.3.8.2 1.2-.4.9s-1-1-1-1.6c0-1.4.7-1.1 1.4.7m-20.6 2.9c-.3.3-.9-.2-1.2-1.2-.6-1.4-.5-1.5.5-.6.7.7 1 1.5.7 1.8m62.5.6c-1.2 1.2-2.6 1.6-4.1 1.2-2.1-.5-2.2-.7-.7-2.3 1-1.1 2.5-1.5 4.1-1.2 2.5.5 2.5.5.7 2.3m-68.6-.6c0 .8-.4 1.2-.9.9s-.6-1-.3-1.5c.9-1.3 1.2-1.1 1.2.6m55.8.5c.3.5.1 1-.4 1-.6 0-1.1-.5-1.1-1 0-.6.2-1 .4-1 .3 0 .8.4 1.1 1m-129.3 1.2c.9 2.3-.3 3.8-2.8 3.8-2.8 0-3.1-1.2-.8-3.4 1.9-1.9 3-2 3.6-.4m172.4 2.5c-.3.8-.6 1.7-.6 1.9 0 .8-2.9.4-3.4-.5-1.1-1.8.5-3.9 2.5-3.4 1.3.4 1.8 1.1 1.5 2m-85.9 1.5c-.3.7-.5.2-.5-1.2s.2-1.9.5-1.3c.2.7.2 1.9 0 2.5m11.3 2.9c0 .5-.4.9-1 .9-.5 0-1-.7-1-1.6 0-.8.5-1.2 1-.9.6.3 1 1 1 1.6m77-.1c0 .5-.4 1-1 1-.5 0-1-.5-1-1 0-.6.5-1 1-1 .6 0 1 .4 1 1m-88.3 3.2c-.3.8-.6.5-.6-.6-.1-1.1.2-1.7.5-1.3.3.3.4 1.2.1 1.9m14.3-.7c0 .8-.4 1.5-1 1.5-.5 0-1-.7-1-1.5s.5-1.5 1-1.5c.6 0 1 .7 1 1.5m32.1 3.5c.5 0 .9.7.9 1.5s1 1.6 2.3 1.6l2.2.2-2.2.4c-1.3.2-2.3 1-2.3 1.7 0 2.8-2.2 3.6-4.8 1.6-1.4-1.1-3.1-2-3.8-2-1.2 0-1.2-.4-.2-2.3.7-1.2 1.8-2.5 2.3-2.9q1.05-.75 0-.9c-.5 0 .1-.4 1.5-.8 1.7-.5 2.6-.3 2.8.6.2.7.8 1.3 1.3 1.3m-73.5 1c1.7 0 1.7.2.2 3.5-.6 1.4-1.9 2.5-2.8 2.5s-2.1.5-2.8 1.2c-.8.8-1.2.9-1.2.1 0-.6-.3-1.8-.6-2.7s.5-2.6 2.2-4.3 2.9-2.3 3.2-1.5c.2.7 1 1.2 1.8 1.2m-58.6 1c0 .5-.4 1-1 1-.5 0-1-.5-1-1 0-.6.5-1 1-1 .6 0 1 .4 1 1m105.8 3.3c.2 1-.3 1.7-1.1 1.7-1.6 0-3-2.4-1.9-3.4 1-1 2.7-.1 3 1.7M594 977c0 .5-.4 1-1 1-.5 0-1-.5-1-1 0-.6.5-1 1-1 .6 0 1 .4 1 1m-155 4c0 .5-.4 1-1 1-.5 0-1-.5-1-1 0-.6.5-1 1-1 .6 0 1 .4 1 1m5.5 5c.3.5.1 1-.4 1-.6 0-1.1-.5-1.1-1 0-.6.2-1 .4-1 .3 0 .8.4 1.1 1m102.3 7.7c-.3 4.3.3 5.4 3.2 6 3.5.6 5 2.3 2.3 2.3-2.1 0-5.6 2.7-7.1 5.5-1 1.9-1.1 1.8-1.7-.8-.6-2.1-1.6-2.9-4.9-3.9-3.6-1-3.8-1.2-1.6-1.6 3-.4 6.9-3.8 8.1-7 1-2.6 1.9-2.9 1.7-.5m-69.1 8.3c-.2 3.2-3 4.3-4.1 1.5-.3-.8-1.5-1.5-2.6-1.5-3 0-2.4-1.8.8-2.3 6-.9 6.1-.9 5.9 2.3m36 25.1c.2.8-.1 2.1-.7 2.9-1.3 2.1-3.1 0-2.3-2.8.6-2.4 2.6-2.5 3-.1m-.9 19.3c-.3 3.5.1 4.8 3 8.6 2.8 3.6 3.3 5 2.8 7.8-.7 4.5-4.2 8.2-7.7 8.2-3.7 0-5.2-2.2-5.7-8.3-.3-4.5 0-5.8 2.7-9.7 2.1-3.1 3.1-5.7 3.1-8.3 0-2.5.4-3.6 1.1-3.1.6.3.9 2.4.7 4.8"/><path d="M555.3 433.2c.1.9-.2 1.6-.8 1.5-.5-.1-.9-.6-.7-1 .1-.5-.3-.5-.9-.1-.9.5-.3 1.4 1.6 3 3 2.4 6.1 2.8 6.9.8.6-1.5-2.9-4.8-4.3-4-.5.3-1.2 0-1.5-.6-.3-.7-.4-.6-.3.4m3.7 2.3c.5-.3 1.2 0 1.6.6.4.8.3.9-.4.5s-1.2-.1-1.3.6q0 1.5-.6 0c-.2-.6-.9-1-1.4-.6-1.1.6-1.2-.9-.2-2 .4-.4.9-.2 1.1.3.2.6.8.9 1.2.6M452.9 470.7c-1.3 1.6-1.2 1.7.4.4s2.1-2.1 1.3-2.1c-.2 0-1 .8-1.7 1.7M575.8 485.5c4.6 6.1 10.1 12.1 10.1 11 0-.6-2.9-4.2-6.5-8-3.6-3.9-5.2-5.2-3.6-3M440.4 491.2c-5.5 5.8-7.9 8.8-7.1 8.8.3 0 3.3-3.2 6.7-7 7.3-8.3 7.5-9.2.4-1.8M436.5 505.1c-.4.6-.5 1.2-.2 1.5.2.3.7-.2 1-1.1.7-1.7.1-2-.8-.4M431.1 507.8c-1.2 1.7-2.1 3.3-2.1 3.7 0 .3-2 3.8-4.5 7.6s-4.5 7.5-4.5 8.2-.5 1.8-1.2 2.5c-.9.9-.9 1.2 0 1.2 1.1 0 2.9-2.6 3.1-4.5.1-.6 1.9-3.8 4.2-7.3 2.2-3.5 4.3-7.1 4.6-8s1.3-2.5 2.1-3.5c.8-.9 1.3-2 1-2.3s-1.5.8-2.7 2.4M591 511c.6 1.1 1.3 2 1.6 2 .2 0 0-.9-.6-2s-1.3-2-1.6-2c-.2 0 0 .9.6 2M583.5 515c.3.5 1.1 1 1.6 1 .6 0 .7-.5.4-1-.3-.6-1.1-1-1.6-1-.6 0-.7.4-.4 1M593.2 530.3c4 4 5.5 4.9 5.5 3.2 0-.8-.4-1.2-.9-.9-.4.3-1.1-.2-1.4-1-.3-.9-1-1.4-1.4-1.1s-1-.2-1.4-1c-.3-.8-1-1.5-1.6-1.5s-.1 1 1.2 2.3M435.5 535c.9 1 1.5 2.6 1.2 3.5-.4.8-.2 1.5.3 1.5.6 0 1-.8 1-1.8-.1-1.9-2.3-5.2-3.5-5.2-.5 0 0 .9 1 2M592 534.4c0 .2.7.7 1.6 1 .8.3 1.2.2.9-.4-.6-1-2.5-1.4-2.5-.6M596 537.3c0 1.1.4 1.5 1.2 1.1.8-.5.9-.1.4 1.2-.6 1.5-.5 1.7.5.6 1.1-1 1-1.5-.4-2.9-1.6-1.6-1.7-1.6-1.7 0M591.6 551.1c4.9 5.3 9.1 9.4 9.4 9.2.2-.2-3.8-4.5-9-9.6l-9.4-9.2zM604.9 554.2c.4 1.2 1.4 2.4 2 2.6.8.3.7-.5-.4-2.2-2.1-3.2-2.7-3.3-1.6-.4M645 611c.6 1.1 1.3 2 1.6 2 .2 0 0-.9-.6-2s-1.3-2-1.6-2c-.2 0 0 .9.6 2M528 504.9c0 .5.5 1.3 1 1.6.6.3 1 .2 1-.4 0-.5-.4-1.3-1-1.6-.5-.3-1-.2-1 .4M532.5 509.1c-.4.6-.5 1.2-.2 1.5.2.3.7-.2 1-1.1.7-1.7.1-2-.8-.4M484.7 510.4c-1.5 1.2-1.5 1.4-.2 1.9.8.4 1.4.1 1.2-.6-.1-.7.4-1.1 1.1-.9.8.1 1.1-.2.7-.8-.8-1.2-.6-1.2-2.8.4M539 514.9c0 1.3 2.6 3.2 3.3 2.4.4-.3.7.1.7 1s.8 1.7 1.7 1.7c1.3 0 1-.7-1.2-3-2.9-3-4.5-3.8-4.5-2.1M503.5 516c-8.5 4.3-18.3 13.1-54.6 49.7-42.4 42.7-52.1 52.8-66.6 69.6-18.8 21.9-34.1 47.6-38.4 64.7-1.7 6.8-2.1 10.4-1.7 18.7.4 9.3.8 10.9 4.1 17.6 2 4.1 5.5 9.4 7.8 11.8l4.1 4.4-2.9-4c-5.3-7.2-4.8-7.1 2.5.7 9 9.5 23.3 19.6 69 48.7 2.7 1.7 1.6.2-4.3-5.8-4.4-4.4-8.4-8.1-9-8.1-.5 0 .9 1.8 3.2 4s3.9 4 3.4 4c-.4 0-1.6-.9-2.6-2s-2.4-2-3.2-2-1.2-.4-.8-.9c.3-.6-.3-1.4-1.2-2-1.2-.7-1.3-1-.4-1.1.7 0-5.9-7.4-14.6-16.4-19.8-20.4-24.2-25.5-28.7-33.5-4-7-4.3-7.9-2.1-6.1.8.7 1.5.9 1.5.5s1.4 1 3.1 3.1c4 5 4.8 5.7 2.4 1.9-2.4-3.7-5.5-10.1-5.5-11.2 0-.4 1.2 1.2 2.5 3.6 8 13.9 24.3 31.4 51 54.8 15.3 13.4 58.2 57.4 67.8 69.6 8.2 10.3 11 16.7 11.5 25.9l.4 7.7 2.5-2.7c1.4-1.5 2.1-2 1.4-1.1-.8 1.2-.7 1.6.5 1.6s1.5-.7 1-3.1c-.4-2.3-.3-2.7.4-1.6.5.8.8 3.5.5 6-.4 3.5-.3 4 .4 2.3.6-1.3 1.4-5.9 1.9-10.3.8-8 .8-8.2-2.5-14.1-9.5-17.2-16.6-26.3-33.8-43.2-9.3-9.3-19.2-18.4-22-20.2-2.7-1.8-7.7-6.1-11-9.4-4.6-4.7-5.5-6.1-4-6.1 3.7 0 14.2-8.1 18.8-14.4 1.1-1.6 3.1-5.4 4.3-8.5 1.3-3.1 2.4-4.9 2.4-4 0 2.5-2.9 8.9-6.3 13.9-1.7 2.5-3.2 5-3.2 5.6 0 1.7-7.3 9.4-9 9.4-1.1 0-1 .7.6 3.5 1.2 1.9 2.5 3.6 3 3.6 1.8.3 2.4.6 5.9 2.5 1.9 1 5.1 3.6 7.2 5.6 2.2 2.1 4.4 3.8 5 3.8s3.4 1.7 6.2 3.8c5.7 4.3 9.6 6.6 9.6 5.6 0-.3.6-.1 1.4.5 1 .9 1.6.9 2.1.1s1.2-.5 2.2.7c.8 1 1.1 1.1.7.3-.7-1.3-.5-1.3.9-.1 1.4 1.1 1.7 1.1 1.7 0s.2-1.1 1 .1 1 1.2 1.1-.5c0-1.1.3-1.4.6-.7.5 1.4 5-3.6 4.5-5.1-.1-.5.3-.5.9-.1.9.5 1 .2.6-.9-.7-1.8.8-3.3 1.8-1.7.4.6 1 .8 1.5.5s1.1-.1 1.5.5c.3.5 1.1 1 1.6 1 .6 0 .7-.6.3-1.3-.6-.9-.4-.9.7-.1.8.6 2.7 1 4.2.9s3 .2 3.3.6c.2.5 1.1.6 1.9.2.9-.3 1.5.1 1.5.8.1.9.4.8 1.1-.4.6-.9 1.4-1.5 1.9-1.2.4.3 1.1-.2 1.4-1.1.3-.8 1.1-1.2 1.7-.8.8.5.8.1.1-1.3-.9-1.5-.8-2 .3-2 .8 0 1.2.4.9.9-.3.4 0 .8.5.8.6 0 1.1-.8 1.1-1.9 0-1.5-.6-1.8-3-1.6-1.6.1-2.7-.1-2.5-.5.3-.5 1.3-.7 2.3-.6.9.2 2-.2 2.4-.8.5-.7.8-.6.8.4 0 1.3.1 1.3 1 0 .8-1.1.9-.7.5 1.5-.3 1.6-.2 2.4.1 1.7.5-1 .9-1 2.2 0 1.4 1 1.5 1 .5-.2-1.5-1.6-1.7-3.4-.4-2.6.5.3 1.4-.1 2.1-.9s1.9-1.5 2.7-1.5c.7 0 1.6-.6 1.9-1.3.3-.8 1-1.4 1.7-1.5.7 0 2.6-.4 4.2-.7 4.4-1 7.6-1.3 7-.7-.7.7 1.5 3.3 2.4 2.8.4-.3.8 1.1.9 3 .2 2.6-.1 3.4-.9 2.8-.8-.4-.9-.3-.5.5.4.6 1.1.9 1.6.6s1.1-.1 1.5.5c.9 1.4 2.5.3 2.5-1.7 0-1.2-.3-1.3-1.3-.4-1 .8-1.4.7-1.4-.3 0-2.2 3.1-1.2 4.4 1.5l1.3 2.4v-2.7c0-1.5.5-3 1-3.3.6-.3 1 0 1 .7 0 .9.3.9 1-.2.8-1.3 1-1.3 1-.1 0 1.1.4 1 1.6-.5.8-1 1.2-1.2.8-.4s.8 0 2.6-1.8c1.9-1.8 4.4-3.2 5.8-3.2 1.7 0 2.3-.4 1.8-1.5-.3-.8-.2-1.4.2-1.4 2 .3 2.5-.2 1.2-1.2-1.3-.9-1.2-1 .2-.5 3.5 1.1 2.7-1.2-1-2.7-6.4-2.5-15-13-17.3-20.9-.8-3-.1-3.6 2-1.6 1.1 1.1 1.2.9.3-.7-.5-1.1-1.3-4-1.6-6.5-.6-4.5-.6-4.5 1.3 1.2 3.4 10.5 9.9 18.7 19.1 24.3 2.5 1.5 4.6 2.8 4.7 2.9.6.5-16.5 17.6-25.7 25.8-11.6 10.2-27.4 26.2-34.2 34.8-6.3 7.8-12.8 19.3-12.8 22.7 0 3.1 2.7 16.6 4 19.8l.9 2v-2c0-1.1-.3-3.7-.8-5.8-.8-3.2-.7-3.6.5-2.6.7.6 1.2 1.6 1.1 2.2s.5 1.2 1.3 1.4c1.2.3 1.6-.8 1.8-4.7.4-7.2 3.3-14.3 10-24.3 7.3-11.1 54.7-59.1 81.7-82.9 24.4-21.5 35.9-34.4 41.4-46.9 1.1-2.4 2-3.8 2-3.1.1.7-.6 2.6-1.4 4.3-.9 1.6-1.3 3.5-.9 4.1s.3.8-.3.5c-.9-.6-2.3 1.3-2.3 3 0 1.4 4-3.2 4.1-4.6.1-.9.5-.5.9.9s.8 1.9.9 1.1c.1-.7 1.2-2.6 2.6-4.3l2.5-2.9-.7 3.3c-.9 4.8-2.8 8.2-7.1 12.6-2 2.1-8.7 9-14.7 15.3-6.1 6.2-19.3 19.4-29.3 29.2-10 9.7-16.6 16.7-14.7 15.5 10.2-6.7 32.5-22.1 32.5-22.5 0-.2-.6-.1-1.2.2-.7.4-.2-.3 1.1-1.5 1.3-1.1 3.1-1.8 3.8-1.6.8.3 1.2.2.9-.3-.5-.8 4.3-5 9.9-8.6 1.7-1 5-4 7.3-6.7 2.4-2.6 4.8-4.8 5.3-4.8 1.5 0 1 2-.7 2.7-2.1.8-5.4 4.1-7.8 7.8l-2 3 3.6-3.1c1.9-1.7 6.3-4.9 9.6-7 3.6-2.3 6.9-5.4 8.1-7.5 2.2-3.9 5.1-6.8 5.1-5.1 0 .5-.7 1.2-1.5 1.6-.8.3-1.5 1-1.5 1.5 0 1.9 2.5.1 5.2-3.8 4.6-6.4 7.8-17.7 7.8-27.3-.1-25.9-14.4-51.9-49.4-89.8-19.3-20.8-91.3-93.2-99-99.5-14.2-11.5-21.5-13.8-30.1-9.5m29.5 54.6c0 1.7-2.2 1.4-2.8-.4-.2-.7.3-1.2 1.2-1.2s1.6.7 1.6 1.6m-38.2 4.6c1.8 1.8 1.5 4.5-.6 5-1.7.5-4.2-1.3-4.2-3 0-.9 2.1-3.2 3-3.2.3 0 1.1.5 1.8 1.2M523 581c0 .5-.9 1-2 1s-2-.5-2-1c0-.6.9-1 2-1s2 .4 2 1m23.4 2.6c1.8.7 2 2.2.7 4.2-.7 1.2-1.2 1.2-3 .1-2.3-1.5-2.8-3.5-.8-4.2.6-.3 1.3-.6 1.4-.6.1-.1.8.2 1.7.5m22.1 7.4c.3.5.1 1-.4 1-.6 0-1.1-.5-1.1-1 0-.6.2-1 .4-1 .3 0 .8.4 1.1 1m-49 6.5c6.3 0 8.9.5 12.2 2.2 2.5 1.3 4.5 1.8 4.8 1.2.4-.5 1.1-.7 1.6-.3.5.3.7.9.4 1.4s1.1 2 3.2 3.4c2.1 1.5 3.2 2.6 2.5 2.6-.6 0-1.2.5-1.2 1.1 0 .5.4.8.9.5.5-.4 1.8.9 3 2.7 1.8 2.9 3.4 5 7.1 9.4.6.7.8 1.3.5 1.3-.4 0 .5 2 1.8 4.5 1.4 2.5 2.2 4.5 1.8 4.5-1 0-.8 3.1.3 4.8.4.7.5 2 .2 2.8-.3.9-.3 2.1.1 2.7 1.1 1.7 1.1 12.1 0 13.5-.5.7-1.1 3.1-1.2 5.5-.4 6.9-1.2 10-2.9 11.2-.8.7-1.3 1.5-1 1.8s-.4 1-1.5 1.7c-1.2.6-2.1 1.9-2.1 2.9s-.9 3-2 4.3c-1 1.4-1.6 2.8-1.3 3.2.3.3.1.6-.5.6s-.9.7-.6 1.5c.4.8.1 1.5-.6 1.5-.6 0-.9.4-.6.9s-.1 1.2-1 1.5-1.2 1.1-.8 1.8.4 1-.1.6c-.9-.9-5.5 3.7-5.6 5.5 0 .7-.4.3-.9-.8-.8-1.8-.9-1.8-.9-.2-.1 1-.5 1.5-1.1 1.2-.6-.4-.7.1-.3 1.1.5 1.3.3 1.5-.8 1-.8-.4-.6-.1.4.7 1.6 1.3 1.6 1.5.2 2.1q-1.65.6-.9-.6c.4-.7.3-.8-.5-.4-.9.6-.9 1.2.1 2.4.7 1 .9 1.4.4 1s-1.7-.3-2.7.3c-1.4.7-1.9.6-1.9-.2 0-1.8-1.2-.3-1.5 1.8-.7 5.5-2.9 8.1-3.8 4.5-.3-1.4-.6-1.3-1.6.8-1.1 2.3-1.1 2.3-.7.2.2-1.2-.1-2.3-.7-2.4-1.6-.2-4.7-.5-7.6-.7-1.7-.1-2.2-.5-1.7-1.7.5-1.4.4-1.5-.7-.5-1.1.9-1.7.8-2.6-.3-1.6-1.9.1-3 3.2-2 1.2.3 1.9.4 1.6 0-.4-.4-2-1.1-3.7-1.5-2.4-.7-3.2-.6-3.6.6-.3.8-1 1.1-1.6.8-.6-.4-.8-1.1-.4-1.6.3-.5.2-.8-.3-.7-.4.2-.9-.2-1-.7-.1-.6.6-.9 1.5-.7 1.5.2 1.5.1.2-.7-1-.7-2.2-.6-3.8.5-2 1.3-2.3 1.3-2.8-.1-.4-1.1-1-1.2-1.8-.6-1.4 1.2-4.9-2.2-3.8-3.5.4-.4.2-.4-.5 0s-1.6-.2-2.2-1.3c-.6-1-2.2-2.2-3.7-2.5-3-.8-5.6-3-4.7-4 .4-.3.1-.6-.5-.6-.8 0-.9-.7-.2-2.5.8-2 .6-2.7-1-3.5-1.1-.6-2-1.7-2-2.5s-.5-1.5-1.2-1.5c-.6 0-.9-.3-.5-.6.5-.6 0-1.5-3-4.9-1-1.1-1-1.5 0-1.9.6-.4.3-.5-.9-.2-1.3.2-2.1-.2-2.1-1s.5-1.4 1.1-1.4.6-.4-.2-.8c-1.1-.7-1.6-4.4-2.1-14-.1-.7-.7-1-1.3-.7-.7.4-.4-.1.6-.9 1.5-1.2 1.6-1.6.5-1.7-.9 0-1-.2-.2-.5.7-.3.9-1.2.6-2.1-.3-.8 0-1.9.8-2.4 1.1-.7 1.1-.9.1-.9-.7 0-1.2-.8-1.1-1.8.1-.9 0-1.9-.1-2.2-.9-2.4-.6-4.8.7-6.2.9-1 1.2-1.8.8-1.8-.5 0 0-.7 1.1-1.5 2.2-1.7.7-1.9-3.2-.5-3.6 1.4-5.9-.3-4.1-3.1 1.4-2.3 2.7-2.5 2.7-.4 0 .8.4 1.5 1 1.5.5 0 .7-.7.3-1.6-.4-1.2 0-1.4 2.2-.8 2 .5 2.6.4 2.1-.5-.4-.6-.2-1.1.3-1.1.6 0 1.1.6 1.1 1.2 0 .7.9.2 1.9-1.2 1.1-1.3 1.7-2.9 1.4-3.4s-.1-.6.5-.2c.7.4 1.2.3 1.2-.2s1.1-2.2 2.4-3.7c1.9-2.2 2.3-3.3 1.5-4.7-.7-1.4-.6-2 .6-2.4.9-.4 1.4-1.3 1.1-2-.3-.8-.1-1.4.5-1.4s.7-.5.3-1.2c-.4-.6-.3-.8.3-.5.6.4 1.8-.2 2.8-1.3s2.4-2 3.2-2c.7 0 1.3-.4 1.3-.9 0-.4 2.1-1.4 4.8-2.1 7.3-1.9 11.6-3.3 12.6-4.2.5-.4 1.4-.4 2 0s4.7.7 9.1.7m-51 .5c.3.5.1 1-.4 1-.6 0-1.1-.5-1.1-1 0-.6.2-1 .4-1 .3 0 .8.4 1.1 1m90.7 10.8c.6 2.1-2.3 5.4-3 3.4-.2-.7-.8-1-1.3-.6-1.5.9-1-.8.8-2.8 2-2.3 2.9-2.3 3.5 0m7 14.6c1.5 3 1.5 3.6.2 5.5-2 2.8-3.6 2.7-5-.3-.9-1.9-.8-3.1.4-5.5.8-1.7 1.8-3.1 2.1-3.1.4 0 1.5 1.5 2.3 3.4M462 648c1.3.8 1.3 1-.2 1-.9 0-2-.5-2.3-1-.8-1.3.5-1.3 2.5 0m-16 2c0 .5-.4 1-1 1-.5 0-1-.5-1-1 0-.6.5-1 1-1 .6 0 1 .4 1 1m129.5 1c.3.5.1 1-.4 1-.6 0-1.1-.5-1.1-1 0-.6.2-1 .4-1 .3 0 .8.4 1.1 1m-5.5 9c0 .5-.5 1-1.1 1-.5 0-.7-.5-.4-1 .3-.6.8-1 1.1-1 .2 0 .4.4.4 1m-185.3 4.6c.8 2.1-1.3 4.2-2.8 2.7-1.3-1.3-.5-4.3 1.1-4.3.6 0 1.3.7 1.7 1.6m50.2 7.4c7.8 21.3 36.4 48.4 59.9 56.6 3.5 1.2 5.7 2.4 5 2.7-1.5.6.2.7 12.8.7 7.8 0 10.3-.4 17.2-3.1 4.5-1.6 12.7-6.1 18.4-9.9 16.6-10.9 29.1-24.5 39.5-42.5 3.4-5.9 2.8-3.8-1.3 4.9-2 4.2-3.4 7.9-3.1 8.2s2.6-3.2 5.1-7.8c5.5-9.9 6.1-9.7 1 .5-5.1 10-8.7 15-16.8 23.6-20 20.7-47 31.6-69.2 27.7-28.8-5.1-57.9-27.3-69.4-52.9-2.5-5.7-4.8-12.9-3.7-11.7.3.3 1.9 3.9 3.6 8.1s3.8 8.5 4.6 9.5c1.3 1.8 1.4 1.8.8-.6-.3-1.4-1.3-3.3-2.1-4.3-.8-.9-1.2-1.7-.9-1.7s-.2-1.9-1.2-4.3c-1.9-4.4-3.4-9.7-2.8-9.7.3 0 1.4 2.7 2.6 6m137.1-4c0 .5-.4 1-1 1-.5 0-1-.5-1-1 0-.6.5-1 1-1 .6 0 1 .4 1 1m22 3.7c-1.1 1.7-1.1 1.7-.6 0 .3-1 .6-2.4.7-3 0-.9.2-.9.5 0 .3.7 0 2-.6 3m-117.8 21.5c-.7.7-1.2.8-1.2.2 0-1.4 1.2-2.6 1.9-1.9.2.3-.1 1.1-.7 1.7M624 703c0 .5-.4 1-1 1-.5 0-1-.5-1-1 0-.6.5-1 1-1 .6 0 1 .4 1 1m-252.3 5.2c-.3.8-.6.5-.6-.6-.1-1.1.2-1.7.5-1.3.3.3.4 1.2.1 1.9m126.3.4c0 .8-.4 1.2-1 .9-.5-.3-1-1-1-1.6 0-.5.5-.9 1-.9.6 0 1 .7 1 1.6m-125.3 3.6c-.3.8-.6.5-.6-.6-.1-1.1.2-1.7.5-1.3.3.3.4 1.2.1 1.9m276.3 5.7c-1.9 5-7.4 13.7-12 19.1-3.1 3.6-1.2.3 3.1-5.5 3.9-5.1 9.8-16.8 10-19.5 0-.8.3-1 .5-.4.3.6-.4 3.5-1.6 6.3m-269.1 9.6c0 .5-1.5-1.9-3.4-5.5s-3.4-7-3.4-7.5c0-.6 1.5 1.9 3.4 5.5s3.4 6.9 3.4 7.5m.9-4.5c1.4 3 3.1 6.8 3.8 8.3.9 1.9 1 2.5.2 2.1-.8-.5-.9-.1-.5 1.2.7 1.8.6 1.8-.9-.1-2.5-3.2-3.9-6.5-1.5-3.5 2.9 3.5 2.6 2.4-1.4-6.3-1.9-4.2-3.5-8.2-3.4-8.9 0-.9.2-.8.6.2.3.8 1.7 4 3.1 7m264.2-4.3c-1.1 1.7-1.1 1.7-.6 0 .3-1 .6-2.4.7-3 0-.9.2-.9.5 0 .3.7 0 2-.6 3m-277 1.8c0 .5-.5.3-1-.5s-1-2-1-2.5c0-.6.5-.3 1 .5s1 1.9 1 2.5m234 4.7c0 1-.5 1.8-1.1 1.8-.5 0-.7.5-.3 1.2.5.7.3.8-.6.3-.7-.4-1.6-.2-2.1.6-.7 1.1-.9 1.1-.9-.3 0-.9-.7-2.1-1.6-2.6-1.5-.8-1.5-1.1.2-2.8 1.5-1.6 2.4-1.7 4.1-.9 1.3.5 2.3 1.8 2.3 2.7m41.3-2.7c-.3.9-.8 1.4-1 1.1-.3-.3-.2-.9.2-1.5.9-1.6 1.5-1.3.8.4m-278.3 3c0 .5-.5.3-1-.5s-1-2-1-2.5c0-.6.5-.3 1 .5s1 1.9 1 2.5m-5 7c0 .5-.5.3-1-.5s-1-2-1-2.5c0-.6.5-.3 1 .5s1 1.9 1 2.5m77 6c0 2.1-3 3.1-4 1.4-1.1-1.7-.3-2.9 2.1-2.9 1 0 1.9.7 1.9 1.5m-46.1 4 2.3 4-2.6-3c-1.4-1.7-2.6-3.6-2.6-4.4 0-1.7.1-1.7 2.9 3.4m260.4 3.4c-.9 1.2-2.1 2.1-2.5 2.1s.2-1.1 1.4-2.5 2.3-2.3 2.5-2.1c.3.2-.4 1.4-1.4 2.5M371.5 750c1 1.1 1.3 2 .7 2s-1.6-.9-2.2-2-.9-2-.7-2 1.2.9 2.2 2m173.5 5c0 .5-.4 1-1 1-.5 0-1-.5-1-1 0-.6.5-1 1-1 .6 0 1 .4 1 1m98-.6c0 .2-.8 1-1.7 1.7-1.6 1.3-1.7 1.2-.4-.4s2.1-2.1 2.1-1.3M389.5 762c1 1.1 1.6 2 1.3 2s-1.3-.9-2.3-2-1.6-2-1.3-2 1.3.9 2.3 2m-1.7 7.1c3.1 2.7 4.4 3.4 5.3 2.5.9-.8 1-.8.4.3-.5.9-.1 1.9 1 2.8 1.1.7 1.5 1.3 1 1.3-1.5 0-14.3-9.1-14.9-10.5-.8-2.2 2.7-.5 7.2 3.6m5.7-3.1c.3.6-.1.7-.9.4-1.8-.7-2.1-1.4-.7-1.4.6 0 1.3.4 1.6 1m8.5 9.2c0 .5-.9.4-2-.2s-1.7-1.6-1.4-2.2c.5-.8.1-.9-1.2-.4-1 .4-1.5.4-1.2 0 .4-.4.2-1.6-.4-2.8-.7-1.4.1-1 2.6 1.3 2 1.9 3.6 3.9 3.6 4.3m93 14.2c0 .2-.7.6-1.5 1-.8.3-1.5.1-1.5-.4 0-.6.7-1 1.5-1s1.5.2 1.5.4m-19 4.6c0 .5-.2 1-.4 1-.3 0-.8-.5-1.1-1-.3-.6-.1-1 .4-1 .6 0 1.1.4 1.1 1m23.4-.4c3.4 1.3 1.2 7-2.3 5.9-2.2-.7-4.3-4.3-3.4-5.8.5-.9 3.5-.9 5.7-.1m.6 8.4c0 .5-.7 1-1.5 1s-1.5-.5-1.5-1c0-.6.7-1 1.5-1s1.5.4 1.5 1m18 .4c0 .3-.4.8-1 1.1-.5.3-1 .1-1-.4 0-.6.5-1.1 1-1.1.6 0 1 .2 1 .4m-8 1.6c0 .5-.2 1-.4 1-.3 0-.8-.5-1.1-1-.3-.6-.1-1 .4-1 .6 0 1.1.4 1.1 1m8.4 1.5c-.4.8-1.1 1.2-1.6.9-.6-.4-.5-1 .3-1.5 1.9-1.2 1.9-1.1 1.3.6"/><path d="M468 641.2c0 .4.6.8 1.4.8s1.7-.4 2-.8c.2-.4-.4-.8-1.5-.8-1 0-1.9.4-1.9.8M522.6 709.2c.3.4 1.1.5 1.9.1 2.1-.7 1.9-1.2-.4-1-1.1 0-1.8.5-1.5.9M520 711.2c0 .5 1.4.8 3 .8 1.7 0 3-.4 3-.9s-1.3-.8-3-.7c-1.6 0-3 .4-3 .8M370 733.9c0 .6.4 1.3 1 1.6s.7-.1.4-.9c-.7-1.8-1.4-2.1-1.4-.7M450.5 775c-.3.5-.1 1 .4 1 .6 0 1.1-.5 1.1-1 0-.6-.2-1-.4-1-.3 0-.8.4-1.1 1M444.9 779.7c-1.3 1.7-1.3 1.7.6.3 1.1-.8 2.2-1.6 2.4-1.7q.3-.3-.6-.3c-.6 0-1.7.8-2.4 1.7M580.5 784c.4.6 1.1.8 1.6.5 1.4-.9 1.1-1.5-.7-1.5-.8 0-1.2.5-.9 1M534.8 798.7c.7.3 1.6.2 1.9-.1.4-.3-.2-.6-1.3-.5-1.1 0-1.4.3-.6.6M499.5 805.9c.4.8-.4 2.4-2.1 4.2s-2.2 2.8-1.2 2.4c.9-.4 1.9-1.3 2.2-2.1.3-.9.9-1.3 1.4-1 .4.2.8-.4.9-1.4.1-1.1-.3-2.3-.9-2.6-.7-.5-.8-.2-.3.5M502.2 808.3c.2 2.1.5 2.4 2 1.6 1.3-.7 1.8-.6 1.8.3 0 .8.4.6 1-.4.6-.9 1.9-1.5 3-1.3s2.2 0 2.4-.4c.3-.4-1.4-.7-3.7-.6-2.3.2-4.8-.2-5.4-.7-1-.8-1.2-.4-1.1 1.5M525.7 944.1c.4 1.3.8 1.8 1.1 1 .2-.7-.1-1.8-.6-2.3-.8-.8-.9-.4-.5 1.3M326.5 879c1.9.8 10.3 1.4 9.4.6-.2-.2-2.9-.6-5.9-.9-3.6-.4-4.8-.3-3.5.3M619.5 862.5c-2.2.7-5.3 1.6-6.9 2-1.5.3-2.6.8-2.4 1 .6.7 12.1-2.4 13.3-3.6 1.1-1.1 1-1.1-4 .6M835.1 423.6c-1.4 5-3.5 7-8.4 7.9-4.5.9-5.5 2.1-2.5 3.1 6.3 1.9 10.3 7 11.7 14.7l.8 4.2 1.2-5.7c1.2-5.8 5.6-11.8 8.6-11.8.7 0 1.8-.7 2.5-1.6.8-.8.9-1.4.4-1.3-.5.2-2.8-.7-5.1-1.9-3.8-2-6-4.9-7.6-10.2-.2-.8-.9.3-1.6 2.6m7 8.1c1.3.6 3.1 1.3 3.9 1.5.9.3-.2 1.3-2.7 2.8-2.4 1.3-4.7 3.6-5.4 5.2l-1.2 3-1.3-3.1c-.7-1.7-3-4.1-5-5.3-2.1-1.2-3.3-2.3-2.8-2.4s2.1-.5 3.6-.8c1.9-.4 3-1.6 3.8-4.2l1.2-3.6 1.7 2.9c1 1.5 2.9 3.3 4.2 4M745.5 441c1 1.1 2 2 2.3 2s-.3-.9-1.3-2-2-2-2.3-2 .3.9 1.3 2M762.6 442c.4.8 3.1 4.6 6 8.5 23.9 32.1 41.9 78.9 48 124.9 1.1 7.6 1.7 20.1 1.8 33.9 0 12 .4 20.8.8 19.5.3-1.3.6-4.9.7-8s.6-6 1.1-6.3c.6-.4 1-.3.9.2-.1.4 0 3.9.1 7.8.2 6.8.2 6.9 1.2 3 1.1-4.5.3-35-1.3-47.9-3.9-32.1-14.7-67.3-30.4-98.6-5.5-10.9-19.8-33.4-23-36-1-.8.2 1.3 2.6 4.8 6.3 9 7.9 12.1 6.9 12.7-1.1.7-3.2-2.9-2.3-3.9.3-.3.2-.6-.4-.6s-3-2.5-5.4-5.6c-5.5-7.1-8.3-10.3-7.3-8.4m18.6 21.4c5.3 9.7 6.7 12.6 5.9 12.6-.5 0-1.2-.9-1.6-2-.3-1.1-2.2-4.2-4.1-6.9-1.9-2.8-3.4-5.3-3.4-5.6 0-1.4 2-.2 3.2 1.9m9.8 19c0 1.2-1.4-.5-3.1-3.9-.8-1.6-.6-1.5 1 .4 1.2 1.3 2.1 2.8 2.1 3.5m9.3 19.4c1.5 3.6 2.5 6.7 2.2 7-.7.7-.7.8-4.8-9.3-4-9.9-1.8-8 2.6 2.3m4 10.9c.5 2.6.4 2.6-.9.8-1.6-2.2-1.8-3.5-.5-3.5.5 0 1.1 1.2 1.4 2.7m17 92c.4 1.8.3 3.3-.1 3.3s-.9-1.7-1-3.7c-.3-4.4.3-4.2 1.1.4"/><path d="M751.5 448.9c2 2.8 3.3 5.1 2.8 5.1s-1.6-1.3-2.6-2.9c-.9-1.6-2.5-3.1-3.6-3.4-1.4-.3-.6 1.4 3.3 6.7 14.9 20.2 25.7 41.1 35.8 69.1 11.4 31.8 15.7 67.3 12.9 106.8-2.2 31.9-11.2 64.5-24.8 89.7-2.1 3.9-2.6 5.5-1.4 4 1.8-2.1 5.5-9.2 12.9-25 1.1-2.4 1.1-2.4.5.5-.3 1.6-1.9 5.8-3.5 9.3-1.5 3.4-2.8 6.5-2.8 6.8s-1.1 2.8-2.5 5.6c-1.3 2.7-2 4.6-1.5 4.3 1.8-1.1 12.3-24.3 16.1-35.5 7.5-22.4 10.1-35.5 11.3-57.3.4-7.2.3-8.7-.9-8.7-1.1 0-1.5-1.2-1.5-4.4 0-3.7.4-4.6 2.2-5.1 2.1-.7 2.1-1 1.5-16.4-1-24.6-5.1-49-11.2-67.6-10.5-31.8-23.3-57.5-38.4-77.4-6.8-8.9-10.3-12.1-4.6-4.2m53.2 158.3c-.3.7-.5.2-.5-1.2s.2-1.9.5-1.3c.2.7.2 1.9 0 2.5m0 4c-.3.8-.6.5-.6-.6-.1-1.1.2-1.7.5-1.3.3.3.4 1.2.1 1.9m-2.4 25.9c-.4.4-.6-2.2-.3-5.9l.5-6.7.3 5.9c.2 3.2-.1 6.3-.5 6.7M183 454.7c-8.7 2.8-11.9 11.4-6.4 17 2.2 2.2 3.2 2.5 7.1 2 6.4-.7 8.7-3.3 8.7-9.8 0-4.4-.4-5.5-2.8-7.5-2.7-2.4-3.8-2.7-6.6-1.7m4.9 6.7c1.2 2.5 1.1 3.1-.6 5.5-2.5 3.3-5.6 3.8-8.2 1.2-2.9-2.9-2.8-7.5.2-8.9 3.7-1.8 7-1 8.6 2.2M848 494.7c0 .7.7 3.1 1.6 5.2 1.7 4.2 8.4 9.2 12.1 9 1.4 0 1.3-.3-.7-1.2-5.3-2.5-8.2-5.2-10.5-9.6-1.3-2.5-2.4-4-2.5-3.4"/><path d="M846.5 501.2c-.6 2.5-4.5 5.4-10 7.4-2.5 1-2.7 1.3-1.3 1.9 1 .4 2.3.5 3 .3.7-.3 3 1.6 5 4.1 2.8 3.4 4 5.8 4.5 9.6l.6 5 1.3-4.8c1.4-5.7 3.5-9.1 6.9-11.3 3.6-2.4 3.1-3.8-.6-1.7-1.8 1-4.1 3.4-5.3 5.3l-2.1 3.5-.3-2.7c-.2-1.5-1.8-4-3.7-5.6l-3.3-3 2.9-2.1c2.7-2 4.8-6.5 3.6-7.8-.3-.3-.9.6-1.2 1.9M211.7 529.7c-5 11.7-10.6 42.7-11.5 63.8-1.9 44.6 3.7 77.1 20.5 118 5.6 13.7 21.3 43.5 23 43.5.2 0 .2-.3 0-.8-6.7-11.6-10.9-19.5-14.4-27.2-4.9-10.6-3.5-10.3 2.2.5 6.4 12 15.6 27.5 16.8 28.2.7.4.5-.4-.4-1.7-.9-1.4-3.7-6.2-6.3-10.8-23.6-41.8-34.7-79.3-37.2-126.2-1.2-21.1 3.1-55.5 9.6-78.2 3.5-12.1 3.6-12.8 1.2-12.8-1.2 0-2.5 1.4-3.5 3.7m3.3.4c0 .6-.4.7-1 .4-.5-.3-1-1.1-1-1.6 0-.6.5-.7 1-.4.6.3 1 1.1 1 1.6M157.1 556c-.3 10-11.3 22.5-22.1 24.7-4.5 1-4.5 1-1.5 1.8 7.8 2 14.5 6.7 17.2 12 2 3.7 6.3 16 7 20 .5 2.6.7 2.8 1.4 1 .4-1.1.8-4.7.8-8 .2-12.2 8.8-22.5 19.9-24 7.8-1.1 8-1.7 1.2-3-3.6-.7-7.6-1.7-9-2.3-4.6-1.8-9.4-8.2-11.4-15.2-2.7-9.8-3.4-11.2-3.5-7m4.7 18.2c2.1 3.4 7.8 7.2 9.4 6.2.4-.3.8 0 .8.5 0 .6-.6 1.1-1.3 1.1-3.9 0-12.7 10.8-12.7 15.7 0 .8-.7 2.1-1.5 2.9-1.3 1.3-1.4 1.2-.9-1.4.9-4.4-2.8-10.7-8.3-14.3-2.9-1.7-5.5-2.7-6.8-2.4-1.1.3 0-.4 2.5-1.6 7.6-3.4 13.9-10.6 14.1-16.1.1-1.6.5-1 1.2 1.7.7 2.3 2.2 5.7 3.5 7.7m-3.1 29c-.3.8-.6.5-.6-.6-.1-1.1.2-1.7.5-1.3.3.3.4 1.2.1 1.9m-.7 4.5c0 3.2-.5 2.8-1.4-1-.4-1.9-.3-2.6.4-2.2.5.3 1 1.8 1 3.2"/><path d="M861.6 647c-5.2 30.3-16 59.3-31.3 84.5-7.2 11.7-9.8 19.1-10.8 29.9-.5 6.1-.4 7.7.6 7.4.7-.2 2-2.4 2.8-4.8 2.2-6.2 10.9-15.2 17.3-18.1 7.3-3.2 19.5-3.3 25.3-.2 5 2.7 8.6 6.5 11.5 12.2 2.7 5.5 3 16.4.6 22.9-3.5 9.6-15.6 24.1-28.8 34.7-4 3.3-8.1 6.8-9 7.9-2.6 3.3-2.9 1.4-.5-3.4 3-6.2 3.1-17.8 0-23.5-5.4-10.1-15.4-13.9-25-9.6-5.7 2.6-7.5 5.7-7.1 12.2.2 4.3.8 5.5 3 7.2 2.4 1.8 3.2 1.9 6.7.8 6.3-1.8 8-7.4 4-12.5l-2-2.6h3.8c5.3 0 7.8 2.1 9.8 7.9 5.6 16.9-12.1 36.8-62.5 70.3-8 5.3-20.3 13-27.5 17-17.4 10-20.3 11.9-49.2 32.5-13.7 9.8-28.8 20.5-33.7 23.8-63 43.2-77.9 55.1-99 79.4-23.3 26.8-30 40.9-41.1 86.1-3.7 15.1-6.9 28.2-7.2 29-.6 1.8-2.3-3.9-10.3-34.4-6.2-23.5-8.8-31.2-14.7-42.9-8.8-17.7-22.1-34.6-44.9-56.9-19.8-19.4-27.9-25.4-94.3-70.4-27.8-18.9-55.1-37.4-60.6-41.1s-13.8-9.1-18.5-12c-10.7-6.5-33.9-22.5-46.7-32.3-22-16.7-32.3-30.5-32.3-43.1 0-5 .4-6.3 2.8-8.9 2.8-3.1 7.7-4.7 10-3.2 1 .7 1 1.4-.3 3.8-.8 1.6-1.5 3.6-1.5 4.5 0 3 6.7 7.3 9.7 6.2 1.6-.6 1.5-.8-.7-1.4-2.4-.7-2.4-.7-.2-.8 1.2-.1 2.2-.7 2.2-1.5s.7-1.6 1.5-2c1.8-.7 2 .5.3 2.2-.9.9-.9 1.2 0 1.2 3.9 0 3.9-10.5 0-14.7-6.7-7.3-20.4-6.7-26.6 1.2-2.5 3.2-5.2 11.4-5.2 16 0 4.4 2.6 12.8 5 15.8 1.1 1.4 2 2.8 2 3.1 0 1.2-23.8-18.1-30.2-24.5-8.5-8.6-14.8-20.8-15.5-30.3-2-23.9 21.5-36.3 42.9-22.7 5.8 3.7 12.5 12.5 14.4 18.8 1.3 4.7 1.4 4.5.8-5.7-.7-12.9-2.8-19.7-9.9-31.2-10.5-17-17.8-35-25.6-63.2-4.9-18-6.2-21.7-5.5-15.8.2 1.7-.1 2.9-.5 2.6-1.5-.9-1 2.7 2.1 15.1 4.3 16.9 10.7 35.4 16 46.3 3 6.1 4.1 9 3 8.6-7.1-2.9-10.7-3.6-16-3.1-22.7 2-36.3 25.6-30.6 52.9 4.4 20.6 23.2 43.5 47.4 57.8 4 2.3 7.1 4.4 6.9 4.6-.4.4-4.3-.9-13.7-4.4-13.1-5-16.3-5.6-27-5.6-13.3 0-19.4 2.2-27.2 9.7-7.7 7.3-10.2 15-9.6 28.6.6 11.4 3.2 18.3 9.7 25.4 13.8 14.9 38.1 15.6 43.6 1.2 3.5-8.9-1.3-17.5-9.6-17.5-4.2 0-4.3 0-2.1 1.6 4.3 3 1.9 11.9-4 15-6.7 3.5-17.6-.7-21.4-8.3-4.6-9.3-1.1-21.9 8.6-30.6 18.8-16.9 45.8-14.9 75.3 5.6 5.1 3.5 11.6 7.6 14.5 9.1 2.8 1.4 5.2 2.8 5.2 3.1 0 .2-3.5.1-7.8-.2-7.4-.5-7.8-.4-7.8 1.6 0 1.6.8 2.2 3.6 2.7 28.5 4.9 36 8.4 81.5 38.6 17.1 11.3 36.5 23.6 43.3 27.3 6.7 3.7 12.1 7 11.8 7.2-.2.2-3-.8-6.2-2.2-6.7-3-17.9-5.5-40.4-9-8.5-1.4-20.7-3.4-27-4.5-7-1.3-16.7-2.2-24.7-2.3-7.2-.1-12.9-.5-12.5-.9 1.2-1.2 11.4-3.6 18.5-4.3 7-.8 33.3 1 38.1 2.6 1.6.5 3.1.8 3.3.6.1-.2-3.2-2.6-7.5-5.4-4.2-2.8-13.3-9-20.2-13.8-26.5-18.3-35.2-22.4-49.5-23.2-23.8-1.3-51.2 12.1-64.5 31.7-13.8 20.4-15.9 38.5-6.4 57.1 4.8 9.6 18.3 19.9 31.4 24 22.3 6.9 47.8.3 56.6-14.7 8.1-13.8.5-29.4-14.4-29.4-4 0-5.7.5-8.1 2.6-4.1 3.4-3.9 4.4 1 4.4 8.2 0 12.6 8.9 8.4 17-4.1 7.9-20 10.2-31 4.5-6.7-3.4-10.1-7.7-13.7-17-1.9-5-2.3-7.9-2.3-17 0-10.3.2-11.3 3-16.4 4-7.2 14.3-16.5 23-20.6 18.9-9 42.3-8.4 58.4 1.5 2.6 1.7 5.3 3 5.9 3s1.3.3 1.5.7c.3.5-3.8.8-9.1.9-11.3.1-18 2.1-27.6 8.4-6.5 4.2-12.8 10-10.9 10 .6 0 3.4-.5 6.2-1.2 3.9-.9 7-.8 13.7.2 17.5 2.6 30.8 12.2 47.2 34.2 14.1 18.8 28.9 31.1 43.9 36.4 9.4 3.3 16.4 3.1 27.2-.6 19.3-6.6 30.1-6.1 46.2 2.2 10.5 5.3 12.2 6.9 4.8 4.3-2.4-.9-9.3-2.3-15.3-3.1-30.4-4.3-49.7 7.9-49.6 31.4 0 7.8 2.1 13.2 7.1 18.1 6.8 6.9 16.4 8.9 24.6 5.2 4.8-2.2 6.4-4.7 6.5-10.2s-3.3-9.3-4.5-5c-.6 2.5-6.4 6.1-9.7 6.1s-8.4-3.2-10.7-6.6c-4.3-6.7-.2-21.6 7.5-26.6 3.6-2.4 9.5-4.8 11.6-4.8.6 0-.4 1.2-2.1 2.6-3.4 2.7-4.2 5.4-2 7.2.9.8 1.8.4 3.5-1.3 2.4-2.5 10.2-5.8 18-7.6 14.2-3.2 31.9 4.7 46.2 20.6 2.7 2.9 3.5 4.2 2 3.2-19.6-13.5-30-17.4-44.3-16.4-8 .5-11.8 2.1-13.7 5.6-.8 1.6-.5 2.3 1.9 4 2.8 2 3 2 6.2.3 2.4-1.2 5.8-1.7 11.9-1.7 8.1 0 8.9.2 17 4.4 14.1 7.2 21.8 12.8 32.5 23.4 14.1 14.2 19.6 25.4 17.9 36.6-1 6.7-6.5 12.1-12.4 12.1-3.3 0-4.8-.6-7.1-2.9-4.6-4.7-3.8-8.9 1.6-8.3 3.2.4 5.1 2.2 2.3 2.2-.6 0-.8.3-.5.6 1 1 3.7-1.6 3.7-3.6 0-1-1.2-3.2-2.6-4.9-2-2.4-3.4-3.1-6.2-3.1-5.5 0-8.5 2-10 6.5-1.8 5.3-.8 9.8 3.1 14.2 6 6.9 14.5 8.2 23.5 3.7 9.4-4.7 13.7-16 11.5-30.3-.6-3.6-.9-6.7-.8-6.9.5-.6 3.7 9.5 6.2 19.3 3.3 13.1 3.4 19.7.6 25.4l-2.2 4.4 3.2 3.7c4.3 5.1 10.2 19.1 13.8 33 2.9 11.3 3.9 13.9 3.9 10.6 0-1 1.6-7.5 3.6-14.4 3.9-14.1 11.1-30.4 14.2-32.3 2-1.3 2-1.4-.9-4.6-1.6-1.9-2.9-4.1-2.9-5.1.1-5.4 7.3-33.6 8.9-34.6.4-.3.4 2.1.1 5.1-.8 7.3.5 15.8 3.2 20 1.1 1.9 4.3 4.7 7.2 6.3 4.1 2.4 6.3 3 11.4 3 6.1 0 6.4-.1 11.2-4.6 2.7-2.5 5.4-6.1 6-8 2.3-6.8-2.8-14.4-9.4-14.4-3.7.1-6 1.7-8 5.5-1.4 2.7-1.4 2.9.8 4.1 1.3.6 3.6.9 5 .7 2.2-.5 2.6-.2 2.6 2 0 3.4-5.2 7.7-9.3 7.7-4.6 0-9.7-3.1-11.9-7.1-2.8-4.9-1.9-15 2-23.2 9.5-20.3 40.2-44.4 59.2-46.4 4.9-.5 6.5-.2 9.6 1.6 3.1 1.9 4.1 2 7 1.1 1.9-.7 3.9-2.1 4.5-3.2.9-1.7.7-2.5-1.4-4.6-2.2-2.2-3.7-2.6-10.4-3-12-.7-21.6 2.4-38.3 12.4l-4.5 2.7 6.5-6.7c8.9-9.2 21.4-15.5 32.5-16.3 9.6-.7 18.9 1.6 25.1 6.3 7.2 5.5 9.8 4.2 4.3-2.1-1.8-2-3-3.7-2.8-3.9.9-.9 10.7 3.6 13.7 6.1 3.6 3.1 7.2 12 7.2 17.8 0 4.7-2.2 9.8-5.1 11.9-5.5 3.8-16.9.4-16.9-5.1l-.1-2.8-1.9 2.4c-4.2 5-1.9 12.4 5 15.9 7.9 4 17 2.4 23.8-4.1 5.5-5.3 7.6-10.2 7.6-18.2 0-6.2-.4-7.8-3.8-14.3-7.2-13.5-16.6-18.6-34.6-18.5-9.4.1-23 1.9-28.5 3.8-1.1.4.7-1.1 4-3.4 8.2-5.6 14.9-7.5 26.5-7.5 8.2 0 11.2.5 22 3.9 12.1 3.7 12.6 3.8 19.9 2.8 18.6-2.7 37.8-17.9 54.9-43.3 8.1-12.1 20.2-22.1 33.1-27.2 4.6-1.8 7.6-2.2 16.6-2.2 6.1-.1 12.4.3 14 .7l3 .9-2.4-2.6c-3.5-3.7-15.1-10.5-22.9-13.3-4.6-1.7-9.8-2.7-16.7-3.2l-10-.6 9-4.2c20.3-9.4 39.6-9.5 58-.4 10.8 5.4 18.2 12.2 22.6 20.7 3.3 6.6 3.4 7.2 3.4 17.9-.1 12-1 14.8-8.1 24.6-6.1 8.4-18.2 12.6-28.3 9.9-8.4-2.2-13.7-11.3-10.7-18.4 1.7-4.2 4.2-5.6 9.6-5.6h4.1l-2.1-3c-6-8.4-21.7-4.3-25.4 6.7-3.5 10.3-1.1 18.1 7.7 25.7 13.9 11.8 38.6 13.6 58 4.2 9.1-4.4 13.6-8.1 19.2-16.1 6.2-8.6 7.6-13.1 8.2-26 .6-13.2-1.1-19.5-8.5-31.5-17.7-28.4-53.2-42.5-81.6-32.3-6.7 2.4-23.3 11.4-32.1 17.3-5 3.4-23.4 14.8-29.7 18.5-5.4 3.1-6 3.8-2 2.5 9.6-3.3 42.1-3.6 54.7-.5 9.3 2.2 9.9 3.1 1.7 2.6-16.9-.9-95.6 11.6-100.9 16.1-.7.5-1.7.8-2.3.6s4.5-3.6 11.4-7.6 21.7-13.1 32.8-20.4c35.9-23.2 51.6-32.4 63-36.6 6.8-2.5 23.4-6.8 29.8-7.7 3.7-.4 4.6-1 4.7-2.6.2-1.9-.2-2-9.5-1.3-5.3.3-11.2 1.3-13.1 2-4.2 1.8-5.1 1.8-2.6.1 3.4-2.2 15.9-7.2 17.5-6.9 1.1.2 1.2.1.3-.6-2.6-1.7 19.9-16.4 31-20.2 12.9-4.5 30.8-3.6 42.4 2.2 18 8.8 25.8 29.8 15.4 41.2-8.8 9.7-24.9 5.9-25.1-5.8 0-1.6.7-3.8 1.7-4.8 1.5-1.7 1.4-1.8-2.5-1.8-3.2 0-4.5.6-6.5 2.9-7.2 8.6-2.4 20.7 9.7 24.1 8.4 2.3 23-1.2 30.4-7.5 8.3-7 14-21.5 12.9-33-2.8-30-27.3-41.6-62.1-29.5-6.6 2.3-13.2 4.8-14.7 5.6-4.8 2.4-5.7 1.5-1.1-1.1 19.8-11.3 39.4-31.6 48-49.7 6.8-14.2 8-33.4 2.7-43.8-5.4-10.7-15.9-18.9-26.3-20.6-4.7-.7-13.3 1-18 3.7-1.9 1.1-3.2 1.6-3 1.2.2-.5 2-4 4-8 5.4-10.4 13.2-30.4 16.3-41.8 3.2-11.8 5.6-26.6 4.5-28-.5-.6-1-2.1-1.2-3.5-.3-1.9-.6-1.4-1.2 2m-687.1 82.4c10.8 2.8 17 8.6 20 18.6.6 2.1-.1 1.6-4.6-2.6-7.4-6.9-14.9-9.8-24.4-9.2-10.2.7-17.7 5.3-23.6 14.8-3.2 5.1-3.5 4.5-1.4-2.6 2.6-8.8 7.7-14 17.4-18 6.5-2.7 9.6-2.9 16.6-1m693.2 1.9c5.3 2.7 12.8 10.1 14.4 14.3.5 1.5 1.4 4.7 2 7.3.5 2.5 1.2 5.4 1.5 6.3.3 1 .1 1.8-.5 1.8s-1.1-.6-1.1-1.3c0-3.2-6.4-13.8-10-16.7-7-5.6-12.4-7.3-20.9-6.8-9.3.6-15.2 3-21.5 9-5.2 5.1-5.9 4.2-1.8-2.3 8.5-13.3 24.7-18.2 37.9-11.6M156.5 832.9l4 .9-4.1.1c-10.6.3-30.3 15.2-35.9 27.2l-2.5 5.4v-6.1c0-11 3.7-17.8 12.8-23.1 8.2-4.9 16.5-6.3 25.7-4.4m727.8.5c6.4 1.9 14.2 7.9 17.4 13.4 2.2 3.8 2.7 5.9 3 13.1.3 8.3.2 8.5-1.1 5-4.6-11.8-13.5-21.4-25-27-4.4-2.2-9.1-3.9-10.5-4l-2.6-.1 2.5-.8c4-1.3 11.3-1.1 16.3.4m-21.3 0c0 .2-.7.7-1.6 1-.8.3-1.2.2-.9-.4.6-1 2.5-1.4 2.5-.6M218.5 851c.3.5.1 1-.4 1-.6 0-1.1-.5-1.1-1 0-.6.2-1 .4-1 .3 0 .8.4 1.1 1m22.7 42.5c5.8 1.5 17.4 6.3 16.7 6.9-.2.2-4.4-.5-9.4-1.5-16.3-3.4-32.4-2.2-44.2 3.1-7.5 3.4-16.9 12-20.6 18.8-7.1 13.2-8 32.2-2.1 47.7 1.4 3.6-2.2-.2-7.1-7.5-4.5-6.8-7.5-15.5-7.5-22 0-5 2.7-14.7 5.2-18.9 7-11.8 22.8-22.9 37.8-26.6 7.5-1.8 24.3-1.8 31.2 0m570.3 0c13.5 2.8 29.4 12.9 36.6 23.3 5.3 7.5 8.3 17.7 7.6 25.3s-5 16.5-11.2 23.4c-3.7 4-4.3 4.4-3.2 2 2.3-4.7 4-17.9 3.4-25.3-1.4-17.4-11.2-32.9-25.3-40-6.3-3.2-15.5-5.2-23.7-5.2-8.9 0-21.6 1.6-26.9 3.5-2.1.7-3.5.9-3.3.4.8-1.2 11.5-5.9 17-7.4 6.6-1.8 20.3-1.8 29 0m-651.3 44c-1.1 10.1 7.9 27.9 19.2 38.3 7.9 7.2 21.6 13.8 32 15.4 9 1.4 7.9 2.6-2.5 2.7-8.3.1-20.2-2.9-28.2-7.1-12.2-6.5-22-19.8-23.3-31.8-.8-6.8 1.3-22 3-22 .2 0 .1 2-.2 4.5m704.4 8.5c.5 5.4.2 9.3-1 13.8-5 19.5-25.9 34.4-48.1 34.1-10.8-.1-14.4-2.3-4.6-2.8 2.4-.1 7.9-1.6 12.3-3.2 20.2-7.8 38.8-30.2 38.8-46.6 0-7.3 1.9-3.9 2.6 4.7m-536 3c19.2 2.1 36.4 6.6 46.4 12.3 18.9 10.6 48 32 62.8 46.1 9.7 9.3 18.6 20.5 25.2 31.6 3.9 6.5 9.3 18 8.6 18-.3 0-3.7-4.4-7.7-9.8-8.8-11.8-35.4-38.5-46.4-46.6-4.4-3.3-9.6-7.1-11.5-8.6-6.1-4.6-20.9-13.9-26.8-16.9-3.1-1.6-11.3-4.9-18.2-7.4-14.2-5.2-33.4-13.1-43-17.6-6.2-3-6.3-3.1-2.5-2.6 2.2.3 8.1 1 13.1 1.5m372.9 3.6c-10.8 5-34.3 14.4-36.1 14.4-1.2 0-20.4 8-25.9 10.8-15.8 7.9-44.2 29.8-63.1 48.7-10.5 10.4-24.1 26.9-28.2 34.3-.8 1.3-1.6 2.2-1.8 1.9-.8-.8 8.3-18.4 14-27.2 2.9-4.4 8.1-11.3 11.6-15.4 12.4-14.3 47.7-42.4 67.9-54.1 16.2-9.4 29.2-13.8 46.1-16 10.8-1.3 22.9-2.7 25.5-2.9 1.1 0-3.4 2.4-10 5.5m-400.7 3.3c7.9 5.3 8.4 6.2 8.8 13.7.1 3.6.8 7.2 1.5 8 .6.8 1 1.6.8 1.8-1.1 1.1-5.4-4.1-12.7-15.2-9-13.7-8.7-15.3 1.6-8.3m429.1-1.7c-3.1 6.1-14.3 21.8-15.3 21.5-.7-.2-1-2.6-.8-6.3.4-6.9 2.5-9.8 10.7-14.5 6-3.5 6.9-3.6 5.4-.7M313 958.1c0 1.4-1.1 1.1-3.2-.8-2.7-2.4-2.2-3.6.7-1.7 1.4.9 2.5 2 2.5 2.5m4.4 12.1c-.4 2.4-.3 2.9.5 1.8.8-1.2 1.1-1 1.9 1 .5 1.4 1.3 4.1 1.7 6s1.8 5.5 3.2 7.9l2.6 4.4-2.9-2c-5.7-4.1-7.7-7-8.2-12.2-.4-4.7.3-10.1 1.3-10.1.2 0 .2 1.5-.1 3.2m32.6-.2c2.6 1.6 7.2 3.9 10.2 4.9 3.1 1 6.8 2.7 8.4 3.6s2 1.3.9 1c-1.1-.4-5.8-2-10.4-3.6-10.1-3.5-13.1-3.6-18.8-.8-6.8 3.3-9.1 9.9-5.8 16.3 1.7 3.3 1.9 3.9.6 3.2-1.3-.9-4.8-8.7-5.5-12.6-.9-5.1 1.9-9.8 7.3-12.7 5.7-3 7.5-2.9 13.1.7m336-1c5.9 3 7.3 5.8 6.8 13.5-.3 4.4-1 7.1-2.1 8.3-1.7 1.6-1.7 1.5-.6-1.5 2.4-7.2-3-14.3-12.5-16.3-4.5-.9-6.1-.8-9.2.5-4.6 1.9-5.4 1.4-1.7-1.1 8.8-5.8 13.1-6.5 19.3-3.4m-19.5-.1c-.6.5-2.3 1.2-4 1.5l-3 .6 3-1.4c3.5-1.8 5.4-2 4-.7m41.5 4.6c0 6.3-3.8 12.6-9.3 15.7-1.7.9-1.7.8-.3-1.4 2.3-3.6 4.4-11.3 3.9-14.2-.5-2.6 1-3.6 2.2-1.6 1 1.6 2.5 1.2 1.9-.5-.4-.8-.1-1.5.5-1.5s1.1 1.6 1.1 3.5m-46.1 2.9c-1 .8-26.1 10.7-26.5 10.3s6.5-3.5 13.7-6.1c2.5-.9 5.4-2.3 6.5-3.1 1.6-1.2 7.6-2.3 6.3-1.1m-304.6 7.9c4.1 1.8 5.4 3.3 6.2 7.9.6 3.1.3 4.1-1.9 6.2-5.4 5.5-14.6 2.3-16.1-5.7-1.4-7.4 4.3-11.5 11.8-8.4m319.8 1.6c3.4 3.4 3.7 6.4 1 10.7-3.4 5.5-13.7 5.1-16.6-.7-2.2-4.2-1.8-6.7 1.4-10 2.3-2.3 3.8-2.9 7.1-2.9s4.8.6 7.1 2.9m-14.1 47.9c0 1.3-1.2 2.2-2.2 1.6s-.1-2.4 1.3-2.4c.5 0 .9.4.9.8M527.5 1122c.3.5.1 1-.4 1-.6 0-1.1-.5-1.1-1 0-.6.2-1 .4-1 .3 0 .8.4 1.1 1"/><path d="M352 987.2c0 .6.3.8.7.5.3-.4 1.3-.1 2.2.6 1.4 1.1 1.4 1 .2-.6-1.5-2-3.1-2.2-3.1-.5M360.4 994.9c.1 1.6.4 2.7.9 2.4 1-.6.9-5.3-.2-5.3-.4 0-.8 1.3-.7 2.9M814.5 652.7c-1 7.4-7.1 30.8-10.3 40.3-6.2 17.9-18.4 42.7-29.6 60.5-4.5 7.1-4.8 7.5-4.3 7.5 1.3 0 21.9-34.4 23.1-38.7.4-1.1 1.4-2.4 2.2-2.7.9-.4-1.5 5.3-6 13.9-4.1 8-7.4 14.5-7.2 14.5 1.4 0 17-29.8 21.9-41.5 6.6-15.8 13.1-39.8 14-51.3.4-5.5-.8-6-1.6-.7-.2 1.6-.3.9-.2-1.8.1-2.6-.1-4.7-.5-4.7s-1.1 2.1-1.5 4.7M145.2 698.6c-3 2.1-3.1 9-.1 12.8 3.6 4.5 10.5 3.2 13.5-2.5 3.9-7.5-6.2-15.3-13.4-10.3m6.3 6.1c-.5 2.7-.5 2.7.6.5 1.4-2.5 2.5-2.8 3.2-.8.8 2.1-1.6 4.9-3.9 4.4-2.3-.4-3-3.3-1.4-5.3 1.8-2.1 2.1-1.9 1.5 1.2M865.6 700.1c-3.1 3.6-3.1 3.8-1 8.3 2.8 5.8 8.8 7.3 12.9 3.1 5.3-5.2 1.5-14.5-5.9-14.5-2.6 0-4 .7-6 3.1m11.3 4.5c.7.6-3.1 4.4-4.3 4.4-2.7-.1-3.8-1.7-2.7-3.9.9-1.7 1.8-2 3.9-1.5 1.5.4 2.9.8 3.1 1M769 730.2c-1.2 2.2-1.2 2.2.6.6 1-1 1.5-2 1.2-2.4-.4-.3-1.2.5-1.8 1.8M253.2 741.1c.6 1.6 1.2 2.8 1.4 2.6.5-.5-1.3-5.7-2-5.7-.3 0 0 1.4.6 3.1M256.5 748c.9 1.6 1.8 3 2.1 3 .2 0-.2-1.4-1.1-3-.9-1.7-1.8-3-2.1-3-.2 0 .2 1.3 1.1 3M245.5 758.4c1 1.4 1.9 2.6 2.2 2.6.7 0-1.7-3.9-2.8-4.6-.6-.3-.3.5.6 2"/></svg>