<?xml version="1.0" standalone="no"?>
<!DOCTYPE svg PUBLIC "-//W3C//DTD SVG 20010904//EN"
 "http://www.w3.org/TR/2001/REC-SVG-20010904/DTD/svg10.dtd">
<svg version="1.0" xmlns="http://www.w3.org/2000/svg"
 width="1024.000000pt" height="1024.000000pt" viewBox="0 0 1024.000000 1024.000000"
 preserveAspectRatio="xMidYMid meet">
<metadata>
Created by potrace 1.16, written by Peter Selinger 2001-2019
</metadata>
<g transform="translate(0.000000,1024.000000) scale(0.100000,-0.100000)"
fill="#000000" stroke="none">
<path d="M3880 8194 c-297 -63 -550 -373 -624 -761 -47 -250 -19 -535 73 -754
95 -222 273 -421 456 -509 115 -55 212 -74 349 -67 199 9 310 62 471 222 113
113 178 212 231 355 111 294 105 654 -16 944 -94 226 -310 455 -502 533 -127
51 -303 66 -438 37z"/>
<path d="M6075 8200 c-258 -41 -495 -245 -641 -554 -134 -283 -147 -666 -33
-980 77 -213 268 -429 452 -510 175 -78 434 -73 598 10 203 102 393 334 478
583 48 141 62 222 68 392 6 185 -8 308 -54 454 -92 290 -316 526 -561 589 -77
20 -228 28 -307 16z"/>
<path d="M2190 6754 c-255 -67 -450 -303 -511 -617 -16 -83 -16 -314 0 -407
18 -99 63 -237 108 -329 94 -191 271 -370 446 -452 194 -90 461 -74 626 38
165 112 279 278 343 500 20 68 23 101 23 253 0 192 -13 261 -76 419 -112 280
-371 534 -606 595 -78 20 -277 20 -353 0z"/>
<path d="M7700 6759 c-132 -36 -241 -103 -354 -216 -231 -232 -352 -548 -332
-869 15 -265 94 -443 266 -608 137 -130 281 -183 475 -173 193 11 339 80 490
233 213 217 325 497 325 814 0 200 -47 377 -134 508 -63 96 -196 220 -276 259
-101 49 -168 63 -305 62 -66 0 -136 -5 -155 -10z"/>
<path d="M4985 6004 c-518 -60 -875 -283 -1291 -804 -235 -295 -371 -424 -659
-625 -180 -126 -281 -212 -376 -321 -215 -247 -319 -530 -319 -869 0 -385 129
-704 393 -970 153 -153 313 -254 509 -320 165 -55 276 -68 517 -62 241 5 390
28 699 106 274 69 376 88 537 101 214 16 385 -4 710 -84 427 -105 533 -120
820 -121 195 0 256 3 325 18 135 29 263 76 357 129 343 197 583 521 664 899
31 141 34 459 6 587 -84 380 -277 633 -712 932 -251 172 -386 301 -599 570
-163 205 -357 402 -511 518 -167 126 -410 240 -600 282 -141 32 -356 47 -470
34z"/>
</g>
</svg>
