<?xml version="1.0" standalone="no"?>
<!DOCTYPE svg PUBLIC "-//W3C//DTD SVG 20010904//EN"
 "http://www.w3.org/TR/2001/REC-SVG-20010904/DTD/svg10.dtd">
<svg version="1.0" xmlns="http://www.w3.org/2000/svg"
 width="775.000000pt" height="652.000000pt" viewBox="0 0 775.000000 652.000000"
 preserveAspectRatio="xMidYMid meet">

<g transform="translate(0.000000,652.000000) scale(0.100000,-0.100000)"
fill="#000000" stroke="none">
<path d="M2956 6382 c-2 -4 -18 -67 -35 -139 -54 -237 -92 -289 -246 -337
-143 -45 -177 -59 -182 -74 -10 -24 18 -39 137 -76 204 -63 247 -107 282 -293
31 -167 38 -188 68 -188 27 0 34 18 80 220 11 49 31 106 45 127 31 47 106 91
210 123 142 45 165 55 165 76 0 24 -34 41 -134 68 -217 59 -262 113 -311 366
-19 102 -33 135 -56 135 -10 0 -20 -3 -23 -8z"/>
<path d="M2127 5563 c-3 -5 -13 -39 -21 -76 -28 -120 -62 -159 -171 -195 -72
-24 -83 -47 -28 -57 47 -8 121 -40 146 -63 29 -26 54 -81 67 -150 15 -75 33
-80 50 -14 42 164 71 195 218 232 23 6 42 15 42 20 0 4 -29 18 -64 30 -120 40
-157 77 -191 196 -21 73 -36 97 -48 77z"/>
<path d="M5504 5493 c-23 -139 -54 -214 -108 -260 -31 -28 -130 -73 -159 -73
-15 0 -57 -28 -57 -39 0 -4 35 -16 77 -26 91 -23 159 -65 189 -118 11 -20 29
-81 38 -135 23 -122 31 -144 54 -140 12 2 22 23 35 78 42 183 63 225 133 269
25 16 79 37 119 46 115 25 111 36 -35 85 -140 47 -180 92 -215 240 -25 111
-25 110 -45 110 -14 0 -21 -10 -26 -37z"/>
<path d="M4539 5488 c-5 -72 -32 -127 -72 -146 -35 -17 -34 -25 3 -39 29 -11
53 -49 65 -105 8 -43 21 -33 34 26 12 56 30 79 70 94 23 8 23 9 -12 30 -35 20
-40 29 -61 125 -6 27 -25 38 -27 15z"/>
<path d="M4215 5373 c-18 -85 -30 -106 -78 -141 l-49 -36 50 -22 c56 -25 64
-35 82 -113 12 -52 13 -53 26 -30 7 13 13 32 14 42 0 40 31 82 75 106 l45 24
-39 18 c-47 21 -64 45 -86 122 -18 62 -31 72 -40 30z"/>
<path d="M6574 4905 c-108 -20 -247 -70 -378 -136 -274 -139 -505 -322 -740
-586 l-91 -103 9 -87 c16 -153 -30 -292 -148 -456 -55 -76 -65 -104 -46 -123
22 -22 13 -63 -33 -141 -25 -45 -51 -103 -57 -129 -10 -43 -51 -114 -72 -122
-14 -6 -9 -32 16 -77 l23 -45 64 42 c96 62 216 115 315 140 71 17 115 21 214
20 69 -1 138 -3 153 -5 26 -4 31 1 67 72 73 147 181 272 295 343 61 38 163 75
227 83 55 7 57 8 53 34 -3 14 -9 53 -15 85 -24 142 -8 279 57 481 47 145 116
282 247 492 59 95 106 180 104 190 -8 43 -118 54 -264 28z m-14 -186 c-8 -5
-71 -38 -140 -73 -161 -81 -317 -177 -455 -282 -113 -85 -285 -239 -285 -255
0 -12 45 -34 153 -73 150 -54 288 -132 376 -211 56 -51 52 -64 -6 -20 -74 56
-232 130 -413 193 -91 31 -174 62 -184 69 -19 10 -16 16 41 80 205 231 494
428 798 544 101 39 146 50 115 28z m-935 -953 c66 -111 127 -261 148 -365 20
-97 10 -121 -18 -44 -31 83 -66 148 -119 221 l-45 64 -24 -49 c-14 -26 -39
-67 -55 -89 -38 -52 -153 -176 -159 -170 -2 2 23 57 56 122 88 176 151 336
151 387 0 9 2 17 5 17 2 0 29 -42 60 -94z"/>
<path d="M3349 4853 c-29 -67 -77 -258 -95 -377 -19 -130 -19 -369 0 -462 32
-149 83 -246 190 -354 57 -58 58 -60 42 -82 -69 -95 -66 -88 -50 -112 8 -13
30 -31 49 -42 19 -10 35 -21 35 -24 0 -3 -16 -12 -36 -19 -19 -7 -38 -19 -41
-27 -11 -29 70 -125 131 -156 l28 -15 -38 -23 -39 -23 50 -14 c253 -69 387
-127 534 -233 46 -34 86 -58 89 -55 3 3 5 23 4 46 -2 46 10 44 34 -4 22 -43
74 -97 94 -97 17 0 71 52 88 86 6 11 14 44 18 72 3 29 9 52 13 52 3 0 19 -24
34 -53 43 -78 108 -177 117 -177 26 0 67 100 87 210 l8 44 37 -37 c48 -47 91
-51 106 -9 5 15 7 42 5 59 l-5 32 53 -1 c56 -1 112 20 122 45 4 10 -14 23 -59
43 l-65 28 52 19 c61 23 153 106 147 133 -2 11 -21 25 -48 35 l-44 16 29 16
c17 8 41 26 54 40 21 23 22 28 9 46 -8 12 -33 34 -56 51 -23 17 -42 33 -42 36
0 3 25 34 55 67 93 105 156 245 196 435 33 159 25 518 -15 655 -11 40 -14 42
-46 39 -89 -8 -271 -88 -416 -185 -185 -121 -315 -287 -360 -459 -10 -38 -23
-68 -29 -68 -16 0 -35 22 -35 41 0 33 -57 17 -107 -32 -29 -27 -43 -37 -39
-24 5 11 14 44 22 74 27 103 -1 107 -95 16 l-68 -65 5 72 c7 127 -43 267 -150
410 -81 110 -209 213 -358 288 -54 27 -162 70 -177 70 -2 0 -13 -21 -24 -47z
m272 -209 c58 -36 145 -141 193 -233 50 -97 71 -172 81 -281 6 -63 3 -84 -15
-133 -27 -72 -49 -86 -81 -50 -27 28 -118 73 -150 73 -21 0 -21 -3 -14 -127
l6 -128 -20 25 c-38 46 -99 184 -119 270 -27 112 -36 214 -19 204 149 -89 236
-158 299 -237 29 -38 38 -44 38 -28 0 39 -126 223 -246 359 -26 29 -45 54 -43
56 2 1 51 0 109 -4 58 -3 107 -4 110 -3 9 8 -36 66 -186 241 l-38 43 30 -13
c16 -7 45 -22 65 -34z m1270 -187 c-55 -73 -101 -138 -101 -143 0 -7 36 -4 97
8 54 10 104 17 112 16 9 -2 -31 -41 -93 -92 -94 -77 -236 -226 -236 -246 0
-10 -39 -35 -67 -44 -22 -7 -23 -5 -23 52 0 134 73 290 197 422 76 81 199 177
211 166 2 -3 -41 -65 -97 -139z m146 -315 c-9 -97 -42 -217 -80 -292 l-32 -65
-3 128 c-1 70 -5 127 -8 127 -3 0 -54 -27 -113 -60 -59 -33 -111 -60 -114 -60
-4 0 -7 10 -7 23 0 59 271 262 354 267 5 0 6 -30 3 -68z m-1002 -577 c49 -48
26 -161 -32 -167 -10 0 -25 -2 -33 -3 -23 -2 -68 23 -80 44 -51 96 71 201 145
126z m650 9 c44 -17 55 -114 18 -156 -22 -25 -84 -23 -117 3 -21 17 -26 29
-26 65 0 72 58 113 125 88z m-250 -231 c-4 -21 -12 -44 -18 -52 -18 -22 -55
-31 -82 -21 -17 6 -33 6 -50 -2 -38 -17 -91 11 -103 54 -11 41 -1 46 37 17 42
-31 133 -24 182 14 19 15 36 27 38 27 2 0 0 -17 -4 -37z"/>
<path d="M1364 4593 c-40 -183 -61 -220 -146 -262 -33 -17 -69 -31 -78 -31
-10 0 -23 -7 -31 -16 -16 -19 -3 -29 50 -39 62 -12 122 -46 148 -87 14 -21 34
-73 44 -115 10 -42 22 -80 26 -84 16 -16 33 9 43 64 25 131 70 188 174 218
110 32 102 28 85 43 -8 8 -39 21 -69 31 -119 38 -156 81 -191 219 -22 89 -43
111 -55 59z"/>
<path d="M2013 4342 c-44 -5 -69 -13 -83 -28 l-22 -21 52 -59 c29 -32 67 -85
86 -118 80 -135 144 -339 144 -460 0 -65 9 -86 36 -86 32 0 142 -41 199 -74
98 -58 169 -157 215 -301 12 -38 26 -74 31 -79 4 -5 33 8 65 29 150 100 391
128 552 64 31 -12 61 -26 67 -31 20 -18 45 -8 45 17 0 36 -100 185 -186 277
-98 104 -128 151 -160 244 l-27 79 17 80 c22 110 21 116 -26 162 -180 173
-511 297 -821 307 -67 3 -150 1 -184 -2z m269 -152 c243 -48 557 -167 566
-214 4 -18 -24 -56 -40 -56 -16 0 -138 -51 -292 -121 -82 -38 -151 -67 -153
-65 -13 13 144 114 285 185 34 17 62 38 62 45 0 22 -151 89 -410 181 -91 32
-158 63 -138 64 9 1 63 -8 120 -19z m578 -443 c1 -28 71 -179 126 -272 32 -55
61 -104 63 -109 7 -17 -86 55 -135 105 -26 27 -51 49 -54 49 -3 0 -26 -40 -50
-90 -24 -49 -48 -90 -53 -90 -23 0 22 263 63 373 19 50 40 68 40 34z"/>
<path d="M6926 3627 c-36 -47 -93 -172 -112 -247 -14 -54 -16 -94 -10 -237 7
-197 -1 -254 -60 -433 l-38 -115 -13 99 c-17 121 -44 181 -118 263 -69 76
-119 110 -140 93 -43 -36 -52 -184 -17 -295 28 -92 100 -213 168 -283 l54 -56
-30 -111 c-16 -60 -35 -128 -43 -149 l-13 -39 -11 29 c-7 16 -19 53 -28 82
-37 117 -127 214 -260 279 -114 57 -135 53 -135 -22 0 -94 52 -227 132 -333
40 -54 132 -129 188 -154 20 -9 28 -18 24 -28 -14 -36 -34 -167 -34 -224 0
-67 21 -103 53 -91 9 4 37 68 67 156 30 86 60 153 69 158 9 5 44 11 78 15 156
17 345 104 461 211 67 62 138 158 128 174 -20 32 -165 40 -261 16 -84 -22
-211 -87 -283 -145 -34 -28 -62 -47 -61 -42 0 4 24 67 52 141 l52 134 50 17
c64 22 187 84 244 123 122 84 287 278 279 329 -3 21 -9 23 -62 26 -115 6 -283
-67 -411 -179 -21 -19 -36 -27 -33 -19 132 364 173 566 149 745 -15 112 -25
145 -42 145 -4 0 -19 -15 -33 -33z m184 -813 c0 -3 -12 -21 -27 -40 -40 -54
-166 -139 -233 -159 -25 -7 -25 -7 5 25 37 39 121 105 189 147 51 32 66 38 66
27z m-525 -170 c9 -31 15 -68 13 -82 l-3 -27 -14 24 c-13 24 -29 141 -18 141
3 0 13 -25 22 -56z m-143 -482 c53 -107 11 -90 -67 28 -23 36 -50 83 -59 105
l-17 40 56 -55 c32 -32 69 -81 87 -118z m568 103 c0 -19 -334 -215 -346 -203
-9 10 170 131 247 167 84 40 99 45 99 36z"/>
<path d="M734 3638 c-14 -22 -3 -127 26 -236 63 -239 172 -409 305 -472 35
-17 71 -30 81 -30 15 0 27 -26 62 -133 23 -72 42 -136 42 -141 0 -4 -26 16
-59 46 -63 59 -201 136 -290 162 -30 9 -79 16 -108 16 -62 0 -64 -5 -38 -105
62 -237 279 -425 553 -480 23 -5 36 -15 43 -33 14 -36 56 -215 65 -276 l7 -49
-59 59 c-65 65 -151 117 -187 112 -18 -2 -21 -8 -19 -33 6 -55 60 -152 113
-199 44 -39 162 -106 188 -106 13 0 17 -27 41 -230 12 -96 28 -229 36 -295 20
-169 21 -163 -26 -123 -104 90 -121 78 -92 -64 12 -57 24 -114 28 -128 13 -44
-120 112 -198 233 l-31 48 21 22 c12 12 33 49 49 82 24 53 28 72 28 160 0 87
-3 107 -26 155 -14 30 -39 70 -54 89 l-29 33 -18 -22 c-34 -41 -66 -169 -70
-273 -1 -53 -5 -97 -9 -97 -5 0 -67 107 -122 213 l-26 47 20 68 c28 97 35 241
15 325 -29 124 -112 261 -143 235 -42 -34 -74 -141 -82 -273 l-7 -110 -33 70
c-85 183 -111 243 -111 262 0 34 -38 131 -68 175 -42 60 -162 173 -258 240
-100 71 -230 142 -244 133 -18 -11 -11 -57 23 -157 54 -155 162 -309 275 -391
26 -19 84 -53 129 -76 80 -41 83 -44 124 -119 23 -42 52 -91 65 -109 13 -17
24 -34 24 -37 0 -3 -25 12 -56 34 -90 63 -307 143 -409 151 -37 3 -40 2 -37
-21 8 -71 140 -220 256 -289 93 -55 207 -91 312 -98 l92 -6 36 -65 c20 -36 35
-67 32 -69 -2 -2 -37 5 -77 17 -110 30 -201 36 -279 16 -89 -22 -205 -80 -230
-116 l-20 -29 32 -24 c104 -77 245 -132 412 -162 99 -17 241 -19 301 -5 48 12
48 12 114 -128 25 -53 64 -131 88 -172 23 -41 38 -76 33 -78 -5 -2 -57 35
-115 81 -58 46 -130 96 -159 111 -109 55 -233 71 -332 41 -74 -22 -124 -75
-71 -75 48 0 166 -49 249 -104 103 -67 115 -80 99 -100 -26 -32 -64 -28 -144
14 -98 50 -190 57 -154 10 7 -8 25 -22 40 -30 16 -8 43 -32 59 -53 25 -32 28
-41 17 -48 -8 -5 -21 -9 -29 -9 -37 0 -94 -24 -123 -51 l-32 -29 28 -25 c65
-57 374 -121 902 -185 341 -41 678 -58 1183 -62 204 -1 372 -5 372 -8 0 -3
-107 -23 -237 -44 -339 -55 -413 -69 -413 -76 0 -8 117 -34 247 -54 51 -8 188
-20 305 -27 365 -20 1088 1 1088 31 0 4 -17 12 -37 18 -21 6 -63 18 -93 26
-79 23 -152 33 -345 51 -219 20 -264 26 -271 36 -8 13 23 25 171 64 284 76
382 94 630 115 154 13 199 19 191 27 -7 7 -111 35 -196 52 -30 6 -126 15 -213
21 -121 7 -163 14 -184 27 l-27 18 24 3 c43 5 245 54 252 61 9 8 -12 35 -39
49 -41 22 -153 42 -344 62 -106 11 -193 21 -195 23 -2 2 48 12 111 22 149 23
395 17 530 -14 166 -37 375 -111 375 -133 0 -5 -8 -7 -17 -4 -10 2 -27 7 -38
10 -37 10 -219 16 -209 7 5 -5 67 -26 138 -46 251 -73 333 -109 374 -165 33
-44 23 -60 -36 -60 -27 0 -93 -7 -148 -15 -54 -8 -175 -21 -269 -30 -174 -15
-265 -28 -291 -43 -22 -12 297 -72 386 -72 50 0 116 10 200 31 162 41 236 38
329 -11 66 -35 104 -73 99 -99 -3 -13 -14 -15 -57 -13 -30 2 -66 8 -80 14 -14
5 -71 12 -127 15 -110 6 -118 5 -273 -61 -135 -57 -167 -51 319 -57 293 -3
454 8 689 47 149 25 231 47 231 64 0 17 -56 47 -115 63 -33 8 -115 25 -183 38
-67 12 -121 23 -120 24 2 2 152 8 333 14 584 20 968 67 1295 158 180 50 323
124 348 178 26 58 -16 97 -142 130 l-81 22 35 21 c63 37 160 107 160 116 0 13
-137 0 -195 -18 -49 -15 -89 -42 -97 -66 -2 -7 -22 -2 -55 14 -28 14 -57 26
-64 26 -23 0 24 41 90 77 96 54 248 111 332 124 40 6 78 15 82 19 13 11 -41
46 -101 65 -112 37 -243 1 -365 -100 -32 -26 -60 -45 -63 -42 -7 7 103 256
122 276 8 9 49 17 116 22 206 16 444 92 545 175 l46 38 -34 29 c-66 56 -134
81 -241 85 -109 5 -171 -10 -249 -59 -60 -38 -64 -37 -26 8 109 128 131 145
236 195 211 99 334 217 426 410 43 88 45 118 10 118 -40 0 -212 -66 -289 -111
-135 -80 -215 -176 -416 -500 -130 -209 -151 -241 -155 -238 -2 2 1 27 7 54
17 88 -6 324 -34 341 -15 9 -102 -81 -132 -136 -78 -142 -66 -281 29 -340 l33
-21 -40 -87 c-87 -188 -169 -300 -232 -319 -24 -7 -36 -8 -36 -1 0 6 30 66 66
134 36 68 64 131 62 139 -3 12 -9 11 -44 -4 -58 -27 -161 -131 -224 -228 -29
-46 -57 -83 -62 -83 -4 0 -8 19 -8 43 0 51 -24 91 -39 67 -6 -8 -22 -48 -36
-90 -15 -41 -30 -84 -34 -94 -4 -11 -12 38 -20 120 -6 76 -15 161 -18 188 l-6
49 62 -7 c223 -25 318 108 266 374 -58 303 -222 490 -427 490 -137 0 -357
-127 -529 -306 -106 -111 -119 -150 -70 -225 55 -86 131 -139 231 -164 66 -16
69 -18 58 -38 -6 -11 -21 -53 -33 -91 -13 -39 -41 -118 -64 -176 -22 -58 -48
-132 -57 -165 -10 -33 -19 -55 -21 -50 -1 6 -14 49 -27 97 -23 83 -23 88 -6
93 30 9 88 81 101 123 10 36 9 46 -11 89 -35 72 -146 175 -237 220 -73 36 -82
38 -173 37 -117 0 -181 -26 -267 -106 -242 -228 -183 -533 100 -516 l64 4 12
-110 c7 -60 8 -113 4 -117 -5 -5 -40 20 -78 56 -98 91 -157 117 -170 75 -6
-20 15 -71 65 -152 18 -30 28 -88 14 -88 -3 0 -36 26 -72 58 -137 120 -204
160 -357 217 -122 45 -266 78 -445 101 l-135 18 60 14 c81 20 371 21 543 3 81
-9 136 -11 142 -5 6 6 4 19 -3 34 -12 24 -52 40 -139 55 -21 3 -38 9 -38 13 1
4 26 27 55 52 30 24 55 48 55 52 0 4 -11 10 -25 14 -29 7 -94 -28 -139 -74
-16 -17 -35 -28 -42 -25 -11 4 -2 30 40 109 31 57 71 127 91 156 l35 53 -25 3
c-14 2 -40 -6 -58 -17 -53 -32 -140 -130 -182 -203 -22 -38 -43 -68 -47 -68
-4 0 -11 0 -15 0 -5 0 -10 43 -13 95 l-5 95 -28 -35 c-19 -23 -30 -52 -34 -85
-3 -28 -11 -50 -17 -50 -6 0 -47 7 -91 15 -175 34 -437 75 -555 86 -140 14
-556 18 -669 6 l-74 -7 45 39 c44 39 77 95 64 108 -11 12 -76 -26 -129 -75
-57 -53 -127 -106 -127 -97 0 3 11 33 25 67 34 85 33 102 -5 94 -33 -6 -127
-63 -149 -89 -27 -34 -31 -16 -6 32 32 61 45 151 22 151 -22 0 -123 -114 -165
-187 -35 -60 -70 -91 -90 -79 -13 8 17 126 48 186 12 25 47 85 78 134 54 84
55 89 37 102 -52 38 -136 2 -233 -100 -72 -76 -187 -242 -225 -324 l-22 -47
-3 55 c-5 85 12 131 120 333 123 229 156 328 132 391 -17 44 -105 -5 -208
-114 -68 -73 -129 -182 -176 -320 -12 -36 -25 -68 -29 -73 -4 -4 -15 53 -24
125 -10 73 -20 149 -23 168 -4 33 -2 37 38 59 115 65 222 189 298 346 76 154
115 332 92 410 -11 38 -32 37 -120 -8 -150 -76 -290 -216 -359 -360 -43 -90
-42 -92 -67 73 -21 140 -21 141 20 181 108 103 193 302 194 452 0 64 -27 181
-48 207 l-17 21 -45 -29 c-55 -35 -141 -140 -175 -214 -13 -29 -30 -89 -37
-133 l-14 -80 -32 83 c-17 46 -39 110 -48 144 -15 59 -15 64 7 130 29 92 24
163 -21 254 -62 127 -267 304 -468 404 -67 33 -78 35 -88 18z m361 -418 c19
-26 46 -72 59 -101 25 -56 43 -149 29 -149 -4 0 -32 46 -62 102 -30 56 -78
137 -108 180 -29 42 -53 80 -53 83 0 15 104 -73 135 -115z m451 -520 c-8 -49
-84 -247 -98 -256 -14 -9 -4 73 17 142 15 50 70 154 81 154 4 0 4 -18 0 -40z
m-493 -96 c110 -57 301 -221 269 -232 -14 -4 -181 120 -261 195 -59 55 -61 64
-8 37z m-625 -284 c50 -42 111 -125 100 -136 -7 -6 -218 205 -218 218 0 11 47
-20 118 -82z m1363 -187 c-16 -43 -41 -105 -56 -138 -30 -68 -116 -204 -129
-205 -5 0 -6 24 -4 54 6 71 90 244 153 314 26 29 51 52 56 52 5 0 -4 -35 -20
-77z m5662 -84 c-23 -39 -150 -160 -203 -194 -69 -44 -77 -41 -32 11 44 50
230 213 245 214 5 0 0 -14 -10 -31z m-1363 -184 c49 -25 52 -81 7 -109 -13 -8
-26 -6 -55 9 -29 16 -38 27 -40 51 -3 33 18 64 44 64 8 0 28 -7 44 -15z
m-5187 -153 c-5 -49 -8 -53 -20 -37 -14 20 -18 149 -6 182 12 30 32 -82 26
-145z m-233 40 c131 -77 116 -100 -21 -32 -62 31 -169 107 -169 121 0 9 109
-41 190 -89z m5155 33 c32 -31 31 -40 -4 -76 -21 -21 -39 -29 -65 -29 -77 0
-106 37 -70 88 33 47 102 55 139 17z m-227 -91 c29 -20 31 -79 3 -94 -49 -26
-128 11 -115 54 14 50 69 70 112 40z m609 -98 c24 -21 28 -31 28 -79 0 -31 -3
-58 -6 -61 -9 -10 -97 43 -119 71 -24 31 -25 42 -4 71 20 30 65 29 101 -2z
m933 -104 c0 -11 -133 -86 -198 -111 l-53 -21 14 21 c25 35 96 81 155 100 64
20 82 23 82 11z m-1450 -57 c63 -13 149 -36 190 -50 82 -28 300 -130 300 -140
0 -4 -8 -4 -17 0 -10 4 -61 18 -113 31 -136 33 -490 160 -490 175 0 12 0 12
130 -16z m-421 -81 c26 -34 27 -60 1 -74 -35 -19 -110 13 -110 47 0 21 38 53
64 53 15 0 33 -11 45 -26z m-4364 -31 c64 -16 110 -36 121 -54 15 -25 -209 13
-291 49 l-39 17 29 6 c37 8 101 2 180 -18z m4063 -29 c31 -21 26 -61 -11 -88
-26 -19 -30 -19 -55 -5 -38 21 -41 61 -6 88 32 25 42 26 72 5z m863 -84 l76
-22 17 -97 c34 -187 31 -305 -11 -384 -11 -23 -84 -67 -109 -67 -6 0 -44 78
-44 93 0 7 -6 22 -14 33 -13 17 -15 12 -13 -53 1 -39 -1 -75 -6 -79 -4 -4 -24
-3 -44 2 -30 7 -38 16 -50 49 -18 52 -14 85 50 347 33 137 56 213 62 208 6 -4
44 -18 86 -30z m-454 -77 c2 -6 -19 -19 -49 -29 -29 -9 -129 -48 -223 -86 -93
-37 -176 -68 -184 -68 -22 0 25 47 84 85 111 72 359 138 372 98z m-506 -23
c23 -13 26 -58 3 -67 -26 -10 -64 14 -64 40 0 38 22 48 61 27z m-3121 -47 c5
-21 17 -84 25 -140 8 -56 17 -113 21 -128 9 -35 -19 -33 -45 4 -36 50 -50 219
-25 285 9 23 12 20 24 -21z m222 -55 c-7 -7 -12 -19 -12 -27 1 -13 4 -12 15 3
21 27 19 15 -11 -83 -24 -81 -44 -122 -44 -92 0 11 -3 11 -15 1 -20 -16 -35
-4 -35 28 0 53 88 207 108 188 3 -4 0 -12 -6 -18z m1108 -3 c334 -36 640 -91
640 -116 0 -15 -263 -44 -480 -53 -130 -6 -134 -5 -105 11 17 9 54 24 84 33
30 10 49 20 43 24 -6 3 -46 11 -89 16 -42 6 -84 12 -93 15 -8 2 -107 14 -220
26 -233 24 -408 20 -564 -12 -89 -18 -122 -18 -75 0 13 5 40 16 61 24 112 47
511 63 798 32z m2221 -47 c11 -22 37 -84 56 -137 32 -87 34 -104 31 -178 -3
-46 -7 -85 -10 -89 -7 -6 -77 24 -120 53 -22 14 -30 15 -40 5 -10 -10 -9 -18
5 -42 15 -25 16 -30 3 -30 -37 0 -44 19 -80 220 -9 47 -20 99 -25 116 -9 32
-9 32 73 77 44 25 82 46 83 46 2 1 12 -18 24 -41z m-3151 -42 c0 -18 -24 -66
-36 -70 -12 -4 -12 -2 -4 14 7 14 7 20 0 20 -5 0 -10 -6 -10 -14 0 -17 -80
-96 -97 -96 -23 0 -14 19 30 67 48 53 117 100 117 79z m560 -66 c95 -15 200
-69 260 -131 78 -82 80 -125 6 -114 -33 5 -63 0 -132 -23 -49 -16 -129 -35
-179 -41 -116 -14 -255 -14 -255 -1 0 51 142 202 192 205 4 0 13 6 20 13 30
30 -113 3 -198 -39 -48 -23 -111 -78 -155 -137 l-25 -33 -38 16 c-41 18 -96
55 -96 65 0 10 48 30 69 30 11 0 48 26 83 58 98 89 151 116 262 132 75 11 114
11 186 0z m-1095 -30 c19 -20 41 -28 30 -10 -3 6 4 10 18 10 19 0 31 -12 56
-59 36 -68 36 -67 16 -74 -13 -6 -105 80 -142 132 -18 27 -2 27 22 1z m4775
-80 c-60 -52 -153 -111 -168 -108 -8 2 -16 11 -18 21 -4 27 -10 30 -32 18 -12
-6 -26 -11 -33 -11 -25 0 13 28 82 60 60 27 108 39 194 48 6 1 -6 -12 -25 -28z
m381 -53 c26 -8 44 -19 44 -27 0 -30 -100 -71 -191 -80 -82 -7 -224 -4 -253 6
-21 7 22 49 78 76 97 47 214 56 322 25z m-5280 -12 c24 -9 60 -29 79 -46 l35
-30 -25 -20 c-22 -17 -33 -19 -90 -13 -36 5 -119 8 -185 9 -142 1 -141 1 -125
20 13 16 127 80 156 88 40 10 112 6 155 -8z m1914 -55 c43 -27 44 -53 2 -84
-25 -18 -42 -21 -130 -21 -77 1 -110 5 -134 18 -39 21 -40 27 -9 56 65 61 197
76 271 31z m1280 -66 c30 -20 55 -38 55 -40 0 -9 -157 75 -170 91 -13 16 -12
16 23 1 20 -8 62 -31 92 -52z m1449 2 c30 -12 95 -81 85 -90 -32 -26 -380 -48
-433 -27 -28 11 -28 12 -10 32 20 22 93 62 154 85 47 17 163 17 204 0z m262
-48 c39 -18 45 -23 27 -26 -22 -3 -77 20 -88 38 -10 16 8 12 61 -12z m-4307
-7 c20 -11 44 -27 51 -36 20 -24 -5 -40 -86 -54 -55 -10 -74 -9 -125 5 -70 20
-79 30 -48 52 76 56 142 66 208 33z m2894 -198 l72 -38 -37 -3 c-21 -2 -65 4
-99 12 -33 9 -69 16 -79 16 -33 0 -32 20 2 35 48 21 62 19 141 -22z"/>
<path d="M2896 3083 c-59 -20 -91 -38 -131 -75 -101 -92 -109 -178 -30 -324
25 -46 45 -90 45 -97 0 -7 -21 -33 -46 -57 -49 -48 -123 -155 -141 -205 -6
-16 -17 -52 -24 -80 -7 -27 -29 -79 -50 -115 -49 -83 -79 -171 -79 -229 0 -98
83 -206 198 -257 134 -59 269 -91 550 -130 268 -37 395 -28 486 34 52 36 76
71 83 119 5 36 10 43 45 59 22 10 50 31 63 48 l23 30 15 -35 c23 -54 51 -73
107 -73 36 0 59 7 89 27 55 37 72 66 78 137 5 52 3 63 -13 75 -19 15 -19 15 0
8 13 -4 17 -2 14 7 -3 9 -21 14 -49 15 -91 1 -154 73 -165 185 l-5 55 20 -49
c28 -67 64 -103 115 -112 70 -12 117 -33 160 -72 51 -46 147 -97 169 -89 9 3
19 22 22 41 6 28 1 45 -24 89 -40 70 -39 79 4 37 19 -19 35 -38 35 -43 0 -14
40 -67 51 -67 5 0 9 13 9 28 0 59 -33 150 -90 246 l-59 100 52 50 52 51 12
-69 c7 -37 15 -71 18 -74 9 -10 91 37 138 79 24 20 51 53 62 73 11 20 25 36
31 36 7 0 26 -16 42 -34 l30 -35 16 46 c21 63 20 142 -3 208 -11 30 -17 55
-15 55 3 0 21 -12 39 -26 19 -14 39 -23 45 -19 5 3 10 1 10 -4 0 -18 16 -12
17 7 1 9 5 32 9 50 7 36 -30 124 -66 157 -20 18 -22 18 -55 1 -19 -10 -66 -52
-105 -92 -84 -88 -106 -93 -170 -39 -23 19 -45 35 -49 35 -4 0 -40 -34 -80
-75 -41 -41 -77 -75 -81 -75 -3 0 -78 47 -166 106 -165 109 -298 179 -419 221
-133 46 -308 76 -327 57 -3 -3 -4 -14 -1 -25 4 -14 14 -19 37 -19 36 0 119
-46 158 -87 16 -17 30 -45 34 -71 9 -55 -5 -55 -94 -3 -37 22 -83 42 -102 46
-77 14 -88 23 -111 92 -25 76 -68 129 -124 154 -64 29 -209 25 -309 -8z m248
-62 c38 -32 1 -135 -63 -178 -90 -61 -236 -56 -285 10 l-20 27 20 28 c57 76
185 135 281 129 28 -2 59 -9 67 -16z m126 -231 c6 -30 22 -92 35 -136 14 -45
25 -88 25 -95 0 -20 -62 -79 -83 -79 -31 0 -136 61 -182 106 -43 41 -43 41
-49 18 -8 -30 5 -55 40 -83 34 -27 25 -36 -20 -21 -45 15 -100 78 -153 178
l-41 77 81 0 c63 1 94 6 132 23 58 26 128 91 146 135 l13 31 23 -50 c12 -27
27 -74 33 -104z m592 -38 c5 -5 -14 -25 -41 -46 -64 -48 -163 -153 -226 -239
l-50 -68 -50 7 c-63 8 -105 29 -105 53 0 11 34 44 88 84 48 37 134 103 192
147 100 78 107 81 145 75 22 -3 43 -9 47 -13z m152 -124 c-9 -31 -9 -31 -32
-19 -12 6 -30 11 -41 11 -12 0 -21 4 -21 9 0 10 27 17 73 20 25 1 28 -2 21
-21z m236 -46 c14 -3 28 -10 32 -16 10 -15 10 -66 0 -66 -8 0 -37 30 -77 79
-20 24 -20 24 0 16 11 -4 31 -10 45 -13z m-455 -125 c-15 -49 -65 -147 -76
-147 -3 0 -11 12 -18 26 -9 21 -8 33 7 67 17 37 88 114 98 105 2 -2 -3 -25
-11 -51z m-815 -22 c36 -8 108 -23 160 -35 52 -11 121 -24 153 -27 32 -3 68
-13 79 -22 18 -15 19 -19 5 -46 -9 -17 -28 -61 -43 -100 -19 -47 -42 -85 -73
-116 -41 -41 -53 -48 -103 -54 -61 -8 -153 4 -282 37 -90 22 -127 39 -171 77
l-31 27 17 82 c18 91 52 152 102 182 35 22 65 21 187 -5z m668 -151 c22 -18
50 -57 63 -86 21 -47 24 -67 24 -185 0 -123 -5 -156 -22 -139 -4 3 -10 53 -13
111 -5 71 -12 112 -24 130 -29 45 -42 31 -60 -68 -25 -133 -22 -146 41 -178
l52 -27 -29 -38 c-17 -20 -33 -54 -36 -76 -4 -21 -9 -38 -12 -38 -2 0 -29 14
-58 31 l-54 30 -29 -20 c-35 -25 -40 -20 -34 29 4 25 0 52 -11 74 -9 19 -16
36 -16 39 0 3 17 12 38 20 65 26 103 89 143 237 26 99 21 127 -25 135 -62 12
-89 -19 -134 -150 -30 -87 -55 -142 -96 -210 -20 -33 -44 -85 -53 -115 -24
-83 -40 -110 -67 -110 -31 0 -503 86 -579 106 -113 29 -126 65 -76 209 l32 96
28 -31 c28 -31 140 -90 170 -90 28 0 29 -12 4 -45 -43 -55 -36 -62 100 -90 87
-18 101 -13 125 44 10 25 18 29 72 35 95 10 137 26 193 78 54 49 105 134 145
240 16 44 28 59 53 71 69 31 90 29 145 -19z"/>
<path d="M2993 2970 c-134 -47 -157 -126 -30 -105 53 9 89 28 122 62 27 30 33
53 13 53 -7 0 -22 2 -33 4 -11 2 -44 -4 -72 -14z"/>
<path d="M2740 2294 c-12 -25 -20 -47 -17 -50 6 -7 42 57 39 69 -1 4 3 7 8 7
6 0 10 5 10 10 0 24 -20 6 -40 -36z"/>
<path d="M2755 2250 c3 -5 8 -10 11 -10 2 0 4 5 4 10 0 6 -5 10 -11 10 -5 0
-7 -4 -4 -10z"/>
<path d="M2932 2217 c-18 -18 -32 -36 -32 -39 0 -10 62 -46 93 -53 23 -6 27
-4 27 13 0 11 7 32 15 48 13 25 13 30 -2 46 -25 28 -65 22 -101 -15z"/>
<path d="M3240 2173 c0 -5 -14 -23 -31 -40 -24 -27 -27 -33 -12 -33 26 1 63
35 63 59 0 12 -4 21 -10 21 -5 0 -10 -3 -10 -7z"/>
<path d="M2186 3000 c-2 -8 -12 -38 -21 -66 -18 -59 -36 -78 -89 -97 l-38 -13
41 -12 c47 -15 69 -43 86 -110 7 -25 17 -48 22 -49 6 -2 16 19 23 46 15 63 40
96 85 112 l34 13 -39 17 c-41 18 -63 50 -75 109 -4 19 -11 42 -15 50 -8 13 -9
13 -14 0z"/>
<path d="M4640 2239 c-29 -12 -70 -48 -70 -62 0 -19 73 3 102 29 15 15 28 31
28 36 0 11 -29 9 -60 -3z"/>
<path d="M3264 1384 c-14 -57 40 -94 136 -94 73 0 131 22 169 64 l25 26 -105
-6 c-88 -5 -113 -3 -162 13 l-57 20 -6 -23z"/>
</g>
</svg>
