<?xml version="1.0" standalone="no"?>
<!DOCTYPE svg PUBLIC "-//W3C//DTD SVG 20010904//EN"
 "http://www.w3.org/TR/2001/REC-SVG-20010904/DTD/svg10.dtd">
<svg version="1.0" xmlns="http://www.w3.org/2000/svg"
 width="1024.000000pt" height="1024.000000pt" viewBox="0 0 1024.000000 1024.000000"
 preserveAspectRatio="xMidYMid meet">
<metadata>
Created by potrace 1.16, written by Peter Selinger 2001-2019
</metadata>
<g transform="translate(0.000000,1024.000000) scale(0.100000,-0.100000)"
fill="#000000" stroke="none">
<path d="M1910 8181 c-110 -29 -186 -77 -285 -176 -152 -152 -213 -298 -222
-530 -15 -397 163 -697 707 -1189 197 -179 309 -273 555 -471 281 -225 399
-344 453 -452 71 -145 76 -243 15 -354 -34 -64 -80 -104 -163 -143 -92 -43
-170 -43 -256 2 -72 37 -117 86 -144 160 -25 65 -25 105 -1 158 50 109 179
124 225 27 25 -52 9 -85 -55 -112 -35 -15 -49 -27 -49 -41 0 -30 36 -43 106
-38 54 3 69 9 95 33 43 41 59 83 59 154 0 78 -12 106 -68 163 -60 62 -118 82
-221 76 -92 -6 -139 -28 -202 -95 -112 -119 -130 -334 -43 -505 34 -67 144
-177 209 -211 119 -60 288 -79 415 -48 175 43 337 194 399 372 26 74 44 209
36 277 -33 292 -170 457 -740 892 -192 147 -280 235 -325 325 -31 62 -35 79
-35 145 0 88 23 140 82 189 76 62 160 73 243 31 60 -31 110 -103 110 -160 0
-58 -67 -118 -116 -106 -31 8 -64 61 -64 104 0 28 -3 32 -25 32 -37 0 -65 -51
-65 -120 0 -47 5 -61 30 -91 41 -51 85 -69 164 -69 84 0 120 15 173 73 55 60
78 134 70 230 -8 91 -35 143 -113 216 -51 48 -77 64 -130 81 -117 36 -275 21
-361 -34 -97 -60 -170 -173 -192 -291 -6 -32 -14 -61 -17 -64 -9 -9 -186 180
-255 272 -112 151 -194 349 -214 518 -14 121 53 309 139 393 53 51 142 99 214
116 89 21 182 -3 277 -71 50 -36 108 -136 120 -208 16 -96 -46 -200 -139 -236
-41 -16 -50 -16 -83 -4 -26 10 -44 26 -58 52 l-20 38 28 25 c20 17 40 24 68
24 36 0 39 2 39 28 0 84 -162 108 -232 35 -53 -56 -72 -147 -47 -224 15 -43
82 -114 133 -141 50 -26 166 -35 237 -18 264 61 388 404 248 683 -63 124 -222
249 -359 281 -90 21 -266 20 -350 -3z"/>
<path d="M7968 8181 c-84 -23 -147 -60 -222 -130 -76 -72 -131 -158 -158 -244
-17 -58 -20 -87 -16 -185 4 -101 8 -125 31 -173 77 -160 224 -250 389 -236 82
7 133 32 186 92 48 54 68 122 57 193 -6 38 -16 56 -55 94 -47 48 -48 48 -113
48 -61 0 -67 -2 -92 -31 -33 -40 -29 -63 10 -67 59 -5 73 -12 85 -43 11 -27
11 -33 -7 -57 -29 -39 -79 -54 -123 -36 -58 24 -83 48 -114 108 -74 143 -5
302 164 380 104 48 188 43 302 -16 173 -91 275 -303 247 -513 -23 -174 -101
-342 -236 -512 -79 -100 -212 -235 -226 -230 -6 2 -17 34 -24 73 -8 38 -23 88
-35 112 -33 70 -112 148 -186 184 -64 32 -71 33 -192 33 -107 0 -132 -3 -172
-22 -117 -54 -198 -173 -206 -303 -6 -105 9 -152 70 -216 60 -64 96 -77 191
-72 57 3 79 8 105 28 73 54 95 161 46 219 -34 41 -64 41 -64 1 0 -105 -107
-141 -161 -54 -50 81 -8 174 101 223 59 27 104 26 165 -3 66 -31 92 -58 124
-125 54 -115 23 -234 -91 -357 -61 -65 -107 -104 -418 -349 -191 -150 -261
-213 -358 -320 -253 -277 -282 -657 -71 -898 101 -114 222 -179 368 -198 204
-25 385 48 504 203 83 111 121 259 98 385 -17 92 -46 146 -108 203 -62 57
-123 80 -211 80 -84 0 -133 -15 -182 -58 -53 -45 -82 -102 -88 -178 -9 -115
51 -185 164 -192 42 -3 69 0 79 8 20 17 20 60 0 60 -30 0 -75 30 -90 60 -27
52 -4 95 66 124 33 14 39 13 87 -9 42 -19 55 -32 76 -74 64 -125 7 -253 -144
-325 -93 -44 -170 -43 -263 3 -102 51 -160 130 -189 259 -23 105 33 250 146
379 51 57 162 155 381 333 497 405 829 716 977 913 198 266 276 481 265 732
-10 240 -88 404 -264 557 -89 77 -153 112 -255 139 -96 25 -257 25 -350 0z"/>
<path d="M2940 7794 c-40 -14 -62 -30 -87 -66 -23 -34 -27 -49 -26 -108 1 -43
8 -82 19 -106 25 -52 87 -110 156 -145 66 -33 72 -47 83 -184 63 -777 274
-1417 614 -1863 223 -294 580 -595 802 -677 37 -13 50 -24 67 -61 12 -24 41
-61 64 -82 97 -87 126 -121 142 -168 33 -98 12 -232 -54 -334 -59 -92 -139
-155 -294 -230 -151 -72 -216 -124 -252 -197 -24 -51 -24 -135 0 -162 19 -21
22 -21 951 -21 l933 0 16 25 c22 34 20 110 -5 162 -32 65 -109 124 -253 192
-156 74 -222 122 -274 199 -139 204 -129 387 25 504 39 29 66 61 85 97 27 50
35 57 121 100 194 98 365 226 553 417 495 499 761 1204 836 2214 3 32 8 37 63
63 124 59 190 158 183 274 -4 67 -21 100 -72 137 l-27 21 -2177 2 c-1197 1
-2184 -1 -2192 -3z"/>
<path d="M3875 3210 c-34 -13 -93 -86 -100 -122 -3 -18 -5 -200 -3 -404 l3
-371 29 -37 c16 -21 47 -47 70 -57 39 -18 91 -19 1251 -19 1352 0 1246 -6
1307 70 44 56 50 114 46 489 l-3 338 -28 42 c-15 23 -42 51 -60 61 -31 20 -58
20 -1262 19 -676 0 -1239 -4 -1250 -9z"/>
</g>
</svg>
