<?xml version="1.0" standalone="no"?>
<!DOCTYPE svg PUBLIC "-//W3C//DTD SVG 20010904//EN"
 "http://www.w3.org/TR/2001/REC-SVG-20010904/DTD/svg10.dtd">
<svg version="1.0" xmlns="http://www.w3.org/2000/svg"
 width="1024.000000pt" height="1024.000000pt" viewBox="0 0 1024.000000 1024.000000"
 preserveAspectRatio="xMidYMid meet">
<metadata>
Created by potrace 1.16, written by Peter Selinger 2001-2019
</metadata>
<g transform="translate(0.000000,1024.000000) scale(0.100000,-0.100000)"
fill="#000000" stroke="none">
<path d="M1975 7540 c-38 -10 -92 -31 -120 -46 -75 -42 -175 -149 -218 -235
-53 -104 -67 -184 -67 -376 l0 -163 143 -113 c78 -62 284 -223 457 -357 1154
-895 1490 -1158 2349 -1843 271 -216 377 -261 606 -260 204 1 343 50 505 180
47 37 249 198 450 358 390 311 535 425 1275 1004 88 69 203 159 256 201 52 41
312 244 577 449 l482 375 0 170 c0 275 -35 381 -165 511 -86 86 -142 120 -242
145 -75 20 -129 20 -3147 19 -2958 0 -3074 -1 -3141 -19z m5087 3 c-617 -2
-1627 -2 -2245 0 -617 1 -112 2 1123 2 1235 0 1740 -1 1122 -2z"/>
<path d="M1572 4637 c3 -1859 1 -1777 49 -1777 18 0 234 206 1094 1045 198
193 480 468 628 611 152 147 266 265 265 274 -3 16 -105 99 -568 462 -162 128
-335 264 -385 303 -49 40 -236 186 -415 325 -178 139 -394 308 -478 376 -85
68 -163 124 -174 124 -18 0 -18 -47 -16 -1743z m20 636 c-1 -604 -3 -1375 -5
-1713 -1 -338 -3 156 -5 1098 -1 941 1 1712 6 1712 4 0 6 -494 4 -1097z"/>
<path d="M8538 6307 c-291 -229 -582 -457 -643 -507 -38 -31 -137 -108 -220
-172 -82 -64 -249 -194 -370 -290 -121 -95 -308 -243 -415 -327 -209 -165
-260 -209 -260 -226 0 -6 57 -67 128 -136 1977 -1936 1864 -1831 1895 -1762 9
22 13 397 15 1738 1 941 0 1720 -3 1733 -3 12 -12 22 -20 22 -7 0 -56 -33
-107 -73z m119 -2474 c-1 -461 -2 -84 -2 837 0 921 1 1298 2 838 2 -461 2
-1215 0 -1675z"/>
<path d="M3295 4118 c-1392 -1367 -1485 -1460 -1485 -1483 0 -33 80 -81 176
-105 78 -20 110 -20 3159 -18 l3080 3 60 23 c87 33 135 67 135 97 0 18 -178
198 -807 817 -1075 1056 -1201 1178 -1216 1178 -10 0 -121 -88 -528 -421 -206
-169 -336 -245 -504 -294 -254 -75 -562 -21 -795 138 -40 28 -386 305 -627
502 -51 41 -100 75 -110 75 -10 -1 -252 -231 -538 -512z"/>
</g>
</svg>
