<?xml version="1.0" standalone="no"?>
<!DOCTYPE svg PUBLIC "-//W3C//DTD SVG 20010904//EN"
 "http://www.w3.org/TR/2001/REC-SVG-20010904/DTD/svg10.dtd">
<svg version="1.0" xmlns="http://www.w3.org/2000/svg"
 width="1024.000000pt" height="1024.000000pt" viewBox="0 0 1024.000000 1024.000000"
 preserveAspectRatio="xMidYMid meet">
<metadata>
Created by potrace 1.16, written by Peter Selinger 2001-2019
</metadata>
<g transform="translate(0.000000,1024.000000) scale(0.100000,-0.100000)"
fill="#000000" stroke="none">
<path d="M4958 8569 c-128 -9 -278 -41 -407 -88 -125 -46 -333 -161 -384 -213
-10 -10 -24 -18 -32 -18 -7 0 -15 -6 -17 -13 -2 -7 -34 -41 -73 -77 -38 -35
-77 -74 -85 -86 -8 -12 -35 -46 -59 -75 -89 -109 -231 -347 -231 -388 0 -9 -7
-26 -15 -37 -8 -10 -15 -27 -15 -37 0 -9 -4 -25 -9 -35 -12 -24 -42 -148 -48
-202 -3 -25 -9 -50 -14 -56 -5 -6 -11 -111 -14 -234 -3 -123 -8 -227 -11 -232
-3 -4 -191 -8 -418 -8 -228 0 -428 -3 -446 -6 -41 -9 -98 -67 -106 -110 -3
-19 -11 -34 -16 -34 -6 0 -8 -13 -4 -32 3 -18 1 -71 -4 -118 -6 -47 -13 -139
-16 -205 -3 -66 -10 -128 -16 -138 -5 -11 -7 -29 -4 -40 3 -12 1 -58 -5 -102
-19 -151 -27 -238 -34 -365 -3 -52 -11 -110 -16 -127 -6 -18 -8 -41 -5 -50 3
-10 1 -50 -5 -88 -11 -75 -16 -120 -23 -230 -2 -38 -10 -117 -17 -175 -18
-158 -18 -159 -24 -245 -3 -44 -10 -125 -17 -180 -13 -120 -18 -164 -23 -230
-10 -109 -14 -154 -19 -245 -4 -52 -11 -119 -17 -147 -6 -29 -8 -56 -6 -60 2
-5 -2 -60 -10 -123 -15 -119 -18 -152 -28 -305 -3 -49 -10 -111 -16 -137 -6
-26 -9 -51 -6 -55 3 -4 1 -39 -4 -78 -11 -84 -28 -249 -34 -325 -2 -30 -6 -93
-10 -139 -6 -81 -15 -172 -35 -331 -5 -41 -9 -131 -9 -200 -1 -106 3 -134 22
-185 31 -82 64 -131 133 -195 80 -72 142 -99 257 -111 121 -11 4995 -11 5110
1 55 5 107 18 140 33 77 35 168 124 209 204 52 99 62 155 55 302 -7 151 -76
907 -172 1891 -68 695 -185 1949 -217 2325 -11 138 -25 260 -29 272 -4 11 -25
34 -45 50 l-37 28 -439 5 c-375 4 -440 7 -448 20 -5 8 -10 85 -10 170 0 410
-111 751 -333 1026 -92 114 -245 255 -357 329 -310 203 -628 282 -1032 254z
m282 -504 c25 -2 63 -9 85 -16 118 -34 145 -44 203 -70 102 -46 222 -130 315
-222 48 -48 87 -91 87 -96 0 -5 12 -23 28 -40 48 -54 167 -307 183 -394 31
-160 39 -239 37 -341 l-3 -111 -1042 -3 c-971 -2 -1043 -1 -1059 15 -15 15
-16 35 -11 178 9 248 51 403 155 579 183 306 463 487 822 530 32 3 82 1 200
-9z"/>
</g>
</svg>
