<?xml version="1.0" standalone="no"?>
<!DOCTYPE svg PUBLIC "-//W3C//DTD SVG 20010904//EN"
 "http://www.w3.org/TR/2001/REC-SVG-20010904/DTD/svg10.dtd">
<svg version="1.0" xmlns="http://www.w3.org/2000/svg"
 width="760.000000pt" height="715.000000pt" viewBox="0 0 760.000000 715.000000"
 preserveAspectRatio="xMidYMid meet">

<g transform="translate(0.000000,715.000000) scale(0.100000,-0.100000)"
fill="#000000" stroke="none">
<path d="M3783 7078 c-5 -7 -17 -44 -25 -83 -40 -168 -93 -228 -243 -270 -124
-34 -126 -35 -123 -58 2 -17 16 -25 65 -38 101 -26 154 -50 194 -86 56 -51 77
-90 104 -198 28 -109 31 -115 50 -115 20 0 30 23 50 115 38 176 111 248 287
285 32 6 61 16 64 22 12 19 -30 46 -106 68 -168 49 -214 100 -250 275 -7 33
-16 68 -21 78 -11 20 -33 22 -46 5z"/>
<path d="M1560 6115 c-5 -14 -10 -32 -10 -40 0 -7 -9 -43 -21 -80 -28 -93 -72
-134 -172 -165 -42 -13 -77 -27 -77 -31 0 -5 27 -16 61 -25 33 -9 77 -29 98
-45 46 -33 95 -125 112 -210 14 -71 33 -77 50 -16 27 100 42 144 61 175 23 38
105 88 160 97 55 10 55 22 0 39 -131 38 -170 81 -206 226 -24 99 -39 119 -56
75z"/>
<path d="M6000 6088 c-47 -190 -73 -225 -203 -268 -37 -12 -65 -25 -62 -30 3
-4 21 -11 42 -15 57 -10 129 -51 157 -88 26 -34 66 -136 66 -168 0 -10 5 -30
10 -45 9 -24 13 -26 25 -13 8 8 19 38 25 67 14 77 48 148 85 181 28 24 69 43
163 76 16 6 6 25 -12 25 -36 0 -121 35 -153 63 -43 38 -61 76 -83 177 -20 91
-43 106 -60 38z"/>
<path d="M3616 5854 c-450 -89 -767 -439 -805 -890 -31 -370 105 -689 384
-897 290 -216 661 -265 986 -128 234 98 443 307 539 538 85 203 99 451 39 672
-96 354 -418 640 -796 706 -104 18 -254 18 -347 -1z"/>
<path d="M366 5343 c-7 -16 -24 -68 -37 -118 -33 -126 -33 -370 0 -490 67
-248 219 -434 449 -549 40 -20 75 -42 77 -49 5 -14 54 -273 62 -331 8 -52 -7
-42 -47 32 -134 250 -404 410 -720 429 -139 8 -142 4 -104 -109 101 -305 287
-540 519 -656 72 -36 193 -77 255 -86 77 -12 77 -12 95 -84 9 -36 39 -121 66
-188 27 -66 49 -125 49 -129 0 -5 -37 29 -82 74 -99 100 -162 149 -247 191
-148 74 -266 100 -434 99 -151 -2 -181 -7 -185 -35 -5 -37 57 -180 117 -272
126 -192 288 -322 472 -381 87 -28 236 -43 340 -35 l86 6 97 -187 c53 -103 96
-190 96 -192 0 -3 -33 26 -73 64 -83 77 -148 112 -263 144 -68 19 -95 21 -189
16 -109 -6 -236 -31 -308 -62 l-37 -15 15 -36 c23 -55 97 -162 164 -236 105
-114 245 -200 401 -243 96 -27 269 -25 384 4 48 13 91 19 95 14 41 -49 167
-190 210 -236 l56 -58 -56 26 c-146 66 -368 90 -569 61 -130 -19 -200 -35
-200 -45 0 -16 74 -127 119 -180 61 -70 174 -158 259 -200 180 -90 407 -94
712 -12 63 17 124 31 135 31 12 0 52 -17 90 -37 l69 -36 -145 -32 c-378 -83
-746 -168 -762 -177 -13 -6 -15 -13 -8 -26 17 -32 206 -207 314 -291 59 -46
107 -87 107 -90 0 -4 -18 -77 -39 -162 -89 -353 -96 -419 -45 -419 59 0 334
80 702 205 139 47 256 85 260 84 4 0 21 -28 37 -61 17 -34 43 -79 58 -101 29
-39 29 -39 82 -33 55 6 213 58 312 101 207 92 452 334 512 506 21 59 37 68
116 63 22 -1 50 -3 61 -3 16 -1 26 -13 38 -44 37 -96 108 -199 209 -301 149
-149 260 -217 472 -285 169 -54 181 -56 209 -26 12 13 44 62 70 109 l47 84
202 -68 c111 -38 299 -97 417 -133 362 -110 380 -113 380 -57 0 32 -41 214
-93 417 l-35 132 112 88 c140 110 296 264 296 292 0 11 -4 23 -10 26 -9 5
-379 90 -695 159 -203 45 -193 36 -97 85 l83 42 102 -30 c222 -64 408 -85 543
-62 133 24 296 112 412 224 42 41 133 165 145 198 14 39 -164 73 -383 73 -164
-1 -240 -12 -372 -58 l-68 -24 95 100 c52 55 117 120 144 144 l50 45 58 -16
c33 -10 115 -19 193 -22 117 -5 148 -3 220 16 163 41 288 117 407 246 86 93
178 242 162 262 -14 17 -147 59 -235 74 -39 7 -111 9 -168 7 -160 -9 -289 -62
-412 -171 -30 -27 -54 -45 -54 -42 0 4 41 87 92 184 l92 177 145 0 c175 0 269
18 386 74 189 90 336 244 449 469 38 75 52 137 37 161 -16 23 -270 27 -384 6
-116 -22 -231 -67 -320 -126 -66 -43 -180 -152 -236 -225 -26 -34 -27 -38 39
135 26 69 56 151 66 184 21 65 21 66 134 91 355 81 604 320 736 708 39 112 40
123 18 131 -25 10 -139 7 -217 -5 -257 -40 -520 -221 -620 -426 -12 -24 -25
-43 -29 -43 -15 0 -8 88 17 201 14 63 30 124 35 136 5 12 30 31 56 42 76 34
205 125 260 183 102 108 169 230 210 384 15 55 19 103 18 239 0 151 -3 181
-27 270 -15 54 -34 106 -42 114 -14 14 -19 13 -52 -4 -20 -11 -78 -59 -128
-106 -207 -198 -338 -447 -366 -694 -6 -55 -12 -101 -13 -102 -1 -2 -16 32
-34 75 -70 171 -170 305 -299 400 -66 48 -162 102 -182 102 -17 0 -41 -100
-53 -222 -27 -270 47 -519 199 -673 73 -74 122 -108 203 -141 l55 -22 0 -189
c1 -103 4 -222 9 -263 11 -95 -2 -84 -39 34 -32 102 -100 212 -178 290 -54 54
-153 126 -173 126 -16 0 -49 -72 -81 -177 -24 -78 -27 -105 -27 -238 -1 -168
9 -218 71 -340 61 -121 140 -207 231 -255 l40 -21 -28 -87 c-30 -91 -78 -223
-103 -282 l-15 -35 -7 40 c-25 155 -110 335 -219 466 -86 102 -86 102 -139 18
-90 -139 -139 -318 -141 -509 -1 -190 43 -321 158 -461 l54 -66 -87 -87 c-47
-47 -89 -86 -92 -86 -3 0 -6 24 -7 53 -1 28 -12 83 -24 120 -22 70 -104 218
-125 224 -12 4 -118 -127 -175 -217 -109 -170 -158 -304 -165 -451 l-6 -106
-126 -64 c-69 -35 -130 -65 -135 -68 -5 -2 -6 4 -1 15 25 59 62 261 50 273 -9
8 -130 -55 -167 -87 -18 -17 -44 -50 -56 -75 l-22 -45 -53 14 c-163 43 -419
18 -670 -67 -56 -19 -68 -20 -128 -9 -46 9 -111 10 -215 6 -82 -4 -165 -8
-184 -9 -19 0 -90 16 -158 36 -179 54 -344 74 -491 59 -64 -6 -125 -14 -137
-17 -17 -5 -23 0 -33 23 -18 43 -88 106 -157 141 -74 37 -84 38 -84 7 0 -41
30 -196 45 -232 8 -19 13 -34 11 -34 -2 0 -59 29 -127 64 l-124 65 -6 95 c-8
108 -35 209 -86 311 -45 90 -193 311 -236 354 l-34 32 -41 -68 c-23 -38 -53
-96 -66 -130 -26 -64 -51 -187 -41 -204 4 -5 2 -9 -3 -9 -6 0 -46 39 -90 88
l-80 87 50 55 c61 68 121 190 143 294 25 112 16 289 -19 411 -28 97 -126 303
-158 332 -20 17 -21 17 -64 -32 -70 -80 -143 -189 -184 -278 -39 -85 -80 -215
-80 -257 0 -15 -4 -20 -9 -14 -9 8 -131 365 -131 382 0 4 19 16 42 27 23 11
74 52 113 91 78 77 140 186 170 299 22 82 30 253 16 343 -13 82 -63 248 -84
277 -14 18 -16 18 -64 -13 -65 -42 -180 -161 -231 -240 -41 -64 -102 -198
-102 -226 0 -8 -4 -17 -9 -20 -5 -3 -7 108 -6 250 l3 256 54 22 c154 63 297
211 355 370 42 113 55 184 60 331 5 150 -12 314 -35 337 -15 15 -134 -49 -224
-121 -111 -89 -188 -185 -253 -316 -30 -60 -55 -115 -55 -122 0 -7 -4 -13 -10
-13 -5 0 -7 6 -4 13 10 26 -25 213 -57 302 -65 186 -156 332 -287 463 -77 77
-164 142 -188 142 -8 0 -20 -12 -28 -27z m6753 -503 c-5 -68 -16 -131 -33
-178 -40 -120 -133 -260 -206 -312 l-29 -20 23 72 c31 97 65 193 87 246 10 23
16 42 14 42 -9 0 -111 -158 -158 -245 -26 -49 -46 -81 -43 -70 3 11 12 54 21
95 38 184 107 330 257 548 65 94 62 94 69 6 3 -44 2 -126 -2 -184z m-6559 173
c80 -103 170 -287 218 -448 41 -135 56 -205 44 -205 -4 0 -18 30 -31 66 -23
64 -157 281 -167 271 -3 -3 0 -15 6 -28 7 -12 25 -58 40 -103 16 -45 40 -114
55 -155 14 -41 24 -76 21 -78 -8 -8 -132 138 -169 199 -20 34 -49 99 -64 143
-23 70 -27 102 -31 248 -3 114 -1 167 6 167 6 0 38 -35 72 -77z m5875 -399
c83 -123 133 -254 149 -389 l6 -50 -44 70 c-97 153 -159 246 -162 242 -2 -2
21 -70 50 -153 30 -82 57 -164 61 -183 l7 -34 -30 22 c-89 63 -171 203 -198
336 -17 81 -16 278 1 305 11 18 97 -70 160 -166z m-5106 26 c1 -129 -17 -219
-64 -315 -32 -67 -134 -195 -155 -195 -11 0 30 148 70 259 17 46 29 86 26 88
-4 4 -89 -121 -151 -224 -30 -49 -35 -54 -35 -32 0 56 34 187 66 257 40 87 87
154 168 240 72 76 74 74 75 -78z m-972 -564 c214 -73 336 -173 437 -359 l40
-72 -45 36 c-39 32 -284 189 -295 189 -2 0 66 -68 151 -151 85 -84 155 -155
155 -159 0 -15 -85 11 -160 48 -82 40 -199 147 -260 236 -35 51 -130 233 -130
248 0 14 34 9 107 -16z m6993 19 c0 -15 -69 -140 -118 -215 -97 -147 -220
-255 -340 -300 -102 -38 -95 -22 55 128 78 78 139 142 136 142 -10 0 -139 -78
-223 -135 -41 -27 -81 -54 -88 -59 -29 -18 62 136 121 203 72 83 134 130 232
177 93 44 225 79 225 59z m-5956 -515 c1 -155 -1 -170 -27 -243 -37 -107 -128
-247 -160 -247 -5 0 -6 12 -2 28 4 15 15 68 26 117 10 50 28 128 38 175 11 47
17 87 16 89 -3 3 -92 -179 -133 -269 -10 -24 -11 -23 -13 15 -11 181 59 356
205 513 l30 32 10 -22 c6 -13 10 -97 10 -188z m4922 118 c99 -128 155 -267
153 -383 -2 -117 -11 -118 -53 -4 -49 133 -109 240 -100 176 14 -90 57 -302
69 -342 8 -27 12 -52 9 -55 -11 -10 -92 92 -122 154 -58 118 -67 166 -67 341
0 182 10 222 47 188 11 -10 40 -44 64 -75z m933 -543 c-102 -162 -220 -270
-365 -336 -69 -31 -170 -59 -218 -59 l-29 0 22 24 c13 14 89 71 170 127 80 57
148 104 150 106 2 2 2 5 -1 8 -6 7 -192 -75 -285 -125 -88 -47 -85 -37 18 74
148 158 319 247 525 274 32 4 61 4 62 -1 2 -4 -20 -45 -49 -92z m-6744 64
c155 -47 280 -130 390 -256 41 -47 75 -89 75 -94 0 -5 -30 10 -67 33 -38 22
-82 47 -100 54 -56 24 -193 73 -193 69 0 -2 37 -29 83 -60 128 -89 257 -188
257 -197 0 -28 -182 17 -283 69 -88 46 -250 202 -320 309 -73 112 -74 108 14
101 41 -4 106 -16 144 -28z m5538 -440 c96 -189 114 -390 49 -538 l-16 -36
-12 90 c-31 223 -37 255 -45 255 -5 0 -9 -84 -9 -187 l0 -188 -39 85 c-76 168
-81 310 -19 538 12 45 27 81 33 79 5 -2 31 -46 58 -98z m-4423 73 c0 -10 4
-22 9 -27 5 -6 19 -50 32 -100 41 -162 24 -363 -39 -478 l-17 -32 -6 70 c-4
39 -7 115 -8 170 -2 92 -3 98 -16 74 -8 -14 -19 -89 -26 -173 -14 -165 -19
-169 -61 -47 -35 103 -31 220 11 336 59 160 121 266 121 207z m-711 -502 c66
-12 156 -49 224 -90 56 -34 215 -177 182 -165 -11 5 -60 24 -110 43 -90 35
-277 94 -282 88 -6 -5 127 -86 240 -146 65 -34 117 -63 115 -65 -7 -6 -207 14
-248 25 -69 19 -131 54 -213 120 -76 61 -172 174 -161 191 7 12 188 11 253 -1z
m6041 4 c0 -17 -78 -109 -138 -162 -136 -120 -233 -161 -410 -171 -61 -3 -112
-3 -112 2 0 4 5 7 10 7 28 0 360 176 360 191 0 10 -224 -58 -317 -97 -47 -19
-87 -33 -89 -31 -8 8 108 107 178 154 70 45 172 89 243 103 48 9 275 13 275 4z
m-1313 -465 c6 -92 4 -99 -23 -148 -16 -31 -57 -78 -97 -114 l-70 -62 7 50
c11 71 57 204 112 320 43 92 47 98 56 75 5 -14 12 -68 15 -121z m-3518 -158
c33 -108 44 -161 32 -161 -10 0 -151 147 -181 189 -23 33 -23 36 -11 122 6 49
16 101 22 116 11 27 13 26 60 -71 26 -55 61 -143 78 -195z m-564 -155 c129
-29 260 -69 325 -100 l65 -30 -41 -4 c-22 -1 -112 6 -199 17 -87 12 -160 19
-162 17 -6 -5 136 -54 229 -78 58 -14 85 -25 78 -32 -5 -5 -71 -10 -147 -10
-157 -1 -222 13 -338 73 -74 38 -199 146 -188 163 9 15 291 3 378 -16z m4865
15 c0 -15 -96 -99 -161 -141 -34 -22 -99 -52 -143 -66 -71 -23 -97 -27 -211
-26 -71 0 -143 5 -160 10 -28 8 -24 10 50 27 73 16 240 74 233 80 -2 2 -45 -3
-97 -10 -147 -21 -289 -29 -271 -15 59 43 194 90 344 119 56 11 110 22 121 24
39 9 295 7 295 -2z m-3253 -292 c66 -9 290 -62 298 -71 2 -2 -51 -3 -118 -3
-122 -1 -347 -22 -347 -34 0 -6 94 -25 340 -67 85 -14 161 -28 168 -30 9 -3
12 -22 10 -66 l-3 -63 -155 -7 c-103 -4 -200 -15 -290 -33 -238 -47 -250 -49
-255 -44 -10 11 -38 380 -29 389 14 14 159 38 236 39 37 1 102 -4 145 -10z
m1583 -10 c30 -6 58 -14 62 -18 6 -5 -11 -380 -18 -389 -1 -2 -66 10 -145 27
-167 34 -300 50 -454 54 l-110 2 -3 58 c-3 52 -1 58 20 66 13 5 131 27 263 51
132 23 241 43 243 45 6 5 -91 24 -189 36 -53 6 -140 9 -199 5 -118 -6 -117 2
6 34 190 49 380 60 524 29z m-807 -46 c3 -5 2 -70 0 -145 l-6 -138 -132 0
c-156 0 -140 -18 -151 168 l-7 122 146 0 c80 0 148 -3 150 -7z m-1300 -109
c-3 -7 -41 -25 -86 -42 -134 -48 -348 -139 -360 -152 -8 -9 -8 -11 -1 -7 6 4
65 11 130 17 65 6 164 18 218 26 54 8 100 13 102 12 1 -2 6 -38 10 -79 l6 -76
-48 -12 c-45 -11 -326 -97 -349 -107 -19 -8 280 5 337 15 46 8 64 7 85 -4 61
-32 413 -3 538 45 54 20 35 2 -47 -48 -155 -94 -321 -158 -773 -300 -364 -114
-505 -155 -513 -148 -4 4 55 225 94 356 l26 84 -25 21 c-14 11 -58 45 -97 75
-126 95 -191 151 -185 160 3 4 40 16 82 25 43 9 209 48 368 85 485 115 478
114 486 85 3 -11 4 -25 2 -31z m2682 -23 c506 -118 575 -135 575 -143 0 -8
-176 -147 -252 -200 -32 -21 -58 -44 -58 -50 0 -6 28 -107 62 -225 34 -117 59
-215 57 -217 -16 -17 -897 254 -1106 340 -99 41 -297 143 -290 151 3 2 25 -1
48 -7 80 -22 223 -40 360 -47 113 -5 141 -3 168 10 25 12 43 14 94 6 34 -5
130 -11 212 -14 171 -5 172 -7 -55 60 -69 20 -143 45 -166 54 l-41 18 8 68 c5
37 10 70 12 72 3 2 107 -10 232 -27 125 -17 229 -30 231 -28 1 2 -50 25 -114
50 -64 26 -170 70 -234 99 -111 48 -118 53 -118 80 0 21 5 29 18 29 9 0 170
-36 357 -79z m-1133 -367 c124 -121 174 -155 401 -273 123 -64 124 -74 2 -46
-143 34 -251 88 -379 193 -54 45 -176 186 -176 204 0 2 16 4 35 3 30 0 46 -12
117 -81z m-652 58 c0 -18 -90 -130 -141 -176 -76 -68 -127 -102 -232 -151 -92
-43 -192 -70 -238 -63 -19 2 -2 15 81 59 170 90 279 162 380 252 69 62 103 86
123 86 15 1 27 -3 27 -7z"/>
<path d="M3314 3753 c-34 -44 -112 -81 -254 -118 -277 -72 -554 -191 -670
-287 -152 -127 -248 -298 -290 -518 -26 -135 -44 -423 -31 -494 13 -69 20 -83
125 -231 47 -66 103 -151 126 -188 29 -47 56 -78 87 -97 64 -41 218 -106 367
-157 337 -114 645 -163 1030 -163 422 0 754 58 1158 203 69 25 155 60 190 77
59 30 67 38 128 133 35 56 95 146 132 199 102 144 111 169 116 321 8 250 -26
441 -109 612 -138 285 -311 394 -943 591 -101 32 -126 44 -161 78 -23 23 -47
50 -52 60 -11 19 -13 19 -91 -12 -133 -53 -188 -64 -337 -69 -182 -7 -303 15
-457 81 l-36 15 -28 -36z m1434 -368 c81 -17 100 -25 152 -66 19 -15 62 -36
95 -46 57 -18 61 -22 87 -75 17 -35 45 -71 76 -97 48 -40 50 -44 54 -104 3
-34 16 -95 29 -134 l23 -72 -21 -48 c-12 -26 -27 -86 -33 -133 -11 -81 -14
-87 -58 -135 -26 -27 -63 -73 -82 -102 -19 -28 -51 -59 -70 -69 -19 -10 -57
-36 -83 -58 -49 -40 -95 -55 -172 -56 -23 0 -58 -9 -79 -19 -37 -19 -38 -19
-70 -1 -18 12 -62 22 -104 26 -61 6 -77 12 -109 39 -21 17 -64 42 -96 54 -61
25 -95 58 -129 125 -11 22 -37 57 -58 77 -28 25 -40 46 -44 75 -6 43 -33 175
-43 212 -3 15 2 38 16 62 12 22 25 71 31 114 11 88 19 107 67 157 19 20 49 58
66 85 21 31 49 58 78 74 26 14 64 41 86 61 37 34 45 36 124 41 46 3 100 12
119 21 19 8 44 13 55 11 11 -2 53 -11 93 -19z m-431 -1220 c47 -36 110 -59
197 -71 l48 -7 -5 -86 c-5 -89 -30 -191 -48 -191 -5 0 -38 18 -73 40 l-63 40
-78 -45 c-45 -25 -82 -40 -85 -35 -3 6 6 83 21 172 16 90 28 175 29 191 0 15
3 27 6 27 3 0 26 -16 51 -35z m698 -125 c13 -58 33 -132 45 -164 11 -33 18
-61 16 -64 -3 -2 -45 14 -94 37 -49 23 -92 41 -97 41 -4 0 -37 -18 -72 -40
-63 -40 -63 -40 -72 -18 -10 27 -31 177 -31 223 0 32 0 33 68 43 69 10 171 52
194 80 11 13 13 12 16 -9 1 -13 14 -71 27 -129z"/>
<path d="M4495 3271 c-128 -37 -257 -136 -309 -238 -76 -152 -76 -353 2 -497
73 -135 207 -231 365 -262 81 -16 93 -16 168 -1 104 20 170 53 246 122 185
167 230 410 117 625 -107 204 -367 315 -589 251z m298 -136 c72 -36 161 -129
195 -205 68 -152 17 -359 -114 -459 -106 -81 -258 -105 -379 -60 -64 24 -152
99 -189 163 -111 189 -49 434 137 546 65 39 116 50 207 47 70 -3 96 -9 143
-32z"/>
<path d="M4579 2994 c-45 -93 -47 -94 -149 -116 -36 -7 -65 -18 -65 -25 0 -6
26 -32 58 -58 64 -53 68 -67 42 -151 -8 -27 -15 -59 -15 -71 0 -34 41 -30 119
13 64 35 66 36 96 20 49 -25 126 -56 141 -56 19 0 18 20 -4 72 -11 24 -22 59
-26 79 -6 36 -5 37 64 90 38 29 70 56 70 60 0 4 -26 15 -57 24 -109 30 -119
37 -163 125 -22 44 -47 80 -55 80 -8 0 -32 -37 -56 -86z"/>
</g>
</svg>
