<?xml version="1.0" standalone="no"?>
<!DOCTYPE svg PUBLIC "-//W3C//DTD SVG 20010904//EN"
 "http://www.w3.org/TR/2001/REC-SVG-20010904/DTD/svg10.dtd">
<svg version="1.0" xmlns="http://www.w3.org/2000/svg"
 width="1028.000000pt" height="1028.000000pt" viewBox="0 0 1028.000000 1028.000000"
 preserveAspectRatio="xMidYMid meet">
<metadata>
Created by potrace 1.16, written by Peter Selinger 2001-2019
</metadata>
<g transform="translate(0.000000,1028.000000) scale(0.100000,-0.100000)"
fill="#000000" stroke="none">
<path d="M4348 8791 c-63 -21 -227 -169 -247 -224 -17 -45 -13 -118 8 -154 11
-17 60 -64 110 -102 170 -135 262 -256 309 -411 30 -98 35 -161 22 -242 -34
-200 -144 -364 -314 -467 l-55 -33 -83 35 c-200 85 -379 119 -633 118 -254 0
-448 -37 -659 -125 -564 -237 -1058 -837 -1260 -1534 -19 -65 -38 -135 -41
-155 -4 -20 -11 -37 -15 -37 -4 0 -5 -11 -2 -25 2 -14 0 -25 -5 -25 -6 0 -8
-11 -5 -25 2 -14 0 -25 -5 -25 -5 0 -8 -14 -5 -30 2 -16 0 -30 -5 -30 -5 0 -8
-13 -5 -30 2 -16 0 -30 -6 -30 -5 0 -9 -17 -9 -38 0 -21 -3 -44 -8 -52 -14
-23 -19 -515 -6 -646 36 -357 124 -704 257 -1014 282 -653 827 -1207 1375
-1398 167 -59 308 -84 494 -89 254 -8 467 31 650 118 151 72 159 93 63 162
-334 238 -623 678 -791 1202 -97 303 -150 601 -167 949 -9 176 -3 476 9 476 3
0 4 25 3 55 -3 35 0 55 7 55 6 0 9 16 7 40 -2 22 0 40 5 40 5 0 9 13 9 28 0
49 39 247 79 405 158 618 521 1174 894 1368 l77 40 -108 -108 c-311 -312 -545
-752 -667 -1259 -15 -60 -29 -116 -32 -124 -4 -8 -5 -21 -4 -28 1 -8 -4 -21
-11 -30 -11 -13 -11 -15 5 -9 24 9 23 -25 -3 -41 -11 -7 -17 -18 -14 -27 4 -8
0 -23 -7 -32 -12 -15 -12 -16 4 -10 24 9 23 -30 -2 -51 -24 -21 -36 -119 -53
-421 -36 -665 90 -1349 340 -1847 197 -393 486 -718 768 -866 75 -40 238 -98
273 -98 12 0 21 -4 21 -8 0 -5 14 -7 30 -4 17 2 30 0 30 -6 0 -6 67 -9 178 -8
161 2 185 5 267 29 221 68 405 186 595 383 385 399 643 1018 725 1736 18 156
35 728 22 728 -5 0 -7 34 -5 75 2 41 0 75 -4 75 -5 0 -8 7 -8 15 0 8 -4 15
-10 15 -5 0 -10 12 -9 28 l1 27 7 -25 c6 -22 8 -23 14 -7 12 31 8 45 -13 52
-14 4 -20 15 -20 36 0 17 4 28 9 25 5 -3 7 -15 4 -25 -3 -10 0 -22 6 -25 16
-11 14 24 -14 181 -87 499 -225 867 -450 1203 -91 136 -226 294 -324 379 -34
29 -60 56 -57 58 7 7 130 -61 191 -106 270 -197 518 -567 685 -1021 49 -131
112 -349 105 -360 -3 -5 0 -12 6 -15 5 -4 8 -13 5 -21 -3 -7 -1 -16 5 -20 5
-3 9 -13 8 -22 -1 -10 1 -25 6 -34 4 -10 5 -25 2 -33 -4 -8 -2 -17 4 -21 6 -3
8 -13 5 -21 -4 -9 1 -17 14 -20 13 -4 20 -14 20 -30 0 -13 -4 -22 -10 -18 -5
3 -7 12 -3 20 3 8 0 15 -6 15 -21 0 -12 -51 9 -57 11 -3 20 -14 20 -25 0 -10
-5 -16 -10 -13 -6 4 -8 11 -5 16 4 5 1 9 -6 9 -8 0 -9 -13 -5 -42 44 -306 44
-759 0 -1068 -108 -750 -458 -1415 -920 -1751 -124 -90 -119 -108 56 -182 216
-91 404 -123 670 -114 310 11 583 102 860 284 675 445 1151 1279 1240 2170 15
148 27 474 18 480 -5 2 -9 28 -9 56 -1 45 -2 48 -9 22 -7 -27 -8 -26 -8 15 0
25 2 39 5 32 2 -6 9 -10 14 -6 5 3 7 9 4 14 -3 5 -7 46 -9 92 -5 101 -45 309
-91 469 -189 657 -642 1241 -1169 1506 -245 123 -466 173 -766 173 -254 0
-420 -31 -634 -117 l-90 -36 -72 37 c-122 63 -251 155 -318 227 -69 75 -125
174 -201 355 -159 378 -443 743 -720 922 -118 77 -195 105 -305 108 -52 2
-107 0 -122 -5z"/>
</g>
</svg>
