<?xml version="1.0" standalone="no"?>
<!DOCTYPE svg PUBLIC "-//W3C//DTD SVG 20010904//EN"
 "http://www.w3.org/TR/2001/REC-SVG-20010904/DTD/svg10.dtd">
<svg version="1.0" xmlns="http://www.w3.org/2000/svg"
 width="1024.000000pt" height="1024.000000pt" viewBox="0 0 1024.000000 1024.000000"
 preserveAspectRatio="xMidYMid meet">
<metadata>
Created by potrace 1.16, written by Peter Selinger 2001-2019
</metadata>
<g transform="translate(0.000000,1024.000000) scale(0.100000,-0.100000)"
fill="#000000" stroke="none">
<path d="M1913 9481 c-140 -48 -250 -187 -283 -359 -17 -83 -8 -308 15 -382
40 -128 122 -257 226 -356 75 -70 150 -118 249 -158 132 -54 221 -69 418 -71
95 -1 175 -4 177 -7 3 -3 -30 -45 -73 -94 -494 -562 -763 -1167 -848 -1909
-29 -259 -42 -1258 -23 -1820 16 -448 79 -785 220 -1163 62 -168 186 -421 276
-565 359 -570 933 -1063 1525 -1311 665 -279 1451 -343 2137 -176 483 118 906
332 1328 673 76 61 176 142 223 180 112 91 237 167 354 217 216 93 379 105
511 40 109 -54 159 -143 159 -281 0 -119 -46 -205 -135 -253 -70 -39 -121 -38
-193 4 -47 26 -60 40 -87 95 -28 58 -31 70 -24 120 6 50 5 55 -13 55 -11 0
-31 -17 -48 -42 -25 -36 -29 -52 -33 -124 -4 -102 16 -152 89 -217 79 -71 109
-82 230 -82 93 0 111 3 163 27 74 35 156 113 196 187 45 86 64 170 64 286 0
163 -39 251 -166 373 -70 66 -136 102 -225 121 -77 16 -265 14 -342 -5 -36 -9
-73 -17 -82 -19 -14 -3 -10 8 17 50 71 112 83 133 149 253 121 222 227 489
296 746 17 65 54 230 81 367 27 137 58 277 70 311 29 87 102 224 156 292 74
93 198 166 282 166 52 0 141 -47 169 -89 80 -121 53 -264 -59 -321 -21 -11
-50 -20 -64 -20 -63 0 -130 53 -142 112 -7 36 -40 38 -53 2 -15 -37 -12 -111
5 -143 21 -41 100 -107 136 -115 17 -3 59 -6 93 -6 113 0 217 75 274 198 25
52 27 68 27 182 0 156 -14 193 -114 290 -85 84 -146 110 -277 117 -157 9 -265
-37 -396 -169 -70 -70 -78 -76 -83 -55 -2 12 -6 342 -8 732 -4 743 -4 738 -53
1035 -66 402 -231 836 -451 1182 -339 536 -782 935 -1358 1223 -786 394 -1687
460 -2526 184 -216 -71 -316 -115 -704 -311 -390 -197 -618 -266 -844 -255
-138 7 -206 24 -326 82 -129 62 -218 146 -278 262 -84 162 -98 294 -44 413 29
65 65 101 129 130 40 17 54 19 85 11 86 -24 143 -89 143 -163 0 -35 -31 -111
-49 -122 -6 -4 -11 -16 -11 -27 0 -14 7 -19 29 -19 38 0 89 36 126 90 26 39
30 55 33 125 3 58 -1 91 -13 119 -24 57 -113 140 -171 160 -65 22 -194 21
-261 -3z m3482 -736 c338 -40 625 -123 930 -269 486 -234 867 -564 1160 -1006
284 -428 450 -888 510 -1415 22 -197 23 -1764 0 -1950 -43 -362 -121 -660
-247 -940 -55 -123 -133 -265 -146 -265 -4 0 -20 26 -36 58 -37 72 -222 259
-321 324 -154 101 -335 185 -770 360 -110 44 -260 109 -332 144 -142 68 -165
89 -197 180 -21 59 -45 186 -54 284 l-8 84 58 70 c94 112 188 285 247 456 25
70 36 89 63 106 70 44 153 148 206 255 79 159 103 256 109 425 7 197 -13 252
-121 318 l-29 18 5 157 c12 361 -34 622 -147 837 -157 299 -438 514 -782 599
-264 66 -628 53 -870 -29 -343 -117 -622 -399 -739 -749 -60 -176 -69 -248
-69 -555 l0 -272 -32 -11 c-83 -27 -123 -123 -123 -293 1 -256 98 -509 251
-650 32 -30 67 -57 78 -61 13 -4 29 -36 55 -111 62 -180 152 -341 255 -457 28
-32 51 -59 51 -60 0 -32 -35 -269 -46 -311 -46 -178 -51 -181 -749 -453 -200
-78 -485 -221 -587 -293 -102 -73 -233 -205 -273 -276 -62 -109 -50 -110 -113
7 -156 290 -270 636 -321 972 -38 252 -43 397 -38 1197 4 811 6 848 58 1140
108 612 385 1147 819 1581 85 85 193 185 240 223 329 261 742 468 1128 566
107 27 326 64 427 73 112 10 384 5 500 -8z"/>
</g>
</svg>
