<?xml version="1.0" standalone="no"?>
<!DOCTYPE svg PUBLIC "-//W3C//DTD SVG 20010904//EN"
 "http://www.w3.org/TR/2001/REC-SVG-20010904/DTD/svg10.dtd">
<svg version="1.0" xmlns="http://www.w3.org/2000/svg"
 width="652.000000pt" height="630.000000pt" viewBox="0 0 652.000000 630.000000"
 preserveAspectRatio="xMidYMid meet">

<g transform="translate(0.000000,630.000000) scale(0.100000,-0.100000)"
fill="#000000" stroke="none">
<path d="M1362 6268 c-5 -7 -18 -49 -28 -92 -30 -127 -62 -162 -191 -205 -63
-21 -78 -30 -78 -46 0 -15 11 -23 45 -33 89 -26 131 -44 160 -68 32 -27 64
-102 74 -176 13 -86 58 -98 72 -19 24 141 76 217 164 241 120 33 125 35 125
55 0 16 -14 23 -76 40 -132 37 -175 77 -199 185 -24 109 -31 130 -44 130 -8 0
-18 -6 -24 -12z"/>
<path d="M2774 5911 c-189 -54 -335 -194 -378 -364 l-13 -52 -169 -5 c-146 -4
-174 -8 -204 -25 -48 -29 -71 -73 -73 -139 l-1 -55 -391 -3 c-375 -3 -392 -4
-437 -25 -70 -32 -131 -94 -164 -166 l-29 -62 0 -2370 0 -2370 33 -67 c37 -76
88 -124 172 -166 l55 -27 1739 -3 c1933 -3 1792 -7 1899 65 65 44 119 110 143
173 21 55 34 410 15 410 -6 0 -11 -3 -11 -8 0 -4 -47 -45 -105 -91 -107 -87
-125 -112 -125 -177 0 -23 -10 -43 -34 -68 l-33 -36 -1705 0 c-1190 0 -1714 3
-1736 11 -17 6 -39 23 -49 37 -17 26 -18 121 -18 2329 l0 2303 28 27 27 28
343 3 c188 2 352 0 365 -3 21 -5 23 -10 20 -63 l-3 -57 -277 0 c-264 0 -278
-1 -305 -21 -15 -11 -36 -36 -45 -55 -17 -32 -18 -157 -18 -2182 0 -1900 2
-2151 15 -2177 33 -64 -82 -60 1653 -60 l1579 0 21 23 c54 57 38 108 -67 212
l-61 59 -62 -66 c-94 -99 -143 -103 -314 -21 l-99 48 -840 5 -840 5 -2 273
c-2 301 -2 303 -66 342 -30 19 -53 20 -369 20 l-338 0 0 1718 c0 1062 4 1723
10 1732 8 12 43 16 196 18 103 2 197 1 210 -2 14 -4 24 -16 27 -36 4 -17 26
-50 51 -75 79 -79 41 -76 963 -73 l809 3 43 28 c32 21 50 44 69 87 33 74 36
74 258 68 140 -4 166 -7 184 -23 19 -17 20 -31 22 -539 2 -334 6 -514 12 -501
13 28 69 116 130 205 l51 75 0 407 c0 395 -1 407 -21 434 -11 15 -33 37 -48
48 -26 20 -43 21 -297 24 l-269 4 0 59 0 59 333 0 c200 0 347 -4 370 -11 71
-19 71 -20 77 -412 l5 -349 113 164 113 163 -3 215 -3 215 -31 65 c-36 75 -94
136 -162 171 -47 24 -48 24 -428 27 l-381 3 -6 58 c-7 79 -29 118 -80 142 -36
16 -67 19 -203 19 l-162 0 -12 48 c-44 176 -203 328 -395 377 -77 20 -194 18
-271 -4z m280 -226 c62 -30 131 -106 156 -172 18 -48 21 -72 17 -135 l-5 -78
244 0 244 0 0 -150 0 -150 -790 0 -790 0 0 150 0 150 239 0 238 0 0 83 c0 69
5 93 27 144 34 74 96 137 162 163 63 26 199 23 258 -5z m646 -900 c0 -8 -15
-22 -32 -32 -31 -17 -82 -18 -743 -18 l-710 0 -33 23 c-18 13 -30 28 -27 33 4
5 316 9 776 9 671 0 769 -2 769 -15z m-1580 -3880 c3 -126 2 -234 -1 -238 -6
-8 -154 118 -444 377 -49 44 -94 84 -100 88 -5 5 114 7 265 6 l275 -3 5 -230z"/>
<path d="M2864 5584 c-77 -26 -124 -105 -109 -183 31 -165 258 -195 324 -42
18 42 20 57 12 92 -24 105 -129 167 -227 133z"/>
<path d="M4737 5873 c-4 -3 -7 -18 -7 -32 0 -90 -61 -172 -146 -197 -72 -21
-74 -46 -6 -64 26 -6 61 -20 78 -31 36 -22 74 -93 74 -138 0 -32 22 -56 45
-47 8 3 15 16 15 28 0 86 55 160 137 184 85 25 84 56 -4 69 -78 12 -122 70
-138 183 -5 40 -11 52 -24 52 -10 0 -21 -3 -24 -7z"/>
<path d="M5636 5294 c-38 -12 -66 -32 -116 -82 -91 -92 -363 -479 -945 -1342
-98 -146 -251 -373 -341 -505 -165 -245 -209 -321 -238 -410 -25 -79 -167
-783 -173 -856 -5 -64 -4 -68 20 -84 48 -31 52 -28 417 220 426 289 491 353
740 725 234 350 526 790 656 990 56 85 184 281 286 435 286 434 311 490 273
604 -12 38 -34 68 -81 115 -151 152 -363 232 -498 190z m230 -194 c69 -34 174
-136 174 -170 0 -30 -29 -82 -97 -175 l-58 -81 -50 38 c-68 52 -251 144 -304
153 -29 5 -41 11 -37 20 2 7 39 61 82 120 50 70 88 112 108 121 43 20 108 10
182 -26z m-345 -350 c123 -49 279 -163 279 -204 0 -8 -8 -24 -19 -37 l-19 -23
-39 35 c-88 80 -235 159 -321 174 -49 8 -54 24 -16 54 34 26 69 26 135 1z
m-66 -189 c55 -25 216 -139 230 -162 4 -5 -3 -25 -15 -44 l-21 -35 -71 60
c-79 67 -194 130 -281 155 l-59 17 24 25 c21 23 28 24 78 19 30 -4 82 -19 115
-35z m-151 -150 c26 -11 58 -29 72 -40 l24 -19 -23 -29 c-24 -29 -432 -624
-682 -993 -76 -113 -144 -212 -152 -221 -13 -15 -21 -14 -103 15 -49 17 -92
35 -96 38 -7 7 818 1254 843 1275 16 13 44 7 117 -26z m219 -166 l17 -24 -158
-238 c-274 -410 -654 -987 -659 -1000 -7 -18 -14 -16 -47 10 l-29 24 115 169
c63 93 229 340 368 549 266 400 359 535 369 535 3 0 14 -12 24 -25z m-1217
-1236 c143 -44 249 -112 308 -197 35 -51 27 -72 -51 -138 -59 -51 -311 -244
-318 -244 -2 0 -14 18 -26 39 -39 71 -79 72 -160 4 -28 -24 -32 -25 -26 -8 3
11 15 47 26 80 10 33 34 121 52 195 50 209 82 290 113 290 8 0 45 -10 82 -21z"/>
<path d="M374 5258 c-4 -6 -15 -51 -25 -100 -26 -128 -57 -191 -114 -227 -25
-16 -78 -37 -116 -46 -109 -27 -105 -61 9 -89 139 -35 188 -88 221 -239 22
-99 26 -107 52 -107 22 0 33 23 44 95 10 72 41 148 73 178 34 32 104 64 162
73 89 13 99 63 17 84 -173 44 -229 107 -258 293 -7 39 -16 78 -22 85 -12 15
-34 16 -43 0z"/>
<path d="M2255 4401 c-174 -30 -294 -212 -251 -382 49 -188 235 -290 426 -233
42 12 67 29 115 77 70 71 95 131 95 227 0 195 -185 345 -385 311z"/>
<path d="M2982 4054 c-28 -19 -29 -57 -2 -84 19 -19 33 -20 498 -20 451 0 480
1 495 18 22 24 21 65 -1 85 -17 15 -66 17 -493 17 -413 0 -477 -2 -497 -16z"/>
<path d="M2980 3750 c-24 -24 -25 -48 -4 -78 l15 -22 484 0 c426 0 485 2 499
16 20 19 20 54 2 80 -14 18 -32 19 -495 22 -471 3 -481 2 -501 -18z"/>
<path d="M2407 3656 c-86 -19 -92 -20 -172 -3 -104 21 -148 21 -211 0 -173
-58 -274 -196 -274 -376 0 -48 4 -62 25 -82 l24 -25 525 0 525 0 21 28 c20 24
22 35 17 107 -8 111 -29 165 -94 236 -64 69 -147 113 -238 126 -47 7 -79 4
-148 -11z"/>
<path d="M6110 3584 c-6 -14 -10 -37 -10 -51 0 -61 -42 -181 -77 -223 -42 -49
-76 -68 -167 -91 -118 -30 -113 -52 22 -89 141 -39 200 -113 218 -271 8 -76
18 -99 44 -99 25 0 35 21 49 102 30 177 82 237 231 272 117 27 114 62 -6 94
-144 40 -190 92 -226 258 -11 55 -25 105 -30 112 -17 20 -38 14 -48 -14z"/>
<path d="M3152 3438 c-7 -7 -12 -26 -12 -43 0 -17 5 -36 12 -43 17 -17 689
-17 706 0 16 16 16 70 0 86 -17 17 -689 17 -706 0z"/>
<path d="M2450 2899 c-19 -12 -103 -89 -186 -170 l-150 -149 -34 35 c-53 54
-90 43 -90 -28 0 -47 12 -71 58 -119 29 -30 43 -38 72 -38 33 0 52 16 232 185
108 102 201 198 208 214 13 33 2 64 -30 81 -27 14 -41 13 -80 -11z"/>
<path d="M1811 2834 c-20 -26 -21 -39 -21 -295 0 -256 1 -270 20 -289 19 -19
33 -20 319 -20 l300 0 20 26 c19 24 21 40 21 158 0 171 -14 189 -90 117 -42
-40 -42 -40 -38 -105 l3 -66 -210 0 -210 0 3 192 3 193 126 0 125 0 39 45 c21
25 39 51 39 58 0 9 -50 12 -214 12 l-215 0 -20 -26z"/>
<path d="M2690 2750 c-25 -25 -26 -54 0 -80 19 -19 33 -20 494 -20 l475 0 15
22 c20 28 20 47 0 73 -14 19 -28 20 -489 23 -465 3 -475 2 -495 -18z"/>
<path d="M4944 2711 c-16 -21 -69 -91 -119 -156 l-90 -118 0 -393 0 -394 25
-24 c24 -23 209 -110 217 -103 5 5 5 1218 0 1223 -2 2 -17 -13 -33 -35z"/>
<path d="M5566 2578 c-3 -7 -9 -37 -15 -66 -22 -109 -69 -158 -169 -178 -35
-7 -60 -30 -46 -43 5 -5 35 -16 67 -25 100 -29 131 -70 162 -218 3 -18 12 -28
23 -28 14 0 22 16 36 73 28 120 59 154 166 182 69 17 62 42 -20 67 -100 30
-130 67 -154 185 -8 41 -16 59 -29 61 -9 2 -19 -2 -21 -10z"/>
<path d="M2687 2472 c-22 -24 -21 -55 1 -75 17 -15 66 -17 500 -17 457 0 482
1 491 18 12 23 4 63 -17 80 -12 9 -125 12 -487 12 -444 0 -473 -1 -488 -18z"/>
<path d="M4529 2290 c-42 -32 -81 -72 -88 -88 -9 -20 -11 -89 -9 -230 3 -198
3 -201 28 -227 31 -33 65 -51 113 -60 l37 -7 0 336 c0 185 -1 336 -2 335 -2 0
-37 -27 -79 -59z"/>
<path d="M3477 2208 c-32 -18 -19 -57 49 -144 57 -73 68 -83 85 -74 10 6 19
13 19 16 0 11 -79 169 -92 185 -18 22 -41 28 -61 17z"/>
<path d="M3262 2099 c-12 -5 -27 -20 -33 -33 -16 -35 8 -70 63 -89 24 -8 80
-29 126 -45 80 -29 82 -29 82 -9 0 23 -61 83 -140 136 -75 51 -72 50 -98 40z"/>
<path d="M1810 1990 c-27 -27 -26 -65 2 -84 20 -14 95 -16 614 -16 560 0 592
1 607 18 24 26 21 68 -5 86 -20 14 -94 16 -610 16 -575 0 -588 0 -608 -20z"/>
<path d="M4195 1987 c-112 -44 -166 -97 -113 -110 25 -7 166 26 210 49 31 16
39 58 12 68 -24 9 -76 6 -109 -7z"/>
<path d="M3656 1881 c-46 -48 -36 -87 99 -391 65 -146 146 -331 181 -411 156
-361 197 -429 257 -429 45 0 81 33 138 126 29 46 56 87 60 89 4 3 60 -50 124
-118 182 -189 181 -189 315 -86 101 78 130 116 130 169 -1 46 -9 57 -232 308
-17 19 -28 34 -26 35 1 1 38 20 82 42 110 56 146 91 146 143 0 70 -24 85 -356
219 -165 66 -415 169 -557 227 -288 118 -316 124 -361 77z m637 -354 l428
-172 -63 -27 c-116 -50 -173 -83 -176 -101 -3 -17 72 -110 246 -301 39 -44 72
-86 72 -92 0 -19 -73 -75 -92 -72 -9 2 -86 77 -170 168 -85 91 -162 166 -171
168 -17 3 -56 -52 -120 -169 l-29 -52 -19 30 c-11 17 -77 156 -148 310 -70
153 -149 322 -174 376 -26 54 -47 103 -47 109 0 13 -45 29 463 -175z"/>
<path d="M1807 1682 c-23 -25 -21 -58 3 -82 20 -20 33 -20 780 -20 l761 0 24
25 c30 29 31 49 5 75 -20 20 -33 20 -788 20 -732 0 -770 -1 -785 -18z"/>
</g>
</svg>
