<?xml version="1.0" standalone="no"?>
<!DOCTYPE svg PUBLIC "-//W3C//DTD SVG 20010904//EN"
 "http://www.w3.org/TR/2001/REC-SVG-20010904/DTD/svg10.dtd">
<svg version="1.0" xmlns="http://www.w3.org/2000/svg"
 width="1024.000000pt" height="1024.000000pt" viewBox="0 0 1024.000000 1024.000000"
 preserveAspectRatio="xMidYMid meet">
<metadata>
Created by potrace 1.16, written by Peter Selinger 2001-2019
</metadata>
<g transform="translate(0.000000,1024.000000) scale(0.100000,-0.100000)"
fill="#000000" stroke="none">
<path d="M2758 8049 c-76 -11 -190 -56 -264 -104 -81 -54 -210 -185 -272 -277
-55 -82 -109 -220 -133 -343 -17 -88 -17 -313 0 -426 11 -73 18 -93 49 -135
64 -85 73 -87 382 -85 236 2 269 0 284 -14 15 -15 16 -153 14 -1713 l-3 -1697
-295 -5 c-198 -3 -302 -9 -315 -17 -36 -21 -84 -77 -104 -123 -19 -43 -45
-228 -36 -253 3 -7 7 -37 9 -67 17 -197 91 -345 253 -501 100 -96 146 -127
248 -163 109 -38 226 -44 744 -39 358 3 481 1 503 -8 22 -9 32 -9 41 0 16 16
2659 16 2689 0 15 -8 26 -8 42 0 14 7 171 12 471 13 l450 3 75 36 c87 41 189
131 244 214 20 29 50 95 67 146 29 85 32 106 33 214 0 135 -16 212 -64 310
-38 79 -128 170 -199 204 -53 24 -67 26 -246 29 -241 5 -228 14 -234 -163 -4
-148 21 -398 49 -487 11 -35 38 -92 60 -128 43 -70 39 -92 -12 -62 -87 51
-171 270 -189 492 -7 82 -9 849 -6 2245 4 2291 1 2157 53 2320 39 120 123 245
165 245 31 0 27 -26 -15 -101 -70 -124 -98 -264 -99 -491 0 -120 2 -140 18
-158 18 -20 27 -20 478 -18 l460 3 21 28 c20 27 21 40 20 240 0 182 -4 225
-22 299 -62 250 -254 453 -496 522 l-88 26 -2387 -1 c-1312 -1 -2412 -5 -2443
-10z m2353 -1210 c10 -5 32 -9 49 -9 137 0 456 -178 518 -289 13 -23 27 -41
32 -41 12 0 77 -118 111 -200 86 -213 71 -518 -36 -735 -74 -148 -182 -273
-423 -487 -236 -211 -301 -329 -306 -557 -2 -71 -5 -85 -31 -123 -20 -29 -48
-52 -85 -70 -48 -24 -60 -27 -91 -18 -56 16 -102 51 -129 100 -22 41 -24 54
-22 155 2 66 10 143 22 192 22 93 92 243 131 283 15 14 29 35 33 46 8 26 154
170 311 306 250 218 331 364 329 593 -2 161 -47 259 -174 379 -115 108 -220
146 -403 146 -183 0 -304 -48 -423 -167 -90 -89 -138 -180 -161 -306 -9 -49
-25 -102 -37 -120 -22 -34 -115 -87 -151 -87 -12 0 -46 12 -76 28 -42 21 -59
37 -76 72 -45 88 -24 222 62 395 63 127 138 226 233 308 74 63 230 149 313
171 30 8 70 20 90 26 96 28 344 34 390 9z m-141 -2849 c51 -26 79 -56 102
-109 38 -88 6 -182 -80 -236 -63 -40 -125 -44 -188 -12 -58 30 -88 59 -109
109 -34 82 -4 179 71 231 71 49 131 54 204 17z"/>
</g>
</svg>
