<svg xmlns="http://www.w3.org/2000/svg" width="236" height="289.333" version="1.0" viewBox="0 0 177 217"><path d="M12.9 4.1c-1.4 1.4-1.9 2.8-1.5 4.3.6 2.4 29.1 64.7 36.7 80.1 4.9 10.1 7.2 11.5 10.7 7.1 1.1-1.4 6.1-12.4 11.2-24.3C75.1 59.3 80.5 47 82 44l2.8-5.5-7.7-17.4C71.9 9.2 68.8 3.4 67.5 2.9c-1.1-.4-13.4-.8-27.2-.8-24.4-.1-25.4 0-27.4 2M109.8 3.7C107.9 5.8 103.4 16.2 87 56c-6.7 16.2-12.7 30.1-13.3 30.8-1.9 2.3.6 3.5 4.9 2.3 9.5-2.7 29.2-.1 42.3 5.4 4.9 2 6.6 2.3 7.7 1.4.8-.6 1.4-1.5 1.4-2 0-.4 4-9.7 8.9-20.6s13.3-29.5 18.6-41.3 9.9-22.7 10.2-24.1c.4-2-.1-3-1.8-4.3-2-1.4-6-1.6-28.5-1.6-23.6 0-26.2.2-27.6 1.7M74 99.5c-17.3 3.7-33.2 16-40.9 31.6-6.7 13.6-8.4 25.1-5.6 38.4 3.7 17.4 15.4 32.5 31.5 40.3 28 13.8 64 7.1 82.1-15.1 15.2-18.8 17.8-40.2 7.3-61.6-8.3-16.8-22.6-28.4-41-33.1-9.1-2.4-23.6-2.5-33.4-.5M99 111c19.4 3 36.1 18.4 40.1 37.1 7.2 33.5-25.6 62.7-61 54.4-16.5-3.9-29.7-15.7-35.3-31.4-2.6-7.2-2.8-19.5-.5-27.3 3.7-12.3 15.9-25.1 28.4-29.8 10.1-3.8 17.7-4.6 28.3-3"/><path d="M85.9 127.7c-1.7 3.7-3.9 8.6-4.9 10.8l-1.7 4-11.3 2.3c-6.3 1.3-11.7 2.5-12.2 2.8-2.1 1.3-.1 3.9 7.7 10 6.7 5.3 8.4 7.1 8 8.8-1.6 7.4-2.6 20.9-1.7 21.8.8.8 3.9-.7 10.2-4.6 5.1-3.1 9.6-5.6 10.2-5.6.5 0 5.2 2.5 10.4 5.7 5.5 3.2 9.9 5.2 10.4 4.7.4-.5.2-5.4-.5-10.9-.8-5.5-1.4-10.8-1.5-11.7 0-.9 3.7-4.6 8.5-8.4 4.7-3.7 8.5-7.1 8.5-7.5 0-1.5-2.5-2.4-13.5-5l-11-2.6-3.2-6.9c-5.3-11.2-6.7-13.7-8.1-14.2-.7-.2-2.4 2.4-4.3 6.5"/></svg>