<?xml version="1.0" standalone="no"?>
<!DOCTYPE svg PUBLIC "-//W3C//DTD SVG 20010904//EN"
 "http://www.w3.org/TR/2001/REC-SVG-20010904/DTD/svg10.dtd">
<svg version="1.0" xmlns="http://www.w3.org/2000/svg"
 width="1024.000000pt" height="1024.000000pt" viewBox="0 0 1024.000000 1024.000000"
 preserveAspectRatio="xMidYMid meet">
<metadata>
Created by potrace 1.16, written by Peter Selinger 2001-2019
</metadata>
<g transform="translate(0.000000,1024.000000) scale(0.100000,-0.100000)"
fill="#000000" stroke="none">
<path d="M2421 8680 c-32 -33 -47 -83 -38 -129 5 -26 149 -270 357 -606 51
-82 130 -211 175 -285 45 -74 119 -196 165 -270 45 -74 133 -218 195 -320 61
-102 187 -309 280 -460 92 -151 207 -340 255 -420 357 -592 336 -562 374 -558
29 3 51 35 418 623 431 690 413 652 356 741 -17 27 -140 229 -273 449 -488
807 -724 1191 -755 1228 l-31 37 -724 0 -723 0 -31 -30z"/>
<path d="M6326 8688 c-13 -13 -157 -239 -319 -503 -785 -1281 -1043 -1702
-1262 -2065 -61 -102 -164 -269 -228 -372 -82 -132 -117 -197 -117 -218 l0
-30 208 0 c235 0 224 -3 256 80 61 156 152 343 178 365 57 48 112 45 162 -9
27 -29 176 -346 176 -374 0 -5 9 -21 21 -36 l20 -26 285 0 285 0 23 24 c12 14
89 136 171 273 82 136 221 365 309 508 150 245 218 357 591 970 84 138 210
345 280 460 70 116 147 242 170 280 23 39 93 153 155 255 163 265 170 279 170
328 0 37 -6 50 -34 78 l-34 34 -720 0 -721 0 -25 -22z"/>
<path d="M5053 5646 c-11 -13 -90 -190 -178 -392 -246 -574 -262 -607 -288
-627 -20 -16 -121 -29 -626 -81 -672 -70 -637 -62 -648 -144 -4 -29 -1 -49 11
-66 15 -24 186 -178 526 -476 300 -263 330 -291 336 -316 7 -29 13 1 -130
-661 -58 -270 -106 -506 -106 -525 0 -44 35 -78 87 -85 35 -4 58 7 293 150
140 84 323 196 405 247 83 51 201 124 264 161 l113 68 39 -20 c22 -11 122 -70
222 -132 100 -62 315 -193 477 -290 281 -168 298 -177 347 -177 44 0 55 4 72
26 25 31 26 66 7 149 -35 145 -223 1025 -227 1060 -2 11 1 29 5 40 4 11 181
171 392 355 212 184 405 356 430 382 40 42 44 52 44 96 0 40 -5 53 -27 74 -27
25 -39 27 -288 52 -885 90 -926 94 -948 109 -13 9 -38 50 -59 98 -160 377
-404 917 -420 932 -31 27 -102 23 -125 -7z m167 -1196 c88 -210 112 -255 139
-270 10 -5 110 -18 222 -30 265 -26 299 -33 299 -54 0 -7 -55 -59 -122 -116
-68 -58 -151 -131 -185 -164 -59 -56 -63 -62 -63 -105 0 -25 27 -156 60 -290
33 -135 57 -248 52 -253 -4 -4 -110 55 -236 132 -265 164 -261 162 -369 96
-148 -90 -204 -125 -291 -180 -116 -73 -121 -69 -89 67 67 284 93 404 93 437
0 42 -16 59 -238 250 -117 101 -141 125 -130 136 8 8 105 22 257 38 172 18
251 30 268 42 27 17 41 46 138 285 84 206 83 205 100 188 7 -8 50 -102 95
-209z"/>
<path d="M2724 3991 c-105 -30 -173 -70 -249 -145 -81 -80 -136 -170 -159
-262 -20 -79 -20 -229 0 -308 34 -134 147 -270 272 -329 83 -39 208 -48 297
-22 147 42 245 169 245 315 0 52 -4 64 -30 94 -35 39 -84 53 -135 36 -39 -13
-61 -42 -84 -113 -30 -93 -101 -115 -200 -62 -96 53 -154 183 -130 296 40 197
262 316 474 255 158 -46 272 -140 345 -286 100 -198 86 -382 -55 -730 -84
-206 -105 -288 -105 -399 0 -139 24 -207 110 -310 73 -88 173 -154 289 -193
90 -29 105 -31 236 -31 165 0 252 18 432 89 275 107 346 120 429 76 81 -42
108 -132 58 -192 -43 -50 -79 -64 -188 -70 -92 -5 -100 -7 -122 -33 -19 -23
-24 -39 -24 -87 0 -54 3 -60 35 -88 41 -36 96 -47 199 -39 151 11 273 93 338
225 31 63 33 73 33 177 0 97 -3 116 -25 160 -13 28 -46 72 -73 98 -85 83 -176
117 -315 117 -118 0 -213 -23 -407 -97 -213 -82 -329 -108 -419 -93 -78 12
-136 32 -195 67 -56 33 -87 65 -116 124 -50 98 -44 148 42 352 118 281 159
467 150 677 -9 215 -65 354 -199 496 -130 137 -229 198 -380 234 -108 26 -286
26 -374 1z"/>
<path d="M7131 3990 c-104 -28 -175 -62 -258 -126 -111 -85 -201 -199 -252
-321 -40 -93 -51 -139 -60 -249 -19 -218 24 -428 148 -722 29 -68 59 -150 67
-183 14 -54 14 -65 -1 -115 -29 -99 -125 -181 -259 -219 -46 -13 -82 -16 -155
-12 -105 6 -185 27 -371 100 -173 68 -215 78 -336 84 -173 9 -256 -18 -349
-111 -88 -88 -123 -200 -104 -331 12 -90 46 -150 123 -222 79 -74 147 -103
261 -110 103 -7 154 7 194 52 25 29 31 44 31 83 0 42 -5 53 -35 82 -35 34 -38
35 -123 36 -95 0 -135 15 -171 59 -61 79 -44 151 48 198 87 43 123 37 403 -67
222 -83 298 -99 463 -99 214 -1 350 50 480 178 118 116 162 236 152 412 -6
106 -20 157 -116 394 -130 326 -138 515 -28 711 64 115 174 203 307 248 53 18
81 21 152 18 75 -4 96 -9 161 -41 86 -42 118 -75 159 -164 42 -88 41 -161 -1
-247 -47 -96 -148 -156 -225 -135 -42 12 -60 35 -81 105 -21 73 -53 98 -120
98 -90 0 -131 -54 -123 -164 6 -77 25 -123 80 -184 103 -118 303 -150 465 -74
71 34 184 145 221 220 83 166 83 374 0 530 -63 119 -206 237 -337 280 -97 31
-307 35 -410 8z"/>
</g>
</svg>
