<?xml version="1.0" standalone="no"?>
<!DOCTYPE svg PUBLIC "-//W3C//DTD SVG 20010904//EN"
 "http://www.w3.org/TR/2001/REC-SVG-20010904/DTD/svg10.dtd">
<svg version="1.0" xmlns="http://www.w3.org/2000/svg"
 width="177.000000pt" height="235.000000pt" viewBox="0 0 177.000000 235.000000"
 preserveAspectRatio="xMidYMid meet">

<g transform="translate(0.000000,235.000000) scale(0.100000,-0.100000)"
fill="#000000" stroke="none">
<path d="M129 2269 c-14 -14 -19 -28 -15 -43 6 -24 291 -647 367 -801 49 -101
72 -115 107 -71 11 14 61 124 112 243 51 120 105 243 120 273 l28 55 -77 174
c-52 119 -83 177 -96 182 -11 4 -134 8 -272 8 -244 1 -254 0 -274 -20z"/>
<path d="M1098 2273 c-19 -21 -64 -125 -228 -523 -67 -162 -127 -301 -133
-308 -19 -23 6 -35 49 -23 95 27 292 1 424 -54 38 -16 66 -23 72 -17 17 17
398 874 398 895 0 9 -10 23 -22 31 -19 14 -63 16 -284 16 -236 0 -262 -2 -276
-17z"/>
<path d="M740 1315 c-173 -37 -332 -160 -409 -316 -67 -136 -84 -251 -56 -384
48 -231 237 -412 480 -461 113 -23 264 -15 372 20 208 67 365 239 409 446 63
298 -146 609 -462 690 -91 24 -236 25 -334 5z m250 -115 c100 -16 216 -77 283
-149 94 -102 133 -212 125 -352 -4 -65 -11 -92 -41 -153 -194 -391 -783 -357
-929 53 -26 72 -28 195 -5 273 37 124 157 250 284 298 101 38 177 46 283 30z"/>
<path d="M859 1033 c-17 -37 -39 -86 -49 -108 l-17 -40 -113 -23 c-63 -13
-117 -25 -122 -28 -21 -13 -1 -39 77 -100 67 -53 84 -71 80 -88 -16 -74 -26
-209 -17 -218 8 -8 39 7 102 46 51 31 97 56 103 56 6 0 53 -25 104 -57 55 -33
97 -52 102 -47 5 5 3 54 -5 109 -7 55 -13 108 -14 117 0 9 38 46 85 84 47 37
85 71 85 75 0 15 -25 24 -135 50 l-110 26 -32 69 c-53 112 -67 137 -81 142 -7
2 -24 -24 -43 -65z"/>
</g>
</svg>
