<?xml version="1.0" standalone="no"?>
<!DOCTYPE svg PUBLIC "-//W3C//DTD SVG 20010904//EN"
 "http://www.w3.org/TR/2001/REC-SVG-20010904/DTD/svg10.dtd">
<svg version="1.0" xmlns="http://www.w3.org/2000/svg"
 width="763.000000pt" height="727.000000pt" viewBox="0 0 763.000000 727.000000"
 preserveAspectRatio="xMidYMid meet">

<g transform="translate(0.000000,727.000000) scale(0.100000,-0.100000)"
fill="#000000" stroke="none">
<path d="M2170 7216 c-24 -14 -152 -150 -411 -441 -265 -296 -274 -311 -266
-392 10 -99 164 -376 750 -1355 190 -317 348 -586 352 -597 4 -15 -9 -32 -60
-77 -36 -32 -101 -99 -144 -149 -386 -445 -513 -1036 -347 -1611 126 -436 363
-758 744 -1009 39 -26 72 -49 72 -51 0 -2 -22 -13 -49 -24 -27 -12 -61 -35
-77 -51 l-28 -29 -33 62 c-18 34 -48 77 -65 96 -40 41 -114 86 -128 77 -14 -8
-13 -96 2 -167 7 -31 9 -60 6 -63 -8 -9 -118 48 -149 77 -22 21 -27 35 -32
109 -9 115 -39 217 -98 329 -51 98 -178 283 -228 333 l-28 29 -35 -49 c-69
-94 -109 -200 -111 -298 l-1 -54 -46 42 c-25 23 -64 62 -87 86 l-42 44 49 54
c162 183 207 442 125 730 -28 97 -93 240 -132 291 -25 33 -25 33 -52 15 -35
-23 -109 -105 -150 -166 -50 -73 -106 -202 -131 -300 -13 -48 -25 -85 -28 -82
-11 10 -122 321 -122 340 0 7 30 35 68 62 145 106 238 260 272 450 17 96 8
266 -20 361 -28 95 -66 181 -84 188 -17 6 -91 -41 -153 -99 -88 -81 -179 -226
-218 -347 -10 -30 -21 -59 -26 -64 -5 -5 -7 106 -5 248 l3 258 54 22 c186 76
331 249 391 471 41 151 25 490 -26 560 -12 16 -15 16 -57 -5 -73 -37 -172
-115 -253 -200 -88 -92 -143 -173 -175 -257 -40 -103 -40 -102 -40 -57 -1 60
-28 190 -55 270 -70 206 -229 429 -394 554 -37 27 -75 50 -84 50 -26 0 -45
-36 -70 -135 -19 -77 -22 -116 -22 -265 1 -201 15 -274 84 -418 82 -171 217
-302 393 -381 35 -16 66 -35 69 -42 5 -13 20 -97 48 -277 7 -40 10 -75 8 -77
-2 -2 -26 33 -53 78 -144 240 -422 405 -715 424 -108 7 -118 -1 -102 -82 43
-213 208 -476 383 -611 104 -80 282 -155 426 -179 47 -7 38 8 109 -195 26 -74
53 -147 60 -162 30 -59 11 -49 -67 35 -209 226 -503 332 -789 286 -93 -15 -97
-22 -65 -105 47 -120 135 -257 232 -365 79 -88 218 -177 343 -220 57 -20 89
-23 250 -25 l185 -3 65 -128 c36 -70 78 -147 94 -171 36 -53 27 -65 -16 -23
-110 108 -289 181 -441 181 -118 0 -327 -41 -370 -72 -15 -12 -16 -18 -6 -48
19 -55 98 -168 169 -244 156 -165 355 -256 563 -256 75 0 220 22 268 41 23 9
30 5 80 -43 30 -30 98 -95 152 -145 l98 -92 -87 29 c-126 43 -230 60 -364 60
-156 0 -382 -29 -396 -51 -3 -5 11 -37 32 -71 163 -281 502 -441 809 -384 50
10 152 33 228 52 82 20 148 32 160 28 12 -4 56 -23 97 -42 l75 -35 -140 -29
c-193 -38 -329 -71 -541 -129 -195 -53 -272 -82 -281 -106 -12 -32 172 -189
372 -318 50 -32 94 -61 98 -65 5 -4 -3 -50 -16 -101 -42 -157 -79 -331 -79
-377 0 -47 23 -82 53 -82 10 0 177 47 371 104 194 57 361 106 372 108 15 2 25
-14 56 -91 52 -129 53 -129 140 -108 238 57 543 214 726 374 76 67 195 215
234 291 l22 42 98 0 98 0 37 -65 c110 -198 312 -380 552 -500 138 -68 395
-157 443 -153 34 3 36 4 77 107 23 56 43 105 45 107 3 2 94 -23 204 -55 109
-33 277 -82 371 -110 95 -28 181 -51 192 -51 39 0 54 29 48 94 -4 50 -70 365
-92 442 -5 17 5 27 57 59 156 96 367 263 404 321 13 19 14 27 4 39 -28 34
-480 158 -808 221 -78 15 -139 31 -135 34 5 4 43 21 85 40 90 38 93 38 293 -9
347 -80 499 -64 720 77 89 57 221 189 268 270 20 35 37 65 37 67 0 8 -68 25
-167 41 -82 12 -146 15 -268 11 -145 -4 -171 -8 -280 -40 -66 -19 -122 -33
-125 -30 -3 2 9 16 25 30 56 48 110 99 178 171 l68 71 77 -21 c108 -29 328
-31 422 -4 151 45 291 133 397 251 65 73 165 231 161 255 -6 33 -248 90 -383
90 -135 0 -279 -53 -419 -154 -43 -31 -80 -55 -82 -53 -2 2 19 39 46 83 28 43
73 123 101 177 38 74 54 97 66 93 35 -14 312 -7 373 9 238 62 438 241 576 517
30 59 54 121 54 137 0 26 -5 32 -37 41 -62 18 -225 24 -310 11 -215 -33 -374
-118 -541 -290 l-93 -96 37 85 c20 47 58 138 84 204 l48 119 114 28 c351 89
593 323 727 702 53 152 46 163 -97 154 -214 -14 -405 -94 -547 -229 -72 -68
-104 -108 -194 -248 l-23 -35 6 65 c3 36 16 118 28 183 l22 119 70 35 c120 60
192 111 259 183 162 171 238 402 224 676 -8 154 -38 280 -79 331 -27 34 -218
-130 -327 -280 -121 -166 -221 -431 -221 -586 0 -45 -10 -33 -44 57 -41 106
-111 206 -213 302 -93 88 -242 187 -267 177 -30 -12 -51 -150 -51 -332 0 -150
3 -179 24 -250 70 -232 178 -364 371 -452 l75 -34 -2 -251 c-2 -138 -5 -253
-7 -256 -3 -2 -10 16 -16 39 -17 72 -59 169 -95 223 -57 86 -196 220 -263 255
-22 12 -24 9 -53 -55 -54 -119 -71 -204 -72 -354 -1 -160 12 -220 79 -356 52
-106 126 -193 208 -244 30 -19 56 -39 56 -45 0 -5 -25 -77 -56 -160 -31 -82
-59 -162 -61 -178 -8 -40 -23 -44 -23 -5 0 54 -73 252 -125 337 -58 96 -159
211 -185 211 -24 0 -90 -108 -130 -213 -42 -107 -70 -258 -70 -374 0 -181 54
-330 163 -449 l59 -64 -88 -85 c-49 -47 -91 -85 -94 -85 -4 0 -7 20 -9 45 -6
125 -118 373 -157 347 -38 -26 -213 -288 -264 -394 -48 -101 -67 -171 -76
-283 -6 -80 -9 -87 -39 -114 -41 -35 -121 -75 -139 -68 -12 5 -12 12 -1 50 7
24 16 74 20 110 9 84 -2 91 -74 47 -60 -37 -113 -102 -137 -168 -10 -26 -19
-49 -20 -51 -2 -2 -17 10 -33 27 -17 16 -55 40 -85 52 l-54 23 96 64 c418 279
669 649 773 1138 21 98 24 135 24 340 -1 213 -3 239 -28 348 -38 167 -68 253
-141 402 -86 175 -193 324 -338 469 -65 66 -118 123 -118 127 0 4 53 97 118
206 464 776 870 1476 940 1621 30 62 47 111 50 145 4 50 2 55 -48 121 -56 75
-384 446 -523 592 -48 51 -102 99 -121 108 -31 14 -182 16 -1618 16 -1321 -1
-1587 -3 -1608 -14z m2990 -181 c0 -2 -66 -104 -146 -225 l-146 -220 -1079 0
-1079 0 -62 98 c-35 53 -99 152 -144 219 -45 67 -79 125 -76 128 7 6 2732 7
2732 0z m-2670 -467 c146 -233 336 -538 424 -678 267 -428 648 -1044 653
-1057 4 -9 -5 -13 -26 -13 -66 0 -293 -59 -426 -111 -44 -17 -90 -32 -102 -33
-17 -1 -63 64 -265 374 -134 206 -293 449 -353 540 -60 91 -143 219 -185 285
-42 66 -150 233 -240 370 -90 138 -165 258 -168 267 -3 12 47 75 154 196 88
98 179 201 204 230 25 28 50 52 56 52 5 0 129 -190 274 -422z m2926 365 c27
-32 112 -128 188 -213 77 -85 148 -165 159 -177 l20 -22 -82 -128 c-104 -161
-405 -625 -638 -981 -98 -150 -242 -370 -320 -490 -78 -119 -148 -225 -155
-234 -12 -16 -25 -13 -172 37 -88 29 -214 63 -280 75 -67 13 -127 24 -134 26
-9 3 -5 14 12 41 30 47 400 635 440 700 150 244 621 993 765 1215 31 48 73
114 94 147 20 34 41 61 46 61 5 0 30 -26 57 -57z m443 -665 c-52 -120 -247
-453 -696 -1189 -99 -162 -210 -346 -248 -409 -38 -63 -72 -119 -76 -124 -7
-8 -99 38 -99 50 0 3 39 65 86 137 47 73 189 292 314 487 386 600 671 1037
714 1096 17 23 32 38 34 33 2 -4 -11 -41 -29 -81z m-1173 59 c2 -2 -315 -492
-519 -802 -293 -446 -369 -560 -378 -563 -9 -4 -451 659 -694 1041 -28 43 -87
133 -132 201 -45 69 -80 126 -78 128 4 4 1798 -1 1801 -5z m-2911 -87 c47 -74
261 -402 420 -645 66 -99 447 -693 582 -904 29 -47 52 -90 50 -95 -2 -6 -20
-20 -41 -31 l-38 -20 -16 24 c-38 54 -417 669 -667 1081 -198 327 -340 590
-352 652 -8 42 1 34 62 -62z m-1184 -1239 c65 -98 152 -279 179 -371 12 -41
29 -99 37 -128 9 -29 14 -55 11 -58 -3 -2 -47 70 -99 160 -51 91 -94 164 -96
162 -2 -2 72 -244 113 -365 6 -19 -63 44 -109 99 -47 56 -109 184 -132 270
-18 67 -33 335 -21 366 8 20 41 -18 117 -135z m6516 -46 c-5 -172 -28 -262
-94 -374 -38 -64 -132 -171 -151 -171 -6 0 6 42 25 93 19 50 45 124 58 162 13
39 27 79 31 89 20 51 -19 -4 -76 -106 -35 -62 -76 -137 -93 -166 -16 -29 -31
-51 -34 -49 -2 3 7 55 21 116 43 190 133 374 267 541 53 67 53 68 46 -135z
m-788 -157 c137 -126 231 -310 256 -503 l6 -50 -34 50 c-19 28 -64 101 -101
163 -38 61 -72 114 -76 117 -8 5 5 -39 74 -248 51 -154 48 -166 -21 -94 -115
119 -181 306 -177 502 2 81 5 105 15 105 7 0 33 -19 58 -42z m-4995 16 c13
-33 5 -192 -13 -281 -29 -141 -115 -284 -203 -338 l-28 -17 16 37 c26 64 124
349 120 352 -3 4 -86 -121 -120 -182 -52 -91 -86 -137 -91 -124 -8 21 19 153
48 231 35 96 81 168 165 259 74 80 95 92 106 63z m2612 -205 c234 -22 396 -69
599 -170 301 -150 538 -388 690 -694 69 -141 84 -180 120 -325 84 -338 42
-678 -125 -1015 -69 -139 -150 -252 -274 -383 -141 -147 -254 -231 -436 -322
-133 -67 -253 -109 -398 -141 -123 -26 -421 -37 -543 -20 -375 53 -691 212
-946 475 -233 240 -374 531 -424 875 -15 107 -6 389 16 491 42 192 132 399
248 569 75 110 272 304 386 380 328 217 713 317 1087 280z m-3553 -490 c126
-50 229 -119 309 -208 49 -54 150 -202 143 -209 -2 -3 -26 12 -52 31 -92 69
-296 208 -299 204 -2 -2 64 -74 147 -160 83 -86 144 -157 136 -157 -31 0 -135
43 -187 77 -67 44 -159 138 -212 216 -46 68 -118 205 -118 225 0 17 63 8 133
-19z m6937 7 c-43 -113 -130 -244 -231 -345 -63 -64 -98 -90 -163 -121 -80
-39 -116 -49 -116 -32 0 5 68 73 151 152 84 79 147 146 142 147 -15 5 -161
-85 -223 -137 -66 -56 -120 -94 -125 -88 -2 2 17 39 42 83 65 113 192 237 299
293 79 41 166 70 211 71 20 1 21 -2 13 -23z m-1043 -344 c128 -154 186 -287
181 -418 l-3 -79 -26 55 c-15 30 -45 94 -68 142 -22 48 -45 89 -50 92 -8 6 16
-112 64 -309 29 -118 29 -115 11 -115 -20 0 -104 112 -137 185 -49 109 -61
182 -56 335 6 189 12 198 84 112z m-4890 11 c4 -21 8 -99 7 -173 -1 -120 -4
-144 -28 -215 -15 -44 -43 -105 -61 -135 -35 -58 -111 -138 -120 -128 -4 3 17
95 45 204 28 109 49 204 48 212 -2 7 -32 -44 -68 -114 -36 -69 -70 -127 -75
-128 -27 -3 -11 129 26 229 10 28 40 83 65 121 45 67 131 164 146 164 4 0 11
-17 15 -37z m-921 -519 c118 -30 201 -69 282 -129 65 -49 207 -194 198 -202
-3 -3 -54 18 -113 47 -60 29 -148 73 -198 97 l-90 44 53 -51 c29 -27 115 -94
190 -147 l137 -98 -42 -3 c-82 -6 -236 60 -342 147 -74 60 -224 246 -247 305
-9 24 56 21 172 -10z m6824 17 c0 -15 -95 -154 -141 -205 -55 -63 -177 -160
-238 -190 -77 -39 -177 -67 -222 -64 l-42 3 83 60 c149 108 301 227 297 232
-5 4 -233 -107 -311 -151 -23 -13 -52 -27 -65 -31 -21 -6 -17 2 28 56 124 148
281 244 466 284 70 16 145 19 145 6z m-1275 -418 c63 -133 105 -289 105 -394
0 -55 -30 -172 -50 -192 -4 -5 -11 15 -15 45 -7 62 -33 207 -45 258 -5 24 -8
-16 -10 -125 -1 -88 -5 -169 -9 -180 -7 -18 -10 -15 -28 20 -66 130 -84 266
-54 413 23 108 57 212 71 212 4 0 20 -26 35 -57z m-4387 -18 c37 -90 55 -207
49 -305 -6 -87 -44 -229 -71 -265 -14 -18 -16 -9 -17 100 -1 66 -4 149 -8 185
l-6 65 -22 -130 c-13 -71 -24 -151 -25 -177 -1 -27 -6 -48 -10 -48 -5 0 -20
25 -34 56 -46 105 -42 226 12 391 32 95 83 195 98 190 6 -2 21 -30 34 -62z
m-699 -460 c119 -28 290 -126 380 -219 41 -42 39 -43 -25 -16 -78 34 -365 132
-370 127 -6 -6 103 -74 251 -157 l110 -62 -90 7 c-188 14 -365 105 -497 257
-41 47 -49 62 -37 69 23 14 204 10 278 -6z m6009 -3 c6 -19 -153 -170 -221
-211 -115 -68 -272 -115 -366 -109 l-46 3 111 57 c61 31 136 72 165 91 59 39
125 87 118 87 -2 0 -80 -30 -174 -65 -93 -36 -197 -74 -230 -85 l-60 -19 40
35 c124 110 230 173 355 210 62 19 95 23 189 21 84 -1 116 -5 119 -15z m-4898
-444 c32 -68 68 -160 79 -205 12 -45 24 -89 28 -99 11 -28 -20 -5 -102 76 -98
96 -112 130 -96 241 12 81 19 109 28 109 2 0 31 -55 63 -122z m3579 55 c28
-143 12 -196 -92 -295 -44 -43 -84 -78 -88 -78 -8 0 13 98 37 175 20 61 114
255 124 255 4 0 12 -26 19 -57z m-4159 -358 c156 -22 418 -97 435 -125 8 -13
-24 -13 -175 4 -69 8 -150 17 -180 21 -53 6 -54 5 -29 -9 34 -20 205 -74 283
-91 l61 -12 -40 -12 c-58 -16 -194 -14 -278 5 -116 26 -301 128 -359 199 -16
19 -15 20 10 26 48 12 165 9 272 -6z m4939 6 c24 -6 23 -9 -32 -56 -161 -140
-351 -202 -550 -181 -37 4 -67 11 -67 15 0 4 37 18 83 30 95 25 258 83 252 89
-2 2 -80 -6 -174 -18 -93 -11 -189 -20 -213 -18 l-43 3 49 23 c98 45 238 84
381 106 95 15 273 19 314 7z m-3331 -282 c107 -11 338 -56 362 -70 9 -5 -28
-9 -95 -9 -165 0 -415 -31 -415 -51 0 -10 18 -14 130 -29 131 -18 346 -59 374
-72 19 -8 26 -19 26 -40 0 -16 -6 -31 -12 -33 -7 -2 -83 -9 -168 -14 -150 -10
-322 -39 -402 -67 -33 -11 -40 -11 -44 1 -3 8 -4 85 -2 172 4 192 11 210 85
216 27 2 52 4 56 5 4 1 51 -3 105 -9z m1665 -18 c21 -20 22 -33 25 -196 5
-202 16 -187 -113 -156 -127 31 -191 40 -345 51 -179 13 -180 14 -180 51 0 25
6 33 34 44 36 15 41 16 309 60 92 16 167 32 167 36 0 5 -17 11 -37 14 -21 3
-65 11 -98 17 -33 6 -132 14 -220 17 -182 7 -179 12 31 51 242 45 390 49 427
11z m-758 -64 c4 -18 5 -91 3 -163 l-3 -129 -182 -3 -183 -2 0 165 0 165 180
0 179 0 6 -33z m-1295 -102 c0 -9 -49 -30 -147 -61 -188 -59 -353 -123 -353
-135 0 -12 92 -6 287 17 67 8 142 14 167 14 l46 0 0 -79 c0 -95 23 -81 -250
-147 -182 -44 -243 -64 -193 -64 11 0 125 11 252 25 177 20 241 23 269 15 46
-12 201 -13 307 0 44 5 107 12 140 15 l60 7 -85 -47 c-185 -102 -362 -166
-805 -290 -148 -42 -306 -87 -349 -101 -43 -13 -81 -22 -84 -20 -2 3 19 96 48
208 61 238 78 197 -132 316 -146 83 -185 109 -177 116 6 6 222 68 469 135 406
109 530 127 530 76z m2460 -5 c245 -57 737 -193 753 -209 9 -9 -197 -139 -295
-187 -48 -23 -58 -32 -58 -54 0 -14 20 -104 45 -200 25 -96 45 -179 45 -184 0
-4 -8 -6 -17 -3 -10 3 -133 36 -273 75 -564 155 -757 222 -948 331 -72 41 -62
50 35 31 96 -18 301 -24 378 -11 71 13 110 10 417 -25 217 -24 202 -16 -121
66 -106 27 -194 50 -195 52 -6 7 10 147 17 154 6 7 106 0 447 -32 50 -4 53 -3
36 10 -10 8 -116 47 -234 86 -255 85 -262 88 -262 112 0 27 74 24 230 -12z
m-1631 -380 c-62 -110 -217 -241 -347 -293 -69 -29 -202 -61 -227 -55 -9 1 48
36 127 75 157 80 295 177 366 260 36 41 52 53 75 53 l28 0 -22 -40z m687 -50
c52 -49 121 -107 153 -129 64 -44 225 -129 280 -148 56 -20 30 -24 -56 -9
-190 33 -372 147 -474 297 -45 66 -48 79 -18 79 13 0 57 -34 115 -90z"/>
<path d="M3662 4478 c-483 -30 -955 -327 -1176 -739 -247 -459 -203 -1079 103
-1486 212 -282 516 -479 865 -561 102 -24 129 -26 326 -26 185 0 229 3 317 22
248 54 462 160 665 329 239 199 397 472 470 810 28 132 30 348 4 488 -98 539
-513 980 -1053 1120 -160 42 -324 55 -521 43z m338 -149 c120 -16 336 -89 445
-151 464 -264 717 -746 651 -1243 -50 -379 -245 -696 -558 -905 -347 -232
-775 -291 -1169 -160 -215 71 -360 160 -520 320 -241 240 -361 511 -376 846
-15 342 99 647 334 895 93 97 177 163 298 233 166 95 425 171 600 175 44 1 82
4 85 7 5 6 73 0 210 -17z"/>
<path d="M3719 3944 c-63 -68 -252 -201 -360 -255 l-59 -30 0 -95 c0 -71 3
-96 14 -100 8 -3 73 24 145 60 72 36 133 66 136 66 3 0 5 -243 5 -541 l0 -541
-33 -33 c-29 -29 -41 -34 -102 -40 -39 -3 -79 -7 -90 -8 -18 -2 -20 -9 -20
-87 l0 -85 280 -3 c154 -1 367 0 473 4 l193 6 -3 82 -3 81 -70 7 c-85 9 -109
19 -132 55 -17 25 -18 75 -23 753 l-5 725 -161 3 -160 2 -25 -26z"/>
<path d="M992 7078 c-5 -7 -20 -50 -32 -96 -25 -92 -61 -154 -107 -182 -17
-10 -67 -28 -111 -40 -116 -31 -121 -69 -14 -90 84 -17 133 -42 175 -89 42
-47 49 -62 78 -170 11 -42 25 -80 30 -86 17 -17 37 19 59 110 12 50 28 102 36
116 22 44 81 88 142 104 103 29 107 31 110 53 4 25 -17 38 -85 52 -110 24
-178 92 -208 206 -31 123 -45 145 -73 112z"/>
<path d="M6654 6508 c-6 -7 -20 -49 -33 -93 -37 -133 -80 -176 -206 -209 -99
-26 -109 -67 -21 -86 88 -18 163 -66 192 -122 8 -15 25 -69 39 -119 13 -51 29
-97 35 -103 17 -17 37 17 55 96 33 148 78 197 217 239 116 36 114 67 -5 94
-105 24 -154 56 -183 119 -12 28 -31 82 -41 120 -18 70 -32 88 -49 64z"/>
<path d="M1091 5878 c-5 -13 -12 -39 -16 -58 -13 -60 -55 -139 -88 -164 -18
-13 -61 -34 -97 -46 -80 -26 -92 -37 -54 -45 173 -39 221 -84 249 -235 16 -89
28 -92 51 -12 51 176 77 203 232 242 63 16 53 39 -26 61 -125 35 -184 101
-208 235 -9 50 -29 60 -43 22z"/>
<path d="M1856 4509 c-20 -74 -63 -122 -124 -138 -58 -16 -59 -27 -5 -41 64
-16 116 -71 133 -139 7 -28 16 -51 20 -51 5 0 14 25 20 56 14 67 55 118 108
134 20 6 44 14 52 17 9 3 -9 16 -47 33 -70 32 -95 63 -113 142 -7 26 -15 48
-19 48 -4 0 -15 -28 -25 -61z"/>
<path d="M5686 4511 c-22 -79 -46 -106 -116 -132 -33 -12 -60 -25 -60 -29 0
-5 18 -11 40 -15 61 -10 102 -43 123 -100 11 -28 25 -63 32 -80 l12 -30 12 57
c17 79 59 134 113 149 24 6 50 13 58 16 9 2 -15 18 -55 37 -60 28 -73 39 -89
73 -10 23 -21 56 -25 74 -10 52 -27 45 -45 -20z"/>
</g>
</svg>
