<?xml version="1.0" standalone="no"?>
<!DOCTYPE svg PUBLIC "-//W3C//DTD SVG 20010904//EN"
 "http://www.w3.org/TR/2001/REC-SVG-20010904/DTD/svg10.dtd">
<svg version="1.0" xmlns="http://www.w3.org/2000/svg"
 width="762.000000pt" height="724.000000pt" viewBox="0 0 762.000000 724.000000"
 preserveAspectRatio="xMidYMid meet">

<g transform="translate(0.000000,724.000000) scale(0.100000,-0.100000)"
fill="#000000" stroke="none">
<path d="M2165 7181 c-17 -10 -74 -67 -126 -127 -53 -60 -147 -167 -210 -239
-328 -373 -339 -388 -339 -462 0 -46 8 -69 58 -166 119 -228 651 -1140 937
-1607 127 -206 127 -171 -2 -297 -130 -127 -213 -230 -289 -359 -246 -418
-302 -940 -150 -1404 58 -178 122 -315 209 -445 174 -261 448 -478 766 -606
l84 -34 -169 -6 -169 -6 -24 31 c-60 76 -223 208 -238 192 -12 -12 18 -181 41
-233 l25 -54 -22 7 c-34 10 -194 93 -222 116 -22 17 -25 27 -25 79 0 97 -27
206 -75 304 -40 84 -186 305 -253 385 l-29 35 -46 -71 c-68 -106 -97 -191 -98
-290 l-1 -56 -90 91 -89 92 55 60 c61 68 116 171 143 269 27 97 24 288 -6 400
-45 168 -143 370 -181 370 -22 0 -122 -105 -171 -180 -68 -103 -97 -175 -139
-339 -6 -23 -14 -40 -17 -37 -19 19 -123 310 -123 345 0 9 24 31 54 49 118 70
228 229 273 392 27 99 25 319 -5 422 -30 101 -68 187 -87 194 -23 9 -139 -80
-202 -155 -78 -93 -118 -161 -156 -269 -18 -50 -36 -94 -40 -98 -4 -4 -6 111
-5 256 1 171 6 263 13 265 200 54 355 223 431 470 25 82 28 105 28 250 1 163
-17 288 -48 330 -12 17 -16 16 -62 -10 -206 -118 -380 -315 -440 -495 l-18
-55 -11 90 c-15 110 -26 154 -70 270 -81 210 -268 451 -420 540 -47 27 -65 14
-92 -70 -69 -209 -53 -512 36 -710 73 -160 206 -299 372 -386 118 -62 104 -35
139 -261 23 -153 22 -138 11 -138 -5 0 -28 33 -52 72 -135 228 -412 389 -711
414 -122 11 -130 -7 -74 -172 45 -135 92 -224 177 -337 129 -173 312 -290 538
-346 l114 -27 17 -50 c10 -27 41 -114 70 -192 28 -79 50 -145 48 -147 -2 -2
-36 32 -76 75 -199 218 -473 323 -754 291 -55 -6 -105 -14 -110 -17 -30 -19
46 -202 132 -320 143 -192 268 -290 445 -349 71 -24 99 -28 262 -32 l183 -6
46 -96 c25 -53 65 -130 90 -172 24 -42 44 -79 44 -83 0 -4 -28 17 -61 48 -68
61 -192 127 -284 151 -82 21 -204 19 -331 -6 -144 -27 -184 -44 -184 -76 0
-49 115 -218 206 -303 158 -148 377 -231 569 -217 68 5 131 17 240 43 15 4 30
-7 59 -46 21 -28 79 -87 128 -132 48 -45 87 -83 85 -85 -3 -2 -55 11 -118 29
-110 32 -120 33 -299 33 -178 0 -360 -21 -383 -44 -15 -15 74 -150 152 -228
171 -171 394 -256 621 -237 78 6 279 45 364 70 72 20 95 18 176 -20 l73 -34
-69 -15 c-38 -9 -87 -19 -109 -22 -90 -16 -747 -156 -782 -168 -62 -20 -56
-44 31 -123 41 -37 132 -107 203 -155 70 -48 141 -98 156 -111 l28 -23 -60
-236 c-34 -129 -61 -253 -61 -275 0 -46 31 -84 68 -84 11 0 164 43 338 96 351
105 328 104 358 24 9 -25 26 -63 39 -85 20 -35 28 -40 62 -43 24 -2 89 11 161
32 206 59 388 138 509 219 74 51 204 181 239 242 49 82 81 199 70 254 -8 37
-119 169 -148 176 -22 6 -247 -22 -431 -54 -60 -11 -113 -16 -117 -13 -12 12
-30 241 -24 295 8 60 13 70 43 86 38 20 257 32 383 21 202 -17 251 -23 255
-31 6 -8 -47 -15 -190 -24 -128 -8 -266 -32 -322 -54 l-48 -20 97 0 c108 -1
175 -12 261 -43 57 -20 60 -21 135 -4 42 9 112 22 155 29 l78 12 43 105 c23
58 55 128 69 157 l27 51 -68 7 c-373 35 -709 178 -983 418 -254 222 -438 574
-484 924 -62 476 93 938 429 1276 352 354 854 525 1357 463 202 -25 350 -70
522 -158 231 -119 408 -268 567 -480 224 -298 334 -670 300 -1017 -36 -374
-197 -704 -480 -981 -218 -214 -501 -356 -833 -419 -56 -10 -128 -22 -159 -26
-32 -3 -58 -9 -57 -13 0 -4 30 -74 67 -157 l68 -150 74 -13 c41 -6 112 -19
156 -27 72 -13 86 -13 117 0 74 31 220 57 287 51 l65 -5 -40 19 c-54 25 -212
50 -360 56 -165 8 -185 16 -84 34 116 20 317 30 426 20 132 -12 191 -32 199
-67 7 -26 -2 -237 -13 -306 -5 -35 -8 -38 -32 -32 -14 3 -113 19 -219 35 -183
29 -302 37 -336 24 -8 -3 -41 -38 -72 -76 l-57 -71 12 -76 c25 -145 63 -213
188 -332 146 -139 304 -228 557 -311 253 -84 274 -80 328 58 18 46 38 86 44
88 6 2 152 -38 324 -90 172 -52 323 -94 337 -94 24 0 73 40 73 60 0 24 -45
216 -86 369 -25 91 -41 167 -37 171 4 4 73 51 153 106 156 107 304 241 298
270 -4 23 -69 42 -313 94 -206 43 -586 119 -650 129 l-40 7 74 38 c87 44 106
45 286 2 182 -43 334 -59 431 -46 96 12 133 24 229 73 90 45 179 112 248 187
64 68 131 175 124 194 -11 28 -188 51 -392 51 -195 -1 -252 -9 -393 -59 -23
-8 -42 -14 -42 -13 0 1 61 64 135 141 l135 139 58 -16 c315 -87 610 -6 829
226 55 58 140 182 163 237 12 29 12 34 -5 46 -43 32 -250 74 -363 74 -150 0
-313 -63 -439 -169 -40 -34 -73 -58 -73 -55 0 4 28 57 63 118 34 60 78 142 97
180 l35 70 150 -3 c225 -4 346 28 493 127 78 53 182 160 238 243 72 108 144
255 144 294 0 31 -3 35 -37 44 -114 31 -316 21 -453 -21 -171 -53 -338 -171
-453 -322 -16 -21 -31 -36 -33 -33 -2 2 21 64 52 138 31 74 68 166 81 205 l25
70 61 13 c92 19 215 60 282 94 226 113 400 325 504 613 56 154 46 170 -99 160
-301 -21 -549 -164 -695 -401 -58 -94 -60 -97 -63 -65 -4 35 8 114 35 243 l16
78 71 36 c152 76 233 141 321 253 76 99 124 215 151 373 37 209 -17 577 -84
577 -54 0 -230 -164 -321 -300 -110 -164 -191 -376 -210 -548 -6 -49 -10 -62
-16 -47 -62 153 -115 241 -202 336 -92 98 -276 228 -308 216 -38 -15 -68 -324
-46 -477 37 -249 170 -452 354 -539 45 -21 89 -41 97 -44 13 -4 15 -41 14
-256 -1 -138 -4 -254 -7 -257 -3 -3 -11 14 -17 37 -30 121 -63 184 -154 298
-58 71 -188 181 -215 181 -33 0 -83 -138 -106 -290 -19 -125 -19 -166 5 -280
36 -179 150 -362 271 -436 49 -30 60 -42 56 -58 -3 -12 -33 -99 -68 -195 l-63
-174 -14 68 c-29 147 -114 316 -218 436 -75 87 -82 89 -115 49 -99 -119 -172
-356 -171 -561 0 -102 4 -126 32 -210 36 -107 73 -171 144 -247 l50 -53 -84
-84 c-47 -47 -87 -85 -91 -85 -3 0 -13 35 -21 78 -19 96 -67 211 -115 276
l-36 50 -24 -30 c-48 -58 -205 -299 -239 -367 -44 -87 -74 -201 -74 -282 0
-118 2 -115 -133 -189 -66 -36 -122 -64 -124 -62 -3 2 5 35 17 73 12 37 24
106 27 152 l6 83 -43 -23 c-42 -24 -152 -125 -200 -185 l-25 -32 -175 7 c-96
4 -167 8 -157 9 47 5 243 99 372 180 346 216 554 484 686 883 55 168 78 295
86 476 7 174 -4 274 -48 455 -79 322 -237 600 -480 840 -60 59 -109 110 -109
113 0 3 19 36 41 73 132 214 642 1084 751 1281 17 30 74 129 126 220 139 242
192 352 192 394 0 67 -14 89 -180 278 -41 47 -118 134 -170 194 -201 231 -310
343 -351 359 -35 14 -197 16 -1612 16 -1512 0 -1573 -1 -1602 -19z m2967 -179
c13 -6 -10 -46 -128 -224 l-144 -218 -1079 0 c-881 0 -1081 2 -1089 13 -7 7
-68 101 -138 208 -70 107 -131 197 -137 200 -42 27 38 29 1351 28 741 0 1354
-3 1364 -7z m-2885 -89 c96 -150 263 -416 381 -608 74 -121 201 -326 282 -455
81 -129 211 -338 290 -465 79 -126 182 -293 230 -370 48 -77 97 -157 109 -177
l22 -37 -38 -6 c-126 -22 -326 -83 -468 -142 -32 -14 -61 -21 -62 -17 -2 5
-90 140 -196 299 -544 822 -888 1351 -990 1522 -9 14 383 503 403 503 4 0 20
-21 37 -47z m3285 -151 c95 -108 188 -216 206 -239 l32 -41 -77 -121 c-43 -67
-146 -226 -229 -354 -84 -127 -178 -272 -209 -322 -118 -183 -669 -1021 -682
-1036 -13 -15 -21 -14 -96 18 -109 46 -289 100 -395 118 -47 8 -87 16 -88 18
-2 2 87 147 197 322 211 336 216 343 510 818 101 164 244 393 318 510 73 117
172 273 219 347 97 153 101 160 113 160 4 0 86 -89 181 -198z m343 -464 c-33
-109 -303 -577 -674 -1168 -74 -118 -157 -251 -184 -295 -77 -122 -198 -308
-215 -328 -16 -18 -19 -16 -91 39 -2 2 30 54 71 116 40 62 109 167 152 233 43
66 154 237 247 380 93 143 187 287 208 320 125 193 436 665 457 693 29 38 38
41 29 10z m-1202 5 c5 -10 -307 -497 -751 -1170 l-146 -222 -20 28 c-12 16
-63 93 -114 172 -51 79 -133 205 -182 279 -49 74 -175 270 -281 435 -106 165
-219 340 -251 388 -32 48 -58 90 -58 92 0 8 1799 5 1803 -2z m-2763 -313 c111
-168 240 -363 287 -435 176 -270 609 -921 636 -956 15 -20 27 -38 27 -41 0 -4
-21 -18 -46 -33 -55 -32 -31 -56 -195 200 -68 105 -141 219 -165 256 -218 338
-516 828 -626 1029 -67 123 -138 270 -138 287 0 21 45 -42 220 -307z m-1340
-1001 c119 -180 204 -385 225 -539 l7 -55 -42 80 c-24 44 -53 96 -65 115 -12
19 -37 63 -55 98 -18 34 -35 61 -37 58 -4 -3 77 -246 107 -321 25 -63 21 -68
-23 -29 -161 144 -247 387 -230 647 l6 78 25 -23 c14 -13 50 -62 82 -109z
m6515 -223 c-27 -134 -102 -271 -199 -365 -53 -52 -53 -48 -1 94 21 55 45 125
55 155 10 30 21 64 25 75 24 61 -87 -121 -164 -270 l-31 -60 0 36 c0 54 43
212 86 314 34 81 156 277 216 347 l23 27 3 -137 c2 -96 -2 -161 -13 -216z
m-5766 -58 c9 -207 -74 -433 -193 -527 -51 -41 -60 -39 -40 7 9 20 34 89 56
152 22 63 49 138 59 165 l19 50 -24 -29 c-29 -35 -169 -268 -189 -316 l-15
-35 -1 42 c-2 104 44 260 110 369 49 80 189 228 203 214 6 -6 13 -47 15 -92z
m5007 44 c127 -122 208 -278 234 -447 9 -61 9 -80 -1 -89 -9 -8 -10 -8 -5 1 4
7 -12 41 -36 77 -24 35 -67 103 -97 151 -29 47 -55 84 -58 82 -2 -3 21 -80 52
-171 31 -92 55 -175 52 -184 -3 -13 -18 -3 -64 43 -121 123 -176 305 -165 553
1 27 7 42 15 42 7 0 40 -26 73 -58z m-5980 -653 c133 -41 260 -121 339 -213
61 -72 157 -220 145 -224 -5 -2 -37 20 -71 48 -61 51 -256 186 -284 197 -9 3
54 -66 140 -153 85 -88 150 -161 144 -163 -15 -5 -118 34 -176 66 -65 37 -168
142 -232 237 -53 77 -111 190 -111 214 0 17 28 15 106 -9z m6959 -16 c-78
-186 -243 -382 -378 -447 -83 -41 -127 -53 -127 -37 0 6 30 39 67 74 153 141
234 222 225 225 -25 8 -183 -100 -345 -237 -16 -14 -17 -13 -11 5 39 110 197
301 299 359 68 40 213 94 253 95 l32 0 -15 -37z m-5915 -468 c0 -134 -42 -292
-105 -390 -36 -55 -101 -122 -111 -113 -3 3 4 36 15 73 24 76 66 251 76 310
l6 40 -31 -55 c-17 -30 -50 -91 -73 -134 -37 -72 -42 -77 -51 -57 -13 30 7
157 37 231 31 76 105 186 164 244 l48 46 12 -62 c7 -35 12 -94 13 -133z m4867
153 c74 -81 137 -188 174 -297 21 -59 26 -195 9 -221 -8 -13 -10 -12 -10 3 0
37 -130 293 -137 270 -5 -13 39 -205 73 -322 13 -47 21 -87 18 -90 -11 -11
-99 96 -131 161 -63 123 -91 304 -70 453 14 103 17 104 74 43z m-5805 -522
c118 -31 174 -55 258 -111 64 -43 247 -221 237 -231 -3 -3 -63 24 -134 60
-223 113 -272 136 -267 123 8 -17 97 -88 242 -192 68 -48 120 -91 115 -96 -11
-11 -125 14 -200 44 -73 30 -131 68 -208 139 -84 76 -215 246 -215 278 0 17
74 11 172 -14z m6828 14 c0 -23 -107 -167 -174 -235 -126 -129 -310 -225 -427
-225 -39 0 -52 13 -25 23 38 15 370 266 362 274 -3 3 -89 -38 -192 -91 -103
-53 -191 -96 -196 -96 -16 0 90 122 147 170 105 88 221 144 360 175 74 16 145
18 145 5z m-1267 -432 c91 -187 121 -392 75 -515 -26 -70 -26 -70 -63 130 -16
81 -33 147 -38 147 -6 0 -7 -66 -3 -187 7 -177 6 -187 -9 -165 -29 39 -66 143
-80 222 -10 56 -11 96 -4 160 14 123 58 280 79 280 4 0 23 -33 43 -72z m-4400
20 c57 -150 68 -330 28 -472 -21 -77 -56 -156 -67 -156 -4 0 -3 32 0 72 4 39
4 126 0 192 l-8 121 -13 -65 c-23 -116 -32 -174 -35 -232 -2 -32 -7 -58 -11
-58 -4 0 -20 26 -34 57 -50 108 -41 247 28 433 28 76 70 150 84 150 7 0 20
-19 28 -42z m-679 -488 c111 -28 242 -99 326 -177 39 -36 69 -68 66 -70 -2 -3
-33 7 -68 22 -99 41 -341 126 -350 123 -13 -5 130 -96 247 -159 114 -61 109
-68 -33 -49 -155 20 -290 95 -424 233 -92 96 -93 95 58 96 69 1 125 -5 178
-19z m5990 14 c22 -9 -26 -68 -121 -149 -83 -71 -161 -115 -266 -151 -81 -28
-237 -45 -237 -25 0 6 6 11 13 11 36 0 376 200 377 221 0 4 -35 -8 -77 -27
-43 -19 -83 -34 -89 -34 -6 0 -57 -20 -113 -45 -56 -24 -119 -47 -139 -51
l-37 -7 54 49 c109 98 178 140 306 183 79 27 104 31 202 31 61 0 118 -3 127
-6z m-4897 -446 c43 -86 86 -201 119 -317 l6 -24 -28 21 c-16 11 -66 57 -111
102 -93 91 -92 89 -73 225 12 83 19 107 28 101 4 -2 31 -51 59 -108z m3589
-50 c6 -73 5 -80 -19 -115 -15 -21 -61 -72 -103 -113 l-76 -75 7 39 c15 86 59
217 108 320 l52 109 12 -43 c7 -24 16 -79 19 -122z m-4071 -273 c115 -20 265
-67 335 -106 l55 -30 -60 5 c-71 5 -374 44 -393 51 -7 3 -11 1 -8 -4 8 -12
157 -66 255 -92 45 -12 92 -19 115 -16 54 8 31 -9 -32 -22 -137 -29 -304 -5
-437 61 -81 41 -225 141 -225 158 0 5 10 11 23 14 41 9 282 -3 372 -19z m4853
16 c18 -11 -124 -125 -210 -168 -82 -41 -210 -73 -291 -73 -81 0 -157 10 -157
21 0 5 19 13 43 18 23 6 85 25 137 43 52 17 110 37 128 42 39 13 43 31 5 22
-60 -13 -360 -56 -393 -56 l-35 0 55 31 c77 43 212 85 333 104 56 9 109 18
117 19 34 8 256 5 268 -3z m-992 -525 c186 -47 505 -119 527 -120 9 0 17 -3
17 -6 0 -3 -72 -50 -160 -105 -116 -71 -160 -104 -160 -118 0 -26 86 -350 110
-412 6 -15 8 -30 5 -34 -9 -15 -651 151 -838 215 -197 69 -357 149 -357 180 0
8 10 14 23 14 12 0 101 5 197 10 196 12 410 14 503 5 85 -7 56 4 -157 61 -199
53 -186 41 -164 150 6 32 15 62 20 65 10 6 96 -3 297 -32 78 -11 145 -18 148
-16 2 3 -29 17 -69 32 -40 15 -134 51 -208 80 -74 28 -143 55 -152 58 -18 6
-23 32 -12 60 5 15 100 -4 430 -87z m-2814 60 c3 -31 2 -34 -39 -44 -83 -23
-403 -154 -403 -166 0 -2 19 1 43 5 23 5 120 21 216 35 131 19 176 23 181 14
8 -13 24 -170 18 -174 -2 -1 -79 -22 -173 -46 -93 -23 -175 -45 -182 -49 -7
-3 69 -5 168 -2 192 4 568 -15 582 -28 19 -19 -143 -106 -309 -165 -105 -38
-250 -80 -524 -152 -135 -35 -269 -71 -297 -78 -46 -13 -53 -13 -53 0 0 14 33
143 71 279 33 117 38 162 20 179 -18 16 -177 119 -259 167 -30 17 -50 35 -45
39 4 4 35 12 68 19 64 13 777 176 835 190 67 17 77 14 82 -23z m678 -387 c9
-17 6 -28 -19 -68 -87 -135 -309 -293 -508 -362 -84 -28 -96 -23 -28 14 151
81 331 231 423 352 26 33 53 65 62 72 23 19 58 15 70 -8z m1164 -73 c110 -137
246 -252 391 -331 128 -71 12 -49 -135 25 -146 74 -293 196 -366 305 -47 70
-45 95 7 95 23 0 41 -16 103 -94z"/>
<path d="M983 7038 c-6 -13 -23 -63 -38 -113 -38 -122 -68 -153 -190 -189 -93
-28 -127 -49 -110 -65 6 -5 43 -18 83 -29 149 -42 202 -96 242 -245 12 -45 26
-86 31 -91 15 -17 36 13 49 71 36 166 78 218 205 259 120 38 113 62 -30 105
-101 29 -153 92 -181 217 -24 103 -40 125 -61 80z"/>
<path d="M6572 6133 c-5 -21 -14 -59 -20 -84 -22 -93 -83 -159 -174 -188 -67
-22 -66 -36 8 -65 118 -48 147 -82 183 -216 9 -34 20 -62 25 -63 5 -1 19 30
31 70 43 136 85 183 194 219 28 9 51 19 51 23 0 4 -24 15 -54 24 -124 39 -170
103 -210 290 -9 38 -24 34 -34 -10z"/>
<path d="M3665 4463 c-133 -10 -319 -52 -434 -97 -86 -34 -231 -113 -316 -171
-154 -107 -343 -322 -443 -505 -110 -202 -170 -501 -151 -751 27 -358 145
-630 380 -873 223 -232 506 -374 846 -425 122 -18 385 -14 518 9 566 97 995
491 1134 1045 65 258 58 506 -20 755 -32 103 -131 297 -200 395 -120 168 -309
336 -489 435 -247 136 -558 205 -825 183z m415 -166 c401 -108 706 -351 884
-705 112 -223 151 -488 111 -757 -37 -250 -162 -500 -340 -678 -281 -282 -674
-425 -1065 -387 -147 14 -226 29 -335 66 -319 107 -585 336 -734 630 -86 172
-141 397 -141 580 0 102 22 246 55 359 117 401 468 748 880 870 143 43 241 54
425 51 138 -3 180 -8 260 -29z"/>
<path d="M3580 3946 c-266 -56 -444 -244 -427 -452 6 -82 41 -134 117 -172
111 -55 272 -27 327 57 25 38 30 97 11 124 -7 9 -42 36 -77 59 -36 24 -68 52
-72 64 -23 65 79 117 231 118 87 1 100 -2 147 -28 99 -55 145 -156 123 -269
-33 -172 -143 -303 -605 -723 l-220 -200 0 -100 c0 -54 3 -107 7 -116 7 -17
46 -18 612 -18 l605 0 11 38 c5 20 24 128 40 240 22 149 27 208 20 223 -9 16
-22 19 -89 19 -51 0 -82 -4 -88 -12 -6 -7 -20 -43 -32 -79 -35 -107 -9 -99
-311 -99 -146 0 -275 0 -288 0 -23 0 -23 0 5 24 15 13 71 49 123 81 477 288
638 443 672 649 41 250 -126 484 -402 562 -77 22 -353 28 -440 10z"/>
<path d="M5644 4443 c-25 -116 -68 -163 -169 -187 -28 -7 -28 -8 30 -31 78
-32 104 -60 131 -142 12 -37 24 -61 27 -53 3 8 11 37 18 64 16 62 72 122 124
132 51 9 51 20 0 34 -57 16 -99 62 -120 132 -8 28 -15 58 -15 65 0 24 -20 13
-26 -14z"/>
<path d="M1910 4418 c-22 -91 -57 -129 -145 -158 l-40 -14 35 -10 c76 -23 107
-52 136 -128 25 -67 28 -70 37 -48 47 120 79 155 160 174 16 4 25 11 21 17 -3
6 -8 8 -11 5 -11 -10 -102 44 -123 73 -11 17 -26 53 -33 81 -6 27 -15 50 -19
50 -4 0 -12 -19 -18 -42z"/>
<path d="M3772 1347 c-6 -7 -34 -62 -62 -122 -28 -60 -56 -112 -62 -116 -5 -4
-40 -9 -77 -13 -86 -9 -140 -25 -151 -47 -12 -22 27 -77 104 -145 l57 -51 -25
-119 c-13 -65 -28 -127 -31 -136 -4 -10 -5 -18 -2 -18 10 0 86 34 173 76 l90
45 70 -34 c91 -46 174 -81 179 -76 2 2 -9 60 -25 129 -31 132 -31 132 16 175
36 33 124 135 124 143 0 15 -70 42 -137 52 -38 6 -77 12 -88 15 -15 3 -33 32
-64 101 -59 132 -75 158 -89 141z"/>
</g>
</svg>
