<?xml version="1.0" standalone="no"?>
<!DOCTYPE svg PUBLIC "-//W3C//DTD SVG 20010904//EN"
 "http://www.w3.org/TR/2001/REC-SVG-20010904/DTD/svg10.dtd">
<svg version="1.0" xmlns="http://www.w3.org/2000/svg"
 width="763.000000pt" height="736.000000pt" viewBox="0 0 763.000000 736.000000"
 preserveAspectRatio="xMidYMid meet">

<g transform="translate(0.000000,736.000000) scale(0.100000,-0.100000)"
fill="#000000" stroke="none">
<path d="M2158 7288 c-20 -18 -74 -76 -121 -128 -301 -340 -484 -551 -508
-589 -33 -51 -38 -104 -14 -170 40 -115 418 -771 976 -1696 60 -99 109 -187
108 -195 0 -8 -27 -37 -60 -65 -33 -27 -99 -94 -147 -148 -265 -299 -406 -650
-419 -1050 -10 -265 25 -464 127 -725 86 -221 213 -414 382 -578 157 -153 295
-247 493 -339 l115 -53 -152 -5 -153 -4 -60 63 c-59 62 -187 164 -206 164 -23
0 8 -185 42 -253 l20 -39 -23 7 c-34 11 -194 94 -221 115 -21 17 -25 31 -30
107 -8 106 -34 203 -82 299 -40 82 -176 289 -233 354 l-39 45 -50 -76 c-57
-88 -94 -192 -96 -273 -1 -31 -4 -56 -7 -56 -3 0 -43 38 -90 85 l-84 85 41 42
c72 75 130 182 165 308 20 74 15 281 -10 376 -44 170 -142 374 -181 374 -21 0
-122 -103 -170 -173 -49 -72 -105 -200 -131 -300 -13 -48 -25 -85 -28 -83 -18
19 -122 310 -122 343 0 7 25 28 55 48 67 45 153 137 193 207 17 29 46 96 64
148 31 91 33 101 32 240 -1 128 -4 156 -28 233 -33 110 -66 181 -86 185 -24 4
-150 -98 -213 -173 -62 -74 -137 -213 -163 -301 -8 -30 -17 -54 -19 -54 -3 0
-3 118 -2 262 l3 262 45 15 c108 39 198 106 266 198 65 87 96 150 130 260 24
80 27 103 27 253 1 167 -18 295 -48 327 -26 28 -208 -97 -326 -225 -81 -86
-141 -180 -172 -273 l-22 -64 -12 95 c-35 269 -182 545 -388 728 -86 76 -130
101 -154 86 -48 -30 -87 -250 -79 -444 6 -150 30 -248 92 -375 78 -160 199
-278 372 -364 75 -37 83 -45 92 -79 14 -50 52 -314 47 -319 -2 -3 -12 8 -22
24 -64 104 -95 146 -154 204 -79 78 -132 116 -237 168 -139 70 -409 124 -449
90 -20 -17 -14 -60 25 -172 45 -128 75 -190 141 -286 101 -148 202 -238 347
-310 77 -38 211 -82 295 -96 21 -3 39 -13 43 -23 28 -74 135 -373 135 -379 0
-4 -36 32 -81 80 -199 215 -472 321 -749 290 -55 -6 -107 -16 -115 -23 -18
-15 -4 -62 52 -174 115 -230 289 -400 485 -476 98 -38 179 -50 350 -50 l136 0
50 -103 c27 -56 67 -134 90 -172 23 -38 42 -73 42 -78 0 -5 -28 16 -61 47 -69
62 -192 127 -285 150 -85 22 -202 20 -330 -5 -143 -27 -184 -44 -184 -75 0
-35 29 -87 98 -180 163 -217 357 -328 597 -340 95 -5 147 1 320 41 15 4 31 -9
65 -51 24 -32 84 -92 132 -135 48 -44 84 -79 80 -79 -4 0 -46 11 -92 24 -119
35 -198 46 -326 46 -160 0 -389 -33 -389 -56 0 -29 78 -144 145 -212 136 -139
300 -221 484 -243 118 -14 211 -3 425 52 85 21 163 39 173 39 22 0 168 -71
168 -82 0 -4 -10 -8 -23 -8 -72 0 -819 -190 -889 -226 -16 -8 -28 -23 -28 -33
0 -40 139 -167 346 -315 l80 -58 -48 -232 c-62 -300 -63 -307 -45 -331 13 -17
20 -18 63 -9 27 6 108 30 179 53 306 100 479 151 486 144 5 -5 23 -51 41 -103
l33 -95 40 2 c48 2 282 86 414 149 187 88 343 211 457 360 31 41 59 74 61 74
2 0 14 -11 26 -25 20 -23 25 -24 62 -14 22 6 84 31 137 56 l98 46 62 -31 c184
-89 214 -96 238 -52 6 11 14 20 19 20 4 0 23 -23 41 -52 49 -76 154 -183 245
-251 45 -34 142 -90 220 -128 139 -67 390 -159 433 -159 18 0 28 11 46 52 13
29 26 65 30 80 16 69 23 78 53 68 15 -5 111 -34 213 -65 102 -31 233 -72 293
-92 130 -42 196 -48 207 -17 5 13 -12 116 -46 284 -29 145 -53 264 -51 265 36
19 328 249 370 291 94 96 90 107 -52 150 -117 36 -561 147 -698 175 -62 13
-113 26 -113 29 0 7 113 64 147 74 12 4 83 -8 166 -29 348 -85 494 -82 684 14
95 47 181 111 250 184 56 59 133 171 133 194 0 19 -34 30 -153 47 -206 31
-423 17 -599 -38 -43 -13 -78 -23 -78 -22 0 0 61 63 134 139 l134 137 56 -14
c322 -84 605 -11 821 211 51 52 129 163 164 232 23 44 23 44 3 63 -30 30 -198
68 -327 74 -99 5 -119 3 -200 -21 -108 -32 -177 -67 -270 -139 -38 -30 -71
-53 -74 -51 -2 3 22 46 53 97 30 51 75 131 98 177 l43 85 150 -3 c174 -2 269
12 367 57 191 87 338 240 460 481 49 95 58 140 35 159 -42 35 -281 39 -416 7
-193 -46 -377 -166 -510 -333 -19 -23 -36 -41 -38 -39 -1 2 18 53 43 113 25
60 59 143 75 184 17 41 34 84 38 95 6 15 31 25 107 43 193 46 322 113 450 235
101 96 169 193 240 342 64 135 94 237 78 263 -15 23 -68 26 -183 12 -114 -14
-222 -48 -318 -100 -146 -78 -225 -154 -327 -313 l-58 -92 5 70 c3 39 16 121
28 183 l21 113 82 41 c117 59 184 107 257 186 82 89 132 174 169 288 39 124
54 244 46 384 -9 172 -56 340 -95 340 -27 0 -122 -70 -194 -143 -72 -75 -169
-211 -219 -310 -41 -83 -94 -247 -107 -337 -6 -41 -13 -86 -15 -100 l-3 -25
-8 25 c-5 14 -33 75 -63 135 -50 100 -65 120 -161 215 -107 106 -255 208 -286
197 -29 -12 -50 -152 -50 -332 0 -149 3 -180 24 -250 69 -234 190 -378 380
-455 l65 -26 -1 -253 c0 -138 -3 -254 -6 -257 -3 -4 -11 14 -17 37 -22 88 -63
181 -106 240 -58 78 -156 175 -219 217 -47 31 -50 32 -66 15 -40 -42 -99 -288
-99 -413 0 -95 36 -236 83 -335 56 -114 120 -192 203 -246 53 -34 65 -47 61
-63 -4 -17 -102 -300 -124 -356 -3 -8 -11 14 -19 50 -33 170 -122 341 -242
469 -27 29 -56 51 -64 49 -42 -14 -131 -195 -170 -348 -25 -96 -30 -135 -30
-235 0 -107 3 -130 31 -215 33 -103 78 -178 148 -251 l45 -46 -83 -87 c-45
-47 -85 -86 -90 -86 -4 0 -11 21 -15 48 -16 111 -74 254 -131 320 l-28 34 -52
-69 c-192 -254 -282 -447 -283 -603 -1 -124 1 -121 -128 -192 -144 -78 -137
-76 -128 -47 24 78 46 191 46 237 l0 53 -42 -23 c-40 -22 -147 -121 -198 -184
l-25 -30 -160 6 c-88 3 -152 7 -143 8 47 5 254 117 393 211 346 236 586 606
688 1060 18 83 21 128 21 336 1 229 -1 246 -28 360 -77 329 -234 612 -475 858
-64 65 -117 119 -119 121 -1 2 28 52 64 112 82 133 538 912 656 1119 376 661
399 708 379 782 -15 54 -36 82 -266 343 -287 327 -386 431 -422 446 -27 12
-308 14 -1616 14 l-1584 0 -35 -32z m3002 -165 c0 -5 -64 -105 -143 -223
l-143 -215 -1081 -3 c-860 -2 -1083 0 -1091 11 -15 18 -282 428 -282 433 0 2
617 4 1370 4 754 0 1370 -3 1370 -7z m-2903 -90 c110 -176 825 -1323 1033
-1658 48 -77 130 -210 184 -295 l96 -155 -62 -13 c-117 -25 -272 -73 -388
-119 -63 -25 -116 -41 -117 -37 -2 5 -75 117 -162 249 -201 303 -574 870 -666
1012 -105 162 -317 493 -343 535 l-23 37 143 174 c79 96 169 207 201 246 31
39 61 71 66 71 4 0 21 -21 38 -47z m3280 -145 c93 -106 185 -214 206 -240 l38
-46 -252 -389 c-138 -213 -276 -426 -307 -473 -123 -189 -590 -900 -626 -952
l-25 -37 -65 29 c-98 43 -273 97 -395 122 l-109 21 50 81 c28 45 63 99 78 121
15 22 111 177 215 345 401 651 582 941 680 1095 56 88 148 234 205 325 113
181 119 190 131 190 4 0 84 -87 176 -192z m328 -520 c-15 -34 -47 -100 -71
-145 -85 -156 -417 -710 -604 -1008 -62 -99 -136 -216 -163 -260 -78 -126
-198 -308 -214 -327 -14 -16 -18 -15 -52 9 -20 15 -38 28 -40 30 -2 1 34 60
81 130 78 118 362 554 631 968 374 576 450 689 455 675 2 -4 -9 -37 -23 -72z
m-1182 56 c3 -3 -20 -45 -50 -93 -31 -47 -124 -192 -207 -322 -306 -477 -631
-968 -641 -965 -12 3 -204 296 -830 1268 -33 51 -61 99 -63 106 -3 9 180 12
891 12 491 0 896 -3 900 -6z m-2826 -219 c77 -115 217 -329 313 -475 349 -534
584 -887 641 -967 33 -44 59 -83 59 -86 0 -7 -91 -60 -95 -55 -15 17 -443 690
-600 943 -37 61 -85 137 -106 170 -153 242 -359 626 -359 669 0 11 2 17 4 15
2 -2 67 -98 143 -214z m-1289 -1079 c123 -180 214 -393 237 -556 6 -41 -2 -31
-79 105 -47 83 -90 158 -96 168 -26 43 -17 3 29 -129 27 -76 54 -155 61 -174
6 -19 16 -44 22 -55 19 -34 -76 57 -124 120 -105 138 -138 246 -145 475 l-5
165 26 -24 c14 -13 48 -56 74 -95z m6539 -76 c-5 -177 -27 -266 -94 -378 -42
-72 -140 -185 -153 -177 -5 3 5 40 22 83 42 108 98 275 94 279 -5 6 -106 -166
-170 -292 l-25 -50 -1 35 c0 53 35 187 76 289 38 96 109 217 197 335 41 55 53
66 56 51 2 -11 1 -90 -2 -175z m-5777 -241 c0 -157 -40 -306 -109 -407 -38
-56 -114 -132 -133 -132 -5 0 -1 17 8 38 9 20 31 82 50 137 19 55 44 124 56
153 42 106 18 76 -129 -158 -15 -25 -38 -65 -50 -90 l-22 -45 -1 38 c0 56 28
182 57 254 35 89 89 169 174 258 67 70 74 75 86 59 8 -11 13 -49 13 -105z
m5007 63 c130 -127 217 -303 237 -482 l7 -55 -49 75 c-27 41 -73 112 -102 158
-29 45 -54 81 -56 79 -2 -2 17 -66 42 -143 69 -212 73 -224 63 -224 -17 0 -82
65 -120 122 -69 102 -107 227 -110 368 -3 128 0 160 15 160 8 0 40 -26 73 -58z
m-2252 -187 c324 -58 631 -227 870 -476 214 -224 347 -483 406 -792 29 -156
23 -411 -14 -567 -50 -207 -145 -415 -265 -576 -95 -128 -278 -307 -391 -383
-280 -186 -567 -272 -913 -272 -254 0 -420 33 -633 125 -406 176 -739 541
-869 953 -55 176 -71 283 -70 478 1 199 18 308 75 479 184 551 695 963 1299
1046 96 13 400 4 505 -15z m-3744 -461 c172 -51 323 -165 436 -332 83 -121 83
-120 48 -98 -17 10 -48 33 -70 51 -35 28 -223 155 -265 180 -20 12 140 -162
225 -245 37 -35 62 -66 55 -68 -21 -7 -134 40 -201 84 -66 44 -148 129 -206
214 -34 50 -113 204 -113 220 0 14 28 12 91 -6z m6979 -9 c-39 -103 -140 -254
-233 -347 -60 -60 -95 -86 -160 -118 -81 -39 -117 -49 -117 -32 0 5 68 74 151
153 83 79 147 145 142 146 -15 5 -172 -90 -231 -141 -64 -55 -112 -89 -117
-84 -2 2 17 41 43 88 54 96 167 215 256 269 63 38 207 91 248 91 25 0 27 -2
18 -25z m-1035 -352 c112 -135 175 -278 176 -401 0 -41 -4 -79 -10 -85 -8 -8
-11 -6 -11 5 0 18 -100 221 -124 253 l-15 20 0 -20 c-1 -16 34 -159 89 -365 5
-19 6 -37 3 -40 -10 -10 -90 89 -125 157 -71 136 -93 257 -77 426 14 144 15
144 94 50z m-4895 -24 c23 -149 0 -309 -63 -439 -32 -64 -129 -181 -142 -169
-3 4 5 45 19 90 34 115 79 306 74 318 -1 6 -34 -48 -72 -119 -38 -71 -73 -127
-77 -124 -24 14 8 199 47 276 43 86 171 248 195 248 4 0 12 -37 19 -81z m-924
-474 c179 -45 313 -130 439 -275 30 -35 53 -65 51 -67 -2 -3 -60 24 -128 59
-67 35 -159 80 -203 101 l-80 38 53 -50 c29 -28 103 -86 165 -131 62 -44 123
-89 137 -100 l25 -20 -41 0 c-56 0 -198 49 -264 92 -80 51 -153 120 -224 212
-61 79 -106 147 -106 160 0 14 83 5 176 -19z m6824 17 c0 -17 -84 -138 -138
-201 -56 -64 -159 -147 -242 -194 -56 -32 -189 -69 -233 -65 -31 3 -30 4 58
67 138 99 297 223 292 228 -5 5 -184 -83 -312 -153 -47 -25 -85 -43 -85 -39 0
4 23 35 51 69 121 147 271 238 464 281 69 15 145 19 145 7z m-1272 -424 c61
-124 102 -283 102 -391 0 -60 -36 -197 -52 -197 -5 0 -8 15 -8 33 0 29 -34
229 -49 287 -3 14 -7 -55 -9 -152 -1 -105 -6 -178 -12 -178 -14 0 -45 65 -71
150 -28 93 -30 212 -5 325 21 92 54 185 65 185 5 0 22 -28 39 -62z m-4384 -25
c38 -112 53 -243 38 -335 -14 -91 -48 -201 -71 -229 -16 -20 -17 -17 -13 72 1
52 -1 135 -5 184 l-9 90 -22 -115 c-12 -63 -22 -133 -23 -155 0 -22 -4 -49 -9
-60 -7 -17 -12 -11 -35 39 -48 103 -45 225 11 393 32 95 82 193 99 193 7 0 25
-35 39 -77z m-690 -453 c118 -30 240 -98 332 -185 81 -77 79 -79 -21 -35 -79
34 -328 121 -339 117 -12 -4 123 -90 249 -158 114 -61 109 -68 -32 -49 -167
22 -303 100 -446 256 -40 44 -48 58 -36 65 27 17 211 10 293 -11z m5991 9 c11
-17 -174 -192 -246 -233 -97 -53 -201 -86 -296 -93 -46 -3 -83 -3 -83 0 0 3
49 30 108 60 101 50 191 106 252 157 25 20 25 20 -30 -1 -30 -12 -77 -29 -105
-39 -27 -9 -95 -35 -150 -58 -153 -62 -159 -62 -95 -3 111 103 229 170 361
205 64 17 275 21 284 5z m-4923 -391 c57 -110 89 -191 113 -283 13 -49 22 -91
20 -93 -5 -6 -140 118 -172 160 -37 45 -40 70 -23 178 12 71 19 100 26 100 2
0 18 -28 36 -62z m3610 -56 c17 -122 11 -138 -94 -247 -50 -53 -92 -94 -94
-92 -6 6 35 175 59 237 13 36 41 98 62 139 44 87 49 84 67 -37z m-4132 -307
c166 -22 361 -81 420 -125 l22 -17 -28 3 c-63 7 -312 34 -364 40 -69 7 -54 -4
65 -44 133 -46 216 -65 254 -58 52 8 23 -9 -37 -22 -76 -17 -201 -15 -285 4
-114 26 -300 129 -359 199 -16 19 -15 20 5 27 39 11 200 8 307 -7z m4918 6
c21 -13 -118 -123 -213 -170 -44 -22 -111 -47 -148 -55 -98 -23 -290 -18 -291
8 -1 4 40 18 89 31 113 29 251 80 238 88 -5 3 -27 2 -49 -3 -48 -11 -333 -50
-365 -50 -31 0 -17 11 56 48 76 38 212 77 335 96 105 16 328 20 348 7z m-2586
-225 c8 -7 32 -55 53 -105 l38 -91 61 -1 c81 -1 164 -13 177 -26 7 -7 -15 -31
-70 -77 -44 -36 -85 -75 -90 -85 -8 -14 -4 -56 13 -149 12 -72 20 -136 16
-142 -9 -14 -86 23 -172 81 -32 22 -63 39 -69 39 -6 0 -32 -15 -58 -34 -60
-44 -149 -88 -161 -81 -6 4 -8 16 -6 28 3 12 13 75 22 139 l17 116 -34 29
c-79 64 -129 118 -121 130 8 13 118 33 188 35 42 1 44 2 60 47 46 125 69 161
104 161 10 0 25 -6 32 -14z m-509 -100 c113 -26 111 -33 -9 -40 -216 -13 -381
-39 -407 -65 -7 -7 21 -10 89 -10 109 1 231 -25 290 -61 30 -19 134 -130 134
-144 0 -3 -30 -6 -67 -6 -91 0 -303 -27 -443 -55 -63 -14 -118 -21 -121 -17
-8 9 -29 222 -29 299 0 78 17 101 85 113 76 14 398 4 478 -14z m1413 13 c95
-17 104 -27 104 -112 0 -96 -19 -290 -29 -300 -5 -5 -57 1 -117 12 -171 32
-307 51 -420 58 -57 3 -104 10 -104 14 0 19 112 127 157 151 67 37 208 62 303
54 75 -6 75 -6 40 10 -57 26 -237 53 -355 54 -206 1 -166 25 105 64 58 8 261
5 316 -5z m-2116 -148 c0 -27 -5 -31 -52 -46 -114 -37 -384 -153 -375 -161 3
-3 30 -1 60 6 112 23 347 47 356 36 5 -6 12 -50 16 -97 l6 -85 -68 -13 c-107
-19 -317 -72 -328 -83 -10 -9 47 -7 280 12 68 6 135 6 175 0 36 -5 127 -10
203 -10 83 0 137 -4 137 -10 0 -16 -90 -77 -185 -124 -107 -53 -181 -79 -534
-190 -302 -95 -390 -121 -396 -114 -4 4 45 284 65 373 18 78 22 73 -150 184
-88 57 -162 107 -165 111 -6 9 173 60 545 154 315 80 327 83 378 85 29 1 32
-2 32 -28z m2592 -11 c167 -42 660 -177 692 -190 14 -5 26 -11 26 -13 0 -2
-72 -50 -160 -107 -157 -101 -160 -104 -160 -139 0 -30 61 -351 76 -403 7 -24
-14 -23 -85 1 -31 10 -135 42 -231 71 -346 102 -562 179 -667 237 -72 39 -143
91 -143 103 0 6 56 10 153 10 84 0 178 5 208 10 40 7 105 6 239 -5 102 -8 194
-14 205 -14 36 2 -117 45 -260 74 -77 16 -142 30 -143 31 -2 1 2 43 8 93 l13
91 36 0 c47 0 192 -17 310 -36 51 -8 95 -13 97 -11 3 2 -95 44 -216 92 -121
48 -222 90 -225 94 -2 4 -1 18 2 30 5 21 10 23 54 18 27 -3 104 -20 171 -37z
m-1911 -378 c-36 -125 -229 -306 -416 -392 -99 -45 -169 -70 -194 -70 -21 0
-13 7 34 31 168 88 352 240 442 366 52 73 77 93 115 93 24 0 26 -2 19 -28z
m1056 22 c13 -4 44 -36 70 -73 94 -131 218 -241 398 -350 150 -92 49 -74 -145
26 -144 74 -304 225 -373 352 l-28 51 28 0 c15 0 38 -3 50 -6z"/>
<path d="M3730 4583 c-518 -19 -1005 -326 -1239 -782 -233 -453 -194 -1033 98
-1442 160 -223 400 -411 659 -513 272 -108 617 -125 927 -46 379 97 730 370
906 705 197 373 221 788 68 1163 -155 381 -501 706 -893 837 -160 54 -363 84
-526 78z m362 -167 c132 -35 262 -89 361 -148 405 -246 647 -655 647 -1093 0
-344 -114 -630 -347 -875 -253 -266 -593 -409 -975 -410 -602 -1 -1130 412
-1265 992 -23 97 -27 136 -27 278 0 183 13 270 66 420 65 184 160 332 308 481
156 158 322 261 530 329 150 49 232 60 430 56 149 -4 190 -8 272 -30z"/>
<path d="M3608 4075 c-223 -42 -373 -165 -393 -321 -19 -138 69 -233 214 -234
117 0 191 54 191 140 0 49 -12 66 -72 103 -77 48 17 118 157 118 193 0 304
-139 255 -319 -13 -52 -69 -116 -123 -144 -24 -12 -80 -24 -141 -32 l-101 -11
-7 -59 c-4 -33 -4 -73 0 -90 8 -31 9 -31 88 -36 107 -8 185 -34 239 -82 137
-121 100 -374 -68 -459 -57 -30 -156 -42 -231 -28 -69 12 -146 43 -146 58 0 6
18 20 40 31 56 29 80 71 80 142 0 50 -4 60 -33 91 -78 84 -271 69 -355 -27
-44 -50 -52 -74 -52 -152 0 -124 77 -224 220 -284 196 -82 458 -91 674 -23
197 62 322 163 379 306 30 76 29 211 -3 292 -42 107 -159 199 -299 235 l-66
16 52 18 c104 35 201 114 246 201 28 55 39 148 27 218 -29 158 -146 265 -349
318 -103 27 -317 34 -423 14z"/>
<path d="M995 7157 c-7 -17 -25 -71 -39 -118 -39 -131 -67 -154 -242 -199 -47
-12 -73 -35 -57 -51 6 -6 43 -19 83 -30 146 -38 199 -92 239 -241 12 -46 26
-89 31 -97 15 -26 37 5 50 71 18 94 48 166 85 203 33 33 47 39 158 70 44 12
57 20 57 34 0 20 -21 30 -136 66 -53 16 -110 66 -137 120 -8 17 -23 67 -33
112 -19 92 -37 110 -59 60z"/>
<path d="M6523 6278 c-6 -7 -18 -51 -28 -98 -32 -156 -70 -202 -202 -245 -65
-20 -68 -40 -10 -55 74 -20 82 -22 110 -42 59 -42 88 -103 121 -250 12 -55 33
-30 62 74 35 129 75 179 163 204 71 21 85 28 89 45 2 10 -21 22 -75 38 -61 18
-85 31 -119 64 -38 39 -43 50 -69 160 -15 64 -28 117 -30 117 -1 0 -7 -6 -12
-12z"/>
<path d="M1860 4521 c-26 -88 -47 -113 -115 -141 -30 -12 -55 -26 -55 -30 0
-5 23 -16 50 -25 79 -26 105 -59 135 -172 10 -35 20 -27 34 25 19 76 54 119
119 148 l57 26 -64 32 c-54 26 -69 39 -87 76 -12 24 -25 64 -29 87 -3 24 -10
43 -15 43 -5 0 -18 -31 -30 -69z"/>
<path d="M5648 4519 c-25 -104 -33 -114 -133 -154 l-40 -17 55 -24 c77 -35 98
-58 121 -136 12 -37 24 -68 28 -68 4 0 14 25 21 55 20 84 43 113 111 143 63
29 70 43 23 53 -46 9 -89 35 -103 62 -7 14 -21 53 -30 88 -10 35 -22 64 -27
66 -5 2 -17 -29 -26 -68z"/>
</g>
</svg>
