<?xml version="1.0" standalone="no"?>
<!DOCTYPE svg PUBLIC "-//W3C//DTD SVG 20010904//EN"
 "http://www.w3.org/TR/2001/REC-SVG-20010904/DTD/svg10.dtd">
<svg version="1.0" xmlns="http://www.w3.org/2000/svg"
 width="763.000000pt" height="691.000000pt" viewBox="0 0 763.000000 691.000000"
 preserveAspectRatio="xMidYMid meet">

<g transform="translate(0.000000,691.000000) scale(0.100000,-0.100000)"
fill="#000000" stroke="none">
<path d="M2926 6870 c-3 -8 -22 -69 -42 -135 -69 -230 -101 -265 -299 -326
-71 -23 -136 -47 -144 -54 -18 -18 3 -28 132 -67 220 -66 261 -108 306 -322
22 -99 35 -136 49 -136 25 0 42 35 63 128 46 211 95 265 294 327 172 54 172
65 -2 120 -190 60 -216 90 -292 340 -32 107 -55 151 -65 125z"/>
<path d="M4257 6286 c-8 -21 -60 -375 -147 -996 -38 -278 -73 -516 -78 -530
-7 -24 -15 -17 -147 122 -77 80 -143 147 -148 147 -9 1 -3 -38 30 -219 37
-197 41 -224 36 -230 -8 -9 -296 152 -622 349 -102 61 -187 109 -189 106 -5
-4 110 -160 217 -295 120 -150 261 -342 261 -355 0 -9 -61 -11 -232 -10 -237
3 -563 -8 -628 -20 l-35 -7 59 -30 c161 -81 994 -339 1095 -338 l36 1 -30 24
c-28 23 -265 128 -462 206 -45 17 -80 35 -78 39 5 9 216 3 365 -10 58 -5 119
-6 137 -2 l31 7 -135 188 c-123 172 -153 224 -106 186 35 -28 452 -234 459
-227 8 9 -32 227 -52 284 -4 11 34 -20 83 -68 50 -49 98 -88 106 -88 22 0 29
32 72 320 53 353 95 613 100 619 9 8 11 -3 35 -164 27 -196 77 -485 83 -491
13 -14 62 25 142 112 49 55 115 126 146 158 l56 59 -22 -99 c-40 -179 -40
-174 -11 -174 16 0 32 9 42 25 24 37 186 496 180 511 -14 38 -56 5 -297 -234
l-167 -164 0 39 c0 21 -17 156 -36 298 -19 143 -56 415 -81 604 -24 190 -49
349 -54 354 -5 5 -11 2 -14 -7z"/>
<path d="M6890 6280 c-270 -49 -632 -199 -879 -364 -103 -68 -137 -105 -162
-177 -7 -20 -20 -47 -30 -60 l-18 -24 2 54 c1 33 -2 55 -9 58 -41 14 -548
-452 -649 -596 -34 -51 -55 -126 -55 -203 0 -32 -4 -58 -8 -58 -5 0 -23 34
-41 75 -18 41 -36 75 -40 75 -18 0 -174 -283 -239 -436 -67 -155 -81 -219 -89
-391 l-6 -143 -48 0 c-26 0 -51 -4 -54 -10 -8 -13 11 -48 47 -87 29 -30 30
-33 18 -70 -38 -117 -163 -307 -285 -433 l-66 -69 -45 -198 c-41 -188 -54
-296 -36 -307 8 -5 96 48 324 191 135 86 135 86 164 192 45 172 108 270 235
365 33 25 87 55 121 67 55 21 59 24 42 36 -11 8 -38 19 -61 26 -86 23 -38 41
98 38 95 -2 96 -1 130 30 l33 31 -24 18 c-26 19 -93 40 -129 40 -12 0 -21 4
-21 9 0 4 39 16 88 25 125 24 264 63 351 98 77 30 261 136 261 150 0 14 -204
58 -340 73 -117 13 -110 24 15 25 366 2 591 77 790 262 l60 56 -105 1 c-118 1
-188 9 -196 22 -3 5 7 9 21 9 68 0 257 107 361 203 62 58 144 154 144 169 0 3
-62 8 -137 11 -132 7 -297 28 -309 40 -6 6 12 10 131 28 211 31 437 106 543
178 96 66 248 238 228 258 -7 7 -184 -12 -336 -37 -158 -25 -228 -32 -210 -21
8 5 74 27 145 50 238 76 260 84 308 107 152 74 274 189 336 315 39 81 71 181
71 225 0 80 -213 116 -440 74z m-105 -209 c-112 -53 -431 -245 -550 -331 -116
-84 -197 -152 -312 -264 -46 -44 -83 -76 -83 -73 0 18 117 241 142 271 62 75
267 208 448 290 88 41 394 146 420 145 8 0 -21 -17 -65 -38z m160 -79 c-6 -5
-41 -30 -80 -57 -124 -87 -407 -297 -530 -395 -67 -53 -232 -207 -376 -350
-254 -253 -426 -446 -599 -669 -116 -150 -415 -560 -491 -672 -32 -48 -62 -90
-67 -93 -10 -6 -82 25 -82 35 0 8 183 270 320 459 46 63 99 138 118 165 146
206 310 408 524 641 216 236 470 457 743 646 148 102 583 345 520 290z m-1284
-557 c-16 -44 -36 -116 -46 -160 -22 -101 -22 -101 -111 -201 -98 -110 -236
-282 -282 -351 -35 -54 -37 -55 -40 -29 -2 16 1 80 7 143 13 139 31 185 121
298 98 123 364 394 376 383 1 -2 -10 -39 -25 -83z m-631 -837 l0 -118 -111
-162 c-62 -90 -115 -167 -119 -171 -12 -14 0 81 22 172 27 112 99 279 165 385
35 55 43 35 43 -106z m-400 -975 c0 -5 -16 -35 -35 -68 -19 -33 -48 -85 -64
-116 -29 -55 -30 -57 -11 -77 10 -11 25 -23 32 -26 9 -4 10 -8 1 -12 -35 -16
-108 -71 -166 -124 -36 -33 -67 -60 -70 -60 -3 0 18 50 45 111 35 80 74 144
136 227 48 63 93 123 101 134 14 18 31 24 31 11z"/>
<path d="M4901 6189 c-16 -60 -59 -113 -107 -131 -40 -14 -43 -24 -9 -32 55
-14 103 -74 120 -150 7 -35 16 -27 39 37 21 57 65 103 106 112 39 9 38 18 -4
33 -45 17 -92 71 -107 124 -18 63 -24 64 -38 7z"/>
<path d="M2317 5752 c-30 -136 -87 -200 -221 -245 l-60 -20 76 -24 c126 -41
172 -93 203 -232 22 -93 38 -93 60 0 35 158 78 207 209 240 25 6 46 15 46 19
0 4 -20 13 -44 20 -24 6 -66 25 -94 41 -73 41 -100 91 -136 252 -11 45 -22 31
-39 -51z"/>
<path d="M3597 5674 c-4 -4 -7 -15 -7 -24 0 -9 -12 -39 -26 -68 -26 -52 -67
-86 -122 -102 -25 -7 -25 -8 -7 -15 97 -34 129 -64 155 -148 12 -38 30 -42 30
-6 0 55 68 135 134 156 l29 9 -39 12 c-54 16 -95 62 -119 133 -11 33 -24 57
-28 53z"/>
<path d="M7147 5350 c-120 -76 -269 -256 -355 -427 -58 -115 -100 -269 -117
-426 -4 -32 -9 -56 -12 -53 -3 3 -14 29 -24 58 -24 72 -83 176 -130 229 l-38
44 -40 -43 -40 -42 45 -71 c65 -100 108 -200 133 -305 27 -119 27 -140 -2 -88
-29 50 -102 157 -119 175 -8 8 -23 27 -36 43 -29 38 -28 26 9 -75 46 -125 71
-208 67 -227 -8 -40 -152 129 -184 215 -9 27 -20 52 -24 56 -7 9 -119 -18
-133 -32 -5 -5 8 -43 34 -93 72 -140 207 -260 336 -298 l43 -13 -1 -181 c-1
-100 2 -218 6 -263 9 -102 -5 -110 -30 -15 -47 178 -185 361 -328 434 -46 23
-44 25 -85 -71 -58 -134 -84 -318 -63 -450 29 -183 161 -390 294 -461 26 -14
47 -31 47 -38 0 -21 -98 -309 -119 -350 l-19 -36 -12 58 c-27 130 -88 271
-155 362 -55 73 -137 154 -156 154 -19 0 -66 -88 -100 -188 -12 -34 -23 -61
-25 -59 -2 2 -4 131 -4 288 -2 326 -8 406 -35 425 -18 14 -49 25 -160 60 l-60
19 -10 50 c-6 28 -16 60 -23 72 -15 26 -73 46 -122 41 -32 -3 -35 -6 -34 -33
1 -16 9 -49 18 -73 9 -25 14 -59 12 -80 -3 -20 -5 -339 -5 -709 l-1 -671 -87
24 c-367 101 -849 117 -1180 39 -86 -21 -130 -36 -241 -82 -12 -5 -13 104 -11
644 2 358 7 663 11 679 5 21 28 43 85 81 104 70 195 107 354 143 73 17 135 32
137 35 11 11 -24 36 -71 50 -151 45 -349 -15 -516 -156 l-70 -59 -83 56 c-250
168 -526 236 -958 238 -199 1 -290 -8 -470 -46 -149 -32 -220 -76 -236 -146
-23 -105 -20 -100 -82 -117 -92 -26 -143 -46 -163 -66 -18 -18 -19 -41 -19
-376 0 -196 -4 -353 -8 -347 -4 5 -16 34 -26 64 -22 70 -87 193 -104 198 -26
8 -169 -171 -225 -283 -31 -63 -72 -181 -95 -275 l-8 -35 -31 80 c-36 92 -106
315 -101 320 2 1 23 12 47 25 70 35 171 144 219 236 64 124 85 229 79 389 -4
110 -9 144 -35 222 -37 109 -58 152 -78 160 -19 7 -57 -19 -138 -96 -108 -104
-181 -217 -221 -341 -10 -30 -21 -59 -25 -63 -4 -5 -7 108 -6 250 l1 260 40
12 c57 18 146 74 210 132 103 95 169 220 210 399 34 150 15 473 -30 510 -33
27 -248 -125 -350 -248 -65 -77 -116 -164 -152 -257 -14 -36 -28 -65 -31 -65
-4 0 -8 24 -9 53 -5 127 -52 288 -130 440 -78 151 -187 283 -312 378 -99 76
-109 70 -147 -77 -53 -202 -41 -449 29 -622 76 -189 253 -373 429 -444 29 -12
56 -26 59 -31 4 -5 12 -44 19 -86 6 -42 20 -120 31 -174 11 -54 19 -105 17
-114 -2 -9 -27 24 -58 77 -97 165 -248 293 -425 359 -82 31 -242 61 -325 61
-94 0 -98 -9 -59 -125 133 -396 412 -661 761 -723 l86 -15 17 -66 c9 -36 39
-122 66 -192 27 -69 49 -129 49 -134 0 -4 -42 34 -94 85 -109 108 -192 164
-314 213 -118 47 -229 67 -366 66 -148 -2 -170 -7 -174 -41 -8 -65 117 -291
228 -411 102 -111 237 -198 365 -236 84 -24 254 -44 347 -39 50 2 72 -1 82
-12 14 -14 186 -344 186 -356 0 -4 -31 23 -68 58 -88 83 -159 123 -264 150
-133 33 -339 15 -485 -43 l-52 -21 14 -35 c48 -115 226 -316 337 -382 77 -45
165 -79 246 -96 118 -25 346 -15 432 19 11 5 58 -38 158 -143 l142 -150 -80
30 c-107 39 -147 47 -286 59 -80 7 -149 7 -216 0 -97 -10 -236 -35 -246 -44
-8 -8 48 -97 106 -169 68 -84 202 -186 297 -226 211 -88 470 -79 779 28 l59
21 76 -41 c89 -48 103 -59 74 -59 -46 0 -604 -118 -760 -161 -97 -27 -183 -64
-183 -80 0 -24 150 -157 293 -259 117 -84 147 -109 144 -125 -2 -11 -30 -134
-62 -273 -56 -244 -57 -253 -40 -272 10 -11 26 -20 36 -20 64 0 508 134 694
210 54 22 105 40 114 40 9 0 28 -24 45 -56 16 -30 42 -69 58 -86 26 -28 32
-30 77 -24 115 15 324 103 457 191 82 55 227 188 275 252 23 31 26 32 61 23
50 -14 117 2 205 51 l72 39 63 -34 c35 -19 84 -41 111 -50 43 -14 51 -14 87 0
23 9 42 15 43 13 52 -80 193 -219 295 -290 93 -65 254 -141 366 -173 144 -42
161 -37 227 74 23 39 44 70 48 70 4 0 60 -20 124 -44 258 -98 624 -206 698
-206 60 0 59 19 -26 375 -18 77 -36 154 -39 171 -7 30 -3 34 106 117 235 179
328 262 328 293 0 16 -105 59 -210 85 -101 25 -574 122 -678 139 -41 7 -70 16
-65 20 4 4 46 28 93 53 l85 45 75 -30 c150 -61 259 -82 430 -82 136 -1 164 2
230 22 137 43 257 119 358 225 47 51 132 171 132 187 0 14 -74 38 -155 51 -44
7 -145 12 -225 12 -153 -1 -241 -14 -380 -59 -41 -13 -75 -22 -76 -21 -1 1 64
66 146 144 l147 142 99 -20 c202 -42 418 -13 582 78 131 72 273 221 345 361
37 72 38 70 -58 102 -283 95 -542 54 -733 -116 -50 -45 -60 -51 -52 -30 13 34
135 274 157 309 l18 28 145 3 c272 7 386 46 576 198 157 126 340 441 295 508
-16 23 -331 21 -425 -3 -215 -54 -346 -140 -505 -332 -18 -22 -29 -31 -25 -20
4 11 36 94 70 185 35 91 64 172 64 181 0 26 20 36 90 49 250 45 472 186 609
389 74 109 191 373 191 432 0 25 -51 33 -172 26 -270 -17 -549 -193 -670 -422
l-48 -90 0 57 c0 46 52 323 63 334 1 1 24 12 50 23 85 37 204 121 270 191 162
171 237 393 224 659 -8 161 -61 361 -95 361 -5 0 -29 -13 -55 -30z m-6579
-350 c33 -43 82 -122 110 -177 60 -118 151 -387 152 -452 0 -23 -10 -6 -44 71
-32 74 -153 264 -163 255 -2 -3 0 -14 6 -25 13 -25 78 -199 101 -274 l18 -57
-39 32 c-57 46 -143 163 -173 235 -42 99 -56 188 -56 349 0 168 -4 166 88 43z
m6557 -132 c-3 -53 -13 -123 -21 -155 -30 -116 -102 -245 -178 -316 -79 -74
-80 -70 -20 104 30 89 54 163 52 164 -6 6 -105 -149 -142 -224 -21 -40 -39
-71 -42 -69 -2 3 3 36 12 74 55 239 124 383 288 604 l41 55 8 -70 c4 -38 5
-114 2 -167z m-5796 -255 c3 -159 -60 -325 -160 -425 -32 -32 -60 -58 -63 -58
-7 0 44 179 75 264 16 43 28 80 26 82 -3 4 -154 -220 -176 -261 -10 -19 -10
-18 -11 7 0 58 32 187 65 256 36 77 91 153 177 248 l53 57 7 -54 c3 -30 6 -82
7 -116z m-983 -534 c165 -51 291 -133 373 -244 38 -51 111 -177 111 -191 0 -5
-17 8 -37 28 -43 41 -304 211 -280 182 4 -5 71 -74 150 -153 l142 -143 -42 5
c-122 15 -289 143 -392 302 -45 68 -121 213 -121 230 0 10 28 5 96 -16z m6979
-34 c-56 -125 -172 -286 -264 -366 -70 -61 -241 -139 -241 -111 0 6 57 70 128
143 l127 133 -60 -34 c-89 -49 -185 -114 -227 -153 -21 -19 -38 -33 -38 -31 0
3 14 33 31 67 63 126 162 237 270 302 81 50 219 101 276 104 l22 1 -24 -55z
m-4122 -234 c185 -40 401 -134 487 -213 l30 -27 0 -670 c0 -369 -2 -671 -4
-671 -3 0 -31 16 -63 35 -139 85 -365 121 -688 112 -231 -7 -436 -33 -608 -77
-67 -18 -125 -34 -129 -36 -4 -3 -8 328 -8 736 l0 740 28 11 c53 21 242 59
359 73 172 21 468 14 596 -13z m-1806 -178 c10 -188 -17 -301 -103 -439 -38
-62 -88 -113 -99 -102 -2 2 2 22 10 45 13 37 75 329 75 349 -1 16 -54 -89 -95
-185 l-40 -93 -7 43 c-9 60 9 182 36 250 28 69 83 154 150 236 l51 62 8 -27
c5 -15 11 -78 14 -139z m4953 17 c52 -77 88 -150 105 -217 16 -59 18 -159 6
-203 -7 -22 -9 -19 -25 30 -26 79 -108 247 -113 233 -6 -18 24 -204 51 -310
13 -51 20 -93 16 -93 -18 0 -93 98 -125 164 -20 39 -42 103 -50 141 -18 84
-19 270 -3 350 l11 59 45 -49 c24 -27 61 -74 82 -105z m-4280 -886 l0 -726 63
6 c111 11 438 26 590 26 l147 0 0 -59 0 -58 -332 -7 c-183 -3 -389 -7 -458 -9
l-125 -2 -3 778 -2 777 60 0 60 0 0 -726z m3583 -50 l-3 -776 -242 3 c-444 7
-1262 4 -1330 -4 -45 -6 -68 -13 -68 -22 0 -18 -85 -94 -125 -111 -19 -8 -63
-14 -97 -14 -85 0 -155 33 -199 94 -34 45 -34 45 -96 46 l-63 0 0 35 c0 32 2
34 23 26 12 -5 73 -19 136 -31 152 -30 352 -25 446 10 236 89 301 100 630 106
203 4 308 0 560 -19 171 -13 313 -22 318 -20 4 2 7 330 7 729 l0 724 53 0 52
0 -2 -776z m-5175 516 c101 -28 226 -91 302 -153 59 -48 205 -215 196 -224 -2
-2 -33 17 -69 42 -57 39 -273 132 -284 122 -2 -2 23 -21 54 -42 32 -21 91 -63
132 -94 40 -31 89 -67 107 -81 59 -44 42 -50 -76 -25 -157 33 -314 137 -435
288 -61 76 -125 174 -125 192 0 12 118 -3 198 -25z m6822 18 c0 -38 -140 -228
-224 -305 -101 -92 -260 -165 -391 -180 l-50 -6 20 23 c11 12 84 69 163 127
135 100 171 134 104 99 -17 -9 -57 -25 -89 -37 -67 -26 -134 -61 -181 -96 -73
-55 -38 -7 84 115 107 107 142 135 209 169 88 45 148 66 245 87 83 18 110 19
110 4z m-1244 -483 c81 -175 97 -388 38 -520 l-18 -40 -4 30 c-17 158 -56 365
-67 365 -3 0 -2 -55 2 -122 3 -68 2 -159 -2 -203 l-8 -80 -19 45 c-39 88 -60
225 -55 345 4 93 28 219 53 285 8 22 40 -20 80 -105z m-4419 37 c58 -176 54
-388 -9 -545 -21 -52 -29 -11 -35 164 -6 168 -7 172 -20 124 -7 -27 -18 -107
-25 -177 -6 -71 -15 -128 -19 -128 -4 0 -18 26 -30 58 -33 83 -33 239 -1 337
25 76 100 235 111 235 3 0 16 -31 28 -68z m-715 -453 c94 -19 225 -90 321
-175 91 -81 109 -106 55 -78 -46 24 -349 125 -361 121 -14 -4 74 -58 222 -137
67 -36 117 -66 111 -68 -22 -8 -213 19 -264 36 -77 26 -159 78 -230 147 -61
58 -126 139 -126 157 0 12 209 10 272 -3z m6028 5 c0 -19 -83 -114 -150 -174
-86 -75 -192 -132 -280 -149 -62 -12 -244 -21 -233 -11 5 4 33 17 63 29 126
52 349 183 285 168 -77 -20 -185 -54 -273 -89 -57 -22 -106 -38 -108 -35 -7 7
129 123 193 164 121 77 210 101 376 102 70 1 127 -2 127 -5z m-1102 -157 c22
-40 59 -96 81 -124 l40 -52 -55 -50 c-30 -27 -68 -60 -84 -71 l-30 -21 0 195
c0 108 2 196 4 196 2 0 22 -33 44 -73z m-4039 -164 c1 -79 -2 -143 -5 -143 -4
0 -40 29 -80 66 l-73 65 46 62 c25 34 57 87 72 117 l25 55 8 -40 c4 -22 7
-104 7 -182z m1064 156 l-5 -36 -161 -7 c-89 -3 -232 -9 -317 -12 l-155 -5 75
26 c41 14 128 35 194 46 118 21 355 40 367 29 4 -3 4 -21 2 -41z m439 32 c4
-3 11 -126 14 -271 6 -227 5 -263 -7 -254 -8 6 -40 32 -72 57 -33 26 -67 47
-76 47 -9 0 -47 -23 -84 -52 -37 -28 -69 -49 -72 -47 -3 4 -8 460 -5 533 0 10
291 -2 302 -13z m1578 9 c145 -15 267 -38 376 -70 l99 -29 -70 0 c-38 -1 -155
6 -260 15 -277 24 -644 15 -810 -20 -66 -13 -158 -36 -203 -51 -46 -15 -86
-24 -88 -22 -8 8 107 75 181 106 164 68 502 99 775 71z m-1409 -59 c51 -20
183 -100 176 -108 -2 -2 -28 7 -56 21 -29 13 -81 32 -116 42 -51 15 -64 23
-68 41 -5 28 -1 28 64 4z m-601 -497 c3 -49 9 -95 14 -103 16 -24 88 -7 176
43 45 25 87 46 94 46 6 0 23 -8 36 -17 49 -35 154 -83 181 -83 36 0 49 18 56
79 3 28 9 51 13 51 5 0 38 -13 74 -30 213 -95 470 -67 636 68 l45 37 535 -3
c294 -2 606 -7 694 -10 l158 -7 -203 -146 c-223 -160 -270 -192 -343 -234
l-49 -29 6 31 c5 25 40 119 95 252 8 21 -54 8 -123 -25 -70 -35 -143 -113
-185 -198 l-31 -63 -172 -7 c-95 -3 -251 -15 -347 -26 -250 -28 -232 -31 -279
38 -71 104 -118 131 -197 111 -49 -13 -94 -53 -137 -123 l-30 -48 -91 7 c-50
3 -134 13 -186 21 -52 8 -185 18 -296 21 l-200 6 -43 83 c-51 99 -116 163
-197 193 -92 35 -97 29 -54 -59 21 -42 74 -200 69 -205 -11 -10 -559 378 -559
396 0 4 37 8 83 9 191 5 733 16 742 15 6 -1 12 -42 15 -91z m-1370 -90 c123
-21 265 -61 343 -96 113 -52 92 -57 -118 -33 -72 8 -143 17 -160 20 -60 10 71
-45 157 -66 157 -37 152 -34 68 -49 -144 -25 -312 3 -442 72 -58 31 -188 140
-188 158 0 22 193 19 340 -6z m4889 17 c22 -6 20 -10 -42 -68 -125 -117 -270
-176 -437 -177 -105 -1 -190 10 -190 25 0 5 14 9 32 9 33 0 236 65 253 82 7 6
1 8 -15 4 -102 -21 -350 -44 -350 -32 0 14 149 79 233 101 201 53 437 79 516
56z m-2547 -318 c60 -133 61 -133 189 -133 110 0 119 -3 119 -45 0 -8 -36 -40
-80 -71 -44 -32 -81 -65 -81 -73 -3 -43 4 -162 12 -205 5 -27 9 -50 9 -52 0
-17 -107 29 -177 76 l-44 30 -60 -41 c-61 -41 -145 -76 -156 -65 -3 3 -1 63 6
133 l11 128 -32 28 c-18 15 -54 42 -81 59 -38 25 -46 36 -41 52 11 36 20 39
123 44 75 3 104 9 115 21 8 9 35 58 61 109 26 50 51 92 56 92 6 0 28 -39 51
-87z m-657 -98 c72 -9 138 -18 148 -21 36 -11 -34 -35 -130 -45 -152 -14 -313
-58 -217 -59 55 0 255 -37 307 -56 73 -27 137 -57 137 -64 0 -4 -51 -10 -112
-13 -71 -3 -154 -15 -223 -32 -160 -38 -297 -66 -303 -61 -2 3 -7 74 -10 159
-5 169 0 193 45 200 66 10 238 6 358 -8z m1611 -6 c14 -11 16 -35 13 -171 -3
-92 -8 -161 -15 -168 -10 -10 -115 8 -339 60 -49 11 -141 23 -202 27 -62 3
-113 9 -113 14 0 14 65 47 135 67 71 21 261 52 315 52 17 0 30 4 30 8 0 14
-141 44 -242 52 -97 8 -127 18 -114 38 3 5 52 15 108 22 57 6 110 13 118 15 8
2 77 3 152 1 97 -2 142 -7 154 -17z m-2184 -44 c0 -14 1 -30 2 -37 1 -6 -27
-17 -64 -24 -128 -27 -371 -107 -358 -119 2 -2 94 4 206 12 112 8 205 13 207
11 2 -1 6 -44 10 -95 7 -91 7 -92 -16 -97 -62 -12 -295 -69 -306 -75 -6 -3 75
-6 180 -6 291 0 597 -5 597 -10 0 -2 -34 -24 -74 -50 -140 -87 -315 -151 -780
-285 -170 -50 -311 -89 -312 -87 -1 1 18 90 43 197 24 107 45 211 46 230 2 34
-2 38 -145 145 -81 60 -146 115 -144 120 5 17 691 175 816 188 86 9 90 9 92
-18z m2673 -26 c190 -38 535 -119 586 -137 21 -8 9 -19 -134 -126 -86 -65
-157 -123 -157 -131 0 -7 14 -71 31 -141 57 -239 68 -304 53 -304 -21 0 -434
123 -641 191 -179 59 -423 170 -486 221 l-28 23 395 0 c217 0 389 3 383 7 -21
11 -199 57 -271 69 l-69 12 7 71 c11 127 2 119 125 112 58 -4 155 -12 214 -17
174 -17 159 -6 -88 66 -82 24 -167 47 -187 50 -53 10 -68 24 -61 58 l6 29 61
-7 c33 -4 151 -25 261 -46z m-1865 -327 c0 -29 -123 -159 -201 -212 -106 -73
-331 -182 -345 -167 -2 2 22 22 54 44 31 22 129 97 218 166 172 134 274 197
274 169z m795 -15 c22 -13 116 -81 210 -151 93 -70 202 -148 242 -173 40 -26
71 -48 69 -50 -5 -6 -176 57 -231 85 -137 69 -273 179 -324 263 -34 55 -27 61
34 26z"/>
<path d="M2548 3567 c-54 -23 -110 -51 -125 -63 -24 -18 -26 -23 -14 -38 20
-24 99 -20 177 9 81 31 87 31 149 0 67 -33 120 -32 207 5 87 37 137 38 225 4
62 -24 80 -26 198 -25 72 1 144 5 160 10 l30 8 -32 16 c-17 9 -65 22 -105 28
-89 13 -193 39 -270 68 -78 29 -122 27 -223 -10 l-86 -31 -68 31 c-37 17 -81
31 -97 31 -16 0 -73 -19 -126 -43z"/>
<path d="M2645 3246 c-33 -13 -96 -38 -139 -55 -97 -37 -105 -45 -75 -64 48
-30 83 -30 175 2 106 37 133 38 183 7 61 -39 97 -41 181 -12 90 32 174 34 228
7 30 -15 69 -19 201 -24 l164 -5 -24 23 c-34 33 -130 65 -193 65 -39 0 -72 8
-118 30 -82 39 -146 40 -245 4 l-72 -26 -77 36 c-89 42 -108 43 -189 12z"/>
<path d="M2539 2859 c-134 -66 -138 -74 -42 -85 35 -5 63 0 103 15 69 26 90
26 143 0 82 -41 102 -41 200 -3 104 40 126 41 230 14 82 -22 142 -17 142 11 0
8 -35 32 -78 54 -66 33 -91 40 -150 43 -63 3 -81 0 -144 -27 -40 -17 -77 -31
-84 -31 -6 0 -46 16 -89 35 -43 19 -84 35 -92 35 -9 0 -71 -27 -139 -61z"/>
<path d="M4307 4490 c-19 -54 -72 -106 -128 -126 -30 -10 -31 -13 -14 -18 75
-25 111 -52 136 -104 l26 -53 17 45 c19 50 76 106 106 106 11 0 20 5 20 10 0
6 -7 10 -15 10 -27 0 -93 77 -106 122 -18 62 -23 63 -42 8z"/>
<path d="M4635 2860 c-39 -10 -140 -47 -225 -83 -85 -36 -172 -69 -192 -72
-78 -14 -117 20 -83 72 15 22 15 27 2 40 -12 13 -18 10 -46 -24 -35 -42 -40
-80 -15 -118 43 -66 190 -51 395 40 138 62 225 87 294 83 33 -2 60 -8 62 -15
7 -21 -60 -84 -135 -125 -61 -34 -71 -43 -56 -49 28 -10 546 -16 528 -6 -38
22 -157 48 -237 54 l-88 6 56 49 c45 41 55 55 55 82 0 37 -19 58 -69 75 -50
16 -166 13 -246 -9z"/>
</g>
</svg>
